<svg xmlns="http://www.w3.org/2000/svg" viewBox="0 0 100 50"><defs><style>.cls-1{fill:none;}.cls-2{fill:#444;}</style></defs><title>top_menu_humanity_gray</title><g id="图层_2" data-name="图层 2"><g id="图层_1-2" data-name="图层 1"><rect class="cls-1" width="100" height="50"/><path class="cls-2" d="M1.71,33.63a10,10,0,0,0,1.14-.91,18.46,18.46,0,0,0,3.76-3.19c1.1-.76,1.1-1.52,2.2-2.28,1-1.44,1.6-3.42,2.74-4.79,0-.65.72-1.67.91-2.43.08-.23.46-1.94.53-2.17.72-2.05.91-4.37,1.52-6.38,0-.15.23-.46.23-.61,0-.68,0-3.31.11-3.65L15,7.11s.11-1.14.11-1.6c.3-2-1.48-2-1.48-2.39,0-.23,1.18-1,1.37-1,.8,0,1-1,2.05-.91.34.23,2.17,1,2.51,1.25.57.34,1.82.57,1.82,1.48,0,.46-1.14,1.14-1.14,1.71V9A6.47,6.47,0,0,1,20.55,11,5.38,5.38,0,0,1,21,12.84c.46,1.1.8,2.09,1.25,3.19a26.29,26.29,0,0,0,2.17,4,4.93,4.93,0,0,0,2,2.43,9.55,9.55,0,0,0,1.82,2.05c.49.23,1.41,1.82,2.05,1.82.08.53,1.9,1,2.51,1.82.68.46,1.52.68,2.2,1.06.23.08,1.14.68,1.37.76.15.84-1.56,1.06-2.05,1.14-.8,0-1,.61-1.52.61a15.36,15.36,0,0,0-2.2.76.76.76,0,0,1-.68-.23c-2.2-2.24-3.65-3.65-5.47-5.47a11,11,0,0,0-.91-1.6A19,19,0,0,1,22,22.76c-.42-.76-.8-1.48-1.14-2.28-.27-1.18-.57-2.43-.8-3.65,0-.11-.23-.8-.23-.91a4.5,4.5,0,0,1-.23-2.17c0-.19-.34-2.62-.34-4V9.31c0-.27,0-.57-.34-.57-.11,0-.23,0-.23.08l-.34,1.82c-.34.46-.23,1.06-.34,1.6a7.17,7.17,0,0,1-.23.68,9.74,9.74,0,0,1-.8,2.66c-.23.68-.38,1.6-.57,2.28a7.83,7.83,0,0,1-.68,1.48,5.27,5.27,0,0,1-1,2.51c-.45.91-1,1.75-1.6,2.66a6.44,6.44,0,0,1-2.2,2.58,4.11,4.11,0,0,1-.68.91c0,.19-.72.57-1,1-.23.23-.23.53-.46.68-.23,0-3.84,2.85-4.83,3.5s-2.62,2-3.42,2c-.19,0-.57.08-.57-.23C.34,34.23,1.14,34,1.71,33.63Z" transform="translate(13.69 6.93)"/><path class="cls-2" d="M42.94,34.76a27.59,27.59,0,0,1,4.1-2.2c.8-.91,1.94-1.22,2.85-1.9.3-.49.95-.61,1.14-1.06,1.94-2.32,3.46-3.31,3.46-4.67A11.59,11.59,0,0,0,54,22.42c-.42-1.75-1.33-6.08-2-6.08-.23,0-.23,0-.46.23l-2.05,2.09a1.1,1.1,0,0,1-.91.8c-.34,0-1.71-.8-1.71-1.14.11-.15.46-.46.57-.61a2.72,2.72,0,0,0,1.94-1.37,6.56,6.56,0,0,1,1.37-.68c1.41-.49,1-4,1.48-3.87,1.29-.19,2.05,1.37,2.05,2,.15.34-1,.27-1,1.82,0,.3,2.39,5.7,3.27,5.7.8.23,1.25-.91,1.6-1.82A8.28,8.28,0,0,0,59.28,17c0-.08.46-.76.46-.91,0-.65.65-1.29.91-2.13,0-1.33.8-2.62,1.14-3.88.11-.42-.49-.61-1.29-.61-.11,0-.3.15-.46.15-.3,0-.76-.15-1.14-.15-1.71,0-3.46.27-5.24.27a8.67,8.67,0,0,1-1,0,1.26,1.26,0,0,1-.87.27c-.27,0-.53,0-.84,0s-.57.23-.84.23c-.91.23-1.94.38-2.85.61-.11,0-.57.23-.68.23a4.1,4.1,0,0,0-1.94.53,16.93,16.93,0,0,0-2.51.68c-.61,0-.91-1.18-1.29-1.67-.08-.23-.68-.91-.68-1.14,0,0,.15-.23.23-.23-.08,0,3.65.08,5.85.08.11,0,.68.15.8.15.11.34.68-.53,1-.53.68,0,1.67-.08,2.62-.08-.08,0,3.12,0,3.57-1.14a2.83,2.83,0,0,1,.3-1.06c0-2.05-.11-2.77-1-4.1-.23-.46-1.29-.53-1.29-1.14s1.14-.53,1.6-.68a6.1,6.1,0,0,1,2-.68c1.9,0,1.48.53,2.13.68.87.3,2.09.38,2.89,1.06,0,.68-.68.76-1.14,1.14a4.88,4.88,0,0,0-.91,1.22c0,.46-.15,2.28-.15,2.74-.08,2.05,1.63,1.6,4.37,1.6a3.05,3.05,0,0,0,1.14.23,3.52,3.52,0,0,0,2.05-.91c-.15.15,1.82-2.05,2.51-2.05.68.38.57.57,1,.91,1.9,1.71,2.77,1.71,2.77,3.5,0,.68,0,.76-.84.91-.34.08-.68-.23-1-.23a28.77,28.77,0,0,0-5.62-.68l-.68-.23H62.47c-.11,0-.11.08-.11.23a9.1,9.1,0,0,0,.8,1.44c.19-.15.91.68,1.37,1.14s1.25.68,1.25,1.29a3.49,3.49,0,0,1-1.25,1.22c-.23.23-1,.68-1.14.91,0,1.41-.84,1.75-1.37,2.66-.34.46-.46,1-.8,1.48a19.26,19.26,0,0,1-2.77,3.53c-.34.49,1.48,2.58,2.05,2.74,1.06,0,1.33.91,2.09,1.18.84.08,1.29.65,2.05.91a10.07,10.07,0,0,1,1.71.76c.49,0,.91.61,1.25.61a13.09,13.09,0,0,0,4.79,1.37.46.46,0,0,1,.23.46c-.61.11-.95.68-1.22.68,0,0-1,.46-1.52.76-.11,0-.46.61-.57.61-.72.3-.8,1.14-1.48,1.14a4.64,4.64,0,0,1-1.14-.23c-.11,0-.57-.46-.68-.46-.34-.23-.91-.15-1.25-.38s-.68-.57-.8-.68a11.54,11.54,0,0,1-1.37-.68l-1.14-1c-.57-.46-1.18-.91-1.71-1.37-.49-.61-.23.08-3.34-3-.65-.11-1.14.8-1.6,1.18-.19,0-.46,0-.3.3-2.89,2.89-3.57,2.51-4.83,3.8h-.11c-.19,0-.49.46-.68.53-1.25.61-2.51,1.14-3.76,1.82-.46.46-1.06.42-1.48.61-1.1,0-1.25.68-2.77.68a1.11,1.11,0,0,1-.3-.15C40.55,35.68,42,35.41,42.94,34.76Z" transform="translate(13.69 6.93)"/></g></g></svg>