<svg xmlns="http://www.w3.org/2000/svg" viewBox="0 0 100 50"><defs><style>.cls-1{fill:none;}.cls-2{fill:#444;}</style></defs><title>top_menu_artifact_gray</title><g id="图层_2" data-name="图层 2"><g id="图层_1-2" data-name="图层 1"><rect class="cls-1" width="100" height="50"/><path class="cls-2" d="M11,31.34c0-.23.23-1.6.23-1.82s-.15-.91-.15-1.37V24.72a1,1,0,0,0,.23-.61.24.24,0,0,0-.23-.23c-.23,0-.46.15-.76.15,0-.61.76-.49.76-1.52,0-.46-.08-1.94-.68-1.94-.19-.11-.34.08-.53.23-.49,0-1.48,1.14-2.43,1.48-.08.15-1.44.68-1.6.84-.46.23-1.48,1.14-1.94,1.14-.76.08-.34-1.14-1.14-2-.23-.46-.68-.76-.68-1.37s2.74-.61,3.76-.8c.15,0,.46-.23.61-.23a11.9,11.9,0,0,0,2.13-.46A2.36,2.36,0,0,0,10.31,19c1.14-.15,1.14-2.32,1.14-3.8,0,0,.34-3.42-.46-3.72,0,0-2.17-.19-2.74.46a14.83,14.83,0,0,1-3.46,5.36,10.25,10.25,0,0,0-1.48,1.25c-.11.11-.68,1-.8,1.14-.19.27-1.37,1.86-2.28,1.86-.34,0-.23-.72-.23-.84s.57-.68.57-.8c.23-.34.46-.8.68-1.14s.57-.23.68-.46a6.76,6.76,0,0,1,1.6-1.94C5.3,13.48,7.2,9.91,7.2,6.3c.15-.23.15-.34.38-.34.46.49,2.05.76,2.05,1.86,0,.53-.23,1-.23,1.44-.15.11.23.42.3.46a6.57,6.57,0,0,0,1.37-.08c.61-.15.61-2,.61-3.12,0-.34-.23-.65-.23-1C11.3,4,11.53,3,10.16,2c0-.49,0-.42.15-.57.57,0,1-.91,1.82-.91.65,0,.76,1.22,1.37,1.37.08,0,.68.57.8.57.61.38,1.1.61,1,1.48L13.58,5.61s-.08.8-.08,1,.08.57.08.72c.15.91-.23,2.13.95,2.13,1,0,1.82-.23,2.62-.23a.88.88,0,0,1,.91.84c0,1-2.32.65-3.76.91a1.5,1.5,0,0,0-.49,1.22l.15.46c.08.72-.15,2.28-.15,3.34,0,.46,0,1.6.72,1.6.46,0,1.48-1,2.17-1,.08,0,.34,0,.34.11l-.11.34a10.91,10.91,0,0,1-1.25.57s-1.94.65-1.94,1,.23.34.23.8-.15.57-.15.8c0-.11.23,2.51.23,4,0,.65-.08,1.37-.08,1.9,0,1.33.08,1.44.08,1.75a17.36,17.36,0,0,0-.23,2.66c0,.8-.46,2.17-.46,2.51-.3.8-.08,1-.68,1.22,0-.15-.65,1.06-1.14,1.06a.57.57,0,0,1-.53-.46Zm1.9-5.24h.15c0-.38,0-.76-.15-.91Zm3.12.3a12.17,12.17,0,0,0,2.62-4c-.23-.49.68-.91.68-1.29,0-1,.76-1.6.91-2.39a6.41,6.41,0,0,1,.57-2.28c.19-.84.34-4,1.14-4a14.2,14.2,0,0,0,1.25.91A10.14,10.14,0,0,1,22.06,18c0,1-.8,1.94-1,2.74.3.3-.46.65-.46.91a2.47,2.47,0,0,1-.8,1.6A15.18,15.18,0,0,1,16,27.54a2,2,0,0,1-.91.68c-.19.11-.34-.15-.34-.3C14.76,27.42,16,26.78,16,26.4Zm1.48,6.54c.19-.15.91-.65.91-1.14.11-.08.46-.68.57-.76A25.93,25.93,0,0,0,23.08,23c0-.08.34-.91.34-1,1-1.1.57-2.74,1.37-3.46.11-1.86,1.37-3.42,1.37-5.7,0-.34.23-.49.23-.84,0-.68-.68-.76-1.22-.76-3.27,0-4.48.76-6.19,2.51-.68.34-1.48,1.44-2.28,1.71-.11,0-.11-.23-.11-.34,0-.91,1-1.37,1.37-2.2a25.43,25.43,0,0,1,1.6-2.74c.57-.57.8-2.09,1.14-3.08A2.29,2.29,0,0,0,21,5.84a7.83,7.83,0,0,0,.46-3.42c0-.11-.34-.91-.34-1C21.07.26,21.52.18,21.71,0c.76-.23,1.37,1,2.09,1-.08-.19,2.13.65,2.13,1.82V3c-.68,1.41-1.41,2.74-2.13,4.1.27.08-1.18,1.48-1.18,2.17s.8.61,1.25.61a1.25,1.25,0,0,0,.68-.15L28,9.49l.23-.08h.91A5.42,5.42,0,0,0,31.86,9c.84-.46,1.67-2.32,2.58-2.32a4.4,4.4,0,0,1,1.82.95c.76.76,1.22.8,1.22,1.82.3,0-.72.87-1.22,1.14s-.46.08-.68.46a29.86,29.86,0,0,0-.38,4.56c0,.11-.08.8-.08.91-.65,3.08-.46,6.8-2,9.61,0,.08-.3.53-.3.68-.23-.08.08.72-1.06,2.43A11.29,11.29,0,0,1,30.19,32c-.46.53-1.33,1.1-1.82,1.6-1.22.68-1.33,1.14-2,1.14s-.57-.49-.57-.87c0-.23,0-.46,0-.72s-.61-.68-.68-1-.38-1.37-.38-1.37l.23-.23h1.52c1.14-.15,1.6-1.14,2.05-2,.23-.46.68-1.06.91-1.52s.3-1.14.53-1.82a9.93,9.93,0,0,0,.68-2.13,32.88,32.88,0,0,0,.38-4.71,1.42,1.42,0,0,0,.15-.57c0-.23-.08-.46-.08-.8,0-.11.15-.57.15-.68.08-1,.08-1.82.08-2.85,0-.27.38-.87.38-1.37A2.71,2.71,0,0,0,31.4,11c-.57,0-2.36-.15-2.28-.15-.3,0-1.82,0-1.82.68,0,1.14,2.43,1.6,2.43,2.51a13.39,13.39,0,0,0-.91,2.43c-.23.8-.38,1.6-.68,2.39a5.74,5.74,0,0,0-.68,1.37c0,1.82-1.18,3.15-2,4.71a2.54,2.54,0,0,1-1.14,1.9,10.15,10.15,0,0,1-.46.91c-.23.38-.53.68-.8,1.06s-.57,1.1-.91,1.52A5.7,5.7,0,0,0,21,31.72c0,.08-.57.46-.57.53s-.46.61-.46.68c-.38.42-1.22.76-1.82,1.37-.49,0-.8.84-1.25.84-.23.08-1,.68-1.14.68-.34,0-.46-.23-.46-.61S16.74,33.69,17.5,32.93Z" transform="translate(11.96 7.09)"/><path class="cls-2" d="M37.56,7.51a2.28,2.28,0,0,1,1.52.38H41l.38.08c.87,0,1.56-.23,2.39-.23h3c.11,0,1.25-.23,1.37-.23a9.62,9.62,0,0,0,2.43.15,1.76,1.76,0,0,0,1.1-.23c.23-.23,1-1.52,1.41-1.52,1.06.87,1.75,1.6,1.6,2.74,0,.65-2.66.61-3.8.61-1.48,0-3.19-.23-4,.38a5.48,5.48,0,0,0-1.71-.23c-.11,0-.8.23-.91.23-1.41.3-3.46.23-4,.53,0,0-1.48,0-1.52-.08-.34,0-1.44-2-1.44-2.2S37.33,7.51,37.56,7.51Zm4.26,4.71a4.09,4.09,0,0,1,.76.23,10.73,10.73,0,0,1,2.66.15c.11,0,.34-.15.46-.15h2.62c.11,0,.34-.08.46-.08,1.37-.38,1.25-.84,2.28-1.75.53-.27,1.29,1,1.29,1.75,0,1.22-1.18,1.22-2.2,1.37-.11,0-1.14.23-1.25.23-.49,0-4.56-.11-5,.46-.57,0-1.71.08-2.05-.46S41,13.44,41,12.68C41,12.38,41.44,12.22,41.82,12.22Zm-.23-8.81h1.82l.23-.08c.87-.08,3.23-.38,5.13-.38.46-.11.65-.53,1.37-.68.46-.23.46-1,1.22-1,0,.08,1.9.91,1.9,1.82,0,.68-.84,1.22-1.18,1.6-.38,0-.19-.15-.68-.15a29.26,29.26,0,0,0-4.45.38,4.71,4.71,0,0,0-1.82.3H42.35c-.53,0-1.22-1-1.22-1.6C41.13,3.56,41.44,3.41,41.59,3.41ZM43.41,30.5c0-.23-.23-.46-.23-.68,0-1.79-.23-1.37-.23-4.33,0-.23-.23-2.17-.23-2.39v-.23c0-.11-.46-.46-.46-.57a2.08,2.08,0,0,1-.46-1.6c.76,0,1.94,1.37,2.51,1.71.08.08.95.53,1,.57a10,10,0,0,1,2.39-.57c.34,0,.57.11,1,.11.61,0,1.44-.34,2.28-.34.46-.23.68-.8,1.29-.8,1,0,1.44,1.18,1.44,1.82,0,.46-.3.91-.3,1.37,0,.87-.15,1.79-.15,2.2,0,.87.23,1.67.23,2.36a.74.74,0,0,1-.3.68h-.3a10.37,10.37,0,0,0-1.44.23c-.84.15-1.52,0-2.51.23a14.56,14.56,0,0,1-1.48-.08c-1.1.08-1.52.27-1.52,1,0,.23,0,.42,0,.57-.11.91-.46,2.36-1.6,2.36-.57,0-1.14-.23-1.14-.76C43.3,32.55,43.41,31.56,43.41,30.5ZM42,17.47c1,0,1.67.15,2.51.15.53,0,2.24-.15,4.9-.15a7.55,7.55,0,0,0,1.25-.3c.46-.23.68-1.37,1.37-1.37.49,0,.8.53,1,.76.38.23.68.23.68.68-.15,1.14-.53,1.63-1.44,1.75-2.66,0-3.65.46-5.05.34-.11,0-1.14-.11-1.25-.11-.57,0-1,.34-1.48.34a3,3,0,0,1-2.66-1.48S41.82,17.7,42,17.47Zm4.22,11.36c1.14,0,2.17-.23,3.31-.23s1.14-2.74,1.14-4c-.27-.68-1.25-.57-2.05-.57a14,14,0,0,1-2.17.11c-.68.57-.11,1.6-.68,2.17v1.25C45.81,28.11,45.88,28.68,46.26,28.83Zm8.89-12.27c.38,0,.68.15,1.06.15.68,0,1.67,0,2.13-.68a4.71,4.71,0,0,0,.84-3c0-.53,0-.57-.15-.68H56.9a3.37,3.37,0,0,1-.61-.38,6.65,6.65,0,0,1-1.44-1.82.59.59,0,0,1,.23-.53c1.06,0,2.13.23,3.19.23s1.6-.23,1.82-1.44a12.93,12.93,0,0,1,.46-2.58c.08-.76-.42-.91-.91-.91,0,0-1.82-.15-2.28.23a2,2,0,0,1-2.28-2.05s0-.23.08-.23A17.63,17.63,0,0,0,57,2.65h8.13c.38-.38,1.06-.15,1.52-.38,1.14-.38,1.14-1.6,2.74-1.6.72.87,2.39,2,2.39,2.51,0,1.06-1,1.29-1.86,1.29l-4,.08h-.38c-.38,0-1,.76-1.37,1.37a5.17,5.17,0,0,0-1.14,2.74c0,.38,0,1,.46,1,.72,0,2,.11,2.28-.38l1.75-1.75c1.14,0,1.25,1.06,1.67,1.06.42.38.76.3.68,1.29,0,.23-.53,1.44-.53,1.67,0,.68-.91,2.74-.91,4.1.15.61.68.68,1.22.68a11.45,11.45,0,0,0,1.63-.08c.91-.15,1.25-1.82,1.82-1.82s1.33.68,1.82,1.14,1.14.46,1.14,1.22c0,.46-.68,1.29-1.14,1.29H72.21l-.34.34c-.11-.34-.68-.34-.91-.34-.91,0-1.25.46-2,.46,0,.11-.49-.23-.68-.23a5.58,5.58,0,0,0-1.44-.11c-.38,0-.68.11-1.14.11-.68,0-1.52-.11-2.28-.11-2.36.19-4.56.57-6.91.57-1,0-2.05-.46-2.05-1.75C54.47,16.56,54.85,16.56,55.15,16.56Zm2.2,13.94c0-.08-.23-1-.23-1.14,0-4.18-.27-7.33-.91-9,0-.23.23-.23.3-.23.76,0,1.25,1.14,1.75,1.48a9.8,9.8,0,0,0,3.12,1.6c.08.11.68-.34,1-.34h1.52c1-.38,1.9-.08,2.81-1.37.42-.57,0-1.25.84-1.25.57,0,1,.61,1.29.61.08,0,.11,0,.15,0,1.56,1.52,1.41,1,1.75,2.05.11.49-.46.72-.46,1A1.83,1.83,0,0,0,70,25c0,.42.08.87.08,1.14a15.07,15.07,0,0,0-.23,3.57c0,.3-.23,1.9-.23,2.28,0,.53-1.6,1.14-2.2,1.14-1.37-.34-1-1.37-1.82-2-1.29,0-2.28.23-3.27.23s-2.2-.08-2.2,1.82c-.38.46-.91,2-2.2,2A.89.89,0,0,1,57,34.6S57.32,30.46,57.36,30.5ZM61,29.59c1.44,0,2.05-.08,4.71-.08.53,0,.68-1.86.68-2-.3-.8.61-3.53-.68-3.53s-2.81.23-4.64.23c-.34,0-.61,0-.76.68,0,.23.08.34.08.57v2.66a1.68,1.68,0,0,0-.08.68C60.32,29.28,60.55,29.36,61,29.59Zm.83-13.11A12.57,12.57,0,0,0,64,16.33c.49.08.68,0,1.14-.53.61-.68.46-2.39.68-2.89,0-.76.27-1.44-1-1.44-.08-.15-.46.23-.68.23-.38,0-.65.11-.68.46v-.38a2.17,2.17,0,0,0-.91.15c-.34.08-1.14,3.65-1.14,3.88A.63.63,0,0,0,61.84,16.48Z" transform="translate(11.96 7.09)"/></g></g></svg>