<svg xmlns="http://www.w3.org/2000/svg" xmlns:xlink="http://www.w3.org/1999/xlink" viewBox="0 0 218.87 210.57"><defs><style>.cls-1{fill:#040000;}.cls-2{clip-path:url(#clip-path);}</style><clipPath id="clip-path"><path class="cls-1" d="M100,77.63c15.06-18,25.66-40.47,32.73-66.47a119.48,119.48,0,0,1,36.36,20c3.37-25.68,41.09-8.07,21.82,10.93-2.39.94-5.58,1.09-9.09.91C188,55.67,197.28,65.17,200,81.27c-23.89,8.61-47.79,15.43-67.27,30,15,18,42.37,23.73,65.46,33.69-3.71,13.28-10.79,23.18-18.18,32.78,3.34,1.51,7,2.72,10,4.55,16.61,19.31-22.09,33.68-22.73,9.11C155.63,198.6,146,207.75,130,210.57c-6.55-16-11.65-35.13-20.91-51-1.18-2-7.76-15.37-10-15.48C96.53,144,89,158.17,87.27,161.4c-3.49,6.59-5.63,14.56-8.18,20-4.74,10.17-9.86,16.42-12.73,28.23-12.61-4.36-23-11-32.73-18.21C29.82,203.39,8,206.8,5.46,192.35,4.19,185,8.9,177,18.18,176,11,165,3.84,153.91,0,139.55c22.44-6.2,49-13.28,65.46-28.23C49.62,95,26.62,85.87,1.82,78.54c1.11-5.26,2.57-10.17,5.46-13.66,1.24,2.5-3.09,7.2-2.73,11.84,1,3.24,6.58,1.91,9.09,3.64,11.68-26.55,29-47.45,58.18-56.45,1.64-3.26.3-7.07-.91-10C41,20.39,25.23,41,9.09,61.24c6-12.55,15.7-21.31,24.55-31,1.16-15.73-22.87-14.66-22.73-.91.07,7,6.82,8.15,10,13.66C8.47,41.95,6.32,24.38,15.46,18.45c10.42-3.19,19.44,1.36,20.91,10C47,21.79,56.64,14.17,70.91,11.16,76.91,35.34,85.56,59.51,100,77.63ZM78.18,42.12c-23.55,6.77-38.5,22.14-45.45,45.53,8.05,2.86,14.67,7.16,20.91,11.84,3.73-9,8-17.53,14.55-23.67,11.72,9.81,20,23,32.73,31.87,4.81-3.08,9.38-6.39,11.82-11.84C99.57,79.58,87,62.69,78.18,42.12ZM56.36,100.39c2.79,3.58,6,6.7,10.91,8.2,6.77-3.54,13.17-7.45,17.27-13.66A184.57,184.57,0,0,0,69.09,79.45C61.76,83.34,58.19,91,56.36,100.39ZM120,179.61c25-5.66,39.94-21.3,47.27-44.61-6.8-1.69-10.75-6.22-18.18-7.29-3.57,7.35-6.13,15.71-13.64,19.12-1.52-1.26-6-4.2-4.55-5.46,3.58-.25,2.78,3.89,6.36,3.64,3.49-6.22,8.92-10.49,10-19.12-5.38-4.33-11.4-8-16.36-12.75-5.86,2.32-9.54,6.84-14.55,10,1.32,6.59,11,9.62,10.91,14.57-10.74-6.85-16.32-18.86-27.27-25.5-4.7,4.09-9.67,7.91-12.73,13.66C100.17,141.8,112.87,157.91,120,179.61ZM99.09,109.5c-4-4.16-9-7.39-11.82-12.75-17.79,12.53-33.63,27-55.45,35.51C39,156,53.84,172.12,78.18,178.7c2.23-8.69,7.78-14.06,10-22.76-8.52-2.69-16.86-5.58-20.91-12.75C75.95,130,90.41,122.66,99.09,109.5ZM16.36,81.27c2.93.41,4.93,1.75,8.18,1.82C34,59.16,51.08,42.9,74.55,33c.64-3.38-1.55-3.91-.91-7.28C44.54,34.22,25.76,53,16.36,81.27ZM131.82,23.91c27.07,11.13,47,29.45,55.45,59.18a20.64,20.64,0,0,0,10.91-2.73c-10.4-33.29-32.07-55.3-64.55-66.47C133.38,17.58,132.08,20.22,131.82,23.91Zm62.73,10.93c3.79-21.45-24.25-17.57-22.73-.91C174.67,42.84,190.73,43.44,194.55,34.83Zm-63.64-9.11c-1.73,1.91-2.61,4.66-3.64,7.28,23.68,10.58,42.57,26,50,52.81a19.64,19.64,0,0,0,8.18-.91C178.12,54.32,157.85,36.68,130.91,25.73Zm-57.27,10C51.54,45.19,31.78,61.8,27.27,85.83,35,82.5,36.1,73.35,40,67.61c9.22-13.56,22.57-21.53,37.27-29.14C75.52,38.11,76.56,34.95,73.64,35.74Zm51.82,3.64c23,9.08,37.26,27,47.27,49.17,5.42-2,1.25-8.94,0-11.84-8.32-19.3-26.4-32.52-43.64-41h-2.73C126.57,37.47,125.34,37.75,125.46,39.39ZM111.82,66.7c-4.36,3.22-6.68,8.48-10,12.75,4.88,4.82,7,12.41,14.55,14.57,4.88-5.74,11.62-9.61,15.46-16.39C126.8,72.34,121.11,67.71,111.82,66.7Zm-10,43.7c5.26,3.23,7.47,9.52,13.64,11.84a169.31,169.31,0,0,1,53.64-31.87c-5.5-25.45-22-39.85-44.54-48.26-5.16,6.07-7.86,14.59-11.82,21.85,8.64,3.18,16.14,7.51,21.82,13.66C124.26,89.18,112.39,99.15,101.82,110.41ZM170,136.81c-5.82,12.38-13.28,23.12-22.73,31.87-4.31,1.85-7.29,5.7-11.82,8.2-4,2.21-12,2.18-12.73,8.2,11.78-.7,24.54-8.33,32.73-16.39s15.82-20.48,17.27-31.87Zm6.36,1.82c-9.4,25.18-28.89,40.27-51.82,51.9a20.59,20.59,0,0,0,1.82,5.46c29.14-8.46,48.29-26.9,57.27-55.54C180.36,140.7,179.25,138.77,176.36,138.64Zm10,3.64c-12,26.19-29,47.41-59.09,55.54-.71,5,1.4,7.1,2.73,10,34.3-8.75,54.39-31.72,66.36-62.82A29.38,29.38,0,0,0,186.37,142.28Zm-17.27,50.08c-.09,17.27,30.62,11.72,21.82-6.37C183.48,177,169.14,183.06,169.09,192.35Zm-71.82-51c-4-5.09-6.49-11.71-12.73-14.57C79.79,133,72,136.1,69.09,144.1c6,4.05,11.57,8.45,20,10C92.29,150.34,95.84,146.91,97.27,141.37ZM70,194.17c2.3-1,2.64-4,2.73-7.28-25.05-8.9-40.33-27.59-50-51.9-2.08.95-5.48.57-7.27,1.82C23.45,166.14,41.92,185,70,194.17ZM67.27,206c-1-4.6,2.07-5.21,1.82-9.11-28.19-10.32-46.38-30.64-56.36-59.18-4.59-.65-6.64,1.24-10,1.82C9.27,171,38.95,200.7,67.27,206Zm-3.64-31c-10.57-6.25-19.05-13.84-25.45-23.68-3.69-5.66-4.62-13.85-10.91-18.21-2.09,11.72,8.12,24.15,16.36,32.78s20.52,19.14,31.82,17.3C72.91,178.67,67.55,177.37,63.64,175.06ZM7.27,187.8C6.56,200.45,28,205.74,30,188.71,26.49,177.58,8.1,173.2,7.27,187.8Z"/></clipPath></defs><title>artifact_top</title><g id="图层_2" data-name="图层 2"><g id="图层_2-2" data-name="图层 2"><path class="cls-1" d="M100,77.63c15.06-18,25.66-40.47,32.73-66.47a119.48,119.48,0,0,1,36.36,20c3.37-25.68,41.09-8.07,21.82,10.93-2.39.94-5.58,1.09-9.09.91C188,55.67,197.28,65.17,200,81.27c-23.89,8.61-47.79,15.43-67.27,30,15,18,42.37,23.73,65.46,33.69-3.71,13.28-10.79,23.18-18.18,32.78,3.34,1.51,7,2.72,10,4.55,16.61,19.31-22.09,33.68-22.73,9.11C155.63,198.6,146,207.75,130,210.57c-6.55-16-11.65-35.13-20.91-51-1.18-2-7.76-15.37-10-15.48C96.53,144,89,158.17,87.27,161.4c-3.49,6.59-5.63,14.56-8.18,20-4.74,10.17-9.86,16.42-12.73,28.23-12.61-4.36-23-11-32.73-18.21C29.82,203.39,8,206.8,5.46,192.35,4.19,185,8.9,177,18.18,176,11,165,3.84,153.91,0,139.55c22.44-6.2,49-13.28,65.46-28.23C49.62,95,26.62,85.87,1.82,78.54c1.11-5.26,2.57-10.17,5.46-13.66,1.24,2.5-3.09,7.2-2.73,11.84,1,3.24,6.58,1.91,9.09,3.64,11.68-26.55,29-47.45,58.18-56.45,1.64-3.26.3-7.07-.91-10C41,20.39,25.23,41,9.09,61.24c6-12.55,15.7-21.31,24.55-31,1.16-15.73-22.87-14.66-22.73-.91.07,7,6.82,8.15,10,13.66C8.47,41.95,6.32,24.38,15.46,18.45c10.42-3.19,19.44,1.36,20.91,10C47,21.79,56.64,14.17,70.91,11.16,76.91,35.34,85.56,59.51,100,77.63ZM78.18,42.12c-23.55,6.77-38.5,22.14-45.45,45.53,8.05,2.86,14.67,7.16,20.91,11.84,3.73-9,8-17.53,14.55-23.67,11.72,9.81,20,23,32.73,31.87,4.81-3.08,9.38-6.39,11.82-11.84C99.57,79.58,87,62.69,78.18,42.12ZM56.36,100.39c2.79,3.58,6,6.7,10.91,8.2,6.77-3.54,13.17-7.45,17.27-13.66A184.57,184.57,0,0,0,69.09,79.45C61.76,83.34,58.19,91,56.36,100.39ZM120,179.61c25-5.66,39.94-21.3,47.27-44.61-6.8-1.69-10.75-6.22-18.18-7.29-3.57,7.35-6.13,15.71-13.64,19.12-1.52-1.26-6-4.2-4.55-5.46,3.58-.25,2.78,3.89,6.36,3.64,3.49-6.22,8.92-10.49,10-19.12-5.38-4.33-11.4-8-16.36-12.75-5.86,2.32-9.54,6.84-14.55,10,1.32,6.59,11,9.62,10.91,14.57-10.74-6.85-16.32-18.86-27.27-25.5-4.7,4.09-9.67,7.91-12.73,13.66C100.17,141.8,112.87,157.91,120,179.61ZM99.09,109.5c-4-4.16-9-7.39-11.82-12.75-17.79,12.53-33.63,27-55.45,35.51C39,156,53.84,172.12,78.18,178.7c2.23-8.69,7.78-14.06,10-22.76-8.52-2.69-16.86-5.58-20.91-12.75C75.95,130,90.41,122.66,99.09,109.5ZM16.36,81.27c2.93.41,4.93,1.75,8.18,1.82C34,59.16,51.08,42.9,74.55,33c.64-3.38-1.55-3.91-.91-7.28C44.54,34.22,25.76,53,16.36,81.27ZM131.82,23.91c27.07,11.13,47,29.45,55.45,59.18a20.64,20.64,0,0,0,10.91-2.73c-10.4-33.29-32.07-55.3-64.55-66.47C133.38,17.58,132.08,20.22,131.82,23.91Zm62.73,10.93c3.79-21.45-24.25-17.57-22.73-.91C174.67,42.84,190.73,43.44,194.55,34.83Zm-63.64-9.11c-1.73,1.91-2.61,4.66-3.64,7.28,23.68,10.58,42.57,26,50,52.81a19.64,19.64,0,0,0,8.18-.91C178.12,54.32,157.85,36.68,130.91,25.73Zm-57.27,10C51.54,45.19,31.78,61.8,27.27,85.83,35,82.5,36.1,73.35,40,67.61c9.22-13.56,22.57-21.53,37.27-29.14C75.52,38.11,76.56,34.95,73.64,35.74Zm51.82,3.64c23,9.08,37.26,27,47.27,49.17,5.42-2,1.25-8.94,0-11.84-8.32-19.3-26.4-32.52-43.64-41h-2.73C126.57,37.47,125.34,37.75,125.46,39.39ZM111.82,66.7c-4.36,3.22-6.68,8.48-10,12.75,4.88,4.82,7,12.41,14.55,14.57,4.88-5.74,11.62-9.61,15.46-16.39C126.8,72.34,121.11,67.71,111.82,66.7Zm-10,43.7c5.26,3.23,7.47,9.52,13.64,11.84a169.31,169.31,0,0,1,53.64-31.87c-5.5-25.45-22-39.85-44.54-48.26-5.16,6.07-7.86,14.59-11.82,21.85,8.64,3.18,16.14,7.51,21.82,13.66C124.26,89.18,112.39,99.15,101.82,110.41ZM170,136.81c-5.82,12.38-13.28,23.12-22.73,31.87-4.31,1.85-7.29,5.7-11.82,8.2-4,2.21-12,2.18-12.73,8.2,11.78-.7,24.54-8.33,32.73-16.39s15.82-20.48,17.27-31.87Zm6.36,1.82c-9.4,25.18-28.89,40.27-51.82,51.9a20.59,20.59,0,0,0,1.82,5.46c29.14-8.46,48.29-26.9,57.27-55.54C180.36,140.7,179.25,138.77,176.36,138.64Zm10,3.64c-12,26.19-29,47.41-59.09,55.54-.71,5,1.4,7.1,2.73,10,34.3-8.75,54.39-31.72,66.36-62.82A29.38,29.38,0,0,0,186.37,142.28Zm-17.27,50.08c-.09,17.27,30.62,11.72,21.82-6.37C183.48,177,169.14,183.06,169.09,192.35Zm-71.82-51c-4-5.09-6.49-11.71-12.73-14.57C79.79,133,72,136.1,69.09,144.1c6,4.05,11.57,8.45,20,10C92.29,150.34,95.84,146.91,97.27,141.37ZM70,194.17c2.3-1,2.64-4,2.73-7.28-25.05-8.9-40.33-27.59-50-51.9-2.08.95-5.48.57-7.27,1.82C23.45,166.14,41.92,185,70,194.17ZM67.27,206c-1-4.6,2.07-5.21,1.82-9.11-28.19-10.32-46.38-30.64-56.36-59.18-4.59-.65-6.64,1.24-10,1.82C9.27,171,38.95,200.7,67.27,206Zm-3.64-31c-10.57-6.25-19.05-13.84-25.45-23.68-3.69-5.66-4.62-13.85-10.91-18.21-2.09,11.72,8.12,24.15,16.36,32.78s20.52,19.14,31.82,17.3C72.91,178.67,67.55,177.37,63.64,175.06ZM7.27,187.8C6.56,200.45,28,205.74,30,188.71,26.49,177.58,8.1,173.2,7.27,187.8Z"/><g class="cls-2"><rect class="cls-1" x="14.87" width="204" height="205"/></g></g></g></svg>