<svg xmlns="http://www.w3.org/2000/svg" viewBox="0 0 256.08 54.06"><defs><style>.cls-1{fill:#fff;}</style></defs><title>资源 1</title><g id="图层_2" data-name="图层 2"><g id="图层_1-2" data-name="图层 1"><path class="cls-1" d="M19.8,12.27c-6.18-.73-6.76,8.49-1.8,10a4.93,4.93,0,0,0,2.7-3.83c-1.79-.38-1.35,1.15-3.15.77,0-1.19-1.42-1.09-.9-2.68.29-1.29,2.16-1.23,4-1.15,6.48,7.47-2.42,13.27-7.65,7.28C9.09,18.08,8,10,0,9.2c1.55,2.26,4.54,3.29,6.3,5.37,3.49,4.7,4.36,11.87,9.9,13.8C24.94,31.32,27.82,13.22,19.8,12.27ZM35.23,13c-5.94-1.4-8,6.59-3.6,9.2,2.72,0,3-2,3.6-3.83-1.1.34-1.65,1.15-3.6.77-1.11-.58-1.37-3.29,0-3.83h3.6C35.7,17,36.7,16.83,37,18c2.39,8.5-8.63,8.85-12.15,3.45,1.3,3.11,2.85,6,5.85,7.67C39.91,31.12,41.21,14.44,35.23,13Zm5.6,0v1.15c-.07.45.08,1.09-.45,1.15,5.42,8.8,1.52,25.55,2.7,38,2.46-1.73,1.35-5.37,1.35-8.05,0-10.74-.75-26.1.9-32.21Zm5.85,0v1.15c-.07.45.08,1.09-.45,1.15,3.8,5.94,2.25,20.49,2.25,30.29,0,2.65-1.09,6.15,1.35,7.67.78-13.14-1.64-29,1.35-40.26Zm34.78,0A6.2,6.2,0,0,1,81,16.1c.93.23,3-.47,3.15.38,0,4.73-6,6-2.7,10.35,1.29-3.76,4.93-5.51,4.5-10.74h2.7c1.56,3.91,1.8,8.95,1.8,14.19,2.28-3.52-.48-9.27.45-14.19h4c2.4,7.28,1.59,17.3,1.8,26.46-4.17-3.48-7-8.13-14.85-8.44-.78,1.38-1.89,2.48-1.8,4.6,6.39-3.93,12.66,3.16,17.55,5.37.5-10.18-1.06-22.12.9-31.06Zm22.76,0h-3.6c.58,1.9-1.09,1.88-.9,3.45,1.66,0,1.63,1.42,2.7,1.92C102.83,16.44,103.95,15.1,104.22,13Zm33.6,0c-1.26,4.81,3.42,11.43,1.35,18-1.63-5.64-4.79-10-7.2-15h3.15c-.32-1.42.77-1.65.45-3.07-4.7.6-13-1.91-12.6,3.07.93.23,3-.47,3.15.38-1.43,2.74-2.84,5.5-3.15,9.2,4.57-.17,5.79,2.55,9.45,4.6-.91-1.87-1.25-4.58-3.6-6.52-1.44-1.19-3.75-.65-4-2.3-.13-.71,2-3.1,3.6-3.83,5.82,4.37,7.86,12,12.6,17.25.23-7.21-.51-15.26.45-21.85Zm5.53,3.83c.67.07,1.66-.14,1.8.38s-.08,1.09.45,1.15c1.4-1.24.89-4.1,2.25-5.37h-4C144.16,14.74,143.2,15.34,143.35,16.87ZM188.2,13c.45,1.66-.5,2.13-.9,3.07.68,1,2.68.79,2.7,2.3A15.26,15.26,0,0,0,191.8,13Zm23.25,2.3c-.69,1.74,2.94-.2,2.25,1.53-.89,3.33-2.18,6.32-2.25,10.35,4.24-.06,7.3,1,9.9,4.6.08-3.81-.06-10.66,0-15.72h4.5c3.4,10-.49,26.57,2.25,37.19C230,40.95,226.57,24.13,229.9,13,224,14,213.15,10.79,211.45,15.34Zm1.35,8.44c1.31-3.23,1.15-7.71,6.3-7.67A78.85,78.85,0,0,1,220.45,28C217.6,26.84,217.28,23.53,212.8,23.77ZM246,13c-1.31,4.85,3.44,11.42,1.35,18-1.61-5.66-4.81-10-7.2-15h3.15c-.32-1.42.77-1.65.45-3.07-4.7.6-13-1.91-12.6,3.07.93.23,3-.47,3.15.38-1.43,2.74-2.84,5.5-3.15,9.2,4.08-.23,6.43,2.83,9.45,4.6-.9-1.85-1.27-4.6-3.6-6.52-1.46-1.2-3.76-.62-4-2.3-.13-.72,2-3.09,3.6-3.83,5.81,4.38,7.9,11.93,12.6,17.25.23-7.21-.51-15.26.45-21.85Zm10.1,0h-4.5v1.15c-.93,2.26,1.89,3.69,2.25,6.52.84,6.61-.45,17.76-.45,24.92,0,2.53-1.11,6.06,1.35,7.67C255.51,40.16,253.09,24.29,256.08,13ZM60.81,16.1c.79.22,2.64-.46,2.7.38-2.16,3.18-2.85,5.42-3.15,10.35C69.53,25.25,72.62,29.9,77,34.89c1.76-6.3-1.39-16.78,1.8-21.85C72.89,14.13,61.23,10.33,60.81,16.1Zm15.3,15.72C73,27.54,70.68,22.64,62.16,23c.86-5,3.9-8.18,12.15-6.9C76,20.43,76.35,25.87,76.11,31.82ZM109.66,1.53c-6.5-.76-8.59,8.53-2.25,10,.92-1.26,2.06-2.34,1.8-4.6-1.84-.42.06,2.35-2.25,1.53-2,.17-2.45-1-2.25-2.68,6.67-3.42,12.23,3.13,14.4,7.28-12.47-2.82-12.9,6.2-11.25,14.19-2.57,0-4.72.9-5.85,3.07,5-1,7.31,2.45,9.9,4.6-.28-4.36-4.57-7.63-3.15-11.12,3.11,4.33,8.44,1.49,9.9-2.3.58,10.47-1.17,22.83.9,31.82,1.86-12.22-1.52-28.9,1.8-39.88C118.51,10.34,114.69,2.12,109.66,1.53Zm-1.35,18c-.07-3,4.77-4.35,9.45-3.07.39.31.27,1.05.9,1.15C119.62,24.27,108.41,24.38,108.31,19.55Zm41-3.45c.65.21,2.33-.45,2.25.38a36.15,36.15,0,0,0-3.15,10c9.42-.6,12.69,3.32,17.1,8.44,1.54-6.36-.89-16.1,1.35-21.85C161.06,14.12,149.58,10.34,149.29,16.1Zm15.3,15.72c-3.27-4.16-6.26-9.58-13.95-8.82.15-4,3.48-8.52,11.7-6.9A36.5,36.5,0,0,1,164.59,31.82ZM9.9,28c-1.24,8.4,15.65,10.88,13.95,0C22.59,34.27,10.92,31.48,9.9,28Zm15,0c.3,3.37,2.13,5.59,4.95,7.67,7,.48,9-3.72,8.55-7.67C37.27,33.56,26.37,32.36,24.88,28ZM170.38,0c-.65,1.23-2.14,1.76-1.8,3.83,10.24-.67,12.85,5.15,18,8.82-5,.88-11.83.14-17.55.38-.07,1.22-1,1.69-.9,3.07,1.08.23,3.26-.48,3.6.38-1.5,3.45-3.68,6.32-3.15,11.5,18.16-4.22,12.85,17.66,18,26.07-.61-4.16-.9-9.58-1.8-14.57-.84-4.65-2-11.27-4.5-13.42s-6.34-.73-9.9-2.3c1.58-5.56,5.49-9.12,15.3-7.67-.29-1.91,1.37-2.16,1.35-3.83C182.9,7,179.68.9,170.38,0Zm23.88.77c-.86,1.18-2.4,1.79-2.25,3.83,9.12-.36,12.15,4.47,16.65,8.05-2.2.3-1.6,3-2.7,4.22,2.72,1.45,3.23,7.78,2.25,11.12-1.47-2.79-6.86-5.09-5.85-6.9,1.87-3.36-2.87-6,0-8.05h-7.65c-2.26,3.37-5.5,7.75-3.6,13.42,1.34,0,1.53-1,2.7-1.15-2.21-3.79-2.07-10.77,5.85-9.2.25,1.83,1.89,2.48,1.35,5-.58.53-2,.38-3.15.38-.51,1.07-3.06,3.27-1.35,3.83,6.25-2.87,9.72,3.2,12.6,5.75.47-5.73-1-13.14.9-17.64C205.85,8.28,203,2,194.26.77Z"/></g></g></svg>