<svg xmlns="http://www.w3.org/2000/svg" viewBox="0 0 234.3 60"><title>logo_hnusd_black</title><g id="图层_2" data-name="图层 2"><g id="图层_1-2" data-name="图层 1"><rect x="232.3" y="0.1" width="2" height="6"/><rect x="228.3" y="0.1" width="3" height="6"/><rect x="221.3" y="0.1" width="3" height="6"/><rect x="209.3" y="11.1" width="1" height="5"/><rect x="109.3" y="11.1" width="2" height="5"/><rect x="232.3" y="6.1" width="2" height="3"/><rect x="224.3" y="6.1" width="2" height="3"/><rect x="109.3" y="3.1" width="2" height="3"/><polygon points="212.3 0.1 212.3 5.7 212.3 11.1 214.3 11.1 214.3 6.1 216.3 6.1 216.3 8.1 216.3 8.1 216.3 11.1 218.3 11.1 218.3 5.6 218.3 4.6 218.3 0.1 212.3 0.1"/><polygon points="207.3 0.1 207.3 5.1 204.3 5.1 204.3 11.1 204.3 16.1 207.3 16.1 207.3 11.1 206.3 11.1 206.3 8.1 208.3 8.1 208.3 5.6 208.3 4.6 208.3 0.1 207.3 0.1"/><path d="M190.3.1V11h-2v5h7V11h3v5h4V6h2V0h-14Zm4,11h-3v-3h1v-2h2Zm7,0h-2v-3h2Z"/><rect x="133.3" y="0.1" width="2" height="3"/><path d="M186.3,5.1V.1h-9v5h-3V.1h-14v5h-5V.1h-2v5h-1V.1h-5v5h-3V.1h-7V11h-2V6h-3V5h-3v6h-1V6h-3V5h-5v6h-2V6h1V3h-1V5h-2v6h-2v5h7V11h3v5h8V11h2v5h29V11h4V8h1v3h-1v5h13V11h2V8h2v3h-2v5h3V11h3V5h-2Zm-44,6h-2v-5h2Zm2,0h-1v-3h1Zm9,0h-3v-3h3Zm8,0h-2v-3h2Zm12,0h-3v-5h3Zm4,0h-2v-3h2Z"/><path d="M110.1,33c.2-.1.3-.3.5-.5s.3-.4.5-.5.3-.4.5-.6a2.09,2.09,0,0,0,.4-.6,2.17,2.17,0,0,0,.6.7l-2.1,2.3a1.76,1.76,0,0,0-.4.5,3.81,3.81,0,0,0-.5.6l-.3-.3a1.38,1.38,0,0,0-.4-.3l.3-.6c0-.2.1-.5.1-.9V27.2H108a77733576689710.61,77733576689710.61,0,0,0-1,.2v-1a1.76,1.76,0,0,1,.6.1,3.33,3.33,0,0,0,1,0h.9c.3,0,.6,0,.7-.1a4.54,4.54,0,0,0-.2.8c0,.3-.1.7-.1,1V33Zm.5-7.8c-.2-.2-.3-.5-.5-.7s-.3-.4-.5-.6l-.6-.6-.7-.7.7-.6c.3.3.6.5.8.7l.6.6c.2.2.3.4.5.6s.3.4.5.6Zm5.2,8c-.5.4-1.2.8-1.8,1.2a19.43,19.43,0,0,1-2.4,1,1.69,1.69,0,0,1-.2-.5,2.18,2.18,0,0,0-.5-.4,13.7,13.7,0,0,0,2.4-.7,11.78,11.78,0,0,0,1.9-1.1,6.1,6.1,0,0,1-1.2-1.6,14.17,14.17,0,0,1-.8-1.8h-1v-.9c.5,0,1,.1,1.5.1h3.8a7.57,7.57,0,0,0,1.5-.1,6.12,6.12,0,0,1-.5,1.2,7.46,7.46,0,0,1-.7,1.2,8.65,8.65,0,0,1-.7,1,5.72,5.72,0,0,1-.7.8l.9.6a3.55,3.55,0,0,0,.9.4c.3.1.6.2,1,.3a3.59,3.59,0,0,0,1.1.2,1.76,1.76,0,0,0-.4.5c-.1.2-.1.3-.2.5-.8-.3-1.6-.6-2.2-.9A4.79,4.79,0,0,1,115.8,33.2Zm4.7-6.6c-.1.1-.1.3-.2.4v.5h-1.8c-.3,0-.5-.1-.7-.1s-.3-.1-.4-.3a.76.76,0,0,1-.2-.5c0-.2-.1-.5-.1-.9V23.5h-3a7.59,7.59,0,0,1-.1,1.6l-.3,1.2a2.36,2.36,0,0,1-.6.9,7.27,7.27,0,0,1-.9.8.78.78,0,0,0-.4-.4c-.1-.1-.3-.1-.5-.2a3.49,3.49,0,0,0,.9-.6l.6-.6a1.08,1.08,0,0,0,.3-.7c.1-.3.1-.6.2-1.1v-.9a3.71,3.71,0,0,0-.2-.9,5.74,5.74,0,0,1,1.2.1H117a3.75,3.75,0,0,0,1.1-.1.6.6,0,0,1-.1.4v3.1a.22.22,0,0,0,.2.2c.1.1.2.1.4.1a1.27,1.27,0,0,1,.6.1h.6A.63.63,0,0,0,120.5,26.6Zm-4.7,5.5a8.37,8.37,0,0,0,2-2.9h-3.9c.2.6.5,1.1.7,1.6A4.89,4.89,0,0,0,115.8,32.1Z"/><path d="M126.5,33c.4-.3.7-.6,1.1-.9l1.1-1.1a.76.76,0,0,0,.2.5c.1.1.1.2.3.4L127,33.7a4.35,4.35,0,0,0-.7.6l-.5.5c-.1-.2-.2-.3-.3-.5l-.4-.4a1.38,1.38,0,0,0,.3-.4c.1-.1.1-.2.2-.3s.1-.3.1-.4V27.2h-1.5c-.2,0-.3,0-.4.1s-.2.1-.4.1V26.3h2.7c.3,0,.6,0,.7-.1a4.54,4.54,0,0,0-.2.8c0,.3-.1.7-.1,1Zm.3-7.6L125.7,24a17.88,17.88,0,0,0-1.4-1.3l.7-.6c.9.8,1.8,1.7,2.7,2.6Zm5.9,1.2H135a9.15,9.15,0,0,0,1.7-.1v1c-.5,0-1.1-.1-1.7-.1h-2.3v6.5a8.64,8.64,0,0,0,.1,1.5h-1.1c0-.6.1-1.1.1-1.5V27.4h-2.3c-.7,0-1.2.1-1.7.1v-1c.5,0,1.1.1,1.7.1h2.3V22.8c0-.4-.1-.7-.1-1a3.54,3.54,0,0,1,.6.1h.5c.2,0,.3,0,.3.1s0,.1-.2.2-.1.2-.2.3-.1.4-.1.8v3.3Z"/><path d="M147.7,23.9V22.1a.75.75,0,0,1,.5.1h.5c.1,0,.1,0,.2.1s0,.2-.1.2-.1.1-.1.2v1.2h1.9a7.57,7.57,0,0,0,1.5-.1v.9c-.5,0-1-.1-1.5-.1h-1.9v1.8h-.9V24.6h-3.5v1.8h-1V24.6h-2.8a1.7,1.7,0,0,0-.7.1v-.9a1.7,1.7,0,0,1,.7.1h2.8V22.1a.75.75,0,0,1,.5.1h.5c.1,0,.1,0,.2.1s0,.1-.1.2a.1.1,0,0,0-.1.1v1.3h3.4Zm4.6,8.2a4.23,4.23,0,0,1-.4,1.2,2.77,2.77,0,0,1-.5.8,2.51,2.51,0,0,1-.7.4,3.09,3.09,0,0,1-1.1.2h-4.4a8.08,8.08,0,0,1-1.6-.1c-.5,0-.9-.1-1.3-.1a1.55,1.55,0,0,1-.8-.2,1,1,0,0,1-.5-.4.9.9,0,0,1-.1-.5.76.76,0,0,1,.1-.4,1.76,1.76,0,0,1,.4-.5l.7-.7a6.23,6.23,0,0,1,1.2-.9c.5-.4,1-.8,1.7-1.3s1.5-1.1,2.4-1.7h-5.7a2,2,0,0,0-.7.1v-.9h7.2c.7,0,1.3-.1,1.6-.1v.6c-.2.1-.4.1-.6.2a2.51,2.51,0,0,0-.7.4c-.3.2-.7.4-1.1.7s-1,.7-1.6,1.2a9.83,9.83,0,0,0-1.5,1.2c-.5.4-.8.7-1.2,1a4.51,4.51,0,0,0-.7.7c-.2.2-.3.3-.3.4s0,.1.1.2.2.1.4.2.4.1.8.1.8.1,1.3.1c.8,0,1.6.1,2.3.1h2.1c.4,0,.7-.1.9-.1l.6-.3a1.61,1.61,0,0,0,.4-.7,10.38,10.38,0,0,0,.3-1.2,1.2,1.2,0,0,0,.5.5C152,32.4,152.1,32.1,152.3,32.1Z"/><path d="M162.6,25.5h3.7a4.12,4.12,0,0,0,1.2-.1,2.22,2.22,0,0,0,.9-.1v1.1a2.2,2.2,0,0,1-.8-.1h-4.2a15.35,15.35,0,0,0,2.5,3.9,9,9,0,0,0,3.2,2.4l-.5.5a2.19,2.19,0,0,0-.3.5,16,16,0,0,1-1.9-1.6,8,8,0,0,1-1.5-1.7,9.39,9.39,0,0,1-1.2-1.8,9.49,9.49,0,0,1-.9-2.1h-.2v8.3a1.27,1.27,0,0,0,.1.6h-1.1c0-.2.1-.4.1-.7V26.3h-.2a14,14,0,0,1-1.9,3.9,19.36,19.36,0,0,1-3.4,3.7c-.1-.2-.3-.3-.4-.5s-.3-.2-.5-.4a8.85,8.85,0,0,0,1.7-1.2,11.37,11.37,0,0,0,1.5-1.6,12.73,12.73,0,0,0,1.3-1.9,20,20,0,0,0,1-2.1h-4.1a2.48,2.48,0,0,0-.8.1V25.2c.5,0,1.3.1,2.2.1h3.6v-3c0-.3,0-.6-.1-.7h1.1c.2,0,.2,0,.3.1s0,.2-.2.2-.1.1-.2.1-.1.1-.1.2v3.3Zm3.7-.6a11,11,0,0,0-1.1-1,10.59,10.59,0,0,0-1.2-1l.6-.5c.4.3.8.6,1.3,1a10.94,10.94,0,0,1,1.1,1Z"/><path d="M178.9,34a.75.75,0,0,1-.1.5c-.1.1-.2.3-.4.4a2,2,0,0,1-.9.2c-.4,0-.9.1-1.5.1a1.42,1.42,0,0,0-.2-.6l-.3-.6c.5.1,1,.1,1.3.2h.7a.27.27,0,0,0,.3-.3,4.33,4.33,0,0,0,.1-.5V31.6h-4.8a4.48,4.48,0,0,0-1.1.1V30.6c.4,0,.7.1,1.1.1H178v-.9l2.3-1.8h-5.9v-.8h7.8V28a1.53,1.53,0,0,0-1,.4L179,30.1v.6h4.6a4.87,4.87,0,0,0,1.2-.1v1.1c-.4,0-.8-.1-1.2-.1H179V34Zm2.4-9.2h2.9V28h-.9V25.6H173.1v2.6h-.9V24.9h8.2c.3-.5.7-1,1-1.5a5.07,5.07,0,0,0,.7-1.5c.2.2.4.3.5.4a4.17,4.17,0,0,0,.6.2.22.22,0,0,1,.2.2c0,.1-.1.2-.2.3s-.2.1-.3.2l-.4.4c-.1.2-.3.3-.5.6C181.7,24.2,181.5,24.5,181.3,24.8Zm-6.5-.1a2.18,2.18,0,0,0-.4-.5c-.1-.2-.3-.3-.4-.4l-.4-.4c-.2-.1-.3-.3-.5-.5l.6-.7a2.65,2.65,0,0,0,.6.5c.2.1.3.3.5.4s.3.3.4.4l.5.5Zm3.4-.2-.3-.6a2.19,2.19,0,0,0-.3-.5c-.1-.2-.3-.3-.4-.5l-.5-.5.7-.6c.4.5.8.9,1,1.2a6.07,6.07,0,0,1,.7,1Z"/><path d="M192.2,30.2a2.77,2.77,0,0,1-.1.9,2.51,2.51,0,0,1-.4.7,4.23,4.23,0,0,1-.7.5c-.3.1-.7.2-1.1.3,0-.2-.1-.4-.1-.6s-.2-.3-.3-.5a4.87,4.87,0,0,0,1.5-.2,1.05,1.05,0,0,0,.4-1,1.27,1.27,0,0,0-.1-.6c-.1-.2-.2-.5-.3-.7a3.51,3.51,0,0,0-.5-.8,2.34,2.34,0,0,0-.7-.7c.3-.8.6-1.5.8-2.1a12.09,12.09,0,0,0,.5-1.8H189V34.1a6.15,6.15,0,0,0,.1,1.4H188c0-.3.1-.5.1-.7v-12h3.2a2.77,2.77,0,0,0,.9-.1c-.2.8-.5,1.6-.7,2.3a19.46,19.46,0,0,1-.8,2.2c.2.2.5.4.7.6a2.18,2.18,0,0,1,.5.8,6.89,6.89,0,0,0,.3.8C192.2,29.7,192.2,29.9,192.2,30.2Zm3.2-.8a10.31,10.31,0,0,1-.2,2,4.56,4.56,0,0,1-.5,1.4,3.46,3.46,0,0,1-1,1.1,19.42,19.42,0,0,1-1.7,1,.52.52,0,0,0-.2-.4,2.18,2.18,0,0,0-.5-.4,5.44,5.44,0,0,0,1.7-.7,4.5,4.5,0,0,0,1-.9,5,5,0,0,0,.5-1.3,9.72,9.72,0,0,0,.1-1.8h-1.2a2.22,2.22,0,0,0-.9.1v-.9c.4,0,1,.1,1.7.1h4.5a8.12,8.12,0,0,0,1.7-.1v.9c-.3,0-.7-.1-1.1-.1h-1.4v3.8c0,.1.1.2.1.3s.2.1.3.1h1a.71.71,0,0,0,.6-.6,1.72,1.72,0,0,0,.1-.8.91.91,0,0,0,.5.3.75.75,0,0,0,.5.1c-.1.4-.2.7-.3,1a2.09,2.09,0,0,1-.4.6,2.18,2.18,0,0,1-.5.3c-.2,0-.4.1-.6.1a4.89,4.89,0,0,1-1.3-.1,1.45,1.45,0,0,1-.7-.2c-.2-.1-.2-.3-.3-.4s-.1-.4-.1-.7V29.4Zm.4-5.6a4.23,4.23,0,0,0-.5-.7,4.23,4.23,0,0,1-.5-.7l.8-.5a1.38,1.38,0,0,0,.3.4c.1.1.2.3.3.4a2.19,2.19,0,0,1,.3.5l.3.6h3.1a1.27,1.27,0,0,0,.6-.1v2.8h-.9v-2h-6.3v1.9h-1V23.7a.9.9,0,0,1,.5.1h3Zm2.8,3.1c-.3,0-.6-.1-1-.1h-2.8a2.79,2.79,0,0,0-1,.1V26c.3,0,.6.1,1,.1h2.8c.4,0,.8-.1,1-.1Z"/><path d="M111.7,42.8v2h-.2a2.28,2.28,0,0,0-.6-1.2,1.61,1.61,0,0,0-1.1-.5,1.45,1.45,0,0,0-.7.2.71.71,0,0,0-.3.6.6.6,0,0,0,.1.4c.1.1.2.3.4.4a4.34,4.34,0,0,0,1,.5,3.35,3.35,0,0,1,1.4,1,2.1,2.1,0,0,1,.4,1.1,1.76,1.76,0,0,1-.6,1.3,2,2,0,0,1-1.5.5.75.75,0,0,1-.5-.1,1.42,1.42,0,0,1-.6-.2.6.6,0,0,0-.4-.1c-.1,0-.2,0-.2.1s-.2.1-.2.3h-.2V46.8h.2a2.75,2.75,0,0,0,.8,1.5,2.08,2.08,0,0,0,1.2.5,1.14,1.14,0,0,0,.8-.3.86.86,0,0,0,.3-.6.6.6,0,0,0-.1-.4c-.1-.1-.2-.3-.3-.4s-.4-.3-.8-.5-.9-.5-1.2-.7l-.6-.6a1.88,1.88,0,0,1-.2-.8,1.66,1.66,0,0,1,.5-1.2,2.11,2.11,0,0,1,1.3-.5,1.27,1.27,0,0,1,.6.1,1.69,1.69,0,0,1,.5.2.76.76,0,0,0,.4.1c.1,0,.1,0,.2-.1a1,1,0,0,0,.1-.3Z"/><path d="M119.3,42.8v2.1h-.2a2.73,2.73,0,0,0-.7-1.3,1.92,1.92,0,0,0-1.2-.4,1.69,1.69,0,0,0-1,.3,2.7,2.7,0,0,0-.7.8,3.34,3.34,0,0,0-.3,1.5,7.72,7.72,0,0,0,.2,1.5,1.7,1.7,0,0,0,.6,1,2,2,0,0,0,1.1.3,3,3,0,0,0,1-.2,7.3,7.3,0,0,0,1-.9V48a2.84,2.84,0,0,1-1.1.8,2.74,2.74,0,0,1-1.3.2,3.29,3.29,0,0,1-1.7-.4,3.18,3.18,0,0,1-1.2-1.1,2.82,2.82,0,0,1-.4-1.5,3,3,0,0,1,.5-1.6,3.45,3.45,0,0,1,1.2-1.2,3.17,3.17,0,0,1,1.6-.4,3.08,3.08,0,0,1,1.3.3c.3.1.4.2.5.2s.2,0,.2-.1a.37.37,0,0,0,.1-.3h.5Z"/><path d="M122.9,46v1.9c0,.3,0,.5.1.6s.1.1.2.2.2.1.4.1h.2V49h-3.1v-.2h.2c.2,0,.3,0,.4-.1s.1-.1.2-.2V43.3c0-.1-.1-.1-.2-.2s-.2-.1-.4-.1h-.2v-.2h3.1V43h-.2c-.2,0-.3,0-.4.1s-.1.1-.2.2v2.3h2.1V43.3c0-.1-.1-.1-.2-.2s-.2-.1-.4-.1h-.2v-.2h3.1V43h-.2c-.2,0-.3,0-.4.1s-.1.1-.2.2v5.2c0,.1.1.1.2.2s.2.1.4.1h.2V49h-3.1v-.2h.2c.2,0,.3,0,.4-.1s.1-.1.2-.2V46Z"/><path d="M131.7,42.8a2.93,2.93,0,0,1,3.2,3,3.2,3.2,0,0,1-3.2,3.2,3.1,3.1,0,0,1-2.5-1.1,3.14,3.14,0,0,1-.7-2.1,2.94,2.94,0,0,1,.9-2.2A3.78,3.78,0,0,1,131.7,42.8Zm.1.3a1.44,1.44,0,0,0-1.3.8,5,5,0,0,0-.4,2,4.62,4.62,0,0,0,.5,2.3,1.43,1.43,0,0,0,1.1.5,1.88,1.88,0,0,0,.8-.2,1.46,1.46,0,0,0,.6-.9,7,7,0,0,0,.2-1.6,7.45,7.45,0,0,0-.2-1.8,1,1,0,0,0-.6-.8A.91.91,0,0,0,131.8,43.1Z"/><path d="M139.5,42.8a2.93,2.93,0,0,1,3.2,3,3.2,3.2,0,0,1-3.2,3.2,3.1,3.1,0,0,1-2.5-1.1,3.14,3.14,0,0,1-.7-2.1,2.94,2.94,0,0,1,.9-2.2A3.57,3.57,0,0,1,139.5,42.8Zm0,.3a1.44,1.44,0,0,0-1.3.8,5,5,0,0,0-.4,2,4.62,4.62,0,0,0,.5,2.3,1.43,1.43,0,0,0,1.1.5,1.88,1.88,0,0,0,.8-.2,1.46,1.46,0,0,0,.6-.9A7,7,0,0,0,141,46a7.45,7.45,0,0,0-.2-1.8,1,1,0,0,0-.6-.8A.78.78,0,0,0,139.5,43.1Z"/><path d="M149.4,46.8l-.2,2.1h-5.3v-.2h.2c.2,0,.3,0,.4-.1s.1-.1.2-.2V43.2c0-.1-.1-.1-.2-.2s-.2-.1-.4-.1h-.2v-.2h3.2v.2h-.3c-.2,0-.3,0-.4.1s-.1.1-.2.2v4.4c0,.3,0,.5.1.6s.1.1.2.2h1a1.88,1.88,0,0,0,.8-.2,2.65,2.65,0,0,0,.6-.5,2.3,2.3,0,0,0,.4-1.1h.1Z"/><path d="M156.4,42.8a2.93,2.93,0,0,1,3.2,3,3.2,3.2,0,0,1-3.2,3.2,3.1,3.1,0,0,1-2.5-1.1,3.14,3.14,0,0,1-.7-2.1,2.94,2.94,0,0,1,.9-2.2A3.78,3.78,0,0,1,156.4,42.8Zm.1.3a1.44,1.44,0,0,0-1.3.8,5,5,0,0,0-.4,2,4.62,4.62,0,0,0,.5,2.3,1.43,1.43,0,0,0,1.1.5,1.88,1.88,0,0,0,.8-.2,1.46,1.46,0,0,0,.6-.9A7,7,0,0,0,158,46a7.45,7.45,0,0,0-.2-1.8,1,1,0,0,0-.6-.8A.91.91,0,0,0,156.5,43.1Z"/><path d="M163.1,43.3v2.5h.2a1.48,1.48,0,0,0,.7-.1.78.78,0,0,0,.4-.4,1.55,1.55,0,0,0,.2-.8h.2v3h-.2c-.1-.6-.2-.9-.5-1.1a1.4,1.4,0,0,0-.9-.3H163v1.8c0,.3,0,.5.1.6s.1.1.2.2.2.1.4.1h.2V49h-3.1v-.2h.2c.2,0,.3,0,.4-.1s.1-.1.2-.2V43.3c0-.1-.1-.1-.2-.2s-.2-.1-.4-.1h-.2v-.2h5.1v1.7h-.2a1.22,1.22,0,0,0-.3-.9,1.61,1.61,0,0,0-.7-.4c-.2,0-.5-.1-1-.1h-.6Z"/><path d="M169.6,48.9v-.2h.2c.2,0,.3,0,.4-.1s.2-.1.2-.2V43.2c0-.1-.1-.1-.2-.2s-.2-.1-.4-.1h-.2v-.2h2.7a4,4,0,0,1,1.7.3,2.54,2.54,0,0,1,1.2,1.1,2.93,2.93,0,0,1,.4,1.6,5,5,0,0,1-.2,1.2,1.93,1.93,0,0,1-.5.9c-.2.2-.5.4-.7.6s-.6.2-1,.3c-.2,0-.5.1-.9.1h-2.7Zm2.3-5.6v5.2a.1.1,0,0,0,.1.1c.1,0,.2.1.3.1a1.29,1.29,0,0,0,1.1-.5,3.28,3.28,0,0,0,.5-2.1,3.58,3.58,0,0,0-.4-1.9,1.2,1.2,0,0,0-.7-.7C172.8,43.3,172.4,43.2,171.9,43.3Z"/><path d="M179.2,43.3v2.5h.1c.4,0,.7-.1.8-.4a1.61,1.61,0,0,0,.3-1.1h.2v3.2h-.2a1.88,1.88,0,0,0-.2-.8c-.1-.2-.2-.4-.4-.4a1.48,1.48,0,0,0-.7-.1v2.3c0,.1.1.1.2.2s.2.1.4.1h.4a2.12,2.12,0,0,0,1.4-.4,2.4,2.4,0,0,0,.7-1.2h.2l-.3,1.9h-5.2v-.2h.2c.2,0,.3,0,.4-.1s.1-.1.2-.2V43.5a.22.22,0,0,0-.2-.2.75.75,0,0,0-.5-.1h-.2V43h5v1.8h-.2a1.88,1.88,0,0,0-.4-.9,1.61,1.61,0,0,0-.7-.4,2.22,2.22,0,0,0-.9-.1h-.4Z"/><path d="M187.8,42.8v2h-.2a2.28,2.28,0,0,0-.6-1.2,1.61,1.61,0,0,0-1.1-.5,1.45,1.45,0,0,0-.7.2.71.71,0,0,0-.3.6.6.6,0,0,0,.1.4c.1.1.2.3.4.4a4.34,4.34,0,0,0,1,.5,3.35,3.35,0,0,1,1.4,1,2.1,2.1,0,0,1,.4,1.1,1.76,1.76,0,0,1-.6,1.3,2,2,0,0,1-1.5.5.75.75,0,0,1-.5-.1,1.42,1.42,0,0,1-.6-.2.6.6,0,0,0-.4-.1c-.1,0-.2,0-.2.1s-.2.1-.2.3H184V46.8h.2a2.75,2.75,0,0,0,.8,1.5,2.08,2.08,0,0,0,1.2.5,1.14,1.14,0,0,0,.8-.3.86.86,0,0,0,.3-.6.6.6,0,0,0-.1-.4c-.1-.1-.2-.3-.3-.4s-.4-.3-.8-.5-.9-.5-1.2-.7l-.6-.6a1.88,1.88,0,0,1-.2-.8,1.66,1.66,0,0,1,.5-1.2,2.11,2.11,0,0,1,1.3-.5,1.27,1.27,0,0,1,.6.1,1.69,1.69,0,0,1,.5.2.76.76,0,0,0,.4.1c.1,0,.1,0,.2-.1a1,1,0,0,0,.1-.3Z"/><path d="M192.6,48.8V49h-3.1v-.2h.2c.2,0,.3,0,.4-.1s.1-.1.2-.2V43.3c0-.1-.1-.1-.2-.2s-.2-.1-.4-.1h-.2v-.2h3.1V43h-.2c-.2,0-.3,0-.4.1s-.1.1-.2.2v4.6c0,.3,0,.5.1.6s.1.1.2.2.2.1.4.1Z"/><path d="M199.7,42.8v2.1h-.2a2.54,2.54,0,0,0-.9-1.3,2.11,2.11,0,0,0-1.3-.5,1.5,1.5,0,0,0-1.1.4,2,2,0,0,0-.6,1.1,6.75,6.75,0,0,0-.2,1.4,6.05,6.05,0,0,0,.2,1.5,1.83,1.83,0,0,0,.7,1,2,2,0,0,0,1.1.3h.4c.2,0,.3-.1.5-.1V46.9c0-.1-.1-.1-.2-.2s-.2-.1-.4-.1h-.2v-.2h2.9v.2a.75.75,0,0,0-.5.1.22.22,0,0,0-.2.2v1.7a5.64,5.64,0,0,1-1.2.4,5.28,5.28,0,0,1-1.3.1,5.21,5.21,0,0,1-1.4-.2,8.79,8.79,0,0,1-1-.6,3.11,3.11,0,0,1-.7-.9,3.19,3.19,0,0,1-.3-1.4,2.9,2.9,0,0,1,1-2.3,3.24,3.24,0,0,1,2.4-.9,2,2,0,0,1,.8.1,3.93,3.93,0,0,1,.6.2,4.21,4.21,0,0,1,.5.2c.1,0,.2,0,.2-.1s.1-.2.2-.3h.2Z"/><path d="M203.5,42.9l3,3.7V44.1a1,1,0,0,0-.2-.7.57.57,0,0,0-.7-.2V43h2v.2a2,2,0,0,0-.5.1c-.1.1-.2.1-.2.3a3.54,3.54,0,0,0-.1.6v5h-.2l-4.1-5V48a1.17,1.17,0,0,0,.2.7c.2.1.3.2.5.2h.1v.2h-2v-.2a.75.75,0,0,0,.9-.9V43.8l-.1-.2q-.15-.3-.3-.3c-.1-.1-.2-.1-.4-.1V43h2.1Z"/><path d="M109.9,56.9v1.9c0,.3,0,.5.1.6s.1.1.2.2.2.1.4.1h.2v.2h-3.1v-.2h.2c.2,0,.3,0,.4-.1s.1-.1.2-.2V54.2c0-.1-.1-.1-.2-.2s-.2-.1-.4-.1h-.2v-.2h3.1v.2h-.2c-.2,0-.3,0-.4.1s-.1.1-.2.2v2.3h2.1V54.2c0-.1-.1-.1-.2-.2s-.2-.1-.4-.1h-.2v-.2h3.1v.2h-.2c-.2,0-.3,0-.4.1s-.1.1-.2.2v5.2c0,.1.1.1.2.2s.2.1.4.1h.2v.2h-3.1v-.2h.2c.2,0,.3,0,.4-.1s.1-.1.2-.2V56.9Z"/><path d="M115.4,53.8h3.1V54h-.2a.75.75,0,0,0-.5.1c-.1,0-.1.1-.2.2a3.54,3.54,0,0,0-.1.6v2.9a3.11,3.11,0,0,0,.1,1.1.78.78,0,0,0,.4.4,1.45,1.45,0,0,0,.7.2,1.88,1.88,0,0,0,.8-.2,1,1,0,0,0,.5-.6,3.92,3.92,0,0,0,.2-1.3V54.9c0-.3,0-.5-.1-.6s-.1-.2-.2-.2-.3-.1-.6-.1v-.2h2.1V54h-.1c-.2,0-.3,0-.4.1s-.2.2-.2.3a4.33,4.33,0,0,0-.1.5v2.3a5.76,5.76,0,0,1-.1,1.5,1.85,1.85,0,0,1-.7.9,2.41,2.41,0,0,1-1.5.4,3.73,3.73,0,0,1-1.2-.2c-.4-.2-.7-.4-.8-.7a3.73,3.73,0,0,1-.2-1.2V55c0-.3,0-.6-.1-.6a.22.22,0,0,0-.2-.2.75.75,0,0,0-.5-.1v-.3Z"/><path d="M124.7,53.8l3,3.7V54.9a1,1,0,0,0-.2-.7.57.57,0,0,0-.7-.2v-.2h2V54a2,2,0,0,0-.5.1c-.1.1-.2.1-.2.3a3.54,3.54,0,0,0-.1.6v5h-.2l-4.1-5v3.8a1.17,1.17,0,0,0,.2.7c.2.1.3.2.5.2h.1v.2h-2.1v-.2a.75.75,0,0,0,.9-.9V54.6l-.1-.2q-.15-.3-.3-.3c-.1-.1-.2-.1-.4-.1v-.2h2.2Z"/><path d="M133.5,58.1h-2.1l-.3.6a1.09,1.09,0,0,0-.1.5.52.52,0,0,0,.2.4,3.54,3.54,0,0,0,.6.1v.2h-2v-.2a.55.55,0,0,0,.5-.3,3.05,3.05,0,0,0,.5-.9l2.2-4.8h.1l2.2,4.9a3.05,3.05,0,0,0,.5.9c.1.1.2.1.4.2v.2h-2.9v-.2h.1a.75.75,0,0,0,.5-.1c.1,0,.1-.1.1-.2v-.2a.44.44,0,0,1-.1-.3Zm-.2-.3-.9-2.1-.9,2.1Z"/><path d="M139.2,53.8l3,3.7V54.9a1,1,0,0,0-.2-.7.57.57,0,0,0-.7-.2v-.2h2V54a2,2,0,0,0-.5.1c-.1.1-.2.1-.2.3a3.54,3.54,0,0,0-.1.6v5h-.2l-4.1-5v3.8a1.17,1.17,0,0,0,.2.7c.2.1.3.2.5.2h.1v.2h-2.1v-.2a.75.75,0,0,0,.9-.9V54.6l-.1-.2q-.15-.3-.3-.3c-.1-.1-.2-.1-.4-.1v-.2h2.2Z"/><path d="M147.4,53.8h3.1V54h-.2a.75.75,0,0,0-.5.1c-.1,0-.1.1-.2.2a3.54,3.54,0,0,0-.1.6v2.9a3.11,3.11,0,0,0,.1,1.1.78.78,0,0,0,.4.4,1.45,1.45,0,0,0,.7.2,1.88,1.88,0,0,0,.8-.2,1,1,0,0,0,.5-.6,3.92,3.92,0,0,0,.2-1.3V54.9c0-.3,0-.5-.1-.6s-.1-.2-.2-.2-.3-.1-.6-.1v-.2h2.1V54h-.1c-.2,0-.3,0-.4.1s-.2.2-.2.3a4.33,4.33,0,0,0-.1.5v2.3a5.76,5.76,0,0,1-.1,1.5,1.85,1.85,0,0,1-.7.9,2.41,2.41,0,0,1-1.5.4,3.73,3.73,0,0,1-1.2-.2c-.4-.2-.7-.4-.8-.7a2.17,2.17,0,0,1-.2-1.2V55c0-.3,0-.6-.1-.6a.22.22,0,0,0-.2-.2.75.75,0,0,0-.5-.1v-.3Z"/><path d="M156.7,53.8l3,3.7V54.9a1,1,0,0,0-.2-.7.57.57,0,0,0-.7-.2v-.2h2V54a2,2,0,0,0-.5.1c-.1.1-.2.1-.2.3a3.54,3.54,0,0,0-.1.6v5h-.2l-4.1-5v3.8a1.17,1.17,0,0,0,.2.7c.2.1.3.2.5.2h.1v.2h-2.1v-.2a.75.75,0,0,0,.9-.9V54.6l-.1-.2q-.15-.3-.3-.3c-.1-.1-.2-.1-.4-.1v-.2h2.2Z"/><path d="M165,59.7v.2h-3.1v-.2h.2c.2,0,.3,0,.4-.1s.1-.1.2-.2V54.2c0-.1-.1-.1-.2-.2s-.2-.1-.4-.1h-.2v-.2H165v.2h-.2c-.2,0-.3,0-.4.1s-.1.1-.2.2v4.6c0,.3,0,.5.1.6s.1.1.2.2.2.1.4.1Z"/><path d="M172.3,53.8V54c-.2,0-.4.2-.6.4s-.3.5-.6,1L169,60h-.1l-2.1-4.8a2.8,2.8,0,0,0-.5-1,.59.59,0,0,0-.5-.2v-.2h2.9V54h-.1c-.3,0-.4,0-.5.1s-.1.1-.1.2v.2a3.93,3.93,0,0,0,.2.6l1.3,3,1.2-2.7a1.63,1.63,0,0,1,.3-.6v-.3c0-.1,0-.2-.1-.2s-.1-.1-.2-.2a.75.75,0,0,0-.5-.1v-.2Z"/><path d="M175.6,54.2v2.5h.1c.4,0,.7-.1.8-.4a1.61,1.61,0,0,0,.3-1.1h.2v3.2h-.2a1.88,1.88,0,0,0-.2-.8c-.1-.2-.2-.4-.4-.4a1.48,1.48,0,0,0-.7-.1v2.3c0,.1.1.1.2.2s.2.1.4.1h.4a2.12,2.12,0,0,0,1.4-.4,2.4,2.4,0,0,0,.7-1.2h.2l-.3,1.9h-5.2v-.2h.2c.2,0,.3,0,.4-.1s.1-.1.2-.2V54.4a.22.22,0,0,0-.2-.2.75.75,0,0,0-.5-.1h-.1v-.2h5v1.8h-.2a1.88,1.88,0,0,0-.4-.9,1.61,1.61,0,0,0-.7-.4,2.22,2.22,0,0,0-.9-.1h-.5Z"/><path d="M182.3,57.1v1.7c0,.3,0,.5.1.6a.22.22,0,0,0,.2.2c.1.1.3.1.6.1v.2h-3.1v-.2c.3,0,.5,0,.6-.1s.2-.1.2-.2a3.54,3.54,0,0,0,.1-.6V54.9c0-.3,0-.5-.1-.6a.22.22,0,0,0-.2-.2c-.1-.1-.3-.1-.6-.1v-.2h2.8a5.67,5.67,0,0,1,1.6.2,1.56,1.56,0,0,1,.8.6,1.69,1.69,0,0,1,.3,1,1.61,1.61,0,0,1-.5,1.1,1.88,1.88,0,0,1-.9.4l1.4,2a2.74,2.74,0,0,0,.4.5c.1.1.3.1.4.2V60h-1.9l-1.9-2.7h-.3Zm0-3v2.6h.3a2.22,2.22,0,0,0,.9-.1,1,1,0,0,0,.5-.4,1.88,1.88,0,0,0,.2-.8,1.33,1.33,0,0,0-.3-1,1.49,1.49,0,0,0-1-.3h-.6Z"/><path d="M191.4,53.7v2h-.2a2.28,2.28,0,0,0-.6-1.2,1.61,1.61,0,0,0-1.1-.5,1.45,1.45,0,0,0-.7.2.71.71,0,0,0-.3.6.6.6,0,0,0,.1.4c.1.1.2.3.4.4a4.34,4.34,0,0,0,1,.5,3.35,3.35,0,0,1,1.4,1,2.1,2.1,0,0,1,.4,1.1,1.76,1.76,0,0,1-.6,1.3,2,2,0,0,1-1.5.5.75.75,0,0,1-.5-.1,1.42,1.42,0,0,1-.6-.2.6.6,0,0,0-.4-.1c-.1,0-.2,0-.2.1s-.2.1-.2.3h-.2V57.7h.2a2.75,2.75,0,0,0,.8,1.5,2.08,2.08,0,0,0,1.2.5,1.14,1.14,0,0,0,.8-.3.86.86,0,0,0,.3-.6.6.6,0,0,0-.1-.4c-.1-.1-.2-.3-.3-.4s-.4-.3-.8-.5-.9-.5-1.2-.7l-.6-.6a1.88,1.88,0,0,1-.2-.8,1.66,1.66,0,0,1,.5-1.2,2.11,2.11,0,0,1,1.3-.5,1.27,1.27,0,0,1,.6.1,1.69,1.69,0,0,1,.5.2.76.76,0,0,0,.4.1c.1,0,.1,0,.2-.1a1,1,0,0,0,.1-.3Z"/><path d="M196.2,59.7v.2h-3.1v-.2h.2c.2,0,.3,0,.4-.1s.1-.1.2-.2V54.2c0-.1-.1-.1-.2-.2s-.2-.1-.4-.1h-.2v-.2h3.1v.2H196c-.2,0-.3,0-.4.1s-.1.1-.2.2v4.6c0,.3,0,.5.1.6s.1.1.2.2.2.1.4.1Z"/><path d="M202.8,53.8v1.6h-.2a3.39,3.39,0,0,0-.3-.8,1,1,0,0,0-.5-.4c-.1-.1-.3-.1-.6-.1h-.4v4.6c0,.3,0,.5.1.6s.1.1.2.2.2.1.4.1h.2v.2h-3.2v-.2h.2c.2,0,.3,0,.4-.1s.1-.1.2-.2V54.1h-.4a1.22,1.22,0,0,0-.9.3,1.6,1.6,0,0,0-.5,1h-.2V53.8Z"/><path d="M210.3,53.8V54a.76.76,0,0,0-.5.2,7,7,0,0,0-.7,1l-1.3,2.2v2.1c0,.1.1.1.2.2s.2.1.4.1h.3V60h-3.4v-.2h.3c.2,0,.3,0,.4-.1s.1-.1.2-.2V57.7l-1.4-2.6a6.38,6.38,0,0,0-.6-.9.75.75,0,0,0-.5-.1v-.2h2.9v.2h-.1c-.2,0-.3,0-.4.1s-.1.1-.1.2a1.79,1.79,0,0,0,.4.8l1.1,2,1.1-1.8a1.63,1.63,0,0,0,.4-.9c0-.1,0-.1-.1-.2s-.3-.1-.6-.1V54h2Z"/><path d="M5.1,8.3a22.43,22.43,0,0,1-.9-4.5h.4A10.7,10.7,0,0,1,6.2,5.2v.4a1,1,0,0,1,.4.5,2.25,2.25,0,0,1,.6,1.4,3.6,3.6,0,0,1,0,2.7,11.08,11.08,0,0,1-.9,1.9c-.4.4-.5.8-.9,1.1a2.18,2.18,0,0,0-.8.5c.2-.9.7-1.6.9-2.5A28.85,28.85,0,0,0,5.1,8.3ZM19.5,12c-.1-.2-.6-.2-.6-.5a1.49,1.49,0,0,1-.7-.3,18.57,18.57,0,0,1-2.7-2.9,2.45,2.45,0,0,1-.4-1.2A.85.85,0,0,0,14,6.6a.56.56,0,0,0-.4.6,40.6,40.6,0,0,0-1.8,8.4c-1.7,1.4-3.7,2.3-5.2,3.9-.4.3-.8.5-1,.9a1.57,1.57,0,0,0-.4,1.3c.2.5.6,1,.5,1.6a24.79,24.79,0,0,1-2.4,6.6c-.4-2.4-1.2-4.6-1.6-6.9C.2,26.5.4,30.3.4,34.1c0,.9-.4,1.7-.4,2.6V37a2.31,2.31,0,0,0,1.5,1.7c.1,0,.2.1.4.3s.6,0,.7-.3c.3-1,.6-1.8.9-2.8.2-.7.8-1.4,1.1-2.2a2.77,2.77,0,0,0,.1-.9,5.64,5.64,0,0,0,.4-1.2A5.54,5.54,0,0,0,5.7,29c0-.2.3,0,.3-.2s-.1-.5,0-.6c.3-.3.2-.6.4-.9s0-.5.3-.8c.2-.1,0-.6.2-.8.3-.4.2-.7.4-1a26.81,26.81,0,0,0,.5-3c.8-.3,1.7-.2,2.6-.5.3-.1.5-.2.8-.3.9-.8,1.7-1.7,2.7-2.6.1-.1,0-.3.2-.4h.2v-.2a.37.37,0,0,1,.3-.1.3.3,0,0,1,.3-.4c.3-.1.3-.5.6-.4.1,0,0-.3.2-.3s.5-.3.7-.4c1-.5,1.9-1.1,2.9-1.7C19.8,14.2,19.8,12.9,19.5,12Zm-3.1.8c-.2.5-1,.5-1.3,1.1a11.7,11.7,0,0,1,.5-2,8.1,8.1,0,0,0,0-2.2A3,3,0,0,1,16.4,12.8Zm11.3-1.5a1.83,1.83,0,0,0-2.6-.7,22.56,22.56,0,0,0-4.2,2.9c-.5.5-1.2,1.1-1.7,1.6s-1.3.6-1.7,1.2c2.7.3,5.1-1.4,6.9-3.2-.1,2.6-.8,5.3-.9,7.9-.2,4.1.2,8.1-.3,12.2,0,.2-.4.1-.6.1a7.22,7.22,0,0,1-2-.9,6.7,6.7,0,0,0-1.8-1.1v.3H19c.2.1,0,.3.1.5h.2c.2.2.2.5.3.5.7.5,1.2,1,1.9,1.5a5.72,5.72,0,0,1,1.6,1.5,3.41,3.41,0,0,0,2.5,1.7c.3,0,.3-.4.5-.5.2-.3.1-.6.1-1a10.1,10.1,0,0,1-.3-1.7c0-.1.1-.1.2-.1V28.6c-.1,0-.2,0-.2-.1,0-2.5-.1-4.8,0-7.3a38.71,38.71,0,0,1,1.9-8A6.23,6.23,0,0,0,27.7,11.3ZM22,20c0-.2-.3,0-.3-.2s-.3-.4-.4-.6c-.2-.5-.6-.6-1.1-1a7.54,7.54,0,0,0-1.3-.6,1.27,1.27,0,0,0-1.2,0c.6.7,1.6,1.3,1.9,2.3,0,.1-.1.1-.2.1s-.1-.1-.1-.2c-.2,0-.5-.1-.6,0-.4.3-1,.2-1.2.5-.4.5-.2,1.3-.5,1.8a12.54,12.54,0,0,1-2.1,3.5c-.4-.9.5-2.1-.5-2.7a1.08,1.08,0,0,0-1.1,0c-.8.4-1.3,1.3-2,1.9a8.47,8.47,0,0,0-1.4,1.9,2.93,2.93,0,0,1-1,.9c-.2.1-.5.2-.5.5a2.22,2.22,0,0,0,.3,1.6c.4.6.9.7,1.3.4.2-.1.3-.4.5-.6s0-.5.4-.6c-.1-.5.3-.7.3-1.2,0-.1.2-.2.2-.2.5-.9.8-1.8,1.2-2.7.1-.2.4-.4.5-.5.5,1.8-.6,3.6-1.5,5.2a1.72,1.72,0,0,0,.1,1.4c.2.3.5.4.6.6s.4,0,.5.3.6.1.6,0a6.94,6.94,0,0,0,.5-1.3c.1-.2,0-.4,0-.5s.1-.2.3-.2c0-.2,0-.5.3-.5V29c0-.1.2-.1.3-.1s-.1-.4,0-.5c1.1-1.1,1.4-2.6,2.2-3.8a64.52,64.52,0,0,1-1.3,9.7,13.12,13.12,0,0,1-.9,3.4c-.3.5-1.2.3-1.6-.3a.31.31,0,0,0-.4.4c.1.2.4.4.3.6.4,0,.3.4.4.5.3.4.4.8.7,1.2s.5.8,1,.5c1.8-1.4,2.3-3.7,2.7-5.9a14.1,14.1,0,0,0,.1-4.1c0-.1.2-.2.3-.2.2-.2-.3-.2-.2-.4.3-1.4.4-2.7.6-4.1.3-1.6.1-3.2.8-4.8.1,0,.2,0,.2.1a3.08,3.08,0,0,1-.1,1c-.4,1.6-1,3.2-.1,4.7a2.59,2.59,0,0,0,1.7.9c.2,0,.5-.4.3-.6s-.3-.4-.4-.5c-.3-.6-.9-1-.7-1.6a8.18,8.18,0,0,1,.9-1.9,2.18,2.18,0,0,1,.5-.4c.2-.2.1-.6.2-.7a1.48,1.48,0,0,0,0-1.3C22,20.4,22,20.2,22,20Zm45.7-1c.1-.1.4-.2.4-.3a1.05,1.05,0,0,0,0-1.2,7.41,7.41,0,0,0-1.2-1.3c-.5-.5-.4-1.4-1.1-1.6-.1,0-.1.3-.1.4a4.49,4.49,0,0,1,.7,1.8,1.31,1.31,0,0,1-.4,1.3,8.64,8.64,0,0,1-1.6,1,10.09,10.09,0,0,1-1.5.7c-.1,0-.4.3-.5,0a4.19,4.19,0,0,1,.4-1.5c.3-.6.1-1.5.6-2.1-.1,0-.2,0-.2-.1a31.09,31.09,0,0,0,.9-6,6.54,6.54,0,0,0-.6-2.3,1.15,1.15,0,0,0-1.2-.5c-.3.1-.4.5-.4.7-.5,2.7-.6,5.1-.9,7.7a26.81,26.81,0,0,1-1.1,5.5c-.4.9-1.5,1.3-2.4,1.7a4.05,4.05,0,0,1-.9.5,5.91,5.91,0,0,1-1.4.6c-.2,0,0,.3-.2.3h-.3a.44.44,0,0,0,.1.5c.4.1.5.5.8.6a1.8,1.8,0,0,0,1,.1,5,5,0,0,1,2-.8c.2,0,.1.3.1.5a41.92,41.92,0,0,0-2,4.9c0,.2-.3,0-.3.2v.3a2.29,2.29,0,0,0-.7,1c-.6.8-1.6,1.3-2.2,2a1.13,1.13,0,0,0,.8-.1A4.52,4.52,0,0,0,56,32.4a24.08,24.08,0,0,0,3-3.3v-.4c0-.2.2-.1.3-.1v-.2a.49.49,0,0,1,.3-.1,7.93,7.93,0,0,0,.4-.9,1.33,1.33,0,0,1,.3-.5c.6-.7.5-1.6.9-2.5,1.3,1.5,2.7,2.7,4,4.2A35.84,35.84,0,0,0,68,32.3a1.17,1.17,0,0,0,1,.6,5.92,5.92,0,0,0,2-.4c.3-.2.6-.1.9-.4s.6,0,.9-.2.5-.2.5-.4a1,1,0,0,0-.1-.9c-.4-.3-.8.1-1.3,0a12.62,12.62,0,0,1-4.7-2.2c-.1,0-.4-.1-.5-.1-1.8-1.4-3.4-2.8-5.3-4-.2-.2-.6-.5-.3-.8s.8-.5,1.4-.8c.6-.5,1.2-.8,1.7-1.3A7.78,7.78,0,0,0,67.7,19ZM87,15.2c.1,0,.1.2.1.3-.8,1.3-1.6,2.3-2.5,3.5.5.2.9-.2,1.4-.5h.4c.6-.7,1-1.7,2-2.2.1,0,.1.1.1.2a1.39,1.39,0,0,1,1,.5c.1.1.1-.3.3-.2a1.49,1.49,0,0,0-.3-.7c-.1-.4-.6-.8-.3-1.1a11.58,11.58,0,0,0,1.1-1.6,2.62,2.62,0,0,0,.5-.9c.1-.2.5,0,.6-.1.2-.4.6-.4.7-.5a14.32,14.32,0,0,0,2.1-1.2,4.49,4.49,0,0,0,1.2-.6,4.59,4.59,0,0,1,1.4-.7c.2,0,.5-.2.6-.1s.2.2.2.2c-.1.3,0,.6-.4.6v.3c0,.1-.1.1-.2.1s0,.2.1.2c-.3.4-.5.7-.7,1-1.4,2.2-2.5,4.4-4.4,6.1-.1.2-.5.1-.8.3-.1-.6.5-1,.9-1.4a2.66,2.66,0,0,0,.6-1c.1-.4.4-.6.4-1,0-.1.1-.2.3-.2v-.3c0-.2-.3,0-.3-.2s0-.5-.3-.6v-.3c-.3-.1-.4-.4-.6-.5s-.7-.1-.7.1a9,9,0,0,0-.3,1.6c-.3.9-.6,1.6-1,2.6a.42.42,0,0,1-.4.4c0,.2,0,.5-.3.4.2.6-.6.6-.8,1,0,.1,0,.2.1.2a11.76,11.76,0,0,0,2-.7c.4,0,.1.6.3,1-.2,0,0,.3-.2.3a2.7,2.7,0,0,0-1.1.5c-.1.1-.4-.1-.5,0-.2.4-.6.4-.8.5a13,13,0,0,1-1.7.8.74.74,0,0,0-.6.5h-.4l-.5.5a9.29,9.29,0,0,0-1,.5h-.4c-.1.4-.5.2-.6.5-.1.1-.4.1-.6.1-.6.4-1.1.6-1.6.9-.1.1,0,.2.1.2h.4c.1,0,.1.1.1.2a10.27,10.27,0,0,0,2.4-.5,35.65,35.65,0,0,0,6.2-2.3,1.06,1.06,0,0,1,.5-.2v-.2c.3-.2.6-.2.8-.5.1.1.4.2.3.4A37,37,0,0,0,87.7,26c0,.2,0,.5-.3.4,0,.3-.2.5-.2.6-.2.6-.3,1.6-1.1,1.4l.1.1c-2,.7-3.9,1.6-5.9,2.5a12.17,12.17,0,0,0-3.2,2h-.4c.1.3-.4.3-.3.4,0,.4-.2.8.1.9,1.1.8,2.4.1,3.5-.6a3,3,0,0,1,1.1-.6c.7-.2,1.2-.8,2-.8.2,0,0-.3.2-.3.4,0,.6-.4,1.1-.3.2,0,0-.3.2-.3s.4.1.6,0c.6-.4,1.3-.6,1.9-1,.4-.2.4.5.5.6a35.39,35.39,0,0,1,.5,7.2c-.9,1.1-2.5,1-3.8,1-.1,0-.1-.1-.1-.2-1,.2-1.9-.5-3-.5a.66.66,0,0,0,.4.5,33.34,33.34,0,0,0,4,1.6c.3.1.6-.1.8.1s.5.1.6.1a4.3,4.3,0,0,0,1.6,0,1.15,1.15,0,0,0,.6-.9c.1-1.1-.1-2.3-.1-3.4a4.05,4.05,0,0,0,0-1.1c0-.1-.2-.1-.2-.2a4,4,0,0,0,0-1.1c-.1-.3,0-.7-.1-1.1-.1,0-.2,0-.2-.1a3.33,3.33,0,0,0,0-1,4.06,4.06,0,0,1-.5-2.1c.1-.4.7-.5,1.1-.7h.4c.3-.5.7-.2,1-.6.2-.1.5,0,.6,0s.1-.2.2-.2c.3,0,.9-.1.8.3-.4,1.2-1.8,1.6-2.6,2.6h.2c.1,0,.1.1.1.2a25,25,0,0,0,2.5-.9c0-.2.1-.2.2-.3.7-.2,1.1-.9,1.7-1.4a.44.44,0,0,1,.5-.1c-.1-.3.3-.2.4-.4.1-.6-.6-.8-1-1.2S93.4,27,93,27c-1.8-.2-3.6.6-5.4.6a1.35,1.35,0,0,1,.5-.9,11.35,11.35,0,0,0,2.3-1.5h.4c.2,0,0-.3.2-.3h.3c.5-.6,1.3-.7,1.7-1.5.1-.2.5-.1.7-.3a.37.37,0,0,0-.1-.3c.2-.2.4-.3.5-.4-.2-.4.3-.4.4-.6a.3.3,0,0,1,.4-.3,1.83,1.83,0,0,1,.7-1v-.3a1.34,1.34,0,0,0,.5-1.4,2.08,2.08,0,0,0-1.6-.8c-.2,0-.6-.3-.3-.6a6.39,6.39,0,0,0,1.3-1.5c.1-.1.4-.2.4-.5,0-.1.2-.1.3-.1.5-1.1,1.4-1.8,1.9-2.9.2-.2.4-.4.5-.4-.1-.1.2-.3,0-.4a4.18,4.18,0,0,0,.8-1.2c.3-.3.6-.5.9-.8s.2-.5.3-.7c.2-.5-.3-.9-.5-1.1a1.8,1.8,0,0,0-1.2-.3c-.5.2-.9,0-1.3.4-.3.2-.6.1-1,.1-.2,0,0,.3-.2.3a1.88,1.88,0,0,0-.8.2,38.61,38.61,0,0,0-4.1,2,.37.37,0,0,0-.3-.1,2.81,2.81,0,0,0-2.5-.9c-.1-.1-.3-.3-.2-.5.7-1,1.6-1.7,2.4-2.7.1,0,.3-.1.4-.1.8-1.3,2.3-2,1.9-3.7,0-.1-.2-.1-.2-.2,0-.6-.5-1.1-.8-1.6s-.5-.5-1-.4a5.66,5.66,0,0,1,.3,2.6c0,.1-.2.1-.3.1,0,.3,0,.5-.3.5l.1.1c0,.2-.3,0-.3.2s-.2.5-.4.8c-.3.5-.6.9-.9,1.5-.1.2-.4.2-.5.4a9.55,9.55,0,0,1-1.2,1.6c0,.1-.1.3-.1.4-.4.5-.8,1.2-1.5,1.3a9.48,9.48,0,0,1-2.3.5c-.1,0-.1.2-.1.3.5.2.9.5,1.4.7a2.1,2.1,0,0,1-.8.6c.1.2.4.4.6.3a4.33,4.33,0,0,1,.5-.1c.2-.1.3-.3.4-.4.3-.1.5-.3.8-.3.8-.1,1.6-.6,2.5-.3.2,0,.1.5-.1.7a20,20,0,0,0-1.6,1.4,1.88,1.88,0,0,1-1.6.4c.4,1-.6,1.5-1.3,2-.2-.7-.4-1.5-.6-2.1-.1-.2-.4-.4-.4-.5-.2-.5-.6-.9-.7-1.3a9.55,9.55,0,0,0-2.4-2.9.61.61,0,0,0-.6-.1c.2.5.6,1,.9,1.6v.5a9.08,9.08,0,0,1,1.5,3.5c.1,0,.2,0,.2.1v.5a2.93,2.93,0,0,1,.4,1.6c0,.1-.1.4.2.5,0,.1-.1.1-.2.1v.3c-.2.3-.5.6-.7.3-.8-.9-1.3-2.6-2.6-2.8a15.67,15.67,0,0,0,.5,3,4.28,4.28,0,0,0,.5,1.6,15,15,0,0,0,1.1,1.3H82a7,7,0,0,1,1.1-2.3,4.89,4.89,0,0,1,1.3-1.2c.7-.5,1.1-1.3,1.9-1.5C86.6,15.6,86.6,15.1,87,15.2Zm-37.8.3c-.1-.2-.2-.5-.5-.6s-.8-.2-1.2-.1a46.23,46.23,0,0,0-4.7,1.9l-.2.2a9.34,9.34,0,0,0-2,1c-.1,0-.3,0-.3-.1s.3-.6.5-.6V17c0-.1.1-.1.2-.1s.3-.3.5-.5.6-.3.9-.5c.5-.4.8-.7,1.3-1.1.3-.1.5-.4.8-.6a10.39,10.39,0,0,0,2.4-1.7.88.88,0,0,0-.4-1.3c-.4-.2-.7-.6-1.3-.6.1.6.2,1.4-.4,1.7-.3.1-.4.3-.6.4a.62.62,0,0,0-.5.3c-.2,0-.6.1-.6-.1.1-.5.2-1.1.3-1.7a6.16,6.16,0,0,0,.1-2.7c0-.4-.2-1.3-.6-1.3s-.6.9-.8,1.5a2.19,2.19,0,0,1-.3.5,13.4,13.4,0,0,0-1.4,3.6c-.2.6,0,1.5-.5,1.8a36.64,36.64,0,0,1-6.7,3.7c-.6.3-1.2.5-1.8.8-.1,0,.1.3.2.4a3.9,3.9,0,0,0,2.6.2,1.85,1.85,0,0,1,.7-.2c.1,0,.1.1.1.2a21.67,21.67,0,0,0,3.8-1.6c.1,0,.3,0,.3.1a3.33,3.33,0,0,1-.3.6,20,20,0,0,1-1.6,1.4,9,9,0,0,1-1.8,1.5A18.48,18.48,0,0,0,34,23.1,10,10,0,0,0,32.8,25a18.58,18.58,0,0,1-1,2,5.1,5.1,0,0,0-1.2,3.8c0,.5.5.8.6,1.3.1,0,.4.1.5,0,.5-1.5.3-3,.7-4.5a14.24,14.24,0,0,1,.5-1.6,2.21,2.21,0,0,1,1.4-1.1c.5-.2.9-.4,1.3-.6h.3c0-.1,0-.2.1-.2s.4-.1.5,0a6.47,6.47,0,0,0,.9.8,1.49,1.49,0,0,0,.6.1c0-.1,0-.2.1-.2.3,0,.4-.3.4-.2.5.2,0,.9.3,1.3.2.2.5.1.5.5a17.38,17.38,0,0,1-1,1.9c0,.1-.3.3-.4.4a2.39,2.39,0,0,0-.3.9c.1,0,.2,0,.2.1,0,.4,0,.8.3.9.7.2,1.1-.7,1.8-.8a.3.3,0,0,1,.2.4,2.82,2.82,0,0,0,.3,2.2c.1.2.3.6.5.3.6-1.5.1-3,.9-4.5a.49.49,0,0,1,.3-.1c.1-.5.5-1,.3-1.5s-.2-.8-.5-1.1c-.1,0-.3-.1-.4-.1s-.3-.5-.5-.4c0-.3-.5-.3-.4-.6a16,16,0,0,0,2.5-2.7c.2-.4.1-.7-.3-.8-.8-.3-2.1-.6-2.6.6a3,3,0,0,1-2.6,1.6c-.1,0-.2-.1-.1-.2a20.4,20.4,0,0,1,2.7-2.3c.1-.1.1-.4.2-.5.3,0,.4-.3.6-.4s.3-.3.5-.5c1.6-.9,3.3-1.6,4.9-2.4.2-.1.6-.3.7-.2s.3,0,.3.2c.1.5.5,1,.2,1.5-.1.3,0,.5-.1.7a17,17,0,0,0-.2,4.5c-.1,1.9-.1,3.8-.2,5.8a6.35,6.35,0,0,1-.4,2.7c-.5,1.3-2.2.5-3.1-.1.2,1.1,1.5,1.6,2.3,2.2.5.3,1,.6,1.6.2a2.81,2.81,0,0,0,.7-1.9,11.63,11.63,0,0,0,.4-1.8,80.75,80.75,0,0,1-.5-8.5c0-.1.1-.1.2-.1,0-.2-.3-.1-.2-.3.5-.5-.1-1.3.4-2,.3-.3,0-.7.1-1.2,0-.1.1-.2.3-.2a5.85,5.85,0,0,1,.2-1.3A1.56,1.56,0,0,0,49.2,15.5ZM40.4,27.2a.37.37,0,0,1,.3-.1c.1,0,.1.1.1.2l-.2.2c-.1,0-.2,0-.2-.1S40.3,27.3,40.4,27.2Z"/></g></g></svg>