<svg xmlns="http://www.w3.org/2000/svg" viewBox="0 0 175.16 47.05"><defs><style>.cls-1{fill:#595959;}</style></defs><title>title_background</title><g id="图层_2" data-name="图层 2"><g id="图层_1-2" data-name="图层 1"><path class="cls-1" d="M5,24.48c.58-.18.45-2.28.54-2.14,0-.22-.13-1.88-.13-2,0-1.25.13-2.5.13-3.8S5.9,12,4.6,12c-1.12,0-2,.18-3.17.18S.54,10.68.27,10.1A.77.77,0,0,1,0,9.43c0-.13.45-.67.54-.67H7.82c.85-.31,1.79-.09,2.81-1.07S12,6.61,13,6.61c1.74,1.12,2.19,2.06,2.19,3.35,0,.13-.13.67-.45.67-.89,0-2,.54-3.49.54L11,11.3c-.13.4-1.74,2-1.74,3.35,0,.54.13,1.25.13,1.52,0,.09-.27,1.43-.27,1.61a4.59,4.59,0,0,1,.13.54v3.62c0,.54.67.8,1.07.8,1.74,0,2.59-1.21,4.15-1.21.27,0,.71.13.71.54,0,.76-3.48,2.28-5.14,3.35a13.68,13.68,0,0,1-1.74,1.21C8,26.76,7.46,27.75,7,27.75l-.54.36C6.26,29,4.2,29.17,4.2,29.71c-.8,0-1,.8-1.79.8-1.92,0-1.61-2-1.7-3.08a3.94,3.94,0,0,1-.27-1.34C.45,24.8,3,25.91,5,24.48ZM9.56,41.15c.94-.45,1.74-.89,2.68-1.43a12,12,0,0,0,1.47-.8c.71-.54,1.34-1.34,2.05-1.88.54-.45,1.61-.71,1.61-1.52,0-.36-.45-.71-.71-.8-.8-.85-.62-1.83-.89-2.86,0-1.16.27-2.14.27-3.31a19.44,19.44,0,0,1,.09-3.26v-.13c0-.27-.09-4.16-.09-6.3,0-.18-.18-.8-.18-1a5.27,5.27,0,0,0-.8-2.95c-.36-.58-.89-.36-.89-1.34,0-.31.31-.36.67-.36h.67a3.32,3.32,0,0,1,1.7-.54c.54,0,1.61.8,2.32.8,1.07,0,1.21-1.3,1.7-2.19V9.16c0-.67-1.3-.67-2.23-.67s-1.65.27-2.59.27c-1.3,0-1.16-.89-1.16-1.88,0-.13-.45-.67-.45-.8,0-.62.4-.94,1-.94,1.43,0,3,.27,4.56.27,2.41.13,4.83.13,7.24.13.85,0,1.83.13,3.75.13,1.21,0,2.37-2.14,3.89-2.14.89,0,2.1,1.88,2.86,3.08A2.28,2.28,0,0,1,37,8a8.53,8.53,0,0,0-2.46.27H31.32l-.27-.13H27.7c-.54,0-2.19,3-2.68,3.8-.85.58-1.92,1.47-1.92,1.88s.54.8,1.07.8a.86.86,0,0,0,.58-.18H27.7a3.38,3.38,0,0,1,1.61-.63l1.47-1.52a1.13,1.13,0,0,1,.54-.09c1,0,3.75,1.3,3.75,2.77,0,1.07-.8,1.25-.8,2.32,0,.36.13,1.56.13,3.35,0,.27.27.4.4.54v4.69c0,.4.13,1.92.13,2.28a4.67,4.67,0,0,1-.13.54,5.19,5.19,0,0,0,.13.71,6.71,6.71,0,0,1-.4,1.88c-.27.62-1.07,1.34-1.07,2.23,0,.67.85.36,1.21,1.25,1.52.49,1.43,1.92,1.79,3.22,0,.71-.45.76-.54,1.25S34.76,42,33.06,42c-1.21,0-2.41-1.25-3.75-4a7.93,7.93,0,0,0-1.74-2.41c-1-.31-1.38-1.43-2.14-2.06-.54-.36-1.07-.54-1.34-1.16-.18-.27-.27-1.25-.71-1.25-1.3,0-3.49.09-3.49,1.07,0,.4.18.71.45.71s.89-.71,1.61-.71.63.45.89,1c.49.76,1.07.89,1.07,2.19,0,.76-2.64,1.52-3.57,2.1-.58,0-.94,1-1.52,1-.09,0-.62.63-.8.63-.09.18-.8.45-1.07.54-1.07,0-1.92,1.43-3.22,1.79-.27-.13-.94.76-1.47.8.22.13-1.38.27-1.88.8-.13,0-.94.54-1.07.54H8.62c-.4,0-1.61,0-1.61-.8C7.69,41.73,8.4,41.64,9.56,41.15ZM21.13,29.09c1.43,0,2.9-.31,4.38-.31.27,0,.58,0,.85,0a1.26,1.26,0,0,1,.8-.18c.63-.13,2.41-.36,2.41-1.07,0-1.79.27-3.4.27-5.23.18-1.34-.4-2.41-.4-3.93a2.21,2.21,0,0,0,.13-.62,1.76,1.76,0,0,0-.8-1.52,21.37,21.37,0,0,0-4.87.27c-.22,0-.36-.09-.54-.09s-.54.27-.89.27c-.76,0-1.92.09-2.14.62,0,1.56,0,1.88,1.34,1.88s2.14,0,3.35-.09c.8,0,1.07-1.07,1.74-1.07s1.34,1.16,1.47,1.88c0,.4-.4.67-.67.8-1.47,0-2.9.13-3.93.13-.22.09-.31,0-.54-.13l-.27.13-2.14.27a4,4,0,0,0-.63,1.74c-.13.76.49,1.74,1.16,1.74a33.43,33.43,0,0,0,5.67-.67c.71-.13,1.07.4,1.07,1.07,0,.94-.54.94-1.34,1.07-6.57,0-6.57-.45-6.57,2.46C20.06,29.09,20.69,29.09,21.13,29.09Zm7.24,3c.54,0,.8-.27.8-.89a1.7,1.7,0,0,0-1.47-.54c0-.18-.94.27-1.34.27C26.36,31.86,27.7,32.12,28.37,32.12Z"/><path class="cls-1" d="M49.29,38.47c0-1.47-.13-3.4.27-3.75,0-.13-.18-.8-.18-1,0-4,0-10.95-.27-10.86,0-1.16.18-2.41.18-3.75,0-1.88-.27-2.32-.27-4.29-.31-.45,0-4.69-.45-5.09,0-1.34-.27-2-.27-2.68.45-.89-.62-.94-.62-1.79,0-.27,0-.8.27-.8h.89c1.34.54,2.68,1.25,4,1.79.94.18.67.63,2.41.63a9.39,9.39,0,0,0,3.4-.27h2.95c.13,0,1.47-.27,1.61-.27s.13.18.54.18l.13-.18a43.56,43.56,0,0,0,8-.54,8.31,8.31,0,0,0,2.23-1.88c.76-.09.45-1,1.07-1.34,1.3-.18,1.34,1.79,2.14,1.61.45,0,.8,1.07,1.25,1.07A2.38,2.38,0,0,1,79.89,7.6c0,.36-1.07.71-1.07,1.61,0,1.16,0,3.62-.18,3.57a6.87,6.87,0,0,0,.27,2.05c.09.94-.54.94-.54,1.21A2.43,2.43,0,0,1,79,17.6c0,.45-.09.85-.09,1.12a23.24,23.24,0,0,1,.45,3.48c0,.13-.18.8-.18.94l.18.4c0,.31-.18.67-.18,1,0,.09,0,.27.18.27,0,.54.27,2.77.27,3.31,0,1.83.22,7.55-.27,8.09a3.67,3.67,0,0,1,.09.8c0,2-.13,3.17-2.5,4.56-.27.13-1.25,1.07-1.52,1.07-.89,0-1.43-1.21-1.43-1.88a2,2,0,0,1,.09-.8,1.25,1.25,0,0,0-.89-1.21c-2.32.27-4.47.27-6.75.4-.67,0-2.06.27-3.22.27l-.4.13c-.67,0-1.43-.13-2.28-.13s-1.47.4-2.32.4c-.49,0-.76,0-.89-.13-.31.4-4.2.49-4.47,1.07.13,1.74-.49,1.52-.89,2.14h0c-.45,0-.67,1.61-1.74,1.61a3.5,3.5,0,0,1-1.07-2.95C49.11,41.73,49.29,39.5,49.29,38.47Zm5.09-.27a2.42,2.42,0,0,0,1.07-.13h2.77a3,3,0,0,1,1-.27c2.55,0,4.38-.54,6.7-.54,1.07,0,3.71-.67,4.42-.67l3.22-.27c.45,0,.71-.67.71-1.07V29.71a.54.54,0,0,0,.09-.36c0-.27-.27-.27-.27-.45a2.43,2.43,0,0,1,.18-.54v-2.5a.81.81,0,0,0,.09-.45c0-.36-.09-.62-.09-1.07,0-.22.09-.62.09-.8s-.09-.4-.09-.67,0-.27.09-.4l-.09-.27V20.73l.09-.13c-.09-1.34-.54-2.55-.54-3.75s0-2.23-.09-3.48c0-.58-.27-1.12-.27-1.74s.09-1.34.09-2.05c0,0-.31-1.61-.8-1.61s-.89.09-1.16-.27A7,7,0,0,1,69.17,8a5.06,5.06,0,0,1-.85-.09L68.05,8H65c0,.18-.4.27-.4.27-.31,0-.94-.22-1.07-.09S61.71,8,61.62,8.4h-1a2.25,2.25,0,0,0-1.25.27c-.8,0-1.92,0-2.72.09,0,.22-1.21.18-1.88.18-.09,0-.89.27-1.07.27a2,2,0,0,0-.36-.09c-.45,0-.54,1-.54,1.25s.09,3.49.09,5.27c0,.8.8,1.07,1.52,1.07A81.61,81.61,0,0,0,62.56,16a12.57,12.57,0,0,0,4.29-.67c.4-.27,1.07-1.07,1.47-1.07s.85.4,1.21.67c.71.4,3,1.56,2.86,2.55-.09.09-.63.36-.71.27a19.93,19.93,0,0,0-3.49-.27c-1.07-.18-4.07.4-5.09.4-2,.13-3.89.13-5.94.13l-.27.13h-1.7L54.92,18l-.27.27c-1.61,0-1.79,1.38-1.79,2.28a5.9,5.9,0,0,1,.27,1.74,11.18,11.18,0,0,1-.27,3,5.58,5.58,0,0,0,.27.89c0,.71.18,1.61.71,1.61h3.22c.36-.27.89-.09,1.34-.27a13.59,13.59,0,0,1,3.22-.36c.13,0,1.61-.27,1.74-.27H65.1a21.63,21.63,0,0,1,2.55-.45c.45,0,.89-.76,1.52-1.16a2.29,2.29,0,0,1,2,1.07c.27.36,1.07.54,1.07,1.07s-.89,1.16-1.43,1.16-.49,0-.54-.09c-2.59.13-2.73.36-3.66.36-.4,0-.8-.09-1.21-.09s-.4.09-.8.09a1.25,1.25,0,0,1-.67-.09,4.63,4.63,0,0,0-.94.27,64.13,64.13,0,0,1-6.39.58c-.62,0-1.25,0-2.14,0-.54,0-1.25,0-1.38.63,0,3.53.09,4,.09,5.14,0,.22-.13.45-.09.54C53,38.29,53.53,38,54.38,38.2Z"/><path class="cls-1" d="M89.37,17c1.21,0,2.77,0,4-.13a10.37,10.37,0,0,1,3.35-.54c.8,0,1.47-.63,2.41-.4a7,7,0,0,1,2.05-.54,2.93,2.93,0,0,0,.8-2.28c0-1.12-.31-1.88-1.34-1.74a25.8,25.8,0,0,1-2.86.54c-1.43,0-2.5.54-3.75.54-.62,0-1.43-1.21-1.43-2.06,0-.36.22-.4.27-.4a1,1,0,0,0,.27,0c.09,0,.89-.18,1.07-.18,2.32,0,3.26-.27,4.92-.27a9.16,9.16,0,0,1,1.61.18c.67,0,.71-1.21.71-1.88a5.47,5.47,0,0,0-2.06-4.2c.09-.22-.09-.49.18-.63,1.07,0,1.52-1.25,2.5-1.25a2.25,2.25,0,0,1,1.25.54c-.62,0,2.86.49,2.86,2.68,0,.45-1.34.71-1.61,1.25a4.78,4.78,0,0,0-.27,2c0,1.34-.09,3.49.27,3.93,0,.4-.18.63-.18.94.49.67.18,1.21.71,1.21a14.56,14.56,0,0,0,2.5-.4c.31,0,.58-.27.8-.27a1.79,1.79,0,0,1,1,.67c0,.63-1,.4-2.32,1.21,0,0-1.83.18-2.41,1.07-.09,1.74,0,4.56-2.41,4.56-.18.13-.22-.09-.27-.27l-.27-2.55c0-.13-.18-.54-.27-.54-1.43-.31-4.33,1.65-6.88,2.55-.09,0-1.43.54-1.61.54-.54.13-1.07.67-1.74.67-1,0-1.47-2.81-1.74-3.22,0-.13-.4-.67-.4-.8v-.13C89.1,17.25,89.1,17.11,89.37,17Zm24.08,25.15c1.43,0,1.88-.8,2.55-3.22a19.09,19.09,0,0,0,.13-2.86c.18-1.34-1-1.34-1.74-1.34a30.15,30.15,0,0,0-5.76.45,10.65,10.65,0,0,0-1.88.36,8.67,8.67,0,0,1-2.1.22c-.54,0-1.07,0-1.56,0-.18,0-.8.09-1,.09,0,.49-1.38-.22-1.7.71-.36,2.81.8,8.58-2.86,8.58-.63,0-.8-1.25-.8-1.79.13-2.14.18-4.29.27-6.43,0-.54.27-1.07.27-1.7a1.34,1.34,0,0,0-.09-.54V31.77c0-.45-.27-4.29-.27-4.74V26c-.18-.09-.27-.71-.27-1.16,0-.18.09-.71.09-.8s-.27-.71-.27-.85c0-.54,0-1.07-.54-1.34-.09-.76.76-1.07,1.34-1.07s.49.27,1.21.54a15.32,15.32,0,0,1,2.19,1.47c.36.45,1.07.27,1.7.27l.18.13c.27-.4,1.61-.67,2.14-.67,1.7,0,3.57-.13,4.74-.13.09,0,.63-.27.8-.27.67,0,1.52-.13,2.14-.13s1.34,0,2-.13c1.25-.27,2.81-2.64,2.68-2.55l-.13-.13h-3.66c-1.16-.22-2.5-.27-2.5-1.88,0-.4.09-.54.09-.8-.62-2.19-.36-4.51-.36-7A38.8,38.8,0,0,1,110,4.92c0-.54-1.29-2.32-1.07-2.32,0-.54,1.65-1.34,2.14-1.34.09,0,.63.18.8.18,1.25.67,3.75.4,3.75,2.14.09,1.07-1.34,1.07-1.61,1.7,0,1-.45,1.25-.45,2.32,0,.31-.27,2.23.71,2.23.67,0,1.34-.8,1.74-1.07a14,14,0,0,0,3.35-2.23c.54.09,1.34-1.47,1.74-1.34l.27.09,2.82,2.86c.13.09.13.36.13.54,0,.58-1.34.62-2,.8-.18,0-.62.36-1.07.36-.8,0-1.7.54-2.28.54a21.52,21.52,0,0,0-2.5.71c-.09.09-2.73.58-2.73.89V14.7c.71.89.4,1.07,1.61,1.07a29.48,29.48,0,0,0,4.83-.54c.8,0,1.25-.54,1.74-.54.67-.13.94,0,1.47-.4a15.19,15.19,0,0,0,2.55-3.48c.18-.18.18-.18.54-.18a17.93,17.93,0,0,0,1.25,4.6,2.1,2.1,0,0,1-.45,1.34c0,.13-.54.94-.54,1.07a13.76,13.76,0,0,1-2.28.54c-.27,0-2.1.13-3.08.13-.27.27-3.89.67-3.89.8a4.52,4.52,0,0,0,.67.94c.13.13,1.74,1.07,1.88,1.21l.54.54c.18,1.74-1.47,1.34-1.47,3.17s.4,3.31.54,5a10.48,10.48,0,0,0,.4,3.49V39c-.09.18-.22.31-.27.45l.13.27a4.83,4.83,0,0,1-.4,2c-.49,1.61-3.71,3.93-4.29,3.93-.8.09-.8-.4-.94-.8,0-1.21-1.79-1.34-1.79-2.06C112.47,42.53,113.18,42.18,113.45,42.13ZM100.14,26.76c0,.54,1.61.8,2.41.8.09,0,1.07-.09,1.25-.09l.54.09c1.88.09,3.66-.09,5.36-.09a7,7,0,0,1,1.61.09,4.28,4.28,0,0,0,2.23-.36c.31,0,1.92,0,1.92-.45V24.08c0-.27-.4-.54-.67-.63-3.22,0-2.68.09-5.63.09-1,0-1.61.27-2.86.27-.27,0-1.61.27-2.77.27a10.45,10.45,0,0,0-3.31.45A3.66,3.66,0,0,0,100,25.6C100,25.69,100.14,26.49,100.14,26.76Zm.09,7c0,.8,2.28.4,2.59.71a1.23,1.23,0,0,1,1-.27,20.06,20.06,0,0,0,2.77-.45c.45,0,.76.18,1.25.18,4.2-.76,4.29-.27,7.37-1.07.54,0,.54-.62.54-1.25,0-.45.13-2.14-.67-2.23s-2-.18-2.14-.18-.71.18-.8.18c-1.43,0-1.61.09-4.29.09-.18,0-1,.27-1.07.27a40.77,40.77,0,0,0-6.25.45l-.27.27Z"/><path class="cls-1" d="M151.57,23.1c0,.09,0,.09,0,.13a4.29,4.29,0,0,1-1.52.31,20.06,20.06,0,0,0-2.32.09c-.27,0-.67.27-.94.27s-.94,0-1.21.18c-.13,0-.36.09-.54-.18-.13,0-1.07.27-1.21.27a18.76,18.76,0,0,1-4.16.27l-.27-.27-.13.18.13.09-.27.18h-2a1.27,1.27,0,0,1-1,.36c-.54,0-1,.27-1.56.27-.27-.09-2.23.4-2.23-.54,0-.36-1.47-1.88-1.34-2l.09-.13c.63-.4,6.16-.4,6.48-.4h4a7.34,7.34,0,0,1,1.47-.27l.54.13c1.34-.09,2.55-.27,3.89-.27a4.54,4.54,0,0,0,1,.4c.31.13.63-.67,1.43-.67,0,0,.13.09.18.09.27,0,.54-1.52.54-2.23,0-1.43.13-1.61-.45-2.55-.09-.27-.54-.4-.8-.67,0,0-.09.27-.27.27s-.49-.13-.62-.4c-.18.09-.31.22-.45.27h-.49a1.68,1.68,0,0,0-1.79,1.21c.18.8-1.61,2.06-2.55,1.88-.58-.54-1.12-1.07-1.07-1.21l.13-4.29a.13.13,0,0,1-.13-.13c.22-.4,0-1,.27-1.21,0-.13-.13-.4-.13-.54h.4l-.54-.45c-.13-.67-.27-3.44-.27-3.84s.13-.49.13-.8c.13-.67-.4-1.34-.4-1.88a10.84,10.84,0,0,1-.27-2.14c0-.45,0-1,.54-1,1.21,0,2.73,1.88,4,1.88l.27-.27a4.67,4.67,0,0,0,.76,0c2.59,0,5-.67,7.73-.67,2.5-.22,3.75,0,6-2.32.27-.27.67-.09.94-.54.63.67,1.43.31,1.88,1a9.82,9.82,0,0,1,2.41,1.43c0,.76-1.25.8-1.25,1.79v.4a.6.6,0,0,1-.09.4c0,2.41-.13,2.5.13,3a8.77,8.77,0,0,1-.13,1.52,3.45,3.45,0,0,1,.27,1.43l-.13.27c0,.8.27,1.65.27,2.46a3,3,0,0,1-.67,2.41c-1.07,1-2.05,1.56-2.55,1.47-.18.27-1.12.4-1.07.54a1,1,0,0,1-.54-.13l.13-.4c-.54,0-1.21-1.25-1.07-1.74-.18-.4-2.1,0-1.92-.36l-.13.09c-.4.18-2.14.27-2.14.8s0,.4.54.67.54,1.07.54,1.61a3.74,3.74,0,0,1-.09,1.21c0,.54.36,1.21.89,1.21a32.85,32.85,0,0,0,3.8-.4c.94-.09,1.88-.13,2.81-.27a9.73,9.73,0,0,0,3.35-.54c.4-.13.54-.54.8-.8,2.5-2.23,3.13-3,4.29-4.16.18,0,.27.13.45.27h-.27v.4c0,.13-.8.54-.8.67a.8.8,0,0,0,.09.54c1,1.16,3.75,2.73,3.75,4a1.75,1.75,0,0,1-.09.67,34.11,34.11,0,0,1-3.66.4c-.45,0-.58,0-.8-.13-.09,0-.36.27-.36.27-.89,0-7.15,0-7.15.94,0,.4,1.61,1.38,2,1.65s.67.27.67.8-.94,1.16-1.07,1.88c0,1.25-.27,2.37-.27,3.75a5.2,5.2,0,0,0,.13,1.61c0,.54-.8.62-1.21.62s-.85-.09-1.21-.09c-1,.09-2.28.27-2.68.27-.13,0-4.74-.09-4.74.8,0,.54.8,1.34,1.25,1.52a14.54,14.54,0,0,1,.09,2c0,.45-.36.8-.36,1.34,0,.27.36.8.36,1.25,0,.63-.09,2-.09,3.31-.4.89-1.38,2.41-2.41,2.41l-.18-.36a.39.39,0,0,1-.27.09l.18.27c-.18.45-1.92.8-1.88.8-.71.09-.71-.58-1-.89a9,9,0,0,0-1.16-1.34c-.27-.18-.54-.45-.71-.54.45-.54,1.79-.54,2.32-.8s.54-1,1.07-1.07L151.7,42c0-.67,0-1.88,0-2.68A4.5,4.5,0,0,1,152,37.4c-.27-.27-.27-3.13-.54-3.13l-.27.09-.45-.36c-.94.54-2.41.49-3.62.62s-.67.71-1.61.71l-.13-.18v.45h.54a3.32,3.32,0,0,1-1.07,1.88c-.09-.09-.13,0-.13-.27-.49.22-.09.45-.54.45,0-.27-.13-.71-.4-.71l-.4.18c-.49.09-.54-.67-.54-1.25v-.54a51.91,51.91,0,0,0-.27-5.36c0-.18-.13-.71-.13-.8,0-.8-.09-1.61.94-1.61.67,0,1.61.54,2.41.54a11.32,11.32,0,0,1,2.73-.54c.8,0,.36.54.8.54.09,0,.27,0,.27-.18-.18,0-.18-.09-.18-.27s0-.27.27-.27h3.49c1.79-1.16,4.6.13,6.61-1.7.67-1.29,1.47-1.52,1.61-3a.29.29,0,0,0-.27-.27,2.49,2.49,0,0,1-.94.27l-.54-.13a5.05,5.05,0,0,1-1.39.27,14,14,0,0,1-2.77-.13L155,23c-.13,0-.13,0-.27-.13l-.27.27c-.13,0-.49-.09-.54-.36V23c-.27,0-1.43.13-1.7.13a1.92,1.92,0,0,0-.49.09V23.1c0-.09,0-.13,0-.13S151.57,23,151.57,23.1ZM135.13,46.51a41.54,41.54,0,0,0,6.34-4.29A7.78,7.78,0,0,0,142.54,41a3.51,3.51,0,0,0,.67-.54c.54,0,2.28-2.05,2.82-2.23.09-.71.71-.71,1.21-1.07s.54-1.43,1.52-1.25c.27,0,.89,1.88.89,2.32s-.8.63-1.07.89a4.64,4.64,0,0,1-1.88,1.61c-.4.27-.94.8-1.34,1.07-1.92,1.16-3.84,2.5-5.23,3.22a7,7,0,0,1-1.21.71,2,2,0,0,0-1.47.54c-.71.27-1.52.27-2.14.54-.18,0-.54.27-.71.27s-.54,0-.54-.18C134.24,46.6,134.86,46.6,135.13,46.51Zm14.25-31.59c.22-.22,1.88,0,1.88-.27a1.52,1.52,0,0,0,.71.13c.09,0,1.61-.27,1.7-.27.76,0,1.38-.13,2.05-.13,1.47,0,3.89.76,3.89-2.37v-.31l.27-.18-.13-.09s-.13-1.25-.27-1.79c-.13-.27,0-.27.27-.36a4.87,4.87,0,0,1-.27-1.88c-.22,0,.27-.94.27-1.34,0-2.32-.27-1.56-.8-2.05a5.93,5.93,0,0,0-1.07.18c-.45-.49-.76-.13-1.07-.45V4a14.59,14.59,0,0,1-3.13.27c-.58,0-1.65.54-2.41.54-.94,0-1.92.27-2.95.27-.54,0-.36-.09-.67-.09-1,1.3-1.74-1.07-1.74,4a2.75,2.75,0,0,0,.8.89,1.24,1.24,0,0,0,.94-.27c.45.31,2.19-.54,3.89-.54.76-.09.94.45,1.25.45,0-.18,0-.27-.18-.27l.18-.18,1.61-.27c.36-.36.8-.54,1.16-.89.18-.31.22-.54.8-.54.54-.22,1.34,1.3,1.34,1.88v.36l-.27-.09c-.27.22-.31.31-.63.27-.54.13-2.9.09-3.48.54a8.83,8.83,0,0,0-2.86.36,5.77,5.77,0,0,0-1.61-.09v-.27c-.27,0-.54.36-.63.36-.27,0-.18,0-.27-.09h-1.12c0,1-1.07,0-1.07,2,0,.27.13.4.13.67s-.13.27-.13.54.67.94,1.07.94h2A1.82,1.82,0,0,0,149.38,14.92Zm-3.08,16.4a6.77,6.77,0,0,0,.13,1.88l.27.09c.45,0,1.47.09,2.32.09.4,0,.94,0,1.16-.36h2.41l.27.18a6.64,6.64,0,0,1,3.49-.45c.8-.31,1.88,0,2.72-.63V30.25l.13-.27c0-1.56-.27-1.43-1-1.88h-2.95l-.27-.18a3.79,3.79,0,0,1-2.14.45c-.36.49-1.56.09-1.7.36a1.32,1.32,0,0,1-.45-.09,10.12,10.12,0,0,1-1.34.27c-.36,0-.8-.27-1.07-.27-1,.8-2.28-.22-2.28,1.34C146,30.34,146.3,30.87,146.3,31.32Zm6,5.63h1a.53.53,0,0,0,.09-.36,1.3,1.3,0,0,0-.36-.18C152.6,36.41,152.33,36.59,152.33,36.95Zm1.61-20.28h.18c0-.67.36-.54.36-1.07-.27,0-.09.4-.54.4Zm10.5,26.09c0-.27,0-.18-.13-.27l-.27.27c-.4-.27-.54-1.07-.67-1.52-.45-.54-.62-1.52-1.21-2.14l-2.81-2.77a7.75,7.75,0,0,1-1.12-1l.18-.18a5.61,5.61,0,0,1,2.68,1.16c.54.27,1.07.27,1.61.54l1.74.8c1.34.54,5.09,1.47,5.09,3.22a4.89,4.89,0,0,1-.8,2.14c-.67,1-2.28.67-3.22,1.34-1.16,0-.94-.94-1.34-1.34Z"/></g></g></svg>