<svg xmlns="http://www.w3.org/2000/svg" viewBox="0 0 100 50"><defs><style>.cls-1{fill:none;}.cls-2{fill:#fff;}</style></defs><title>top_menu_landscape_white</title><g id="图层_2" data-name="图层 2"><g id="图层_1-2" data-name="图层 1"><rect class="cls-1" width="100" height="50"/><path class="cls-2" d="M2.28,34.16C3,33.44,4,33,4.56,32.1c.23-.3.8-.53,1-.91C7.07,29.48,7,27.66,8,26c.11-.68.46-4.14.57-4.83,0-.08.23-1.14.23-1.22,0-1.94.23-3.8.23-5.74V11.32c0-1.14-.34-2.55-.34-4,0-.15-.46-.91-.46-1.14C7.6,5.59,6.5,5.51,6.5,5.05S8.25,4,9.23,4a2.51,2.51,0,0,1,1.71.68c.11,0,.46.61.57.61a16.72,16.72,0,0,0,3.65.3h2c.84,0,1.67.15,2.77.15.57.08,1.06-.23,1.75-.23.42,0,.8,0,1.25,0a5.42,5.42,0,0,0,1.6-.19c.11,0,.46-.23.57-.23s.57.23.68.23h.11a10.12,10.12,0,0,0,1.14-.08c.57,0,1.22-1.75,2.05-1.75.68,0,2.39,2.05,2.74,3-.23,1.06-1.25,1.06-1.71,1.75,0,.08-.34.53-.34.68-1.37,2.28-1.6,2.85-1.6,6.15,0,.23.23,1.94.23,2.17a16.07,16.07,0,0,0,1.82,7c.84,1.56,3,3.76,3.8,3.76s1-.57,1.9-1.25c.23-.11.84-1,.91-1a.2.2,0,0,1,.23.23c0,1.1-.23,2.13-.23,3.19-.11,1.37.68,2.81.68,4.1a2.14,2.14,0,0,1-1.6,1.6,1.51,1.51,0,0,1-1-.46,21.88,21.88,0,0,1-3.57-2.28c-.46-.3-.68-.91-1.14-1.37C29,30,29,29.07,28.42,28a5.09,5.09,0,0,1-.91-2.85,21.3,21.3,0,0,1-.91-3.65,8.66,8.66,0,0,0-.34-2V17a1.18,1.18,0,0,0,.11-.68c0-.23-.11-.46-.11-.68a7.69,7.69,0,0,1,.23-1.6c0-.3-.23-.76-.23-1.14a12.6,12.6,0,0,1,.23-2.17c0-.87.57-1.79.57-2.89.3-.46-.57-.72-.91-.68-.11,0-1.25.15-1.37.15-1.14,0-3.46-.15-4.37-.15-.27,0-1.14.23-1.82.23-1.14,0-1.1.15-3.27.15-.87,0-3.38,0-3.69.68a11.88,11.88,0,0,1-.23,1.82v3.76c0,6.08-.8,5.51-.8,9a16.1,16.1,0,0,1-.46,2.28,16.08,16.08,0,0,1-.68,2.51c-.27.68-1.37,1.6-1.37,1.82s-.95,1.18-1.48,2.09A7.58,7.58,0,0,1,4.1,33.85C3,35,1.67,36.36,0,36.36v-.23A11.2,11.2,0,0,0,2.28,34.16Zm8.32-2.81c.87,0,6.27-.08,7.22-1.06,0-2.39,0-3.23-.23-3.76l-.15-.11h-1.6l-.23.11a13.91,13.91,0,0,1-.23,2.28c-.27.42-1.48.34-1.14.34a1.16,1.16,0,0,1-1-1.25c0-.11.11-1.25.11-1.37,0-2.55-.23-4.22-.23-5.93a12,12,0,0,0-.68-2.2s-.11-1,.23-1c1.1.3,2.32,1.14,3.57,1.14.76,0,1.14-.61,1.14-1.37,0-.91.42-3.12-1.75-3.12-.08,0-.3.11-.3.23H13.56c-.34,0-1.48-.91-1.48-1.25s.46-.46.8-.46c1.41,0,2.66.11,3.88.11s1.14-.11,1.6-.11c1.82,0,3.15.23,4.33-.8.15,0,.46-.46.61-.46,1.37-.08,1.44.49,2.17,1.48,0,.53.3,1-1.25,1,0,0-4.48-.15-4.48.46s.84.68.84,1.37c0,.23-.23.61-.23.91,0,1.25-.19,1.75.76,1.75a3.67,3.67,0,0,1,2-.91,5.88,5.88,0,0,1,2.39,1.44,1.45,1.45,0,0,1,.11.68c0,.46-.57.68-.8,1.14a8.69,8.69,0,0,0-.34,3c0,.8.11,1.48.11,2.28s-1.18.34-1.25.68.34.34.46.34A6.81,6.81,0,0,1,26.37,29l.57,1.25c0,.68.46,1.14.46,1.52a1.76,1.76,0,0,1-1.14,1.82,3.81,3.81,0,0,0-.68.08c-1.63.15-.65-2.77-2.16-2.58a42.32,42.32,0,0,0-6.27,1.37,3.69,3.69,0,0,1-1.52.3,2.08,2.08,0,0,1-1.22.61,6.42,6.42,0,0,1-2.32.53c-.38-.3-2.17-1.44-2.17-2.36C10,31.35,10.49,31.35,10.6,31.35Zm4.79-10.75v3.76c.46.8.57.68,1.48.68.72,0,.95-.23.95-1.71.08-.46-.23-.84-.23-1.29,0-.8,0-2.05-.68-2.05C16.68,20,15.39,20.14,15.39,20.59Zm4.48,8c0,.72,0,1.6.76,1.6a3.46,3.46,0,0,0,2.43-.61c.11.08.08-.57.08-.8-.95-1.41-.95-2.17-1.82-2.51-1.14,0-1.44,0-1.44,1.71Zm1.9-3.8c.46-.15.61-.91.61-1.37,0-.95-.23-1.86-.23-2.77,0-.57-.42-.76-1.29-.76-.68,0-.76.68-.76,1.14,0,.91-.15,3.19.3,3.65C20.63,24.7,21.54,24.81,21.77,24.81Z" transform="translate(12.23 4.99)"/><path class="cls-2" d="M55.48,19.64c0,.08,0,.08,0,.11a3.65,3.65,0,0,1-1.29.27,17.25,17.25,0,0,0-2,.08c-.23,0-.57.23-.8.23s-.8,0-1,.15c-.11,0-.3.08-.46-.15-.11,0-.91.23-1,.23a15.93,15.93,0,0,1-3.53.23l-.23-.23-.11.15.11.08-.23.15H43.24a1.09,1.09,0,0,1-.87.3c-.46,0-.84.23-1.33.23-.23-.08-1.9.34-1.9-.46,0-.3-1.25-1.6-1.14-1.71l.08-.11c.53-.34,5.24-.34,5.51-.34H47a6.24,6.24,0,0,1,1.25-.23l.46.11c1.14-.08,2.17-.23,3.31-.23a3.85,3.85,0,0,0,.84.34c.27.11.53-.57,1.22-.57,0,0,.11.08.15.08.23,0,.46-1.29.46-1.9,0-1.22.11-1.37-.38-2.17-.08-.23-.46-.34-.68-.57,0,0-.08.23-.23.23s-.42-.11-.53-.34c-.15.08-.27.19-.38.23h-.42a1.43,1.43,0,0,0-1.52,1c.15.68-1.37,1.75-2.17,1.6-.49-.46-1-.91-.91-1l.11-3.65a.11.11,0,0,1-.11-.11c.19-.34,0-.84.23-1,0-.11-.11-.34-.11-.46h.34l-.46-.38c-.11-.57-.23-2.93-.23-3.27s.11-.42.11-.68c.11-.57-.34-1.14-.34-1.6a9.19,9.19,0,0,1-.23-1.82c0-.38,0-.84.46-.84,1,0,2.32,1.6,3.42,1.6L50.88,3a3.89,3.89,0,0,0,.65,0c2.2,0,4.29-.57,6.57-.57,2.13-.19,3.19,0,5.13-2,.23-.23.57-.08.8-.46.53.57,1.22.27,1.6.84a8.33,8.33,0,0,1,2.05,1.22c0,.65-1.06.68-1.06,1.52v.34a.51.51,0,0,1-.08.34c0,2.05-.11,2.13.11,2.58a7.4,7.4,0,0,1-.11,1.29,2.94,2.94,0,0,1,.23,1.22l-.11.23c0,.68.23,1.41.23,2.09a2.55,2.55,0,0,1-.57,2.05c-.91.84-1.75,1.33-2.17,1.25-.15.23-1,.34-.91.46a.81.81,0,0,1-.46-.11l.11-.34c-.46,0-1-1.06-.91-1.48-.15-.34-1.79,0-1.63-.3l-.11.08c-.34.15-1.82.23-1.82.68s0,.34.46.57.46.91.46,1.37a3.16,3.16,0,0,1-.08,1c0,.46.3,1,.76,1a28.09,28.09,0,0,0,3.23-.34c.8-.08,1.6-.11,2.39-.23a8.27,8.27,0,0,0,2.85-.46c.34-.11.46-.46.68-.68,2.13-1.9,2.66-2.55,3.65-3.53.15,0,.23.11.38.23H73v.34c0,.11-.68.46-.68.57a.68.68,0,0,0,.08.46c.87,1,3.19,2.32,3.19,3.42a1.47,1.47,0,0,1-.08.57,29,29,0,0,1-3.12.34c-.38,0-.49,0-.68-.11-.08,0-.3.23-.3.23-.76,0-6.08,0-6.08.8,0,.34,1.37,1.18,1.71,1.41s.57.23.57.68-.8,1-.91,1.6c0,1.06-.23,2-.23,3.19a4.42,4.42,0,0,0,.11,1.37c0,.46-.68.53-1,.53s-.72-.08-1-.08c-.87.08-1.94.23-2.28.23-.11,0-4-.08-4,.68,0,.46.68,1.14,1.06,1.29a12.29,12.29,0,0,1,.08,1.67c0,.38-.3.68-.3,1.14,0,.23.3.68.3,1.06,0,.53-.08,1.71-.08,2.81-.34.76-1.18,2.05-2.05,2.05l-.15-.3a.33.33,0,0,1-.23.08l.15.23c-.15.38-1.63.68-1.6.68-.61.08-.61-.49-.84-.76a7.62,7.62,0,0,0-1-1.14c-.23-.15-.46-.38-.61-.46.38-.46,1.52-.46,2-.68s.46-.84.91-.91l-.23-.23c0-.57,0-1.6,0-2.28a3.82,3.82,0,0,1,.27-1.6c-.23-.23-.23-2.66-.45-2.66l-.23.08-.38-.3a8.7,8.7,0,0,1-3.08.53c-.91.11-.57.61-1.37.61l-.11-.15v.38h.46a2.82,2.82,0,0,1-.91,1.6c-.08-.08-.11,0-.11-.23-.42.19-.08.38-.46.38,0-.23-.11-.61-.34-.61l-.34.15c-.42.08-.46-.57-.46-1.06v-.46a44,44,0,0,0-.23-4.56c0-.15-.11-.61-.11-.68,0-.68-.08-1.37.8-1.37.57,0,1.37.46,2.05.46a9.6,9.6,0,0,1,2.32-.46c.68,0,.3.46.68.46.08,0,.23,0,.23-.15-.15,0-.15-.08-.15-.23s0-.23.23-.23h3c1.52-1,3.91.11,5.62-1.44.57-1.1,1.25-1.29,1.37-2.55a.25.25,0,0,0-.23-.23,2.11,2.11,0,0,1-.8.23l-.46-.11a4.29,4.29,0,0,1-1.18.23,12,12,0,0,1-2.36-.11l-.38.23c-.11,0-.11,0-.23-.11l-.23.23c-.11,0-.42-.08-.46-.3v.19c-.23,0-1.22.11-1.44.11a1.63,1.63,0,0,0-.42.08v-.08c0-.08,0-.11,0-.11S55.48,19.57,55.48,19.64Zm-14,19.91a35.26,35.26,0,0,0,5.39-3.65,6.54,6.54,0,0,0,.91-1.06,3,3,0,0,0,.57-.46c.46,0,1.94-1.75,2.39-1.9.08-.61.61-.61,1-.91s.46-1.22,1.29-1.06c.23,0,.76,1.6.76,2s-.68.53-.91.76a4,4,0,0,1-1.6,1.37c-.34.23-.8.68-1.14.91-1.63,1-3.27,2.13-4.45,2.74a6,6,0,0,1-1,.61,1.69,1.69,0,0,0-1.25.46c-.61.23-1.29.23-1.82.46-.15,0-.46.23-.61.23s-.46,0-.46-.15C40.74,39.63,41.27,39.63,41.5,39.55ZM53.62,12.69c.19-.19,1.6,0,1.6-.23a1.3,1.3,0,0,0,.61.11c.08,0,1.37-.23,1.44-.23.65,0,1.18-.11,1.75-.11,1.25,0,3.3.65,3.3-2V10l.23-.15-.11-.08s-.11-1.06-.23-1.52c-.11-.23,0-.23.23-.3a4.16,4.16,0,0,1-.23-1.6c-.19,0,.23-.8.23-1.14,0-2-.23-1.33-.68-1.75a5,5,0,0,0-.91.15c-.38-.42-.65-.11-.91-.38v.23a12.37,12.37,0,0,1-2.66.23c-.49,0-1.41.46-2.05.46-.8,0-1.63.23-2.51.23-.46,0-.3-.08-.57-.08-.87,1.1-1.48-.91-1.48,3.42a2.33,2.33,0,0,0,.68.76,1.05,1.05,0,0,0,.8-.23c.38.27,1.86-.46,3.3-.46.65-.08.8.38,1.06.38,0-.15,0-.23-.15-.23l.15-.15,1.37-.23c.3-.3.68-.46,1-.76.15-.27.19-.46.68-.46.46-.19,1.14,1.1,1.14,1.6v.3l-.23-.08c-.23.19-.27.27-.53.23-.46.11-2.47.08-3,.46a7.5,7.5,0,0,0-2.43.3A4.89,4.89,0,0,0,53.16,9V8.81c-.23,0-.46.3-.53.3-.23,0-.15,0-.23-.08h-1c0,.87-.91,0-.91,1.71,0,.23.11.34.11.57s-.11.23-.11.46.57.8.91.8h1.71A1.55,1.55,0,0,0,53.62,12.69ZM51,26.63a5.74,5.74,0,0,0,.11,1.6l.23.08c.38,0,1.25.08,2,.08.34,0,.8,0,1-.3h2.05l.23.15a5.64,5.64,0,0,1,3-.38c.68-.27,1.6,0,2.32-.53v-1.6l.11-.23c0-1.33-.23-1.22-.84-1.6H58.63l-.23-.15a3.22,3.22,0,0,1-1.82.38c-.3.42-1.33.08-1.44.3a1.14,1.14,0,0,1-.38-.08,8.69,8.69,0,0,1-1.14.23c-.3,0-.68-.23-.91-.23-.87.68-1.94-.19-1.94,1.14C50.77,25.8,51,26.25,51,26.63Zm5.13,4.79H57a.45.45,0,0,0,.08-.3,1.11,1.11,0,0,0-.3-.15C56.35,31,56.12,31.12,56.12,31.42Zm1.37-17.25h.15c0-.57.3-.46.3-.91-.23,0-.08.34-.46.34Zm8.93,22.19c0-.23,0-.15-.11-.23l-.23.23c-.34-.23-.46-.91-.57-1.29-.38-.46-.53-1.29-1-1.82l-2.39-2.36a6.52,6.52,0,0,1-1-.84l.15-.15a4.76,4.76,0,0,1,2.28,1c.46.23.91.23,1.37.46l1.48.68c1.14.46,4.33,1.25,4.33,2.74a4.15,4.15,0,0,1-.68,1.82c-.57.84-1.94.57-2.74,1.14-1,0-.8-.8-1.14-1.14Z" transform="translate(12.23 4.99)"/></g></g></svg>