<svg xmlns="http://www.w3.org/2000/svg" viewBox="0 0 368.55 195.04"><defs><style>.cls-1{fill:#e7465a;}.cls-2,.cls-3{fill:#a3a2a2;}.cls-3{fill-rule:evenodd;}</style></defs><title>title_featured</title><g id="图层_2" data-name="图层 2"><g id="图层_1-2" data-name="图层 1"><path class="cls-1" d="M67.6,10V7.73A7.27,7.27,0,0,1,70,2.27Q72.38,0,76.86,0q6.06,0,6.06,4a3.17,3.17,0,0,1-1.14,2.78,3.83,3.83,0,0,1-2.2.81,5.92,5.92,0,0,1-2.9-1.05,5.92,5.92,0,0,0-2.42-1,1.75,1.75,0,0,0-1.4.65,2.07,2.07,0,0,0-.55,1.35,2.16,2.16,0,0,0,.81,1.69,2.41,2.41,0,0,0,1.54.7H80.9q1.25,0,1.25,1.2v2.07a1.5,1.5,0,0,1-.84,1.41,3.2,3.2,0,0,0-1.51,3.06V52.17q0,.74,1.25,1.37a1.35,1.35,0,0,1,.7.65,5.9,5.9,0,0,1,.11,1.46,12,12,0,0,1-.09,2q-.09.33-.86.33H66.39a.84.84,0,0,1-1-.95V54.7a1.28,1.28,0,0,1,.88-1.34q1.29-.46,1.29-2.5V17.05a2.68,2.68,0,0,0-1.32-2.25,1.76,1.76,0,0,1-.84-1.55V11.18q0-1.2,1-1.2Z"/><path class="cls-1" d="M108.4,33.29V47.67a7.55,7.55,0,0,0,1.16,4.46,3.5,3.5,0,0,0,3,1.62A5.27,5.27,0,0,0,117,51.49a10.79,10.79,0,0,0,1.78-6.2,4.87,4.87,0,0,1,.42-2.53q.39-.42,2.66-.42a5.07,5.07,0,0,1,2.52.39q.53.39.53,1.93a14.26,14.26,0,0,1-3.67,9.63,12.27,12.27,0,0,1-9.73,4.22q-6.94,0-11.79-6T94.85,34.31q0-12.13,4.48-18.47t11.75-6.35a11.72,11.72,0,0,1,10,5.34q3.78,5.34,3.78,15.19v3.27Zm5-4.39V17.26q0-3.3-2.46-3.3t-2.5,3.3V28.9Z"/><path class="cls-1" d="M156.32,23.94V17.16q0-2.81-2.39-2.81-3.27,0-3.27,4.25a7.45,7.45,0,0,1-.57,3.41,4.6,4.6,0,0,1-2.57,1.74,12.54,12.54,0,0,1-4.28.72q-4.66,0-4.66-4.78a8.63,8.63,0,0,1,4.06-7.35q4.06-2.85,10.6-2.85A24.8,24.8,0,0,1,161,10.62a11.08,11.08,0,0,1,5.49,3.79,9.45,9.45,0,0,1,2.06,5.87V52.35a4,4,0,0,0,1.1,1.05,1.78,1.78,0,0,1,.73,1.55,3.62,3.62,0,0,1-.4,2A3.87,3.87,0,0,1,168,58a13.2,13.2,0,0,1-3.91.49,10.2,10.2,0,0,1-4.77-1,6.77,6.77,0,0,1-3-3.92,19.92,19.92,0,0,1-5.18,4,10,10,0,0,1-4.08.88A8.41,8.41,0,0,1,139.85,55q-2.56-3.5-2.56-11.43t2.39-11q2.39-3.07,9.33-5.67Q153.42,25.28,156.32,23.94Zm0,4.57q-4.15,1.75-5,3.95t-.81,9.88q0,5.65.66,7.14A2.31,2.31,0,0,0,153.49,51q2.83,0,2.83-4.49Z"/><path class="cls-1" d="M184.22,14.8h-1.43a1.4,1.4,0,0,1-.79-.14q-.16-.14-.17-.77V11.36a1.66,1.66,0,0,1,.17-.91,1.66,1.66,0,0,1,1-.32,10.31,10.31,0,0,0,5.33-2.81,9.4,9.4,0,0,0,3.19-5.2A2.27,2.27,0,0,1,192,.9a1.88,1.88,0,0,1,1.12-.23h2.39q1,0,1,1.23V10h2.28Q200,10,200,11.14v2.53q0,1.13-1.29,1.13h-2.28V51.22a2.75,2.75,0,0,0,1.73,2.67,2.09,2.09,0,0,1,1.1.95,5.52,5.52,0,0,1,.26,2q0,.91-.13,1a2,2,0,0,1-.9.11H186.86q-2.64-2.25-2.64-6.79Z"/><path class="cls-1" d="M213.63,15.36l-.73-.32a2.61,2.61,0,0,1-1.16-.76,3.2,3.2,0,0,1-.24-1.53q0-.63,0-1.05a2.14,2.14,0,0,1,.31-1.39,2,2,0,0,1,1.38-.33h11.42q.84,0,1,.25a2.39,2.39,0,0,1,.18,1.2V46.05q0,4.54,2.61,4.54a3.35,3.35,0,0,0,3-1.62V16.45a2.17,2.17,0,0,0-1.29-2,1.48,1.48,0,0,1-.75-.76,14.88,14.88,0,0,1-.13-2.72q0-1,1.25-1h12q.77,0,.94.21a2.26,2.26,0,0,1,.17,1.13V51.61a1.63,1.63,0,0,0,1,1.62,2.19,2.19,0,0,1,1.21,2.11,8.51,8.51,0,0,1-.16,2.39q-.17.28-1.16.28H233.31a1.54,1.54,0,0,1-1.87-2v-.88q0-1.41,0-1.58-5.84,4.92-9.88,4.92a7.69,7.69,0,0,1-5.68-2.21q-2.21-2.21-2.21-8.54Z"/><path class="cls-1" d="M270.69,19.34a18.53,18.53,0,0,0,1.07-3q1.4-4.57,2.74-5.73a4.42,4.42,0,0,1,3-1.16,3.59,3.59,0,0,1,3.32,2,10.2,10.2,0,0,1,1.12,5q0,6.5-3.82,6.5a3.21,3.21,0,0,1-2.94-2.14q-.62-1.23-1.29-1.23-1.65,0-1.65,3.48V51.22a2.07,2.07,0,0,0,1.29,2,2,2,0,0,1,1.29,1.93v1.58a1.82,1.82,0,0,1-.2,1.07q-.2.23-1.16.23H259.56q-1.43,0-1.43-1.3V54.77a1.31,1.31,0,0,1,.62-1.3A1.94,1.94,0,0,0,260,51.64V16.24a1.85,1.85,0,0,0-.88-1.72,2.92,2.92,0,0,1-1.1-.83,6,6,0,0,1-.15-1.81q0-1.27.39-1.58a2.08,2.08,0,0,1,1.3-.32h9.92a1.09,1.09,0,0,1,1,.37,3.75,3.75,0,0,1,.26,1.78Z"/><path class="cls-1" d="M305.57,33.29V47.67a7.55,7.55,0,0,0,1.16,4.46,3.5,3.5,0,0,0,3,1.62,5.27,5.27,0,0,0,4.46-2.27,10.79,10.79,0,0,0,1.78-6.2,4.87,4.87,0,0,1,.42-2.53q.39-.42,2.66-.42a5.07,5.07,0,0,1,2.52.39q.53.39.53,1.93a14.26,14.26,0,0,1-3.67,9.63,12.27,12.27,0,0,1-9.73,4.22q-6.94,0-11.79-6T292,34.31q0-12.13,4.48-18.47t11.75-6.35a11.72,11.72,0,0,1,10,5.34q3.78,5.34,3.78,15.19v3.27Zm5-4.39V17.26q0-3.3-2.46-3.3t-2.5,3.3V28.9Z"/><path class="cls-1" d="M353.82,13.18V7q0-1.55-1.32-1.65a1.18,1.18,0,0,1-.92-.33,2.25,2.25,0,0,1-.22-1.21V2.46q0-.81.24-1a2,2,0,0,1,1.12-.19h11.72a1.74,1.74,0,0,1,1.27.32A2.44,2.44,0,0,1,366,3V51.89A2.07,2.07,0,0,0,367.67,54a1.06,1.06,0,0,1,.88,1.09v1.79q0,1.16-1.07,1.16H354.67q-.62,0-.75-.23a6.81,6.81,0,0,1-.13-1.88q0-.32,0-.95-4,3.55-7.46,3.55-11.64,0-11.64-22.75,0-16.17,3.1-21.22t8.1-5Q349.75,9.49,353.82,13.18Zm0,4a5.92,5.92,0,0,0-2.75-1,2.28,2.28,0,0,0-2,1.11,4.31,4.31,0,0,0-.75,2.48v29A3.47,3.47,0,0,0,349,51a2.15,2.15,0,0,0,1.76.9,3.18,3.18,0,0,0,2-.83,2.21,2.21,0,0,0,1-1.56Z"/><path class="cls-2" d="M170.29,174.87a9.49,9.49,0,0,1,1,.2c.75.15,1.55.3,2.32.4a3,3,0,0,1,.9,0h1.65a1,1,0,0,0,.52.1,2.38,2.38,0,0,0,1-.15c.37-.15,1.57-1.35,2-1.35s1.55,1.1,1.55,1.55c0,.1-.35.55-.5.55h-2.12a7.53,7.53,0,0,1-1,.15h-4.35a.91.91,0,0,1-.52.13c-.8,0-1.12-.12-1.57-.12s-.45,0-.6.1l-.15-.15C170.44,175.8,170.26,175.3,170.29,174.87ZM173,187.2V187a2.11,2.11,0,0,0-.75-1.25v-.23c.13-.12.42-.6.9-.6.22,0,.3.15.52.22.67.2.55.4,1,.52s.87.08,1.35.08c.25,0,.65-.08,1-.08.08,0,.38.08.45.08.3,0,1-.82,1.42-1a4.15,4.15,0,0,1,1.45.52c.15.08.6.08.6.38s-.7.75-.75,1.12c0,1-.25,1.75-.25,2.65v.3c-.32.45-.32,1-1,1s-.6-1.35-1-1.35h-1.35c-.23.15-.6,0-.83.15s-1.1-.07-1.27.5c0,.57-.08,1.5-.08,1.65l.08.25c0,.3-.45,1-.75,1s-.6-.6-.6-1c0-.87-.1-2.57-.1-2.55v-2.1C173,187.3,173,187.27,173,187.2Zm-.15-5.62c.6,0,.92.3,1.2.3a4.21,4.21,0,0,1,.52-.08,11.22,11.22,0,0,0,2.77.15c.18,0,.67-.37.9-.47s.72-.6.75-.45c.57-.1,1.07.8,1.07,1.15,0,.8-2,.75-2.65.75s-1.85.07-1.87.07c-.85,0-1.5.15-2.1.15-.3,0-.75-1-.75-1.42C172.61,181.62,172.74,181.6,172.84,181.57Zm.2-3a23.81,23.81,0,0,1,2.5.3h1.72c.45,0,.82-.45,1.12-.7.13,0,.08-.27.08-.35h.22a6.82,6.82,0,0,1,.6.6c.17.15.67.35.67.5,0,.7-2.6.7-3,.7a6.47,6.47,0,0,1-1-.1,13.48,13.48,0,0,1-2.4.25c-.12-.2-.7-.75-.7-1S172.89,178.57,173,178.57Zm.92-5.75a1.12,1.12,0,0,1-.92-.9c0-.17.38-.2.48-.2a5,5,0,0,1,.82.2H177c.08,0,.45.1.52.1.65,0,1.25-.9,1.72-.9.2,0,1.37.6,1.37,1.2,0,0-.12.3-.25.3-.92,0-1.3.15-1.95.15-1,0-1.95.15-2.47.15a.46.46,0,0,1-.3-.1Zm1.35,15.82c.88,0,2.85-.3,2.85-1,0-.07.1-1.15-.45-1.15h-2.25c-1.07,0-1,1.27-1,1.82A1.24,1.24,0,0,0,175.31,188.65Zm18.87,1.13a.07.07,0,0,0,.07.08,1,1,0,0,1-.9.35c-.95.15-.67.4-1,.6s-.3.15-.52.3c-.65.42-.37.67-.7.85-.57,0-.55,0-.75-.15,0,.13-.92-.75-1.85-.9-.7-.67-1.25-1-1.9-1.6a8.36,8.36,0,0,1-.65-.6c-.25-.2-.4-.6-.8-.6s-.5.3-.75.55-.45.3-.65.5-.65.75-.9.6c0-.08-.35.55-.6.55-1.45.52-2.75,1.55-3.7,1.55v-.15a17.82,17.82,0,0,1,2.5-1.55,2.34,2.34,0,0,1,1-.9c.13-.42.55-.62.75-1,.25-.62.63-.83.9-1.5.13.1.2-.22.2-1.2v-.15a1.51,1.51,0,0,1-.2-.52c0-1-.25-1.35-.25-2.4,0-.45-.5-.6-.5-1h-.7s-.15-.1-.15-.15a.6.6,0,0,1,.1-.45c0-.1-.1-.45-.1-.55-.05-.27.1-.3.3-.3s.2.1.3.15c.3-.1.5,0,.75-.15a2,2,0,0,0,.7.15.8.8,0,0,1,.35-.2l.25.15c.4-.12.92.35,1.3.35a4.27,4.27,0,0,0,.8-.05c.3-.15.25-.7.45-.9s.45-.37.45-.75-.5-.57-.65-.75a2.7,2.7,0,0,1-.75-2.35,12.62,12.62,0,0,1,.07-1.92c0-.12,0-.22,0-.32l.15-.15c0-.7-.4-.85-.9-.85-.12,0-.17.05-.3.1-1,0-.8,1.32-1,2a3.28,3.28,0,0,1-.45,1.35c0,.75-.5,1-.5,1.4-.18.67-.48.35-.75,1-.1.15-.62.9-.6.9-.5.1-.32.2-.6.2v-.15c.2-.6.45-1.2.6-1.8a12.9,12.9,0,0,1,.35-1.65,15.87,15.87,0,0,0,.3-3.1,1.73,1.73,0,0,0-.6-.8c0-.27.42-.7.75-.7a1.68,1.68,0,0,1,.7.25c.55.13.65.3,1.1.3s.45-.15.8-.25a2.93,2.93,0,0,0,.9-.2,1.9,1.9,0,0,1,1-.7,6.38,6.38,0,0,0,1.1.55c.1,0,.3.35.4.35.3.07.47.42.75.6.15.75-1,.35-1.3,1a1.19,1.19,0,0,1-.45.9c0,1,0,.77.1,1.1,0,.82,1,1,1.65,1,.9,0,1-1.3,1.55-1.3.25.5.25.85.48,1.35s.52.7.67,1c.25.57.6.27.6.7a.46.46,0,0,1-.52.45,8.09,8.09,0,0,1-.82-.15c-.65,0-1.27.15-1.87.15h-.23c-.25.15-.55.35-.55.65a1.77,1.77,0,0,0,.4.7c.33,0,1.5.35,1.5,1.1,0,.1,0,.45-.15.45l-.3,0a4.82,4.82,0,0,1-.75.2c-.37.95-1,1.82-1.5,2.8,0,0-.4.22-.4.3s-.3.52-.3.75-.33.7-.35.83v0c0,.25,1.1,1.17,1.35,1.32a12.13,12.13,0,0,0,3.45,1.6,19.27,19.27,0,0,1,2.32.5.51.51,0,0,1,0,.33s0-.08-.05-.08A.07.07,0,0,0,194.18,189.77Zm-9-5.95c.35.08,1.15-.85,1.15-1.87,0-.57-.37-.62-1.15-.62l-.15-.05c-.48,0-.92-.12-.9.52A3.09,3.09,0,0,0,185.16,183.82Z"/><path class="cls-2" d="M195.19,176.37a4.54,4.54,0,0,0,.57,0c1.3,0,2.55-.23,3.87-.23.3,0,.45,0,.75,0,.15,0,.3-.15.55-.15a9.29,9.29,0,0,0,.95.1c.1,0,.9-.2,1-.2.33,0,.92,0,1,0l.15,0c.85-.3,1.75-.15,2.35-.9.15-.2.15-.45.45-.45.52.65,1.35.85,1.35,1.6,0,.25,0,.6-.3.7-2.2,0-2.8.15-4.3.15-.27,0-.57.2-.95.2s-.65,0-1,0a1.1,1.1,0,0,0-.62.15c-.35,0-.75-.1-1.1-.1a2,2,0,0,1-.55.15c-.3-.12-.87.3-2.95.3-.45,0-.48,0-.65-.05a3,3,0,0,1-.7-1.15C195,176.47,195.14,176.42,195.19,176.37Zm3.95,5.5c.35-.12,1,0,1.25-.15.5,0,.9-.1,1.45-.1.05,0,1-.15,1-.15a11.44,11.44,0,0,0,1.8-.15c.38-.25.7-.8,1-.8s.82.65,1,.9l.15.15c0,.25-.2.83-.6.83a9.5,9.5,0,0,0-1.32.17c-.15,0-.37,0-.55,0a.22.22,0,0,0-.23.1,23.73,23.73,0,0,0-3.45.45.62.62,0,0,0-.3-.08c0-.07-.3.15-.45.15-.73,0-1.1.1-1.72.1s-.35-.42-.87-.92C197.09,181.75,198.29,181.87,199.14,181.87Zm-1.45-2.8c.15,0,1.2-.15,1.35-.15s.45.12.9.1c.1,0,1-.15,1-.15s.35.05.55.05c1.15,0,1.72-.3,2.85-.3.45-.1.65-.95.82-.9s1.12.65,1.12,1-.2.7-.45.7-.23-.05-.35-.05a.38.38,0,0,0-.25.1c-1.12,0-1.62.3-2.4.3-.1,0-.15,0-.25,0s-.2,0-.35,0-.25,0-.4,0-.3.15-.35.15c-.27,0-.55,0-.82,0a16.26,16.26,0,0,0-2.12.33s-.2-.05-.3-.05a2.77,2.77,0,0,0-.45.05c-.45,0-.55-.5-.55-.9C197.19,179.17,197.54,179,197.69,179.07Zm.9,7.82a4,4,0,0,0-.6-2.1c-.25-.37-.55-.6-.55-1.12,1.15,0,2.55,1.57,2.65,1.57a1.94,1.94,0,0,0,1.15.15,2.87,2.87,0,0,1,1.35-.3s.35-.3.45-.3a4.53,4.53,0,0,0,1.57-.37c.3-.08.08-.82.6-1.2.27-.05.42.15.6.23s.9.45,1,.52c.3.15.3.6.3.83,0,.45-.3.37-.37.82-.12,1.15,0,3.65-.23,3.67a2,2,0,0,1-1.42,1c-.15,0-.45-.35-.52-.5-.25-.4,0-.45-.6-.45-.45,0-.9.15-1.45.15,0,0-1.85-.17-2,.35.08,0-.15,1.22-.15,1.8a7.42,7.42,0,0,0-.6.7c-.12.2-.55.2-.45.5,0,0-.15.25-.25.25-.3,0-.65-.55-.75-.75C198.29,190,198.59,188.72,198.59,186.9Zm.3-13.67a18.38,18.38,0,0,1,3.55-.3,7,7,0,0,1,2.77-.25c.3-.2.38-.8.9-.8.13.42,1.2.17,1.2.65,0,1-1.17,1.2-1.95,1.2h-1.57a.6.6,0,0,1-.4.1c-.15,0-.15-.1-.2-.1h-.1a14.24,14.24,0,0,1-3.3.3,2.62,2.62,0,0,0-1,.1.78.78,0,0,1-.9-.7C197.56,173.25,198.54,173.22,198.89,173.22Zm1.5,15.27c0,.27.5.33.55.3a22.78,22.78,0,0,1,3.2-.4c.4,0,.32-1,.32-1.42,0-.65,0-1.27-.37-1.27s-.27.1-.37.1h-.12s-.05,0-.1.05c-.85.07-1.65.22-2.5.37.13.05-.7.05-.65.82Zm11.12,3.6c-.42-.3-.67-.15-.65-.85a5.71,5.71,0,0,0,.05-1.25c0-.1.15-2,.15-4.15l.15-.3a18.7,18.7,0,0,0-.15-2.47c0-.35.17-.3.15-.52-.15-.67-.2-1.42-.3-2.12a.66.66,0,0,0-.5-.3c-1.42.13-1.6.4-2.35.4s-.62-.37-1-.6l-.08-.3c-.07-.15-.45-.15-.45-.4s.1-.33.3-.3.38.25.45.25c.3,0,.92,0,1,.05.38,0,.7-.2,1.12-.2l.48,0a1.42,1.42,0,0,0,.67-.12c.65-.3.15-2.25.65-2.25-.48-.55-.12-1.45-.35-1.95v-.5a1.75,1.75,0,0,0-.7-1.6c-.23-.27-1.2-.3-1.2-.85,0-.2.52-.3.9-.3A3.44,3.44,0,0,1,211,171c.3-.15.88-.62,1.25-.6.1,0,.55.3.6.3a3.78,3.78,0,0,1,1.3.85v.65a3.59,3.59,0,0,0-.7,1c0,.95-.05,2.85-.05,2.95,0,.32.15.75.15.9a.54.54,0,0,0-.1.35l.1.3a4.85,4.85,0,0,0-.1.6c-.05.5.47.55.7.55l1.1-.1.52,0a.94.94,0,0,0,.77-.33c.2,0,1.1-1.15,1.35-.95a5.06,5.06,0,0,1,1.5.95,1.5,1.5,0,0,1,.15.55c0,.3,0,.9-.3,1l-.9.05c-.52,0-1.2-.05-1.57-.05l-.33,0a.5.5,0,0,1-.35-.12h-1.95c-.45.2-.7.25-.7.7,0,1.07.15,2,.15,3,0,2.4-.05,2.8-.05,4.42,0,.1-.1.4-.1.45s.1.9.1,1-.15.75-.15,1.2-.67,1.4-1.2,1.4-.4.25-.9.25l-.15-.1A.33.33,0,0,0,211.51,192.09Zm.7-18.22a.73.73,0,0,0,.2.1l.25-.15c0-.1-.25-.3-.3-.3s-.15.15-.15.3Z"/><path class="cls-2" d="M224,186.1c-.08-.2-.3-.32-.3-.55.23-.22.65-.1.75-.15l.07.1h.52c.08,0,.38.3.45.3a.51.51,0,0,0,.45-.3h.75c1.92-.27,3.9-.25,5.87-.45a3.61,3.61,0,0,1,.45-.4,2.22,2.22,0,0,0,.35-.45c0,.25.27-.3.45-.3h.1c.48.5,1.5,1,1.5,1.6s-.77.6-1.9.6c-.65,0-1.4,0-2.1.05a25.66,25.66,0,0,1-2.77.4c-.75.15-1.5.2-2.25.35a13.39,13.39,0,0,0-1.65.4c-.07,0-.3-.1-.3-.15A6.36,6.36,0,0,0,224,186.1Zm10,5.1a2.28,2.28,0,0,0,1.75-.5,4.4,4.4,0,0,0,1-1.75v-.25a6.31,6.31,0,0,1,.2-1.1c0-.92.3-1.82.3-2.35a8.85,8.85,0,0,0,.15-1.2,12.4,12.4,0,0,0,.15-1.35c0-.15.15-1.35.15-1.5,0-.45,0-.9-.5-.9-2.95.23-5.9.13-8.75.45-.15,0-1.12.15-1.27.15h-1.5a4.31,4.31,0,0,1-.9-1.52h1a1.37,1.37,0,0,0,.6.17h.15c-.07,0,1.5-.17,2.47-.17.8,0,1.7-.17,1.87-1.35,0-.2-.05-.17-.05-.5s.4-.27.35-.75l-.45-.45v-2.65c-.15,0-.3-1.52-.3-1.72,0-.55-.8-.95-.8-1.42,0-.2.8-.48.8-.52a6.18,6.18,0,0,1,2.55.52c.05.22.6.15.6.6a1.09,1.09,0,0,1-.15.3,2.9,2.9,0,0,0-.65,1.42c0,1.07,0,1.72.6,1.87H236c.05.1.2.1.3.1.35,0,.2-.33.35-.55.45-.15,1-.75,1.2-.75.45,0,.6.38.9.6s1.15.6,1.15,1c0,.67-1.35.45-2.2.45-1.1,0-2.22.3-2.8.3-1.95,0-2.1.15-2.1,1.9.1.2-.25,1.67.55,1.72h2.35c0,.08,0,.08.15.08.82-.17,1.55,0,2.15-.55.2-.15.63-.65.92-.65a.54.54,0,0,1,.38.15c.32.32,1.55.67,1.55,1.5,0,.38-.5.73-.8,1s-.15,1.22-.25,1.57a1.05,1.05,0,0,1-.15.52,19.54,19.54,0,0,1-.5,4.42,12.82,12.82,0,0,1-.75,3.25c-.6,1-1.8,2.65-3.5,2.65-.77,0-.85-1.57-1.4-1.95-.1,0-.4-.3-.45-.3s-.1-.1-.1-.15C233.33,191.14,233.68,191.19,234,191.19Z"/><path class="cls-2" d="M245.89,193s1.5-1.6,1.95-2a10.63,10.63,0,0,0,3-5.4c0-.07.15-.6.15-.67,0-.52.08-1,.08-1.27s0-.62,0-1a3.77,3.77,0,0,1,.18-1.35V179c0-.27-.08-.55-.23-.55h-.15c-.3-.25-1,.75-1.72,1a9.79,9.79,0,0,1-1.42.75c-.3.15-.75.6-1.15.6-.05,0-.2,0-.2,0,0-.45,1.38-1.17,1.4-1.2.3-.45.85-.58,1.15-.9.88-.95,1.5-1.12,1.95-1.75,0-.48.65-1,1-1.45s.45-.8.75-1.1.2-.2.52-.7c0,.22.27-.62.45-.8.3-.6,1-1.17,1-1.95l-.45-.45v-.1a4.06,4.06,0,0,0,.4-.3,2.07,2.07,0,0,1,.65.15c.27.5,1.25,1.35,1.65,1.35s1,1.2,1.8,1.2c.6.65,2,1.17,2,2.25,0,.42-.17.85-.7.85a2.09,2.09,0,0,1-1.2-.75c-.6-.72-1.65-2.5-2.15-2.5s-2,1.7-2.72,2.5a.23.23,0,0,0-.08.2c0,.52.38.65,1,.65.1,0,.18,0,.3-.1s.5.1.6.1a3.54,3.54,0,0,0,1.25-.1c.1,0,.55-.3.6-.3.27-.17,1.13.92,1.35,1.3,0,.17-.5.17-.5.45,0,.5.9,1.1.9,1.4s-.12,3.72.15,3.85-.15.3-.15.3.15.3.15.45c0,.8-.55,1.27-.55,2.1,0,.55,1.2.45,1.2,1.12,0,.42-.15.75-.15,1.8,0,.55.1,1.07.1,1.72,0,.07,0,.2-.1.22a15,15,0,0,1-2.3.25c-.35,0-.55-.1-.75-.1s-1,.15-1.45.15l-.35-.05c-.2,0-.85.28-.85.45v.9c-.15.08-.17.48-.67.8s-1.32-1-1.12-1c0-.15.07-1.35.07-1.5-.17-.92.08-3.22-.52-3.22-.32,0-.6.6-.82,1-.07.1-.3.7-.37.75-.77.6-.65.82-1.2,1.35-.4.42-.52.3-.52.55-.52.5-1.15,1-1.65,1.55a18.92,18.92,0,0,0-1.8,1.3l-.15-.1C245.44,193.14,245.74,192.92,245.89,193Zm7.27-14.42c.23,0,.55.23.68.23H254a.2.2,0,0,1,.15.07,7.29,7.29,0,0,1,2.72-.25,9.93,9.93,0,0,0,.95-1.1c.1-.37-.47-.45-.75-.45-.67,0-1.5,0-3.3,0-.15-.3-.23-.95-.75-.95-.3.3-1,.5-1,1.1S252.86,178.57,253.16,178.57Zm-.9,6.75c.8.95,1.27,1.5,2.25,1.5a7.7,7.7,0,0,0,1.3-.15l.05.15.1-.15c.18,0,1.2-.08,1.65-.08.3,0,.9-.65.9-1,0-.52-.55-.45-.75-.67s-.4-.42-.45-.52c-1.07,0-2.8.38-3.17.38s-1.87,0-1.87.45ZM253,184a6.37,6.37,0,0,1,.83-.15c.15,0,.35.07.62.07a.52.52,0,0,0,.3-.07l1.85-.23a.28.28,0,0,1,.23-.07H257c.3,0,.5-.43.5-1.5a.51.51,0,0,0-.45-.37c-.05,0-.35.07-.45.07-.67,0-1.42.08-2.32.08-.08,0-.45.15-.52.15-.6.07-.9-.15-1,.6,0,.15-.15.67-.15.83v.07C252.56,183.82,252.71,184,253,184Zm1-2.62h.07c.15,0,1.45-.15,1.6-.15,1.5.08,1.55-.5,1.55-1.2a1.69,1.69,0,0,0-.3-.6c-1.1,0-2.17,0-3.3,0a1.11,1.11,0,0,0-.52,1.15c0,.3,0,.45.23.6C253.39,181.27,253.91,181.42,254,181.42Zm.82,8.62a.74.74,0,0,0,.3,0c.3,0,1.6-.25,1.9-.25s1-.12,1-.5c0-.08-.05-.15-.05-.25l.1-.3c0-.05.15-.82-.25-1.12a10.09,10.09,0,0,0-1.55-.07,6.48,6.48,0,0,0-2.2.25c-.25.13-.22.75-.22.75a6.78,6.78,0,0,0,.22,1.2C254.21,190,254.36,190,254.81,190Zm7.4-6.52a4.29,4.29,0,0,1,.35-1.57.85.85,0,0,0-.2.08.64.64,0,0,1-.1-.23c0-1.47-.15-2.67-.15-4a1.17,1.17,0,0,1-.1-.42c0-.17,0-.37,0-.57-.12,0-.1-.45-.1-.75s-.3-.75-.3-1.15c0-.15.45-.8.6-.8.45,0,1.3.92,1.3,1.2a.38.38,0,0,1-.1.2l.1.25c0,.25-.1,1.2-.1,1.45,0,1.35.25,3.77.25,4.87s0,2.25,0,3.3a2.63,2.63,0,0,1-.8,2.35c-.37,0-.6-.33-.75-.48s-.15-.7-.15-1.2C262.06,186,262.21,184.42,262.21,183.52Zm1.75,7.82h.25a6,6,0,0,0,1-.3c-.1,0,.3-.27.3-.55a17.65,17.65,0,0,0,.75-1.95c0-1.07.15-3.27.15-4-.2-.32-.05-1.17-.15-1.27.07-.08-.15-.67-.15-1v-1.87c0-.45-.3-4.15-.3-4.6v-2.25c0-.7-.85-.6-.85-.9s.63-.77,1.2-1.15a1.31,1.31,0,0,1,.85.4c.23.42.38.3.82.75.48.05.58.3.58.48v.27c0,.57.77.65.77.95-.48,0-1.12,0-1.2.6a1.78,1.78,0,0,1-.08.75c0,1,.08,1.7.08,2.6.07,0,.1.1.1.22,0,.45-.1.75-.1,1.27a2.5,2.5,0,0,0,.22.9,4.69,4.69,0,0,0-.15.45c0,.1.08.25.08.35,0,.45.07,2.6.07,2.72a3.27,3.27,0,0,0-.07.38c0,.35.07.7.07,1s-.15,1.5-.15,1.5c0,.45.08.82.08,1.27,0,.72-.08,1-.08,1.6a7.43,7.43,0,0,1-.15,1.95c-.2,0-.25.2-.45.35s-.87,1-1.5,1c-.07.07-.22-.08-.3-.15-.6,0-.8-1.17-1.2-1.25-.27-.27-.7-.25-.7-.45S263.86,191.34,264,191.34Z"/><path class="cls-2" d="M277.64,191.64c0-.57.38-1,.38-1.65,0-.15-.15-.15-.15-.3s.15-.45.15-.67l-.07-.15v-2.1c-.15-.45.13-1.95-.37-1.95h-.9c-.15,0-.22.15-.22.3,0,.6.3,1.1.3,1.8,0,.9-.82,1.4-1.35,2,0,.3-.45.55-.67.77s-1,.67-1,.67-.2-.2-.92.52c-.23,0-.5.08-.45-.22l1.3-1.27c.23,0,.3-.47.38-.62a5,5,0,0,0,.65-.87c0-.05.52-.73.6-.87a13.87,13.87,0,0,0,.77-1.45.73.73,0,0,1,.08-.25c0-.15-.23-.3-.37-.3-1.15,0-2.27.27-3.42.27-.2,0-.62-.37-.62-.62,0,0,0-.15,0-.15.45,0,1-.15,1.45-.15.22,0,.38.05.6.05s.38-.2.6-.2c.87-.12,1.52-.27,2.32-.4.6,0,.85,0,1-1v-2l-.07-.1c-.23.25-.3.15-.6.25a25,25,0,0,1-3.07.3c-.15,0-1.65.2-1.8.2-.6.1-.42-.33-1-.9,0,0,0,0,0,0s-.3-.35-.3-.4l.15-.1h2.7a4.56,4.56,0,0,0,1.27-.2,1.39,1.39,0,0,0,.6-1.37v-.67a9.41,9.41,0,0,1,.08-1c0-.07-.15-1-.15-1s.07-.22.07-.3c.08-.27-.37-.55-.37-.6h-1.35a4.21,4.21,0,0,1-1.35.22c-.9-.07-.7-.2-1.3-.82,0-.27.13-.4.3-.4s.4.1.55.1c.72,0,1.35-.15,2-.15.15-.17,1.15,0,1.27-.15.13,0,.5,0,.6.15l.15-.15a1.66,1.66,0,0,0,.35,0c.75,0,1.22-.2,1.22-1.37l.07-.15c0-.25-.15-.58-.15-1a2,2,0,0,0-.22-1.25.2.2,0,0,1,.22-.25l.3.15a23,23,0,0,1,2.32.6v.15a.54.54,0,0,1,.15,0,.21.21,0,0,0,.15-.08l.1.2c0,.57-.55,1-.55,1.65s.07.85.55.85.8-.1,1.2-.1a1.31,1.31,0,0,1,1.2.75c0,.25.13.63-.3.63h-1.35c-.25.13-1,0-1,.67.38.65,1.15,1.07,1.15,1.65s-1.15,1.7-1.15,2.25c0,.33.45.33.6.33a1.85,1.85,0,0,0,1.45-.4c.55,0,.85.65,1.2,1,.1.57-1.47.5-2,.5,0,0-.9.15-1.2.15-.62,0-1.2.2-1.2.75s-.17,1.65.23,1.9c.45,0,.82-.15,1.52-.15.1,0,.58-.6.75-.6a3.21,3.21,0,0,1,1.1,1.2c0,.4-.62.3-1,.3a4.69,4.69,0,0,1-.45.15c-2.35,0-2.1.7-2.1,1.35,0,.4.08.7.08,1s0,.6-.08.65c.23.15.15.5.15.85,0,.15.15,1,.15,1.2s-.07.4-.07.6c-.08,0,.07.2.07.45,0,.67-.2,2.4-1.57,2.4a.2.2,0,0,1-.23-.22A3.87,3.87,0,0,0,277.64,191.64Zm-.15-11.82h1.2c.3,0,.83-.85.83-1.12,0-.82.6-1.82.6-2.92,0-.23,0-.3-.2-.3-.4,0-.77.45-.92.45s-.1,0-.15-.08a4.78,4.78,0,0,0,.67-.82c0-.22-.15-.3-.3-.37-1.82,0-2.17.07-2.55.07s-1,.2-1,.67c0,.08.23.6.23.67.07.38,0,1.35.6,1.35s.75-.6,1.12-.6l.08.07c0,1.17.13,1.47-.23,2.1,0,.08-.3.48-.3.52v.1C277.19,179.77,277.41,179.82,277.49,179.82Zm1.72,13.4c.25-.23.7-.3.9-.6.23,0,.45-.52.55-.37.35-.83,1-.92,1.55-2.1,0-.08.4-.3.4-.37.25-.25.2-.4.3-.6s.35-.9.45-1a14.42,14.42,0,0,0,.8-3c0-.1.15-.7.15-.75v-.55c0-.1.15-.45.15-.55,0-.7.1-1.7.1-2.7a5.47,5.47,0,0,0-.1-.9c-.1-1.42-.23-2.85-.45-4.27-.07-.6-.2-1.2-.3-1.8,0-.4-.2-1.17-.2-1.65s.47-.4.65-.4l1.85.85c0,.17.35.2.45.2l1.65-.65c0,.15.38-.45.75-.45s.6-.45,1-.45c.2,0,.45.3.65.35.05-.2.43.3.7.3.25.18.7.23.67.55.07,0-.08.35-2.17.35-.3.1-1.75.3-2,.4,0,0-.5.2-.6.2s-.4-.05-.6-.05-.15.35-.3.5c-.3.3-.62.4-.6,1,0,.15.15,1.5.15,1.65,0,1.65.33,1.57.9,1.57.25,0,.4-.08.6-.08s.25.08.4.08a1.47,1.47,0,0,0,.5-.23c.3,0,1.8-.15,2.1-.15.7-.08,1.75-.45,2.12-.45a4.39,4.39,0,0,1,1,.75c.3.27.52.3.52.67s0,.38-.15.45c-.95,0-1.85-.08-2.72-.08-1.2,0-1.1.92-1.1,2.92,0,.35-.12,1.75-.15,1.75a10.88,10.88,0,0,1,.2,2.2s.1.3.1.35a2.49,2.49,0,0,0,0,.9c0,.15,0,.25,0,.3a.39.39,0,0,0,.13.3c0,.88,0,1.6,0,2.5s.1,2.4-.95,2.4c-.45,0-.6-.45-.7-.82s0-.52,0-.8c0-1.5-.23-2.85-.23-4.37a4.49,4.49,0,0,0-.25-1.8c0-2.15-.15-3.75-.15-4.75.15-.27-.55-.4-.65-.7-.15-.48-.27-.55-.57-.55l-.47,0c-.05,0-.27,0-.4-.15s-.15.15-.15.22a6.41,6.41,0,0,1,.1,1.75l.05.2c0,1.13-.4,1.72-.4,2.52,0,.23,0,.42,0,.57a3.22,3.22,0,0,1-.25,1.2,12.08,12.08,0,0,1-.75,2.4c-.57.58-.8,2.07-1.5,2.95a11.53,11.53,0,0,1-2.2,2.1c-.3,0-.77.67-1.72,1.27a.24.24,0,0,1-.23-.23Zm2.35-4.75a21.76,21.76,0,0,0-.85-2.55s.1,0,.15,0,.35.22.45.35c.3.48,1.65,1.15,1.65,1.75,0,.15-.8,1.13-1.2,1.13a.66.66,0,0,1-.3-.48Z"/><path class="cls-2" d="M298.44,192.14c.08,0,.52-.3.6-.3.8,0,.8-.3,1.2-.45.6,0,.75-.45,1-.45.7,0,1-.65,1.65-.65.25-.3,3.55-1.57,3.55-1.9s-.2-.58-.7-1c-.2-.18-.6-1.2-1.1-1.2s-.47.3-.77.45-.75.15-1,.3-.65.7-.9.7c-.22-.18-.82.65-1.35.65s-.55.55-1.35.55a15.2,15.2,0,0,1-3.22.9c0-.52.67-.42,1.1-.75.63,0,.18-.45,1.6-.45.33-.12,1-.75,1.27-.75a4.54,4.54,0,0,0,1.57-1.15c.57-.57,1.12-1,1.72-1.57a8.2,8.2,0,0,0,1.15-1c.25-.3.27-.9.9-.82,0,.07.45.38.5.45.45.45.6.9,1.3.9a5.46,5.46,0,0,0,1.5-.23h1.9c.48,0,1.6-.22,1.8-.22s.6-.58.65-.6c.05-.85-.2-.87-.2-1.2-.08-.5.2-.85.2-1.3s.1-1,.1-1.35c0-1.32.15-2.4.15-3,0-1-.7-.6-1.45-.85l-.15.15c-.17,0-.32-.1-.5-.15-1.15,0-2.15.1-3,0l-.05,0a4.83,4.83,0,0,0-.6-.1c-.05.08-.35-.07-.55.1h-1.35a1.14,1.14,0,0,1-.2,0,.32.32,0,0,1-.3-.3c.3-.35,1-1,1-1.4s-.62-.55-1-.55c-.85,0-2.42.2-2.87.15l-.45.3a7.2,7.2,0,0,0,1.42.9c.1,0,.52.45.83.45a.38.38,0,0,1,.15.35c0,.6-.15,1.1-.15,1.65,0,.25,0,.63.3.65a14,14,0,0,0,3.47-.2h.2c.15,0,1.45-.1,1.9-.15,0,0,.75-.15.85-.15s.5-.1.5.15c0,.5-.87.35-1.5.35-.15,0-1.75.25-1.9.25-.37,0-.75,0-1.2,0a5.54,5.54,0,0,1-1.95.15c-.77,0-.75.33-.75,1.2l.45.45v.1a1.07,1.07,0,0,0-.6.95c0,.77.23.92,1,.92,1.32-.15,2.57-.15,3.9-.22.3,0,1.22-.15,1.9-.15h1.7c.1,0,.1.15.1.15v.07l-.45.08c0-.08-.07-.1-.12-.1-.47,0-.57.17-.77.17h-.7a8.21,8.21,0,0,0-2.2.23h-1.7a7.55,7.55,0,0,1-1.25.3h-.52c-1.35,0-1,1.13-1.85,1.13-1,0-1-1-1-1.72,0-1,.15-1.9.15-2.85v-3.4c-.07-.8-.52-.95-.6-1.65a2.76,2.76,0,0,0-.67-.25c-.15-.05-1.2-.8-1.2-1s.23-.2.3-.2c.67,0,1.37.2,2.1.2.52,0,1-.15,1.5-.15.15,0,1.13.1,1.27.1s.45-.1.7-.1c0,0,.1.07.15.1a8.26,8.26,0,0,1,1.85-.15c.95,0,2.5.15,2.85.15l.25-.15c.33,0,.63.05,1,.05.15,0,.4-.15.6-.15.45,0,.9.1,1.35.1a3.9,3.9,0,0,1,2.25-1.75c.4,0,.7.6.92.75s.9.5.9.9-.15.55-.45.55c-.05,0-.15,0-.23-.1l-.07.1c-1.7,0-2.9.3-4.42.3h-1.15c-2.57,0-2,.2-2.25.75,0,.6-1,.5-1,.95,0,.15.3.4.45.4a2.42,2.42,0,0,1,.73-.18s.15,0,.17.08h1.9a3.27,3.27,0,0,1,.8-.15c.25,0,.45.1.75.1s.48-.3.75-.3h.1c.05-.45.15-.55.6-.75.15-.1.15-.1.2-.1a2.7,2.7,0,0,1,1.35.7v.3c0,.2-.12,1-.3,1v.1a22.76,22.76,0,0,1,.15,2.5l0,.35a14.92,14.92,0,0,1,.2,2c0,.63-.25.6-.5,1s-1,.58-1,1c0,.1.15.58.35.67s.85.3.85.75-.55.38-.75.6c-.42,0-.72.48-.9.6-.75.08-1,.63-1.45,1a2.87,2.87,0,0,0-.65.47c-.35.38-.42.23-.75.75,0,.3.6.65.8.65a7.61,7.61,0,0,1,1.9.55,4.75,4.75,0,0,1,2.45.45l2.35.2.23.15c0,.48-1,.7-1.35,1-.2.13-.5.6-.75.6-.37.4-.52.85-1.12.85s-.95-.45-1.75-.45c-.05,0-.5-.3-.6-.3-.87-.07-1.45-.72-1.95-.85a2.56,2.56,0,0,1-1.2-.45c-.1,0-.3-.3-.4-.3-.6,0-1.1-.57-1.8-.45,0,0-.5.3-.6.3h-.6s-.35.4-.45.4a1.59,1.59,0,0,0-.45.15,4.64,4.64,0,0,1-2.17.8c-.07,0-.6.1-.75.1-.17.5-.87.45-2.25.8a16.23,16.23,0,0,1-2.65.4c-.05,0-.05-.1-.05-.15C297.69,192.24,298.29,192.24,298.44,192.14Zm8.12-12.32a4.92,4.92,0,0,1,.95-.15c.45,0,1.15.05,1.15.3s-.8.3-1.3.3a3.09,3.09,0,0,1-.5-.05c-.65,0-1.3.15-1.95.15-.15,0-.3,0-.3-.25A3.62,3.62,0,0,1,306.56,179.82Zm-1.15,6c.23.12.6.67,1,.67a2.84,2.84,0,0,0,1.8.52c.73-.5,1.4-.9,2.2-1.5,0,0,0-.52-.35-.52h-1.5a2.36,2.36,0,0,0-.75-.15c-.35,0-.65.08-1,.08a4.35,4.35,0,0,1-.8-.08l-.1-.15c-.18.4-.8.23-1,.45C304.79,185.55,305.21,185.62,305.41,185.85Zm2.2-5.72c.2,0,.13-.15.45-.15a.52.52,0,0,0-.3-.15c0-.1,0,.05-.25.25Zm1.95-.45a1,1,0,0,1,.6.25c0-.12,0-.3.15-.3h.7c0,.3,0,.35-.25.45-.57,0-1.22.05-1.5.05-.1,0-.4-.15-.4-.2A1.33,1.33,0,0,1,309.56,179.67Z"/><path class="cls-2" d="M324.34,180.27l1.35-1.35.07-.15.9-.9c.33-.4.63-.85,1-1.27a28.1,28.1,0,0,0,2-2.55,4.37,4.37,0,0,1,.45-.55c.42-.52.32-.62.65-.95.45-.1.45-.92.45-1.3,0-.2-.3-.2-.3-.65s.4-.4.7-.4c.5,0,.8,0,1.35.75-.17,0,1.2.3,1.2.9s-.75.55-1,1a4.31,4.31,0,0,0,1.35,2.87l1.15,1a12.74,12.74,0,0,0,1.65,1.13,4.86,4.86,0,0,0,1.95,1,13.81,13.81,0,0,0,1.8.9c.2.08.5.08.47.25a10.22,10.22,0,0,1,1.4.35s1.35.22,1.35.55-.6.32-.9.5a8.44,8.44,0,0,0-1,.7c-.7.1-.9.95-1.72.95s-1.6-1.2-2.32-1.5c-.08.07-.77-.82-.9-.75s-.6-.65-1.27-1.1c-.43-.27-.58-.7-.9-1.07a14.61,14.61,0,0,1-1.35-1.8,6.87,6.87,0,0,1-.7-1.12,4.41,4.41,0,0,0-.75-1.67c-.62,0-.8.55-1.25,1-.1.07-.6.82-.7.9a13,13,0,0,1-1.12,1.2l-1.65,1.8-.3.3c-1,.8-2.22,1.92-2.62,2.17-.15.15-1,.7-1.12.85s-.45.3-.6.45c-.23,0-.55.45-.85.45-.65,0-.87.8-1.7.8,0-.35.3-.45.6-.65l2.92-2.85Zm5.12,10.4c0-.23-.1-1.35-.1-1.57a.45.45,0,0,0,.1-.33v-.3c0-.7.05-2.55.05-3.65l-.05-.45c0-.1-.25-.1-.25-.1a16.08,16.08,0,0,0-1.65.15c-.08,0-.67.15-.75.15-.27.25-.9-1.07-.9-1.45,0-.15.22-.15.37-.15a1,1,0,0,1,.52.1c.3,0,1.8-.15,2.1-.15s.57,0,.9,0c.6,0,1.3-.2,1.95-.2h2c.32,0,.67-.47,1-.85h.2a5.18,5.18,0,0,1,.77.57v.13c.57,0,.82.45,1.27.95,0,.6-.27.88-.37,1.4a10.87,10.87,0,0,0-.1,1.27c0,.25,0,.52,0,.75a4.73,4.73,0,0,1-.45,2.17c-.25.45-.75.6-1.15.9-.2.15-.3.38-.65.38-.55,0-.4-.67-.6-.9l-.9-.92-.1-.15c.23-.4,1-.2,1.45-.45s.5-2.6.5-2.9c0-.07.13-1-.3-1.3-.3,0-1-.1-1-.1a13.25,13.25,0,0,1-1.65.25c-.52.15-.35,1-.45,1.45s0,1.4-.15,1.55a.78.78,0,0,0,.15.6v3.92c0,.32,0,.7,0,1s-.9.75-1.15.75a1.59,1.59,0,0,1-.75-1.57C329.36,191.37,329.46,191,329.46,190.67Zm-.85-11.3c1.15-.15,2.2-.08,3.3-.23.4-.07.9.08,1.15-.3.17-.17.33-.77.6-.67s1.5.87,1.5,1.5c0,.35-.35.3-.67.3a5.15,5.15,0,0,1-2.32.15l-.25.1h-1.1c-.55.1-1.22.1-1.52.2-.2-.1-.75-.4-.75-.9Z"/><path class="cls-2" d="M350.09,191.49c0-.28-.07-.42-.07-.65s.07-.15.07-.25c0-.4-.15-2.42-.15-2.4a2.55,2.55,0,0,1,.08-.9c.38-.15.63.5,1.27.5.45.23.38-1.42.38-2.45,0-.7.15-1.45.15-2.12,0-.45-.15-.9-.15-1.35,0-.12,0-.45.23-.45.75,0,.7.52,1.5.75.65,0,1-.23,1.82-.23,0,0,.32.08.45.08s.65-.08.75-.08.72.08,1.2.08c.2,0,.3-.23.5-.23,1.47,0,2.25-.25,2.72-1.65.1-.55-.4-.2-.67-.45-.42,0-.52.08-.75.08-1.6.15-3.1.07-4.65.15-.32,0-1,.08-1.67.08-.45,0-.9.15-1.35.15l-1.12,0a3.5,3.5,0,0,0-1.35.25c0,.38.23.6.23.9a1,1,0,0,1-.23.67c-.52,1.15-.92.6-2,1.72a.64.64,0,0,1-.5-.52,3.48,3.48,0,0,1,.2-.67,10.31,10.31,0,0,0,.55-2.77,4.9,4.9,0,0,0-.25-1.82.22.22,0,0,1,.15-.15c.15,0,.85.82.85.9,0,.7.38.73.67.85h2.17a5.78,5.78,0,0,0,1.13-2.4c0-.1.15-.4.15-.45a3.28,3.28,0,0,1,.07-.75v-3.25a14.47,14.47,0,0,1-.3-1.5,3.47,3.47,0,0,0-.52-1.65c-.3-.37-.6-.52-.6-1h.15l1,.52c.07,0,.52.38.6.38.38,0,1.13.38,1.13.75,0,1.15-.27,3.2-.15,3.52s0,.85.22.85c.63-.47,1-1.65,1.5-2.42.27-.3.18-1.27.6-1.27s.9,1.32.9,1.8a2.42,2.42,0,0,1-.05.6c-.57.77-1.77,1-2.5,1.75,0,.17,0,.3.1.35.5.77,1.65,1.17,1.65,2.1,0,.48-.27,1.35-.9,1.35l-.7-.35a.5.5,0,0,1-.05-.15,7.29,7.29,0,0,1-.32-1.75,1.81,1.81,0,0,0-.37-1.1c-.15,0-.07,0-.15.05a4.73,4.73,0,0,1-.15.45c-.08.25-.3,1.35-.37,1.6-.15.45-1,1-1,1.55,0,.25.07.32.3.32,1.3,0,2.47-.07,3.85-.07.38,0,1.52,0,1.25.07.85,0,1.2-.82,1.6-1.37,0-.05.3-.3.3-.35a7.55,7.55,0,0,0,.75-3.6,12.68,12.68,0,0,0-.25-3.92,2.76,2.76,0,0,0-.45-.9s0-.08.1-.15a2.08,2.08,0,0,1,.9.23c.3,0,.45-.08.75-.08a1.24,1.24,0,0,1,1,.38,12.47,12.47,0,0,1-.22,1.87c0,1-.3,1.82-.3,2.72,0,.15,0,.5.3.5s1.32-1.42,1.65-1.95a5,5,0,0,0,.67-1c0-.27,0-1,.38-1s.52.52.75.82.83.55.75,1.2c0,.23-.52.75-.52,1-.23.2-.85.22-1.12.32-.48.48-1.8.52-1.8.9s1.35.95,1.65,1.2c.15,0,.37.35.37.35v1c0,.23-.3.4-.6.4-.8.05-.92-.55-1.2-1a3.94,3.94,0,0,0-1.27-1.5c-.07,0-.15.2-.15.2,0,.77-1.07,2.17-1.95,2.85-.25.1-.6.25-.6.55a.65.65,0,0,0,.5.18c.15,0,.32,0,.55,0a.46.46,0,0,0,.38.08,34.33,34.33,0,0,1,3.9-.23c.6-.15,1-1.15,1.5-1.3.6,0,.58.4,1,.7.27,0,.65.57.9.82a2.85,2.85,0,0,1-.1,1.12,5.43,5.43,0,0,1-1.72.9,2.35,2.35,0,0,1-1.35.38c-.15,0-.42,0-.45-.08a2.8,2.8,0,0,0,.45-1.35c0-.62-.7-.52-1.12-.52,0,0-2,0-1.8.23,0,.45.9.52,1.2.9,0,1.32-.08,2.72-.08,4.07-.22.2-.7.15-1,.15s-.62.15-1,.15l-.23-.1c-.3,0-.75.23-1,.25h-1c-.33.32-.12,1-.75,1-.15.1-.5.47-1.4,1.25,0,.08,0,.25,0,.25.67,0,1-.1,1.6-.1.15,0,.2.1.45.1s.45-.15.75-.15c.45-.1,2.62-.1,2.85-.55-.08,0,.42-.8.6-1.25l.15-.15a7.5,7.5,0,0,0,.82.3c-.1.2,1.42.45,1.42,1.2a4.66,4.66,0,0,1-.23.75,23.3,23.3,0,0,0-.22,4,2.21,2.21,0,0,1-1.87,1.8c-.15,0-.37-.15-.37-.3v-1c0-.22-.23-.45-.6-.45-1.22,0-2.4.2-3.6.2H358c-1,0-1.57.15-3,.15a12.64,12.64,0,0,1-2.25.25c-.42.05-.35.38-.35.7a1.66,1.66,0,0,1-1.67,1.7c-.45,0-.75-.7-.75-1C349.94,193.12,350.09,192,350.09,191.49Zm-.22-16.77c0-.15.15-1.65.15-2.17,0-.2-.08-.45.15-.45a9.94,9.94,0,0,1,.6,1.57,8.35,8.35,0,0,1,.45,2.25c0,1.07-.75,1.45-1.65,2.35a.43.43,0,0,1-.52-.45A12.3,12.3,0,0,0,349.86,174.72ZM354,185.55c-.52.1-.45.75-.6,1.15s-.42.42-.6.6c-.05.43-.9.45-.9.9a18.65,18.65,0,0,0,2.4-.1,1.86,1.86,0,0,1,.38-.2c-.18-.1.45-.33.45-.55.45-1,1-.92.9-1.8,0,0-.35-.3-.35-.2S354.16,185.55,354,185.55Zm-1.42,6.25H356a10.42,10.42,0,0,1,1.75-.2s.3-.1.35-.1l.25.1c.9,0,.83-.15,1.2-.15s1.57-.1,1.95-.1c.9,0,.67-1.77.75-2a5.5,5.5,0,0,0-.3-1c-1.35,0-2.55.15-3.75.25,0,0-.77.15-1.2.15l-.62,0a1.55,1.55,0,0,0-.52.08,27.86,27.86,0,0,0-3.52.25c-.22.2-.15.47-.15.85C352.19,189.72,352.06,191.79,352.56,191.79Zm1.35-7a13.7,13.7,0,0,0,2.1-.2c.1,0,.15,0,.15,0h1.65l.1.1c.73-.4,1.32-.12,1.95-.4.35-.15.35-1,.35-1.35v-.3c0-.25,0-.52-.35-.52-.7,0-1.35.23-2,.23s-1.35.1-1.8.1h-.75a2.67,2.67,0,0,0-1.57.35c0,.1-.22.65-.15.67C353.54,184.2,353.59,184.8,353.91,184.8Zm4.3-9.62a1.12,1.12,0,0,1,0-.3,1.51,1.51,0,0,1,.17-.75c0-.65.05-1.62.05-1.8.32-.32.9,1.87.9,2.65s-.35,2.6-1.4,2.6c-.25,0-.4-.15-.4-.45A15.53,15.53,0,0,1,358.21,175.17Zm6.3,2.65c.17-.1.15-.45.15-.7h-.15c-.27,0-.3.42-.37.55S364.36,177.82,364.51,177.82Z"/><path class="cls-2" d="M20.61,139.53c0-1.6-.16-3.2-.16-3.2,0-.48.16-6.15.16-9.11l.32-.8c0-.16-.32-2.4-.32-2.56-.16-2.4.32-6.31.32-9.43,0-.64-.32-2.4-1.28-2.4a2.13,2.13,0,0,0-1.44,1l-.16-.16a22.77,22.77,0,0,1-3.2,4.79c-2.4,2.48-5.19,5-7.19,7.83-2,2.08-2.64,3.52-4.07,5A6.4,6.4,0,0,0,.72,132.5H0a1.67,1.67,0,0,1,.24-1c.72,0,3.12-1.84,4.79-4.31.24-.48,2.64-3.36,2.88-3.83.72-.4,5-6.39,5-7.51,1.2-1.68.56-3.36,3.2-7.43,1.12-2.4,2.08-3.59,2.08-6.23,0-1.44-1-1.44-2.08-1.44-1.44,0-2,.48-3.2.48a31.05,31.05,0,0,1-4.79.24c-3.36,0-3-.24-4.31-1.44v-.72a6.4,6.4,0,0,1,2.4.72c1.68,0,2.64-.72,4.15-.72,3.36,0,6.15-.24,8.31-.24,1.92-.48,1-3.91,1.76-3.91,0-1-.32-2-.32-3.52a15.06,15.06,0,0,0-.48-1.44c.24-.32-.4-3.83-1.6-4.79-.88-.4-2.24-.56-2.24-1.28,0,0,4.79-2.56,5.11-2.56,1,0,2.08,1.12,2.56,1.44,1.28.64,4.15,1.44,4.15,3,0,2.8-2.8,4.07-2.8,6.71,0,.48.08,1,.08,1.44l-.16.8c-.08.08,0,.48.16,1.2l-.16.72a1.7,1.7,0,0,0,1.6,1.2,10.45,10.45,0,0,0,3.68-1c.24,0,1.44-1,1.68-1,.4-.56,1.92,1.12,1.92,2.4,0,.48,0,1-.24,1-.72,0-1-.24-1.44-.24-1.76,0-3,.72-5.75.72-1.68.24-1.76,2.24-1.76,3.59a3,3,0,0,0,.32,1.92v3.59a2.55,2.55,0,0,1,.16,1.2c0,.88-.16,1.44-.16,2.16a12.05,12.05,0,0,1,.64,3.83c0,.8-.48,1.28-.48,1.92,0,1.44.8,2.8.8,4.31,0,3-.32,7.27-.48,7.11,0,1.52.48,6.55.48,7.11,0,4-.48,7.75-.48,9.19-.32,2.4,0,3.12-2.4,4.07-1.92.24-1,1.28-1.92,1.92l-.32-.24a31.41,31.41,0,0,1-.16-3.83C20.45,145,20.61,142.4,20.61,139.53ZM30,151.75c1.44-1.44,1.52-2.32,2.4-3.59.48-.16,5-8.63,5-8.63.72-2.4,1.2-4.63,1.92-7,0-.88,1-1.92,1-3.36-.16,0,.72-.48.72-4.79a15.06,15.06,0,0,1,.48-1.44c.48-1.44.64-13.42,1-13.26.08-.48-.24-1.68-.24-2.64,0-1.68.64-3.2.48-4.79,0-.72-.72-6.23-.72-7-.32-4.31.48-6.23-3.83-10.55l-.24-.48c0-1,3.2-.72,3.36-1.12a2.73,2.73,0,0,1,1.2.16l-.24.32a.72.72,0,0,1,.4-.08c1,0,2.16,1.6,3,2.48s2.64,1.68,2.88,2.4-1.76,2.56-2.16,4c0,1.2.08,3-.24,2.88-.08,1.36.48,3,.48,4.39,0,1.2-.48,1.44-.48,2.16l.24,1.2-.24,1c-.08,1.68.24,3,.24,4.31a2.45,2.45,0,0,1-.48,1.68l.48.48c0,2.88-.24,6.15-.48,8.87,0,.32-.24,1.76-.24,1.92-.56,1.76.16,6.23-1.44,10.23A8.14,8.14,0,0,0,42,135.85a5.24,5.24,0,0,0-.72,1.92,70.14,70.14,0,0,1-6.95,11.82l-1.2,1.2c-5,4.39-8.23,6.71-10.63,6.71v-.24c3-2.16,3.2-2.56,4.79-2.88Zm-1-40.66c0-2.16-1.44-4.55-1.44-6.23.88,0,1.2,2.16,2.64,3.12,1,2.64,4.55,5,4.55,7.75,0,2.4-1,1.6-2.88,2.08-.48.32-.72,1-1.44,1a12,12,0,0,1-1.44-3Zm0,13.74c.24,0,1.2-1,1.44-1a9,9,0,0,0,3.36-1.76c.24,0,1.68-1,1.92-1,1.2-.64,2.16-1.92,3.59-1.92v.32c0,1-2,2.72-3.59,4.31-.8-.16-.24.64-1,1.44-.24.64-1.84,3.36-2.48,3.36h-.16c.32,0-3.52-1.44-4.55-3.2C27.8,125,28.6,125,29.08,124.83Zm7.67-18.05A16.6,16.6,0,0,0,36,102l.48-.48c.64,1.44,3.83,3.36,3.83,4.79,0,1.6-.48,4.55-2.16,4.55-.72.16-1.92-.24-1.92-1.2S36.75,107.73,36.75,106.77ZM50.89,132c0-1-.16-1.84-.16-2.88a17.52,17.52,0,0,1,.16-2.4c-.48-1,.48-1.6.48-2.72.16-1.92-.16-3.67-.16-5.43.32-5.59.48-9.91.48-13.74-.16-.48.64-1.6.64-2.4,0-3,.8-4,.8-8.71,0-.16.48-1.92.48-2.08,0-1.2-.08-3.83.16-3.68-.72-2.08.4-3.83-2.4-5.43-.48-1,2.4-1.76,3.83-1.76,1.28-.24,2.64,1.84,3.36,2.72.4.24,2.24,1,2.24,2.4,0,1.12-1.44,2.56-2.4,3.52-1.76,4.39.08,8.55-1.76,12.3v4.31a18.56,18.56,0,0,0-.64,2.88c0,1,.48,1.68.48,2.64,0,2.4-.32,3.83-.32,6.07-.32.08,0,5.27-.48,5,0,.32.32,2.24.32,2.4.08.8-.32,1.68-.32,2.56a1.76,1.76,0,0,0,.48,1.44v3c0,.32.8,2.4.8,2.72v2.56c-.16.32,1.76,1.92,2.08,1.92a45.69,45.69,0,0,0,8.15-.48c1.28-.64,2.72-.16,4-1a9.73,9.73,0,0,0,2.56-2.56c.32-.32,1-2.24,1.28-2.4,0-.32,1-1.44,1-1.76.16-.48.64-1.6,1.44-1.6a4.08,4.08,0,0,1-.32,1.6c-.16,2.72.32,5.59.32,8,0,2.56-.64,6.23-4.23,6.23H71.66c-.72,0-2.08.24-2.88.24l-.48-.24-.32.24a4.09,4.09,0,0,1-1.76-.24c0,.32-1.68.24-2.56.24-.32,0-2.4.48-2.72.48-1.28.08-1.76-.24-2.88-.24-.72,0-1.76.24-2.08.24a4,4,0,0,1-2.24-1c-2.48-1.44-2.4-3.12-2.88-5,0-.32-.48-1.44-.48-1.76v-.16A60,60,0,0,1,50.89,132Zm12.78-30.76c1.92-2.64,3.68-6.07,4.31-6.07a10.62,10.62,0,0,1,3.83,3.43c.32.48.32,1.2.8,1.44.16,0,1,.72,1.12.72,0,.48-.08.24-.16.48a24,24,0,0,0-2.88,1.44c-1.6.08-2.32,1.2-3.68,1.92-1,.4-1.36.48-1.92,1.2s-3.2,1.12-3.2,2.16c.88,3,2.4,2,5.91,5.35,1.6,1.12,3.83.64,5.27,2.4a4.6,4.6,0,0,1,1.44,3.36c.16.8-1.36,2.48-2.24,3-.64.8-.64,1.76-1.92,1.92-.08.24-1.52-1-2.08-1.92-.8-.64-.32-1.92-.8-2.88a38.36,38.36,0,0,0-5.59-8.39,7.52,7.52,0,0,1-1-1.44c0-1.52-1-1-1-2.4S62.55,102.86,63.67,101.26Z"/><path class="cls-2" d="M97.64,124.88c-.47.23-2.1,1.87-2.57,2.1-.23.23-3.5,2.26-4,2.1v.47c-2.41,1.25-5.92,4.44-9.66,4.44,0-1.48,1.79-1.56,3.27-2.57a21.55,21.55,0,0,0,3.12-2.8c.16,0,1.4-.93,1.56-.93.55,0,1.48-1.32,2.18-2.34s2.1-1.32,3-2.34c1.25-1.32,3.74-4,3.74-4.21l.7-1.17c0-.23,1.17-.93,1.17-1.17.39.08.86-2,1.63-3.11s1.87-2,1.87-3.43c0-.78-.47-1.25-.47-2.18-.78-.08,1.56-1.56,4-1.56.86-.23,1.56,1.4,2.1,1.87,1,.93,2.1,1.4,2.1,2.8,0,1.17-1.17,1.95-1.87,3-1.48,2-2.8,4.36-2.8,6.85,0,1.87.47,3.74.47,5.61,0,.47-.23,1.17-.23,1.64,0,3.82.39,9.66,1.4,9.66.7,0,.93-.78,1.48-.93,1.32,0,3.19-2.34,5.14-4.28.16,0,2-2.1,2.8-2.57a4.75,4.75,0,0,1,.93-.7c1.79-1.79,3.43-3,3.43-5.61,0-3.74-.16-7.24-.47-11.06a5.27,5.27,0,0,0-2.34-4.36c-.23-1.87,1.32-1.79,2.34-2.34a4.92,4.92,0,0,1,2.65-.93c1.87,0,5.14,2.18,5.14,3.27,0,.93-1.09,1.4-1.09,2.34v8.41c0,.08.23.62.62.47,0,.31,1.09-.86,1.71-1.4.47-.47.47-1.17.62-1.4,1,0,1.56-1.63,2.34-2.65,1.4-1.87,3.11-3.27,3.74-5.61.08-1.25-.47-1.79-.47-2.49s.47-.78,1.25-.78a16.47,16.47,0,0,1,3.74.31c.62.16.93.93,1.4,1.09,1.48,1.25,4,2,4,4.05.23,2.34-1.56,1.95-2.57,3-3.19,3.19-6.7,6-9.81,9.19-.86,0-5.37,3.12-6.85,4.91a19.15,19.15,0,0,0-.31,4.21,17.77,17.77,0,0,0,.31,4c0,.16.47,1.4.47,1.56,0,4.67,2.41,4.67,4.52,4.67l5.3-1.09c1.32,0,4.36-2.34,8.25-2.34,1.25-.86,2.18-4.28,2.57-6.85.23-1.17.08-4.44,1.4-4.44.23-.23.31.23.47.47,0,.54-.08,1-.08,1.56,0,5.14,1.4,10.75,5,14.56.23.78-.86,2.88-1.4,3.27a16.12,16.12,0,0,1-2.57.78,41.7,41.7,0,0,1-8.64,1.4h-6.54c-1.4,0-5.3.08-5.61.47-1.79.23-2.57-.7-4-.93-2.41,0-3.66-2.26-4.52-3.74-.7-3.74-.08-7.94-.93-12-2.8,0-5,2.57-7.48,3.74-.16.31-2.49.93-2.8,1.25-2,1.56-3.43.86-4,3,0,.78.23,3.74.23,4.52-.08,2,.39,6.54-3.51,6.54-2.34,0-2.57-3.74-2.57-5.92V123.71c-.08-.08-.47-.62-.7-.47C99.51,123.24,98.81,124.64,97.64,124.88Zm.23-27.41c-.23,0-1.17.47-1.4.47a4.62,4.62,0,0,0-2.34.31c-2.1.54-3.11-2.1-3.27-3.12,0-1,1.32-1.4,2.1-1.25a5,5,0,0,1,3.5-.93c1.17,0,2.1.47,3.27.47.7,0,2.57-.47,2.8-1.4v-3c0-3.58-1.87-3.27-1.87-4.67,0-.78.93-.93,1.4-1.25,1.64,0,2.49-1.4,4-1.4,1.17,0,2.1.93,3,1.71.93.62,1.87.47,1.87,1.87,0,.47,0,.93-.16,1.09-1.32.62-1.25,1.79-1.25,2.8,0,1.25.31,2.34,1.4,2.34,1.4,0,2.65-.47,3.74-.47.7,0,1.25-.16,1.25.62V92c0,.78-.54,3.27-1.87,3.27H110.8c-.39.23-.39.7-.47.78v5.45a18.93,18.93,0,0,1-1.95,2.34,4.39,4.39,0,0,1-2.34.62l-.47-.16c-.55,0-1.17-1.71-1.4-1.87v-5c0-.31-.23-.47-.47-.78A28.52,28.52,0,0,0,97.88,97.46Z"/><path class="cls-2" d="M164.22,97.19a63.17,63.17,0,0,0,5.61,4c.31,0,1.87,1.25,2.65,1.4,2.49,1.48,3,1.09,3,5.14-1.17,1.32-2.18,4.52-3.89,5-2.65,0-2.88-3.27-3.82-5.61-.78-1.87-1.79-3.58-3-6.07-.47-.93-1.64-1.87-1.64-3.11C163.05,97.11,163.05,97.19,164.22,97.19Zm5.14,39.48c-.93-2.8.23-5.22-2.1-6.85-.23-.7.86-1.4,1.48-1.4,3.27,0,3.12-1.48,3.89-3,0-.23.78-.93.78-1.17.93-1.63,1.09-4,1.56-5.84,0-.23.47-1.17.47-1.4.93-1.87,1.17-4.13,1.71-6.07a17.8,17.8,0,0,1,.93-2.65,17.22,17.22,0,0,1,1.87-5.76c.47-.93,1.56-4,2.49-4a.41.41,0,0,1,.47.47c0,2.41-1.56,5.3-2.49,8.41-.78,1.09-.47,2.41-.78,3.58-.16,1.56-.93,3.43-1.09,5.14-.47,3-.78,5.84-1.25,8.88-1,3.27-.62,6.23-.93,9.58,0,1.48-.16,3.82-.16,5.92-.62,2.41-3.19,4.36-4.67,4.36-.93,0-1.87-1.56-2.34-2.34C169.2,138.78,169.36,138.31,169.36,136.68Zm1.4,11.84a8,8,0,0,0,3.27-2.8c.93-.62.31.78,6.39-5.3,1.56-3.11,2-6.15,3-9.42,0-.23.78-1.87.78-2.1,0-2.41.54-3,.93-4.91.47-2.57.16-4.91.47-7.48,0-.78.47-1.71.47-2.65s0-3.74.62-4.36c0-3.5.47-6.31.47-9.81L187,98.59c-.08-2,.16-3.35.16-4.83,0-1.25-.47-2.49-.47-5a14.68,14.68,0,0,1-.47-1.4c-.62-1.87,2.65-2.49,4.36-2.49.62,0,1.09.62,1.87.93.16.16,2.49,1.09,2.8,1.4a8.83,8.83,0,0,0,4.21.93c2.41,0,2.8-.47,4.36-.47a12.55,12.55,0,0,0,2.41.16l13.08-1.56,2.8-2.8c.47-.47,1.87-.47,2.57-.47,1,0,2.34,2.88,3.35,3.89.7.78,1.87,1.4,1.87,1.87,0,1.17-.47,1.25-1.25,1.25-3.74,0-15.19.16-16.12.93a2.19,2.19,0,0,0-1.17-.31c-.54,0-2,0-1.87.93l1.17,1.25v.62c-1.63,1.4-2.57,3.11-4,4.67-.23.31-1.64,1.25-1.64,1.71,0,.93.93,1.25,1.64,1.25a26,26,0,0,1,4.44-.47c2,0,3.5.31,5.37-.78.86-.16,1.63-3.27,3.74-3.27.7.47,5.14.78,5.14,3.27,0,2-1.4,2.41-1.4,5.45,0,.47.23.93.23,1.56,0,.47-.23,1.25-.23,1.71,0,.16.23,5.22.23,5.76v.31c0,.16-.47.93-.47,1.09a11.44,11.44,0,0,0,.47,3.12A23.59,23.59,0,0,1,224,123c0,.93-2.8,2.41-3.5,2.34s-1.87-.23-1.87-1.17v-4c0-.47-1.56-.93-2.34-.93-1.64,0-3,.7-4.67.93-.7,0-1.71-.23-1.71.47s2.41,2.34,2.41,3c0,.23-.23,1.4-.23,1.64,0,1.95-.23,4-.23,6.31a5.5,5.5,0,0,0,.47,1.87c-1.17,1.25-.47,2.8-.93,4.21v6.07a4.7,4.7,0,0,0-.47,1.71L206,150.38a1.91,1.91,0,0,1-.78.31c-1.32-.39-1.87-1.32-2.34-2.65.16-.39-.31-1.09-.47-1.4a3.39,3.39,0,0,0-3.27-1.87c-.54,0-1.4-.7-1.4-.62,0-1.4,1.25-1.4,2.18-1.71a14.69,14.69,0,0,1,1.4-.47c1.09-.16,2.8-.16,3.74-1.4a65.37,65.37,0,0,0,.93-7.48c.23-3.74.93-7.24.93-11,0-.47,0-1.17-.47-1.4-3.74,0-3.89.23-5.45.23-2.49.47-2.49,4.67-5.3,4.67-1.71,0-1.56-4.21-1.56-3.89a.66.66,0,0,1,.31-.54,45.4,45.4,0,0,0,.55-6.54c0-.93,0-1.79-.08-2.65a3.39,3.39,0,0,0,.55-2.18c0-.78-.08-1.63-.08-2.18a15.71,15.71,0,0,1,.47-2.65v-4.83c0-.31-.16-.78-.16-.93-.16,0-.16-.86.47-1.56,1.09-.08,1.4.93,1.87,1.56l1.56,1.09c.08-.08,1,.16,1.4-.16,1.09-2.73,3.19-5.3,3.74-8.25,0-.31-.62-.47-.62-.47-2.65,0-4.83.47-7.48.47h-1.32c-1.48,0-2.65.16-3.35,1.87,0,3.27-.47,6.39-.47,8.72,0,1.25.16,2,.16,3a14.78,14.78,0,0,1-.62,2.8c0,3.43-.31,5.92-.31,9,0,1.64-.93,4.67-.93,7,0,.23-.47,1.4-.47,1.64a53.2,53.2,0,0,1-2.8,9,14.56,14.56,0,0,1-2.18,3.74c-.23,1.17-3.74,3.89-3.74,4.67L176.84,147c-1.48.55-2.1,1.87-3.43,2.49s-2,2.34-3.58,2.65c-.47,0-1.09-.93-1.09-1.25C168.74,149.21,170.14,149.45,170.76,148.51Zm.78-67.21,2.8,2.8c.78,1.25,3.66,2.1,5.3,3.74,2.1,2.1,4,2.34,4,3.74,0,1.71-4,4.67-5,5.61-3.89,0-4.36-2.65-4.83-5.3-.31-1.25-1.25-3.12-1.4-4.21a23.62,23.62,0,0,0-.93-3.12c-.47-1.09-1.25-1.87-1.25-3.27ZM187.43,141c.31-.47.93-.47,1.25-.93,2.41-3,2.88-4.13,4.36-5.61.78-.7,1.71-1.56,1.71-1.87.55.31.62-1.4,1.4-1.87l3.74-3.74c1.4,0,.93.7,1.56,1.4.47.31,2.18,1.4,2.18,2.57,0,2-3,3.35-3.27,3.82-2.1,1.4-2.18,2.26-3.58,3.27-1.25.93-4.52,3.43-4.36,3.43a15.5,15.5,0,0,1-3.11,1.71c-1.09.62-2.34,2.49-4.05,2.49-.47,0-.62-.47-.62-1.09S186.42,142,187.43,141Zm18.77-29c-1.09,0-6.23-.47-6.31,1.4v3.35c0,2.1,4.52,1.4,6.7,1.4a11.57,11.57,0,0,0,4-.47,6,6,0,0,1,1.17-.47c1.71-.47,6.54,0,7-2.1,0-3,.47-3.58.47-6.54,0-.86.31-5.14-1.4-5.14-2.8,0-4.36.16-6.31.16-.31,0-1.4-.16-2.1-.16-.23,0-2.1.47-2.34.47h-.23c-.23,0-.7-.31-.93-.31a3.05,3.05,0,0,0-1.4.31c-5.37,0-4.13,1.09-5,3.27,0,.93.16,2.49.93,3,3.19,0,3.19-.47,4.52-.47,7.32,0,3-.93,10-.93,1.32-.16,1.64.55,1.64,1.71,0,.7-1.56,1.4-9.81,1.4Zm8.88,13.16c.55.08,1.79,1.64,3,1.64a33,33,0,0,0,5.37,2.8c.23,0,.93.93,1.17.93a9.69,9.69,0,0,1,2.88.7L230,133.8a2,2,0,0,1,.31.7c.23,4.28-.93,5-3.58,6.54a2.39,2.39,0,0,1-1.09.78c-2.8,0-2.8-2.65-4.05-5.61-.47-.78-1.17-1.4-1.63-2.18-.62-.93-1.17-2.34-1.87-2.8-.86-2.26-3.5-3.27-3.5-5.61C214.61,125.38,214.61,125.15,215.07,125.15Z"/><path class="cls-3" d="M121.54,92a3.91,3.91,0,0,0,.41.15c3.72.89,7.22-.52,10.76-1.41.9-.22.56-.92.13-1.38a26.24,26.24,0,0,0-7.38-6.06c-1.9-1-3-.38-4,1.64a15.53,15.53,0,0,1-1.21,1.88C118.65,89,119.16,91,121.54,92Zm24.61-2.17c-2.09-.78-4.47.43-6.88,1.3a.68.68,0,0,0-.38.92,65.44,65.44,0,0,1,1.92,8.61c.12.84.38,1.64,1.3,1.87a1.5,1.5,0,0,0,1.74-.71c1.16-2.06,3-3.57,4.34-5.45C149.73,94.27,148.92,91.16,146.15,89.82Zm-5.23-12.16c-1.12-.43-2-.75-2.79-.09s-.52,1.36-.37,2.09a35.08,35.08,0,0,1,.88,7.54c0,.89.22,1.53,1.27,1.17a18.79,18.79,0,0,0,5.41-2.52c1.09-.82,1.66-2.07.76-3.11C144.45,80.85,142.52,79.2,140.93,77.66Zm-17.5,21.65c-.25,1-.57,2,.16,2.73s1.76.44,2.58,0a27.52,27.52,0,0,0,8.69-7.44c.32-.4.69-.88.36-1.38s-.91-.32-1.39-.2a23.52,23.52,0,0,0-6.32,2.57A10.87,10.87,0,0,0,123.43,99.31ZM135.1,86.76c.64-1.69-.72-6.75-2.16-8.19-1.84-1.84-3.86-.33-5.69,0-1.67.29-1.39,1.77-.35,2.72,2.17,2,4.42,3.83,6.66,5.7C134.07,87.41,134.7,87.83,135.1,86.76Z"/></g></g></svg>