<svg xmlns="http://www.w3.org/2000/svg" viewBox="0 0 1149.21 624.39"><defs><style>.cls-1{fill:#e7e9e9;}.cls-2{fill:#25bf9a;}</style></defs><title>artifact_bg</title><g id="图层_2" data-name="图层 2"><g id="图层_1-2" data-name="图层 1"><rect class="cls-1" x="482.53" y="393.16" width="177.58" height="177.58" transform="translate(-173.46 545.15) rotate(-45)"/><rect class="cls-1" x="482.53" y="94.77" width="177.58" height="177.58" transform="translate(37.54 457.75) rotate(-45)"/><rect class="cls-1" x="780.93" y="94.77" width="177.58" height="177.58" transform="translate(124.94 668.75) rotate(-45)"/><rect class="cls-1" x="780.93" y="393.16" width="177.58" height="177.58" transform="translate(-86.06 756.15) rotate(-45)"/><rect class="cls-2" x="632.93" y="243.28" width="177.58" height="177.58" transform="translate(-23.42 607.6) rotate(-45)"/><rect class="cls-2" x="333.85" y="243.28" width="177.58" height="177.58" transform="translate(-111.02 396.11) rotate(-45)"/><rect class="cls-1" x="185.56" y="94.77" width="177.58" height="177.58" transform="translate(-49.44 247.76) rotate(-45)"/><rect class="cls-1" x="185.56" y="393.16" width="177.58" height="177.58" transform="translate(-260.44 335.16) rotate(-45)"/><rect class="cls-2" x="56.6" y="195.44" width="273.27" height="273.27" transform="translate(-178.22 233.89) rotate(-45)"/><rect class="cls-2" x="815.33" y="195.44" width="273.27" height="273.27" transform="translate(44.01 770.4) rotate(-45)"/><path class="cls-1" d="M1145.19,618.39v6h-30.35v-20H1101v20h-24.94v-26H1095V586.21h-19l-10.42,10.42v27.76h-28v-6h22V594.15l13.94-13.94H1101v18.21h19.8v20Zm-50.14,0v-14h-12.94v14Z"/><path class="cls-1" d="M1145.19,516.81v28h-27.76L1107,555.27v19h12.21V555.29h26v24.94h-20V594h20v30.37h-6V600h-20v-19.8H1101V552.78l13.94-13.94h24.24v-22Zm-6,57.41V561.29h-14v12.94Z"/><path class="cls-1" d="M6,624.39H0V594H20v-13.8H0V555.31H26v18.94H38.18v-19L27.76,544.87H0v-28H6v22H30.24l13.94,13.94v27.44H26V600H6Zm0-50.14H20V561.31H6Z"/><path class="cls-1" d="M107.58,624.39h-28V596.63L69.13,586.21h-19v12.21H69.11v26H44.17v-20H30.37v20H0v-6H24.37v-20h19.8V580.21H71.61l13.94,13.94v24.24h22Zm-57.41-6H63.11v-14H50.17Z"/><path class="cls-1" d="M4,6V0H34.37V20h13.8V0H73.11V26H54.17V38.18h19L83.55,27.76V0h28V6h-22V30.24L75.61,44.18H48.17V26H28.37V6ZM54.17,6V20H67.11V6Z"/><path class="cls-1" d="M4,107.58v-28H31.78L42.21,69.13v-19H30V69.11H4V44.17H24V30.37H4V0h6V24.37H30v19.8H48.21V71.61L34.27,85.55H10v22Zm6-57.41V63.11H24V50.17Z"/><path class="cls-1" d="M1143.21,0h6V30.35h-20v13.8h20V69.08h-26V50.14H1111v19l10.42,10.42h27.76v28h-6v-22H1119L1105,71.58V44.14h18.21V24.35h20Zm0,50.14h-14V63.08h14Z"/><path class="cls-1" d="M1041.63,0h28V27.76l10.42,10.42h19V26h-18.94V0H1105V20h13.8V0h30.37V6h-24.37V26H1105V44.18H1077.6l-13.94-13.94V6h-22ZM1099,6h-12.94V20H1099Z"/></g></g></svg>