<svg xmlns="http://www.w3.org/2000/svg" viewBox="0 0 156.58 52.48"><defs><style>.cls-1{fill:#25bf9a;}.cls-2{fill:#fff;}</style></defs><title>btn_menu_active</title><g id="图层_2" data-name="图层 2"><g id="图层_1-2" data-name="图层 1"><path class="cls-1" d="M147.31,40.11c-2.8-3.85-7.76-8-13.1-7.67-1.36.09-2.07-2.33-2.07-4.58-1.2-.6-4.11-.26-6.63,1.89-2.07-.46-11.76-2.94-14.16,2.33-2.29,5,.32,8.52,3.54,8.52,5.56,0,3.53-4.36,6.26-4.36,4.61,0-4.46,15.46-16.63.36l10.37-10.37L104.51,15.87c12.18-15.1,21.24.36,16.63.36-2.73,0-.7-4.36-6.26-4.36-3.22,0-5.83,3.49-3.54,8.52,2.4,5.27,12.09,2.79,14.16,2.33,2.53,2.15,5.43,2.49,6.63,1.89,0-2.25.71-4.67,2.07-4.58,5.34.36,10.3-3.82,13.1-7.67,2.62-3.6,5.07-5.45,9.27-5.83-6.92-4-11.56-1.42-14.1.37-1.18-1.18-4.86-2.51-6.49-2.58-1.9-.08-6.11,1.06-6.11,4.5,0,2.81,1.31,4.27,5.63,4.27a5.41,5.41,0,0,1-3,2.22C116.18-5,104.4,5.6,99,10.36L88.63,0H67.95L57.59,10.36C52.18,5.6,40.4-5,24,15.31a5.41,5.41,0,0,1-3-2.22c4.33,0,5.63-1.46,5.63-4.27,0-3.44-4.21-4.58-6.11-4.5C19,4.39,15.28,5.73,14.1,6.9,11.56,5.11,6.92,2.49,0,6.53c4.2.38,6.65,2.24,9.27,5.83,2.8,3.85,7.76,8,13.1,7.67,1.36-.09,2.07,2.33,2.07,4.58,1.2.6,4.11.26,6.63-1.89,2.07.46,11.76,2.94,14.16-2.33,2.29-5-.32-8.52-3.54-8.52-5.56,0-3.53,4.36-6.26,4.36-4.61,0,4.46-15.46,16.63-.36L41.71,26.24,52.07,36.6c-12.18,15.1-21.24-.36-16.63-.36,2.73,0,.7,4.36,6.26,4.36,3.22,0,5.83-3.49,3.54-8.52-2.4-5.27-12.09-2.79-14.16-2.33-2.53-2.15-5.43-2.49-6.63-1.89,0,2.25-.71,4.67-2.07,4.58-5.34-.36-10.3,3.82-13.1,7.67C6.65,43.71,4.2,45.57,0,45.95c6.92,4,11.56,1.42,14.1-.37,1.18,1.18,4.86,2.51,6.49,2.58,1.9.08,6.11-1.06,6.11-4.5,0-2.81-1.31-4.27-5.63-4.27a5.41,5.41,0,0,1,3-2.22c16.35,20.28,28.13,9.71,33.54,5L67.95,52.48H88.63L99,42.12c5.41,4.76,17.19,15.33,33.54-5a5.41,5.41,0,0,1,3,2.22c-4.33,0-5.63,1.46-5.63,4.27,0,3.44,4.21,4.58,6.11,4.5,1.63-.07,5.31-1.41,6.49-2.58,2.55,1.79,7.18,4.41,14.1.37C152.38,45.57,149.93,43.71,147.31,40.11Z"/><path class="cls-2" d="M89.36,19.53H67.22a2.14,2.14,0,0,1-2.14-2.14h0a2.14,2.14,0,0,1,2.14-2.14H89.36A2.14,2.14,0,0,1,91.5,17.4h0A2.14,2.14,0,0,1,89.36,19.53Z"/><path class="cls-2" d="M89.36,28.38H67.22a2.14,2.14,0,0,1-2.14-2.14h0a2.14,2.14,0,0,1,2.14-2.14H89.36a2.14,2.14,0,0,1,2.14,2.14h0A2.14,2.14,0,0,1,89.36,28.38Z"/><path class="cls-2" d="M89.36,37.22H67.22a2.14,2.14,0,0,1-2.14-2.14h0a2.14,2.14,0,0,1,2.14-2.14H89.36a2.14,2.14,0,0,1,2.14,2.14h0A2.14,2.14,0,0,1,89.36,37.22Z"/></g></g></svg>