<svg xmlns="http://www.w3.org/2000/svg" viewBox="0 0 160.51 76.91"><defs><style>.cls-1{fill:none;}.cls-2{fill:#dbf6ec;}.cls-3{fill:#72e5ba;}.cls-4{fill:#f9f9cf;}.cls-5{fill:#26daaa;}</style></defs><title>feature_top</title><g id="图层_2" data-name="图层 2"><g id="图层_1-2" data-name="图层 1"><path class="cls-1" d="M80,0H53.23V26.76A26.76,26.76,0,0,1,80,0Z"/><path class="cls-1" d="M80,0a26.76,26.76,0,0,1,26.76,26.76V0Z"/><path class="cls-2" d="M80,0A26.76,26.76,0,0,0,53.23,26.76h5.08a21.68,21.68,0,1,1,43.36,0h5.08A26.76,26.76,0,0,0,80,0Z"/><path class="cls-3" d="M80,5.08A21.68,21.68,0,0,0,58.31,26.76h4.88a16.8,16.8,0,1,1,33.6,0h4.88A21.68,21.68,0,0,0,80,5.08Z"/><path class="cls-4" d="M80,10a16.8,16.8,0,0,0-16.8,16.8h5.23a11.57,11.57,0,1,1,23.13,0h5.23A16.8,16.8,0,0,0,80,10Z"/><path class="cls-5" d="M80,15.2A11.57,11.57,0,0,0,68.42,26.76H91.56A11.57,11.57,0,0,0,80,15.2Z"/><path class="cls-1" d="M107,12.55H80.23V39.31A26.76,26.76,0,0,1,107,12.55Z"/><path class="cls-1" d="M107,12.55a26.76,26.76,0,0,1,26.76,26.76V12.55Z"/><path class="cls-2" d="M107,12.55A26.76,26.76,0,0,0,80.23,39.31h5.08a21.68,21.68,0,1,1,43.36,0h5.08A26.76,26.76,0,0,0,107,12.55Z"/><path class="cls-3" d="M107,17.63A21.68,21.68,0,0,0,85.31,39.31h4.88a16.8,16.8,0,1,1,33.6,0h4.88A21.68,21.68,0,0,0,107,17.63Z"/><path class="cls-4" d="M107,22.51a16.8,16.8,0,0,0-16.8,16.8h5.23a11.57,11.57,0,1,1,23.13,0h5.23A16.8,16.8,0,0,0,107,22.51Z"/><path class="cls-5" d="M107,27.74A11.57,11.57,0,0,0,95.42,39.31L107,50.15l11.57-10.84A11.57,11.57,0,0,0,107,27.74Z"/><path class="cls-1" d="M53,12.55H26.25V39.31A26.76,26.76,0,0,1,53,12.55Z"/><path class="cls-1" d="M53,12.55A26.76,26.76,0,0,1,79.77,39.31V12.55Z"/><path class="cls-2" d="M53,12.55A26.76,26.76,0,0,0,26.25,39.31h5.08a21.68,21.68,0,1,1,43.36,0h5.08A26.76,26.76,0,0,0,53,12.55Z"/><path class="cls-3" d="M53,17.63A21.68,21.68,0,0,0,31.33,39.31h4.88a16.8,16.8,0,1,1,33.6,0h4.88A21.68,21.68,0,0,0,53,17.63Z"/><path class="cls-4" d="M53,22.51a16.8,16.8,0,0,0-16.8,16.8h5.23a11.57,11.57,0,1,1,23.13,0h5.23A16.8,16.8,0,0,0,53,22.51Z"/><path class="cls-5" d="M53,27.74A11.57,11.57,0,0,0,41.44,39.31L53,50.15,64.58,39.31A11.57,11.57,0,0,0,53,27.74Z"/><path class="cls-1" d="M80,23.39H53V50.15A26.88,26.88,0,0,1,80,23.39Z"/><path class="cls-1" d="M80,23.39a26.88,26.88,0,0,1,27,26.76V23.39Z"/><path class="cls-2" d="M80,23.39A26.88,26.88,0,0,0,53,50.15h5.13a21.87,21.87,0,0,1,43.74,0H107A26.88,26.88,0,0,0,80,23.39Z"/><path class="cls-3" d="M80,28.47A21.77,21.77,0,0,0,58.12,50.15H63a16.95,16.95,0,0,1,33.9,0h4.92A21.77,21.77,0,0,0,80,28.47Z"/><path class="cls-4" d="M80,33.35A16.88,16.88,0,0,0,63,50.15h5.28a11.67,11.67,0,0,1,23.34,0h5.28A16.87,16.87,0,0,0,80,33.35Z"/><path class="cls-5" d="M80,38.58A11.62,11.62,0,0,0,68.32,50.15H91.66A11.62,11.62,0,0,0,80,38.58Z"/><path class="cls-1" d="M80,76.91h27V50.15A26.88,26.88,0,0,1,80,76.91Z"/><path class="cls-1" d="M80,76.91A26.88,26.88,0,0,1,53,50.15V76.91Z"/><path class="cls-2" d="M80,76.91a26.88,26.88,0,0,0,27-26.76h-5.13a21.87,21.87,0,0,1-43.74,0H53A26.88,26.88,0,0,0,80,76.91Z"/><path class="cls-3" d="M80,71.83a21.77,21.77,0,0,0,21.87-21.68H96.94a16.95,16.95,0,0,1-33.9,0H58.12A21.77,21.77,0,0,0,80,71.83Z"/><path class="cls-4" d="M80,67a16.87,16.87,0,0,0,16.95-16.8H91.66a11.67,11.67,0,0,1-23.34,0H63A16.88,16.88,0,0,0,80,67Z"/><path class="cls-5" d="M80,61.72A11.62,11.62,0,0,0,91.66,50.15H68.32A11.62,11.62,0,0,0,80,61.72Z"/><path class="cls-1" d="M133.75,23.39H107V50.15A26.76,26.76,0,0,1,133.75,23.39Z"/><path class="cls-1" d="M133.75,23.39a26.76,26.76,0,0,1,26.76,26.76V23.39Z"/><path class="cls-2" d="M133.75,23.39A26.76,26.76,0,0,0,107,50.15h5.08a21.68,21.68,0,0,1,43.36,0h5.08A26.76,26.76,0,0,0,133.75,23.39Z"/><path class="cls-3" d="M133.75,28.47a21.68,21.68,0,0,0-21.68,21.68H117a16.8,16.8,0,1,1,33.6,0h4.88A21.68,21.68,0,0,0,133.75,28.47Z"/><path class="cls-4" d="M133.75,33.35A16.8,16.8,0,0,0,117,50.15h5.23a11.57,11.57,0,1,1,23.13,0h5.23A16.8,16.8,0,0,0,133.75,33.35Z"/><path class="cls-5" d="M133.75,38.58a11.57,11.57,0,0,0-11.57,11.57h23.13A11.57,11.57,0,0,0,133.75,38.58Z"/><path class="cls-1" d="M26.5,23.39H0V50.15A26.63,26.63,0,0,1,26.5,23.39Z"/><path class="cls-1" d="M26.5,23.39A26.63,26.63,0,0,1,53,50.15V23.39Z"/><path class="cls-2" d="M26.5,23.39A26.63,26.63,0,0,0,0,50.15H5a21.47,21.47,0,1,1,42.94,0h5A26.63,26.63,0,0,0,26.5,23.39Z"/><path class="cls-3" d="M26.5,28.47A21.57,21.57,0,0,0,5,50.15H9.87a16.64,16.64,0,1,1,33.28,0H48A21.57,21.57,0,0,0,26.5,28.47Z"/><path class="cls-4" d="M26.5,33.35A16.72,16.72,0,0,0,9.87,50.15H15a11.46,11.46,0,1,1,22.91,0h5.18A16.72,16.72,0,0,0,26.5,33.35Z"/><path class="cls-5" d="M26.5,38.58A11.51,11.51,0,0,0,15,50.15H38A11.51,11.51,0,0,0,26.5,38.58Z"/></g></g></svg>