<?xml version="1.0" encoding="utf-8"?>
<!-- Generator: Adobe Illustrator 20.0.0, SVG Export Plug-In . SVG Version: 6.00 Build 0)  -->
<svg version="1.1" id="图层_1" xmlns="http://www.w3.org/2000/svg" xmlns:xlink="http://www.w3.org/1999/xlink" x="0px" y="0px"
	 viewBox="0 0 1082.1 384" style="enable-background:new 0 0 1082.1 384;" xml:space="preserve">
<style type="text/css">
	.st0{opacity:0.61;fill:#E7E9E9;enable-background:new    ;}
</style>
<title>featured_bg</title>
<g>
	<path class="st0" d="M183.4,343.6c-11.9-9.9-19.8-9.7-22.9-15.7c-3.1-6.1-9.4-26.6-22.7-27c-22.1,0-30.6,10.1-30.6,10.1
		s16-2.5,16.6,7.4c0.7,9.9-11.2,15.3-16.4,13.9c-5.2-1.4-13.1-1.8-13.3-24c-0.2-22.2,7.6-59.8,3.6-72.2c-1.4-6.2-3.9-12.1-7.4-17.5
		c12-6.4,19.7-16,19.7-26.7c0-10.7-7.6-20.2-19.7-26.7c3.4-5.3,5.9-11.2,7.4-17.4c4-12.4-3.8-49.9-3.6-72.2
		c0.2-22.3,8.1-22.7,13.3-24c5.2-1.3,17.1,4,16.4,13.9c-0.7,9.9-16.6,7.4-16.6,7.4s8.5,10.1,30.6,10.1c13.3-0.4,19.6-20.9,22.7-27
		c3.1-6.1,11-5.8,22.9-15.7c12-9.9,11.1-38.8,11.1-38.8S179.2,14,172.8,16.8s-32.9,5.9-53.9,5.3s-28.4,9.5-42.1,29.2
		s-3.8,76.7-4.5,86.4c-0.6,9.7-6.9,18.6-17.2,19.2s-17.2-3.6-21.4-12.3s6.4-15.8,11.8-13.2c5.4,2.6-0.9,13.1-0.9,13.1
		s15,1.4,20.2-20.6C70,102,47,94.7,47,94.7s0-16-11.2-26.1s-32,4.5-32,4.5s20.2,4.9,16,34.5s-8.7,23.7-9.8,37.3s5.6,19.9,5.6,19.9
		s0.4,0.7,1.1,1.7C5.9,172.8-1,181.9-1,192c0,10.1,6.9,19.2,17.7,25.6c-0.7,1.1-1.1,1.7-1.1,1.7s-6.6,6.3-5.6,19.9
		c1,13.6,5.6,7.7,9.8,37.3c4.2,29.6-16,34.5-16,34.5s20.9,14.6,32,4.5S47,289.4,47,289.4s23-7.3,17.8-29.3s-20.2-20.6-20.2-20.6
		s6.3,10.4,0.9,13.1c-5.4,2.6-16-4.5-11.8-13.2s11.1-12.9,21.4-12.3s16.6,9.5,17.2,19.2S63,313,76.7,332.7
		c13.8,19.7,21.1,29.8,42.1,29.2c21.1-0.6,47.5,2.5,53.9,5.3s21.7,15.2,21.7,15.2S195.3,353.5,183.4,343.6z"/>
	<path class="st0" d="M887.6,382.4c0,0,15.3-12.4,21.7-15.2c6.5-2.8,32.9-5.9,53.9-5.3c21.1,0.6,28.4-9.5,42.1-29.2
		c13.8-19.7,3.9-76.7,4.5-86.4s6.9-18.6,17.2-19.2s17.2,3.5,21.4,12.3s-6.4,15.8-11.8,13.2c-5.4-2.6,0.9-13.1,0.9-13.1
		s-15-1.4-20.2,20.6c-5.2,22,17.8,29.3,17.8,29.3s0,16,11.2,26.1c11.1,10.1,32-4.5,32-4.5s-20.2-4.9-16-34.5
		c4.2-29.6,8.7-23.7,9.8-37.3c1-13.6-5.6-19.9-5.6-19.9s-0.4-0.6-1.1-1.7c10.9-6.4,17.7-15.5,17.7-25.6c0-10.1-6.9-19.2-17.8-25.6
		c0.7-1.1,1.1-1.7,1.1-1.7s6.6-6.3,5.6-19.9s-5.6-7.7-9.8-37.3s16-34.5,16-34.5s-20.9-14.6-32-4.5s-11.2,26.1-11.2,26.1
		s-23,7.3-17.8,29.3c5.2,21.9,20.2,20.6,20.2,20.6s-6.3-10.5-0.9-13.1c5.4-2.6,16,4.5,11.8,13.2s-11.1,13-21.4,12.3
		s-16.6-9.6-17.2-19.2c-0.6-9.7,9.3-66.8-4.5-86.4c-13.8-19.7-21.1-29.8-42.1-29.2s-47.5-2.5-53.9-5.3S887.6,1.6,887.6,1.6
		s-0.9,28.9,11.1,38.8s19.8,9.7,22.9,15.7s9.4,26.6,22.7,27c22.1,0,30.6-10.1,30.6-10.1s-16,2.5-16.6-7.4
		c-0.7-9.9,11.2-15.3,16.4-13.9c5.2,1.3,13,1.8,13.3,24c0.2,22.3-7.6,59.8-3.6,72.2c1.4,6.2,3.9,12.1,7.4,17.4
		c-12,6.4-19.7,16-19.7,26.7c0,10.7,7.6,20.2,19.7,26.7c-3.4,5.4-5.9,11.3-7.4,17.5c-4,12.4,3.8,50,3.6,72.2s-8.1,22.7-13.3,24
		c-5.2,1.4-17.1-4-16.4-13.9c0.7-9.9,16.6-7.4,16.6-7.4s-8.5-10.1-30.6-10.1c-13.3,0.4-19.6,20.9-22.7,27c-3.1,6.1-11,5.8-22.9,15.7
		C886.7,353.5,887.6,382.4,887.6,382.4z"/>
</g>
</svg>
