<svg xmlns="http://www.w3.org/2000/svg" viewBox="0 0 1281.11 384.05"><defs><style>.cls-1{isolation:isolate;}.cls-2,.cls-3{fill:#25bf9a;}.cls-3{opacity:0.4;mix-blend-mode:multiply;}</style></defs><title>featured_bg</title><g class="cls-1"><g id="图层_2" data-name="图层 2"><g id="图层_1-2" data-name="图层 1"><rect class="cls-2" y="42.02" width="1280" height="300"/><path class="cls-3" d="M1,360.6c53.36,33,133.91,49,235.49-76.94,0,0,15.85,4,25,18.59-36.26,0-47.23,12.27-47.23,35.78,0,28.82,35.29,38.41,51.18,37.73,13.63-.58,44.53-11.78,54.39-21.65,21.34,15,60.19,37,118.24,3.14-35.19-3.2-55.76-18.74-77.7-48.91C336.91,276,295.34,241,250.53,244c-11.42.78-17.36-19.5-17.36-38.39-10.06-5-34.43-2.17-55.61,15.85C160.19,217.61,79,196.81,58.88,241c-19.23,42.24,2.66,71.46,29.66,71.46,46.62,0,29.6-36.57,52.46-36.57,38.66,0-37.37,129.6-139.44,3L88.46,192l-86.9-86.9c102.07-126.57,178.09,3,139.44,3-22.85,0-5.84-36.57-52.46-36.57-27,0-48.89,29.22-29.66,71.46,20.11,44.18,101.32,23.39,118.69,19.5,21.18,18,45.56,20.87,55.61,15.84,0-18.89,5.94-39.17,17.36-38.39,44.8,3,86.37-32,109.86-64.3C382.33,45.54,402.9,30,438.1,26.8,380-7,341.2,14.92,319.86,29.93,310,20.07,279.09,8.87,265.46,8.29,249.57,7.61,214.28,17.2,214.28,46c0,23.52,11,35.78,47.23,35.78-9.14,14.63-25,18.59-25,18.59C134.95-25.58,54.4-9.53,1,23.45Z"/><path class="cls-3" d="M1281.11,360.6c-53.36,33-133.91,49-235.49-76.94,0,0-15.85,4-25,18.59,36.26,0,47.23,12.27,47.23,35.78,0,28.82-35.29,38.41-51.18,37.73-13.63-.58-44.53-11.78-54.39-21.65-21.34,15-60.19,37-118.24,3.14,35.19-3.2,55.76-18.74,77.7-48.91C945.23,276,986.8,241,1031.61,244c11.42.78,17.36-19.5,17.36-38.39,10.06-5,34.43-2.17,55.61,15.85,17.37-3.89,98.58-24.68,118.69,19.5,19.23,42.24-2.66,71.46-29.66,71.46-46.62,0-29.6-36.57-52.46-36.57-38.66,0,37.37,129.6,139.44,3l-86.9-86.9,86.9-86.9c-102.07-126.57-178.09,3-139.44,3,22.85,0,5.84-36.57,52.46-36.57,27,0,48.89,29.22,29.66,71.46-20.11,44.18-101.32,23.39-118.69,19.5-21.18,18-45.56,20.87-55.61,15.84,0-18.89-5.94-39.17-17.36-38.39-44.8,3-86.37-32-109.86-64.3C899.81,45.54,879.24,30,844,26.8c58-33.82,96.9-11.88,118.24,3.14,9.87-9.87,40.77-21.07,54.39-21.65,15.89-.68,51.18,8.91,51.18,37.73,0,23.52-11,35.78-47.23,35.78,9.14,14.63,25,18.59,25,18.59,101.58-126,182.13-109.92,235.49-76.94Z"/></g></g></g></svg>