<svg id="图层_1" data-name="图层 1" xmlns="http://www.w3.org/2000/svg" viewBox="0 0 300 121"><defs><style>.cls-1{fill:#e7e9e9;opacity:0.61;}</style></defs><title>2</title><path class="cls-1" d="M1.37,1.37a4,4,0,0,1,2.39,1,4,4,0,0,1,1,2.39l5.52,5.52a5,5,0,0,1,3,1.24,5,5,0,0,1,1.24,3l8.83,8.83a4.81,4.81,0,0,0,.6-0.78c2-3.63.56-5.6,0.56-5.6a7.39,7.39,0,0,0,3-5.08C28.13,8.19,27.08,8,28,6.61s1.85-2.47,4-.89S31.56,1.14,29,1.6a4.32,4.32,0,0,0-3.3,2.7s-8.64-2-9.2,3,4.25,4.29,4.75,3.69a1.47,1.47,0,0,1-.92-2c0.63-1.55,2.47-.67,2.84-0.22a3.72,3.72,0,0,1-.26,4.21C21.51,14.45,20.23,15.38,18,15h0c0-1.41-.59-3.35-3-5.55C12,7.2,9,6.87,8.88,6.33c-0.45-3.81,4.6-3.67,5.55-3.61a13.9,13.9,0,0,1,2.65.69,14,14,0,0,0,2.58.43A8.39,8.39,0,0,0,27.24,0H0Z" transform="translate(0 0)"/><path class="cls-1" d="M1.37,1.37a4,4,0,0,0,1,2.39,4,4,0,0,0,2.39,1l5.52,5.52a5,5,0,0,0,1.24,3,5,5,0,0,0,3,1.24l8.83,8.83a4.81,4.81,0,0,1-.78.6c-3.63,2-5.6.56-5.6,0.56a7.39,7.39,0,0,1-5.08,3C8.19,28.13,8,27.08,6.61,28s-2.47,1.85-.89,4-4.58-.43-4.12-3a4.32,4.32,0,0,1,2.7-3.3s-2-8.64,3-9.2,4.29,4.25,3.69,4.75a1.47,1.47,0,0,0-2-.92c-1.55.63-.67,2.47-0.22,2.84a3.72,3.72,0,0,0,4.21-.26C14.45,21.51,15.38,20.23,15,18h0c-1.41,0-3.35-.59-5.55-3C7.2,12,6.87,9,6.33,8.88c-3.81-.45-3.67,4.6-3.61,5.55a13.9,13.9,0,0,0,.69,2.65,14,14,0,0,1,.43,2.58A8.39,8.39,0,0,1,0,27.24V0Z" transform="translate(0 0)"/><path class="cls-1" d="M1.37,119.63a4,4,0,0,1,1-2.39,4,4,0,0,1,2.39-1l5.52-5.52a5,5,0,0,1,1.24-3,5,5,0,0,1,3-1.24l8.83-8.83a4.81,4.81,0,0,0-.78-0.6c-3.63-2-5.6-.56-5.6-0.56a7.39,7.39,0,0,0-5.08-3C8.19,92.87,8,93.92,6.61,93s-2.47-1.85-.89-4-4.58.43-4.12,3a4.32,4.32,0,0,0,2.7,3.3s-2,8.64,3,9.2,4.29-4.25,3.69-4.75a1.47,1.47,0,0,1-2,.92c-1.55-.63-0.67-2.47-0.22-2.84a3.72,3.72,0,0,1,4.21.26c1.55,1.38,2.47,2.66,2.14,4.84h0c-1.41,0-3.35.59-5.55,3-2.29,3-2.63,6-3.17,6.12-3.81.45-3.67-4.6-3.61-5.55a13.9,13.9,0,0,1,.69-2.65,14,14,0,0,0,.43-2.58A8.39,8.39,0,0,0,0,93.76V121Z" transform="translate(0 0)"/><path class="cls-1" d="M1.37,119.63a4,4,0,0,0,2.39-1,4,4,0,0,0,1-2.39l5.52-5.52a5,5,0,0,0,3-1.24,5,5,0,0,0,1.24-3l8.83-8.83a4.81,4.81,0,0,1,.6.78c2,3.63.56,5.6,0.56,5.6a7.39,7.39,0,0,1,3,5.08c0.63,3.66-.43,3.82.46,5.24s1.85,2.47,4,.89-0.43,4.58-3,4.12a4.32,4.32,0,0,1-3.3-2.7s-8.64,2-9.2-3,4.25-4.29,4.75-3.69a1.47,1.47,0,0,0-.92,2c0.63,1.55,2.47.67,2.84,0.22a3.72,3.72,0,0,0-.26-4.21c-1.38-1.55-2.66-2.47-4.84-2.14h0c0,1.41-.59,3.35-3,5.55-3,2.29-6,2.63-6.12,3.17-0.45,3.81,4.6,3.67,5.55,3.61a13.9,13.9,0,0,0,2.65-.69,14,14,0,0,1,2.58-.43A8.39,8.39,0,0,1,27.24,121H0Z" transform="translate(0 0)"/><path class="cls-1" d="M298.63,1.38a4,4,0,0,0-2.39,1,4,4,0,0,0-1,2.39l-5.52,5.52a5,5,0,0,0-3,1.24,5,5,0,0,0-1.24,3l-8.83,8.83a4.81,4.81,0,0,1-.6-0.78c-2-3.63-.56-5.6-0.56-5.6a7.39,7.39,0,0,1-3-5.08c-0.63-3.66.43-3.82-.46-5.24s-1.85-2.47-4-.89,0.43-4.58,3-4.12a4.32,4.32,0,0,1,3.3,2.7s8.64-2,9.2,3-4.25,4.29-4.75,3.69a1.47,1.47,0,0,0,.92-2c-0.63-1.55-2.47-.67-2.84-0.22a3.72,3.72,0,0,0,.26,4.21c1.38,1.55,2.66,2.47,4.84,2.14h0c0-1.41.59-3.35,3-5.55,3-2.29,6-2.63,6.12-3.17,0.45-3.81-4.6-3.67-5.55-3.61a13.9,13.9,0,0,0-2.65.69,14,14,0,0,1-2.58.43A8.39,8.39,0,0,1,272.76,0H300Z" transform="translate(0 0)"/><path class="cls-1" d="M298.63,119.63a3.43,3.43,0,0,0-3.4-3.4l-5.52-5.52a4.24,4.24,0,0,0-4.2-4.2l-8.83-8.83a4.81,4.81,0,0,1,.78-0.6c3.63-2,5.6-.56,5.6-0.56a7.39,7.39,0,0,1,5.08-3c3.66-.63,3.82.43,5.24-0.46s2.47-1.85.89-4,4.58,0.43,4.12,3a4.32,4.32,0,0,1-2.7,3.3s2,8.64-3,9.2-4.29-4.25-3.69-4.75a1.47,1.47,0,0,0,2,.92c1.55-.63.67-2.47,0.22-2.84a3.72,3.72,0,0,0-4.21.26c-1.55,1.38-2.47,2.66-2.14,4.84h0c1.41,0,3.35.59,5.55,3,2.29,3,2.63,6,3.17,6.12,3.81,0.45,3.67-4.6,3.61-5.55a13.9,13.9,0,0,0-.69-2.65,14,14,0,0,1-.43-2.58A8.39,8.39,0,0,1,300,93.76V121Z" transform="translate(0 0)"/><path class="cls-1" d="M298.63,119.63a3.43,3.43,0,0,1-3.4-3.4l-5.52-5.52a4.24,4.24,0,0,1-4.2-4.2l-8.83-8.83a4.81,4.81,0,0,0-.6.78c-2,3.63-.56,5.6-0.56,5.6a7.39,7.39,0,0,0-3,5.08c-0.63,3.66.43,3.82-.46,5.24s-1.85,2.47-4,.89,0.43,4.58,3,4.12a4.32,4.32,0,0,0,3.3-2.7s8.64,2,9.2-3-4.25-4.29-4.75-3.69a1.47,1.47,0,0,1,.92,2c-0.63,1.55-2.47.67-2.84,0.22a3.72,3.72,0,0,1,.26-4.21c1.38-1.55,2.66-2.47,4.84-2.14h0c0,1.41.59,3.35,3,5.55,3,2.29,6,2.63,6.12,3.17,0.45,3.81-4.6,3.67-5.55,3.61a13.9,13.9,0,0,1-2.65-.69,14,14,0,0,0-2.58-.43,8.39,8.39,0,0,0-7.58,3.84H300Z" transform="translate(0 0)"/><path class="cls-1" d="M298.63,1.38a4,4,0,0,1-1,2.39,4,4,0,0,1-2.39,1l-5.52,5.52a5,5,0,0,1-1.24,3,5,5,0,0,1-3,1.24l-8.83,8.83a4.81,4.81,0,0,0,.78.6c3.63,2,5.6.56,5.6,0.56a7.39,7.39,0,0,0,5.08,3c3.66,0.63,3.82-.43,5.24.46s2.47,1.85.89,4,4.58-.43,4.12-3a4.32,4.32,0,0,0-2.7-3.3s2-8.64-3-9.2-4.29,4.25-3.69,4.75a1.47,1.47,0,0,1,2-.92c1.55,0.63.67,2.47,0.22,2.84a3.72,3.72,0,0,1-4.21-.26c-1.55-1.38-2.47-2.66-2.14-4.84h0c1.41,0,3.35-.59,5.55-3,2.29-3,2.63-6,3.17-6.12,3.81-.45,3.67,4.6,3.61,5.55a13.9,13.9,0,0,1-.69,2.65,14,14,0,0,0-.43,2.58A8.39,8.39,0,0,0,300,27.24V0Z" transform="translate(0 0)"/></svg>