<svg id="图层_1" data-name="图层 1" xmlns="http://www.w3.org/2000/svg" viewBox="0 0 138.61 138.61"><defs><style>.cls-1{fill:#e7e9e9;opacity:0.61;}</style></defs><title>2</title><path class="cls-1" d="M5.78,5.78c0.43,0,6.28.42,10.1,4.24s4.22,9.67,4.24,10.1L43.45,43.45c0.47,0,7.75.49,12.5,5.25s5.22,12,5.25,12.5l37.3,37.3A20.33,20.33,0,0,0,101,95.2c8.5-15.32,2.37-23.68,2.37-23.68s10.17-6,12.82-21.45-1.81-16.16,2-22.15,7.83-10.45,17-3.76S133.36,4.8,122.49,6.75a18.23,18.23,0,0,0-13.93,11.42S72.07,9.54,69.7,30.71s18,18.11,20.06,15.6c0,0-6.55-2.09-3.9-8.64s10.45-2.83,12-.93S102.57,48,96.72,54.53,85.48,65,76.27,63.58h0c0.06-6-2.51-14.17-12.87-23.46C50.91,30.44,37.9,29,37.53,26.74,35.65,10.65,57,11.22,61,11.51s7.33,1.86,11.2,2.9a59.11,59.11,0,0,0,10.89,1.83c21.65,1.53,32-16.23,32-16.23H0Z"/><path class="cls-1" d="M5.78,5.78c0,0.43.42,6.28,4.24,10.1s9.67,4.22,10.1,4.24L43.45,43.45c0,0.47.49,7.75,5.25,12.5s12,5.22,12.5,5.25l37.3,37.3A20.33,20.33,0,0,1,95.2,101c-15.32,8.5-23.68,2.37-23.68,2.37s-6,10.17-21.45,12.82-16.16-1.81-22.15,2-10.45,7.83-3.76,17S4.8,133.36,6.75,122.49a18.23,18.23,0,0,1,11.42-13.93S9.54,72.07,30.71,69.7s18.11,18,15.6,20.06c0,0-2.09-6.55-8.64-3.9s-2.83,10.45-.93,12S48,102.57,54.53,96.72,65,85.48,63.58,76.27h0c-6,.06-14.17-2.51-23.46-12.87C30.44,50.91,29,37.9,26.74,37.53,10.65,35.65,11.22,57,11.51,61s1.86,7.33,2.9,11.2a59.11,59.11,0,0,1,1.83,10.89c1.53,21.65-16.23,32-16.23,32V0Z"/></svg>