<svg xmlns="http://www.w3.org/2000/svg" viewBox="0 0 1194.95 483.53"><defs><style>.cls-1{fill:#e7e9e9;}</style></defs><title>landscape_bg</title><g id="图层_2" data-name="图层 2"><g id="图层_1-2" data-name="图层 1"><path class="cls-1" d="M159.17,102.76,188.83,73.1,159.17,43.44,137.55,65.05,123.88,51.38,145.6,29.66,115.94,0,94.32,21.61,72.71,0,43,29.66l21.7,21.7L51.11,65,29.66,43.56,0,73.22l29.66,29.66,21.6-21.6L64.65,94.67,43,116.27l29.66,29.66,21.6-21.6L116,146l29.66-29.66L124,94.7l13.55-13.55Zm0-43.26,13.6,13.6-13.6,13.6-13.6-13.6ZM29.66,86.82l-13.6-13.6,13.6-13.6,13.6,13.6Zm86.28-70.76,13.6,13.6-13.6,13.6-13.6-13.6ZM94.4,37.78h0L108,51.37,94.41,65h0l-.08.08h0L80.67,51.37,94.32,37.71ZM59.11,29.66l13.6-13.6,13.6,13.6-13.6,13.6Zm0,43.41,13.6-13.6,13.6,13.6-13.6,13.6Zm13.6,56.8-13.6-13.6,13.6-13.6,13.6,13.6Zm8-35.17,13.6-13.6,13.6,13.6-13.6,13.6Zm48.81,21.62L116,129.91l-13.6-13.6,13.6-13.6ZM115.94,86.7l-13.6-13.6,13.6-13.6,13.6,13.6Z"/><path class="cls-1" d="M1165.29,102.76,1195,73.1l-29.66-29.66-21.61,21.61L1130,51.38l21.72-21.72L1122.06,0l-21.61,21.61L1078.83,0l-29.66,29.66,21.7,21.7L1057.24,65l-21.45-21.45-29.66,29.66,29.66,29.66,21.6-21.6,13.39,13.39-21.6,21.6,29.66,29.66,21.6-21.6L1122.08,146l29.66-29.66L1130.12,94.7l13.55-13.55Zm0-43.26,13.6,13.6-13.6,13.6-13.6-13.6Zm-129.5,27.32-13.6-13.6,13.6-13.6,13.6,13.6Zm86.28-70.76,13.6,13.6-13.6,13.6-13.6-13.6Zm-21.54,21.72h0l13.6,13.6L1100.54,65h0l-.08.08h0l-13.67-13.67,13.66-13.66Zm-35.29-8.12,13.6-13.6,13.6,13.6-13.6,13.6Zm0,43.41,13.6-13.6,13.6,13.6-13.6,13.6Zm13.6,56.8-13.6-13.6,13.6-13.6,13.6,13.6Zm8-35.17,13.6-13.6,13.6,13.6-13.6,13.6Zm48.81,21.62-13.6,13.6-13.6-13.6,13.6-13.6ZM1122.06,86.7l-13.6-13.6,13.6-13.6,13.6,13.6Z"/><path class="cls-1" d="M1165.29,440.31,1195,410.65,1165.29,381l-21.61,21.61L1130,388.93l21.72-21.72-29.66-29.66-21.61,21.61-21.61-21.61-29.66,29.66,21.7,21.7-13.64,13.64-21.45-21.45-29.66,29.66,29.66,29.66,21.6-21.6,13.39,13.39-21.6,21.6,29.66,29.66,21.6-21.6,21.64,21.64,29.66-29.66-21.61-21.61,13.55-13.55Zm0-43.26,13.6,13.6-13.6,13.6-13.6-13.6Zm-129.5,27.32-13.6-13.6,13.6-13.6,13.6,13.6Zm86.28-70.76,13.6,13.6-13.6,13.6-13.6-13.6Zm-21.54,21.72h0l13.6,13.6-13.6,13.6h0l-.08.08h0l-13.67-13.67,13.66-13.66Zm-35.29-8.12,13.6-13.6,13.6,13.6-13.6,13.6Zm0,43.41,13.6-13.6,13.6,13.6-13.6,13.6Zm13.6,56.8-13.6-13.6,13.6-13.6,13.6,13.6Zm8-35.17,13.6-13.6,13.6,13.6-13.6,13.6Zm48.81,21.62-13.6,13.6-13.6-13.6,13.6-13.6Zm-13.61-29.62-13.6-13.6,13.6-13.6,13.6,13.6Z"/><path class="cls-1" d="M159.17,440.31l29.66-29.66L159.17,381,137.55,402.6l-13.67-13.67,21.72-21.72-29.66-29.66L94.32,359.17,72.71,337.55,43,367.21l21.7,21.7L51.11,402.56,29.66,381.11,0,410.77l29.66,29.66,21.6-21.6,13.39,13.39L43,453.82l29.66,29.66,21.6-21.6L116,483.53l29.66-29.66L124,432.25l13.55-13.55Zm0-43.26,13.6,13.6-13.6,13.6-13.6-13.6ZM29.66,424.37l-13.6-13.6,13.6-13.6,13.6,13.6Zm86.28-70.76,13.6,13.6-13.6,13.6-13.6-13.6ZM94.4,375.34h0l13.6,13.6-13.6,13.6h0l-.08.08h0L80.67,388.92l13.66-13.66Zm-35.29-8.12,13.6-13.6,13.6,13.6-13.6,13.6Zm0,43.41L72.71,397l13.6,13.6-13.6,13.6Zm13.6,56.8-13.6-13.6,13.6-13.6,13.6,13.6Zm8-35.17,13.6-13.6,13.6,13.6-13.6,13.6Zm48.81,21.62L116,467.46l-13.6-13.6,13.6-13.6Zm-13.61-29.62-13.6-13.6,13.6-13.6,13.6,13.6Z"/></g></g></svg>