<svg id="图层_1" data-name="图层 1" xmlns="http://www.w3.org/2000/svg" viewBox="0 0 188.83 145.97"><defs><style>.cls-1{fill:#e7e9e9;}</style></defs><title>1</title><path class="cls-1" d="M159.17,102.76L188.83,73.1,159.17,43.44,137.55,65.05,123.88,51.38,145.6,29.66,115.94,0,94.32,21.61,72.71,0,43,29.66l21.7,21.7L51.11,65,29.66,43.56,0,73.22l29.66,29.66,21.6-21.6L64.65,94.67,43,116.27l29.66,29.66,21.6-21.6L116,146l29.66-29.66L124,94.7l13.55-13.55Zm0-43.26,13.6,13.6-13.6,13.6-13.6-13.6ZM29.66,86.82l-13.6-13.6,13.6-13.6,13.6,13.6Zm86.28-70.76,13.6,13.6-13.6,13.6-13.6-13.6ZM94.4,37.78h0L108,51.37,94.41,65h0L94.34,65h0L80.67,51.37,94.32,37.71ZM59.11,29.66l13.6-13.6,13.6,13.6-13.6,13.6Zm0,43.41,13.6-13.6,13.6,13.6-13.6,13.6Zm13.6,56.8-13.6-13.6,13.6-13.6,13.6,13.6Zm8-35.17,13.6-13.6,13.6,13.6-13.6,13.6Zm48.81,21.62L116,129.91l-13.6-13.6,13.6-13.6ZM115.94,86.7l-13.6-13.6,13.6-13.6,13.6,13.6Z"/></svg>