<svg xmlns="http://www.w3.org/2000/svg" viewBox="0 0 230.37 80.31"><defs><style>.cls-1,.cls-2{fill:#fff;}.cls-2{fill-rule:evenodd;}</style></defs><title>logo</title><g id="图层_2" data-name="图层 2"><g id="图层_1-2" data-name="图层 1"><path class="cls-1" d="M20.61,62.33c0-1.6-.16-3.2-.16-3.2,0-.48.16-6.15.16-9.11l.32-.8c0-.16-.32-2.4-.32-2.56-.16-2.4.32-6.31.32-9.43,0-.64-.32-2.4-1.28-2.4a2.13,2.13,0,0,0-1.44,1l-.16-.16a22.77,22.77,0,0,1-3.2,4.79c-2.4,2.48-5.19,5-7.19,7.83-2,2.08-2.64,3.52-4.07,5A6.4,6.4,0,0,0,.72,55.3H0a1.67,1.67,0,0,1,.24-1C1,54.34,3.36,52.51,5,50c.24-.48,2.64-3.36,2.88-3.83.72-.4,5-6.39,5-7.51,1.2-1.68.56-3.36,3.2-7.43,1.12-2.4,2.08-3.59,2.08-6.23,0-1.44-1-1.44-2.08-1.44-1.44,0-2,.48-3.2.48a31.05,31.05,0,0,1-4.79.24c-3.36,0-3-.24-4.31-1.44v-.72a6.4,6.4,0,0,1,2.4.72c1.68,0,2.64-.72,4.15-.72,3.36,0,6.15-.24,8.31-.24,1.92-.48,1-3.91,1.76-3.91,0-1-.32-2-.32-3.52A15.06,15.06,0,0,0,19.65,13c.24-.32-.4-3.83-1.6-4.79-.88-.4-2.24-.56-2.24-1.28,0,0,4.79-2.56,5.11-2.56,1,0,2.08,1.12,2.56,1.44,1.28.64,4.15,1.44,4.15,3,0,2.8-2.8,4.07-2.8,6.71,0,.48.08,1,.08,1.44l-.16.8c-.08.08,0,.48.16,1.2l-.16.72a1.7,1.7,0,0,0,1.6,1.2A10.45,10.45,0,0,0,30,20c.24,0,1.44-1,1.68-1,.4-.56,1.92,1.12,1.92,2.4,0,.48,0,1-.24,1-.72,0-1-.24-1.44-.24-1.76,0-3,.72-5.75.72-1.68.24-1.76,2.24-1.76,3.59a3,3,0,0,0,.32,1.92V32a2.55,2.55,0,0,1,.16,1.2c0,.88-.16,1.44-.16,2.16a12.05,12.05,0,0,1,.64,3.83c0,.8-.48,1.28-.48,1.92,0,1.44.8,2.8.8,4.31,0,3-.32,7.27-.48,7.11,0,1.52.48,6.55.48,7.11,0,4-.48,7.75-.48,9.19-.32,2.4,0,3.12-2.4,4.07-1.92.24-1,1.28-1.92,1.92l-.32-.24a31.41,31.41,0,0,1-.16-3.83C20.45,67.84,20.61,65.21,20.61,62.33ZM30,74.55c1.44-1.44,1.52-2.32,2.4-3.59.48-.16,5-8.63,5-8.63.72-2.4,1.2-4.63,1.92-7,0-.88,1-1.92,1-3.36-.16,0,.72-.48.72-4.79a15.06,15.06,0,0,1,.48-1.44c.48-1.44.64-13.42,1-13.26.08-.48-.24-1.68-.24-2.64,0-1.68.64-3.2.48-4.79,0-.72-.72-6.23-.72-7-.32-4.31.48-6.23-3.83-10.55L37.95,7c0-1,3.2-.72,3.36-1.12A2.73,2.73,0,0,1,42.5,6l-.24.32a.72.72,0,0,1,.4-.08c1,0,2.16,1.6,3,2.48s2.64,1.68,2.88,2.4-1.76,2.56-2.16,4c0,1.2.08,3-.24,2.88-.08,1.36.48,3,.48,4.39,0,1.2-.48,1.44-.48,2.16l.24,1.2-.24,1c-.08,1.68.24,3,.24,4.31a2.45,2.45,0,0,1-.48,1.68l.48.48c0,2.88-.24,6.15-.48,8.87,0,.32-.24,1.76-.24,1.92-.56,1.76.16,6.23-1.44,10.23A8.14,8.14,0,0,0,42,58.66a5.24,5.24,0,0,0-.72,1.92A70.14,70.14,0,0,1,34.35,72.4l-1.2,1.2c-5,4.39-8.23,6.71-10.63,6.71v-.24c3-2.16,3.2-2.56,4.79-2.88Zm-1-40.66c0-2.16-1.44-4.55-1.44-6.23.88,0,1.2,2.16,2.64,3.12,1,2.64,4.55,5,4.55,7.75,0,2.4-1,1.6-2.88,2.08-.48.32-.72,1-1.44,1a12,12,0,0,1-1.44-3Zm0,13.74c.24,0,1.2-1,1.44-1a9,9,0,0,0,3.36-1.76c.24,0,1.68-1,1.92-1C37,43.32,37.95,42,39.38,42v.32c0,1-2,2.72-3.59,4.31-.8-.16-.24.64-1,1.44-.24.64-1.84,3.36-2.48,3.36h-.16c.32,0-3.52-1.44-4.55-3.2C27.8,47.79,28.6,47.79,29.08,47.63Zm7.67-18.05A16.6,16.6,0,0,0,36,24.78l.48-.48c.64,1.44,3.83,3.36,3.83,4.79,0,1.6-.48,4.55-2.16,4.55-.72.16-1.92-.24-1.92-1.2S36.75,30.54,36.75,29.58ZM50.89,54.82c0-1-.16-1.84-.16-2.88a17.52,17.52,0,0,1,.16-2.4c-.48-1,.48-1.6.48-2.72.16-1.92-.16-3.67-.16-5.43.32-5.59.48-9.91.48-13.74-.16-.48.64-1.6.64-2.4,0-3,.8-4,.8-8.71,0-.16.48-1.92.48-2.08,0-1.2-.08-3.83.16-3.68-.72-2.08.4-3.83-2.4-5.43-.48-1,2.4-1.76,3.83-1.76,1.28-.24,2.64,1.84,3.36,2.72.4.24,2.24,1,2.24,2.4,0,1.12-1.44,2.56-2.4,3.52-1.76,4.39.08,8.55-1.76,12.3v4.31A18.56,18.56,0,0,0,56,31.73c0,1,.48,1.68.48,2.64,0,2.4-.32,3.83-.32,6.07-.32.08,0,5.27-.48,5,0,.32.32,2.24.32,2.4.08.8-.32,1.68-.32,2.56a1.76,1.76,0,0,0,.48,1.44v3c0,.32.8,2.4.8,2.72v2.56C56.8,60.41,58.72,62,59,62a45.69,45.69,0,0,0,8.15-.48c1.28-.64,2.72-.16,4-1A9.73,9.73,0,0,0,73.74,58c.32-.32,1-2.24,1.28-2.4,0-.32,1-1.44,1-1.76.16-.48.64-1.6,1.44-1.6a4.08,4.08,0,0,1-.32,1.6c-.16,2.72.32,5.59.32,8,0,2.56-.64,6.23-4.23,6.23H71.66c-.72,0-2.08.24-2.88.24l-.48-.24-.32.24a4.09,4.09,0,0,1-1.76-.24c0,.32-1.68.24-2.56.24-.32,0-2.4.48-2.72.48-1.28.08-1.76-.24-2.88-.24-.72,0-1.76.24-2.08.24a4,4,0,0,1-2.24-1c-2.48-1.44-2.4-3.12-2.88-5,0-.32-.48-1.44-.48-1.76v-.16A60,60,0,0,1,50.89,54.82ZM63.67,24.07C65.59,21.43,67.35,18,68,18a10.62,10.62,0,0,1,3.83,3.43c.32.48.32,1.2.8,1.44.16,0,1,.72,1.12.72,0,.48-.08.24-.16.48A24,24,0,0,0,70.7,25.5c-1.6.08-2.32,1.2-3.68,1.92-1,.4-1.36.48-1.92,1.2s-3.2,1.12-3.2,2.16c.88,3,2.4,2,5.91,5.35,1.6,1.12,3.83.64,5.27,2.4a4.6,4.6,0,0,1,1.44,3.36c.16.8-1.36,2.48-2.24,3-.64.8-.64,1.76-1.92,1.92-.08.24-1.52-1-2.08-1.92C67.5,44.28,68,43,67.5,42a38.36,38.36,0,0,0-5.59-8.39,7.52,7.52,0,0,1-1-1.44c0-1.52-1-1-1-2.4S62.55,25.66,63.67,24.07Z"/><path class="cls-1" d="M97.64,47.68c-.47.23-2.1,1.87-2.57,2.1-.23.23-3.5,2.26-4,2.1v.47c-2.41,1.25-5.92,4.44-9.66,4.44,0-1.48,1.79-1.56,3.27-2.57a21.55,21.55,0,0,0,3.12-2.8c.16,0,1.4-.93,1.56-.93.55,0,1.48-1.32,2.18-2.34s2.1-1.32,3-2.34c1.25-1.32,3.74-4,3.74-4.21l.7-1.17c0-.23,1.17-.93,1.17-1.17.39.08.86-2,1.63-3.11s1.87-2,1.87-3.43c0-.78-.47-1.25-.47-2.18-.78-.08,1.56-1.56,4-1.56.86-.23,1.56,1.4,2.1,1.87,1,.93,2.1,1.4,2.1,2.8,0,1.17-1.17,1.95-1.87,3-1.48,2-2.8,4.36-2.8,6.85,0,1.87.47,3.74.47,5.61,0,.47-.23,1.17-.23,1.64,0,3.82.39,9.66,1.4,9.66.7,0,.93-.78,1.48-.93,1.32,0,3.19-2.34,5.14-4.28.16,0,2-2.1,2.8-2.57a4.75,4.75,0,0,1,.93-.7c1.79-1.79,3.43-3,3.43-5.61,0-3.74-.16-7.24-.47-11.06a5.27,5.27,0,0,0-2.34-4.36c-.23-1.87,1.32-1.79,2.34-2.34a4.92,4.92,0,0,1,2.65-.93c1.87,0,5.14,2.18,5.14,3.27,0,.93-1.09,1.4-1.09,2.34v8.41c0,.08.23.62.62.47,0,.31,1.09-.86,1.71-1.4.47-.47.47-1.17.62-1.4,1,0,1.56-1.63,2.34-2.65,1.4-1.87,3.11-3.27,3.74-5.61.08-1.25-.47-1.79-.47-2.49s.47-.78,1.25-.78a16.47,16.47,0,0,1,3.74.31c.62.16.93.93,1.4,1.09,1.48,1.25,4,2,4,4.05.23,2.34-1.56,1.95-2.57,3-3.19,3.19-6.7,6-9.81,9.19-.86,0-5.37,3.12-6.85,4.91a19.15,19.15,0,0,0-.31,4.21,17.77,17.77,0,0,0,.31,4c0,.16.47,1.4.47,1.56,0,4.67,2.41,4.67,4.52,4.67l5.3-1.09c1.32,0,4.36-2.34,8.25-2.34,1.25-.86,2.18-4.28,2.57-6.85.23-1.17.08-4.44,1.4-4.44.23-.23.31.23.47.47,0,.54-.08,1-.08,1.56,0,5.14,1.4,10.75,5,14.56.23.78-.86,2.88-1.4,3.27a16.12,16.12,0,0,1-2.57.78,41.7,41.7,0,0,1-8.64,1.4h-6.54c-1.4,0-5.3.08-5.61.47-1.79.23-2.57-.7-4-.93-2.41,0-3.66-2.26-4.52-3.74-.7-3.74-.08-7.94-.93-12-2.8,0-5,2.57-7.48,3.74-.16.31-2.49.93-2.8,1.25-2,1.56-3.43.86-4,3,0,.78.23,3.74.23,4.52-.08,2,.39,6.54-3.51,6.54-2.34,0-2.57-3.74-2.57-5.92V46.51c-.08-.08-.47-.62-.7-.47C99.51,46,98.81,47.45,97.64,47.68Zm.23-27.41c-.23,0-1.17.47-1.4.47a4.62,4.62,0,0,0-2.34.31c-2.1.54-3.11-2.1-3.27-3.12,0-1,1.32-1.4,2.1-1.25a5,5,0,0,1,3.5-.93c1.17,0,2.1.47,3.27.47.7,0,2.57-.47,2.8-1.4v-3c0-3.58-1.87-3.27-1.87-4.67,0-.78.93-.93,1.4-1.25,1.64,0,2.49-1.4,4-1.4,1.17,0,2.1.93,3,1.71.93.62,1.87.47,1.87,1.87,0,.47,0,.93-.16,1.09-1.32.62-1.25,1.79-1.25,2.8,0,1.25.31,2.34,1.4,2.34,1.4,0,2.65-.47,3.74-.47.7,0,1.25-.16,1.25.62v.31c0,.78-.54,3.27-1.87,3.27H110.8c-.39.23-.39.7-.47.78v5.45a18.93,18.93,0,0,1-1.95,2.34,4.39,4.39,0,0,1-2.34.62l-.47-.16c-.55,0-1.17-1.71-1.4-1.87v-5c0-.31-.23-.47-.47-.78A28.52,28.52,0,0,0,97.88,20.27Z"/><path class="cls-1" d="M164.22,20a63.17,63.17,0,0,0,5.61,4c.31,0,1.87,1.25,2.65,1.4,2.49,1.48,3,1.09,3,5.14-1.17,1.32-2.18,4.52-3.89,5-2.65,0-2.88-3.27-3.82-5.61-.78-1.87-1.79-3.58-3-6.07-.47-.93-1.64-1.87-1.64-3.11C163.05,19.92,163.05,20,164.22,20Zm5.14,39.48c-.93-2.8.23-5.22-2.1-6.85-.23-.7.86-1.4,1.48-1.4,3.27,0,3.12-1.48,3.89-3,0-.23.78-.93.78-1.17.93-1.63,1.09-4,1.56-5.84,0-.23.47-1.17.47-1.4.93-1.87,1.17-4.13,1.71-6.07a17.8,17.8,0,0,1,.93-2.65A17.22,17.22,0,0,1,180,25.3c.47-.93,1.56-4,2.49-4a.41.41,0,0,1,.47.47c0,2.41-1.56,5.3-2.49,8.41-.78,1.09-.47,2.41-.78,3.58-.16,1.56-.93,3.43-1.09,5.14-.47,3-.78,5.84-1.25,8.88-1,3.27-.62,6.23-.93,9.58,0,1.48-.16,3.82-.16,5.92-.62,2.41-3.19,4.36-4.67,4.36-.93,0-1.87-1.56-2.34-2.34C169.2,61.59,169.36,61.12,169.36,59.48Zm1.4,11.84a8,8,0,0,0,3.27-2.8c.93-.62.31.78,6.39-5.3,1.56-3.11,2-6.15,3-9.42,0-.23.78-1.87.78-2.1,0-2.41.54-3,.93-4.91.47-2.57.16-4.91.47-7.48,0-.78.47-1.71.47-2.65s0-3.74.62-4.36c0-3.5.47-6.31.47-9.81L187,21.4c-.08-2,.16-3.35.16-4.83,0-1.25-.47-2.49-.47-5a14.68,14.68,0,0,1-.47-1.4c-.62-1.87,2.65-2.49,4.36-2.49.62,0,1.09.62,1.87.93.16.16,2.49,1.09,2.8,1.4a8.83,8.83,0,0,0,4.21.93c2.41,0,2.8-.47,4.36-.47a12.55,12.55,0,0,0,2.41.16L219.28,9.1l2.8-2.8c.47-.47,1.87-.47,2.57-.47,1,0,2.34,2.88,3.35,3.89.7.78,1.87,1.4,1.87,1.87,0,1.17-.47,1.25-1.25,1.25-3.74,0-15.19.16-16.12.93a2.19,2.19,0,0,0-1.17-.31c-.54,0-2,0-1.87.93l1.17,1.25v.62c-1.63,1.4-2.57,3.11-4,4.67-.23.31-1.64,1.25-1.64,1.71,0,.93.93,1.25,1.64,1.25a26,26,0,0,1,4.44-.47c2,0,3.5.31,5.37-.78.86-.16,1.63-3.27,3.74-3.27.7.47,5.14.78,5.14,3.27,0,2-1.4,2.41-1.4,5.45,0,.47.23.93.23,1.56,0,.47-.23,1.25-.23,1.71,0,.16.23,5.22.23,5.76v.31c0,.16-.47.93-.47,1.09a11.44,11.44,0,0,0,.47,3.12,23.59,23.59,0,0,1-.23,4.21c0,.93-2.8,2.41-3.5,2.34S218.58,48,218.58,47v-4c0-.47-1.56-.93-2.34-.93-1.64,0-3,.7-4.67.93-.7,0-1.71-.23-1.71.47s2.41,2.34,2.41,3c0,.23-.23,1.4-.23,1.64,0,1.95-.23,4-.23,6.31a5.5,5.5,0,0,0,.47,1.87c-1.17,1.25-.47,2.8-.93,4.21v6.07a4.7,4.7,0,0,0-.47,1.71L206,73.19a1.91,1.91,0,0,1-.78.31c-1.32-.39-1.87-1.32-2.34-2.65.16-.39-.31-1.09-.47-1.4a3.39,3.39,0,0,0-3.27-1.87c-.54,0-1.4-.7-1.4-.62,0-1.4,1.25-1.4,2.18-1.71a14.69,14.69,0,0,1,1.4-.47c1.09-.16,2.8-.16,3.74-1.4A65.37,65.37,0,0,0,206,55.9c.23-3.74.93-7.24.93-11,0-.47,0-1.17-.47-1.4-3.74,0-3.89.23-5.45.23-2.49.47-2.49,4.67-5.3,4.67-1.71,0-1.56-4.21-1.56-3.89a.66.66,0,0,1,.31-.54,45.4,45.4,0,0,0,.55-6.54c0-.93,0-1.79-.08-2.65a3.39,3.39,0,0,0,.55-2.18c0-.78-.08-1.63-.08-2.18a15.71,15.71,0,0,1,.47-2.65V23c0-.31-.16-.78-.16-.93-.16,0-.16-.86.47-1.56,1.09-.08,1.4.93,1.87,1.56l1.56,1.09c.08-.08,1,.16,1.4-.16,1.09-2.73,3.19-5.3,3.74-8.25,0-.31-.62-.47-.62-.47-2.65,0-4.83.47-7.48.47h-1.32c-1.48,0-2.65.16-3.35,1.87,0,3.27-.47,6.39-.47,8.72,0,1.25.16,2,.16,3a14.78,14.78,0,0,1-.62,2.8c0,3.43-.31,5.92-.31,9,0,1.64-.93,4.67-.93,7,0,.23-.47,1.4-.47,1.64a53.2,53.2,0,0,1-2.8,9,14.56,14.56,0,0,1-2.18,3.74c-.23,1.17-3.74,3.89-3.74,4.67l-3.74,3.74c-1.48.55-2.1,1.87-3.43,2.49s-2,2.34-3.58,2.65c-.47,0-1.09-.93-1.09-1.25C168.74,72,170.14,72.25,170.76,71.32Zm.78-67.21,2.8,2.8c.78,1.25,3.66,2.1,5.3,3.74,2.1,2.1,4,2.34,4,3.74,0,1.71-4,4.67-5,5.61-3.89,0-4.36-2.65-4.83-5.3-.31-1.25-1.25-3.12-1.4-4.21a23.62,23.62,0,0,0-.93-3.12c-.47-1.09-1.25-1.87-1.25-3.27Zm15.89,59.73c.31-.47.93-.47,1.25-.93,2.41-3,2.88-4.13,4.36-5.61.78-.7,1.71-1.56,1.71-1.87.55.31.62-1.4,1.4-1.87l3.74-3.74c1.4,0,.93.7,1.56,1.4.47.31,2.18,1.4,2.18,2.57,0,2-3,3.35-3.27,3.82-2.1,1.4-2.18,2.26-3.58,3.27-1.25.93-4.52,3.43-4.36,3.43A15.5,15.5,0,0,1,189.3,66c-1.09.62-2.34,2.49-4.05,2.49-.47,0-.62-.47-.62-1.09S186.42,64.86,187.43,63.84Zm18.77-29c-1.09,0-6.23-.47-6.31,1.4v3.35c0,2.1,4.52,1.4,6.7,1.4a11.57,11.57,0,0,0,4-.47A6,6,0,0,1,211.8,40c1.71-.47,6.54,0,7-2.1,0-3,.47-3.58.47-6.54,0-.86.31-5.14-1.4-5.14-2.8,0-4.36.16-6.31.16-.31,0-1.4-.16-2.1-.16-.23,0-2.1.47-2.34.47h-.23c-.23,0-.7-.31-.93-.31a3.05,3.05,0,0,0-1.4.31c-5.37,0-4.13,1.09-5,3.27,0,.93.16,2.49.93,3,3.19,0,3.19-.47,4.52-.47,7.32,0,3-.93,10-.93,1.32-.16,1.64.55,1.64,1.71,0,.7-1.56,1.4-9.81,1.4ZM215.07,48c.55.08,1.79,1.64,3,1.64a33,33,0,0,0,5.37,2.8c.23,0,.93.93,1.17.93a9.69,9.69,0,0,1,2.88.7L230,56.6a2,2,0,0,1,.31.7c.23,4.28-.93,5-3.58,6.54a2.39,2.39,0,0,1-1.09.78c-2.8,0-2.8-2.65-4.05-5.61-.47-.78-1.17-1.4-1.63-2.18-.62-.93-1.17-2.34-1.87-2.8-.86-2.26-3.5-3.27-3.5-5.61C214.61,48.19,214.61,48,215.07,48Z"/><path class="cls-2" d="M121.54,14.8a3.91,3.91,0,0,0,.41.15c3.72.89,7.22-.52,10.76-1.41.9-.22.56-.92.13-1.38a26.24,26.24,0,0,0-7.38-6.06c-1.9-1-3-.38-4,1.64A15.53,15.53,0,0,1,120.2,9.6C118.65,11.82,119.16,13.84,121.54,14.8Zm24.61-2.17c-2.09-.78-4.47.43-6.88,1.3a.68.68,0,0,0-.38.92,65.44,65.44,0,0,1,1.92,8.61c.12.84.38,1.64,1.3,1.87a1.5,1.5,0,0,0,1.74-.71c1.16-2.06,3-3.57,4.34-5.45C149.73,17.08,148.92,14,146.15,12.63ZM140.93.47c-1.12-.43-2-.75-2.79-.09s-.52,1.36-.37,2.09a35.08,35.08,0,0,1,.88,7.54c0,.89.22,1.53,1.27,1.17a18.79,18.79,0,0,0,5.41-2.52c1.09-.82,1.66-2.07.76-3.11C144.45,3.65,142.52,2,140.93.47Zm-17.5,21.65c-.25,1-.57,2,.16,2.73s1.76.44,2.58,0a27.52,27.52,0,0,0,8.69-7.44c.32-.4.69-.88.36-1.38s-.91-.32-1.39-.2a23.52,23.52,0,0,0-6.32,2.57A10.87,10.87,0,0,0,123.43,22.12ZM135.1,9.56c.64-1.69-.72-6.75-2.16-8.19-1.84-1.84-3.86-.33-5.69,0-1.67.29-1.39,1.77-.35,2.72,2.17,2,4.42,3.83,6.66,5.7C134.07,10.21,134.7,10.64,135.1,9.56Z"/></g></g></svg>