<svg id="图层_1" data-name="图层 1" xmlns="http://www.w3.org/2000/svg" viewBox="0 0 522.53 297.13"><defs><style>.cls-1{fill:#fff;}</style></defs><title>logo</title><path class="cls-1" d="M239.4,391l-1.38.53a21.58,21.58,0,0,1-3.62,6h2.13l1.38-1.28a0.52,0.52,0,0,1,.43-0.16,0.9,0.9,0,0,1,.32.32l1.7,3.46a0.68,0.68,0,0,1,0,.64,0.6,0.6,0,0,1-.53.37h-5.59v4.85H236l1.33-1.28a0.39,0.39,0,0,1,.43-0.11c0.16,0,.21.11,0.27,0.32l1.81,3.41a1.52,1.52,0,0,1,0,.69,0.82,0.82,0,0,1-.59.32h-5v14.38c0,2.66-4,3.83-4.26.85a6.07,6.07,0,0,0-2.18-4.26l2.61,1v-12h-4.74l-0.91-3.36h5.65v-4.85h-5.33l-0.91-3.35h8.52a82.76,82.76,0,0,0,2-9.05Zm-9.27,21.89-1.17.43c-0.8,4.21-2.61,8.73-4.79,10.6a99.94,99.94,0,0,0,1.54-12.78Zm-5.75-28.28h6v-5.81l5.22,1.17-1.38.69v3.94h2.08l1.33-1.22a0.31,0.31,0,0,1,.37-0.16,0.4,0.4,0,0,1,.37.32l1.81,3.41a0.92,0.92,0,0,1-.05.75,0.62,0.62,0,0,1-.59.27H225.34Zm6.82,8.73c0.91,3.67-3.2,4.69-3.62,1.38a30.56,30.56,0,0,0-1.33-5.86A6.78,6.78,0,0,1,231.2,393.3Zm8.41,25.94c0.48,4-3.52,4.37-3.57.75a50.85,50.85,0,0,0-1.07-8.79A14.89,14.89,0,0,1,239.62,419.23Zm2.13-38.4,5,0.59-1.22.69V384a72.63,72.63,0,0,0,7.19-4.74L255,384l-1.44-.43a67,67,0,0,1-8,1.92v10.12h5.59l1.33-1.28a0.41,0.41,0,0,1,.43-0.11,0.34,0.34,0,0,1,.32.27l1.76,3.46a0.79,0.79,0,0,1,0,.69,0.62,0.62,0,0,1-.59.32h-2.4V425.2l-3.57,1V398.94h-2.88V401c0,12.09-1.86,21.3-6.12,25.14,1.76-6.23,2.4-14.81,2.4-23.43V380.83Z" transform="translate(-98.71 -211.14)"/><path class="cls-1" d="M259.05,394.2h3.83l0.91-.85a0.89,0.89,0,0,1,1.17-.05l1.65,1.6a1.06,1.06,0,0,1,.32.69,0.73,0.73,0,0,1-.21.64l-0.59.69v14.75c0,0.85-.05,1.65-0.11,2.45,3.62,5.38,8.09,6,14.11,6h9.21a5.44,5.44,0,0,0-1.28,4.42h-9.59c-5.86,0-10.44-1.22-12.89-7.35-1,4.47-3.3,6.92-6.39,7.93,2.18-3.14,3.09-7.19,3.09-15V397.56h-2.24Zm7.08-4.69c-1,1-3.09.53-3.41-2a64.18,64.18,0,0,0-2-8.2C267.36,383.66,267.26,388.5,266.14,389.51Zm21.73,25c0,2.66-4,3.78-4.26.8a4.66,4.66,0,0,0-2.13-4.15l2.56,0.9v-3h-3.41v6.44l-3.78.91v-7.35h-3.46v7l-3.83,1V390.31l5.27,0.91-1.44.64v0.53h5.06a2,2,0,0,1-.48-0.64c-1.44-2.56-2-3.41-3.3-5.54a18.16,18.16,0,0,1,4.63,1.81c1.17-1.6,2-2.88,3-4.37H270.66l-0.85-3.2H284.3a11.84,11.84,0,0,1,.8-1.22l3.62,4.63-1.17-.37c-2,1.65-4,4-7,5.49a2.67,2.67,0,0,1,.91,3,2.32,2.32,0,0,1-.21.37h3.14l1.12-1a1,1,0,0,1,1.28-.05l1.6,1.6a0.91,0.91,0,0,1,.37.69,0.65,0.65,0,0,1-.27.64l-0.59.69v19.55Zm-14.49-15.34h3.46v-3.46h-3.46v3.46Zm0,6.55h3.46v-3.2h-3.46v3.2Zm7.24-6.55H284v-3.46h-3.41v3.46Zm0,6.55H284v-3.2h-3.41v3.2Z" transform="translate(-98.71 -211.14)"/><path class="cls-1" d="M293.72,394.68h3.83l0.91-.85a0.89,0.89,0,0,1,1.17-.05l1.65,1.6a1.06,1.06,0,0,1,.32.69,0.73,0.73,0,0,1-.21.64l-0.59.69v14.75c0,0.91-.05,1.7-0.11,2.5,3.62,5.33,8.15,5.91,14.06,5.91H324a5.44,5.44,0,0,0-1.28,4.42h-9.59c-5.86,0-10.39-1.23-12.83-7.24-1,4.42-3.3,6.82-6.39,7.83,2.18-3.14,3.09-7.19,3.09-15V398h-2.29Zm7-5.38c-1,.91-2.93.53-3.25-1.86a55,55,0,0,0-1.86-7.83C301.87,383.71,301.82,388.29,300.75,389.3Zm1.65-3h12.25a54.13,54.13,0,0,0,2.45-7.24l4.42,3.14-1.06.05a34.89,34.89,0,0,1-3.89,4H320l1.33-1.28a0.53,0.53,0,0,1,.43-0.16,0.55,0.55,0,0,1,.32.27l1.81,3.52a1.06,1.06,0,0,1-.05.69,0.81,0.81,0,0,1-.59.32h-8.63a35.77,35.77,0,0,1-3.41,4.69h6.66l1-1a1,1,0,0,1,1.22-.05l1.65,1.33a0.83,0.83,0,0,1,.32.64,0.87,0.87,0,0,1-.27.75l-0.48.59V416.3l-3.83,1V415.4H308.1v1.38l-3.83,1V392l5.27,1-1.44.69v0.64h1.7c0.37-1.7.64-3.2,0.85-4.69h-7.35Zm8.63-3.73c1.7,3.3-2.61,4.63-3.51,1.54a41.85,41.85,0,0,0-2.13-5.38C308.37,379.61,310.44,381.31,311,382.59ZM308.1,400h9.43v-2.29H308.1V400Zm0,5.86h9.43v-2.5H308.1v2.5Zm0,6.18h9.43v-2.82H308.1V412Z" transform="translate(-98.71 -211.14)"/><path class="cls-1" d="M345.86,408.63a2.51,2.51,0,1,1-2.5-2.72A2.62,2.62,0,0,1,345.86,408.63Z" transform="translate(-98.71 -211.14)"/><path class="cls-1" d="M374,385.84a0.91,0.91,0,0,1,.43.69,0.73,0.73,0,0,1-.32.69l-0.75.85v27.75L369.56,417v-2.66h-2.77v2L363,417.53V382.64l5.43,0.8-1.65.64v1.38h3.57l0.8-.8a1,1,0,0,1,1.33-.05ZM366.79,411h2.77V388.82h-2.77V411Zm25.51-27.37-1.81-.48a26.72,26.72,0,0,1-5,1.54v19.07H389l1.33-1.33a0.6,0.6,0,0,1,.85.16l1.7,3.51a0.44,0.44,0,0,1-.05.64,0.54,0.54,0,0,1-.59.37h-6.82V423.6c0,2.66-4,3.83-4.26.85-0.05-2.13-1.65-3.68-2.93-4.63l3.36,1V407.14H375.2l-0.91-3.35h7.35V385.47a27.12,27.12,0,0,1-6.71.32,56.91,56.91,0,0,0,14.81-6.87Zm-12.57,13.42c0.48,1.76.11,3.14-.91,3.52s-2.4-.27-2.45-2.24a97.19,97.19,0,0,0-1.07-10.44A31.66,31.66,0,0,1,379.73,397.08Zm8.84-9.59,4.53,1.92-1.07.43c-0.91,3.14-3.52,9.53-5.17,11.08Z" transform="translate(-98.71 -211.14)"/><path class="cls-1" d="M401.61,398.94a49.37,49.37,0,0,1-4.37,7.78,226.17,226.17,0,0,0,6.18-28.07l5.48,1.86-1.49.53a85.84,85.84,0,0,1-4.26,14.22l3.73,0.8-1.44.75v28.33l-3.83,1V398.94Zm18.69-17.79-1.22.59L418.71,383a37.84,37.84,0,0,0,9.43,11.18,6.78,6.78,0,0,0-2.5,4.53A38.27,38.27,0,0,1,418,385c-2.61,6.6-6.92,12.3-10.92,14.86a69.94,69.94,0,0,0,8.26-21.09Zm5.54,24-1.33-.16a34.34,34.34,0,0,1-10,7.35v7.08c0,1.44.37,2.56,1.86,2.56h5.33c2.66,0,3.14-3.52,3.62-6.71l0.59,0.11c-0.11,1.07-.8,4.37,2,5.33-0.27,2.5-1.6,4.85-5.11,4.85h-7.51c-2.5,0-4.63-1.38-4.63-4.74V398.09l5.7,1.17-1.86.69v10.44a61.12,61.12,0,0,0,7.72-9.69Z" transform="translate(-98.71 -211.14)"/><path class="cls-1" d="M446.08,387.49l5.54,0.9-1.7.59v10.49a45,45,0,0,1-1,9.48,78.91,78.91,0,0,1,10.33,11.29c3.89,5.17-.64,8.2-3.25,2.82a134.93,134.93,0,0,0-7.46-12.84c-2,7.35-6.66,13.15-15.23,16.14,9.11-7.24,12.73-15.39,12.73-26V387.49Zm13.21-5.38a1.14,1.14,0,0,1,.37.64,1.54,1.54,0,0,1-.21.75l-0.91.85v25.19l-3.78,1.17V385.15H441.4v24.39l-3.83,1.17V378.92l5.27,1.12-1.44.69v1.07h14.11l0.91-.91a1,1,0,0,1,1.28-.05Z" transform="translate(-98.71 -211.14)"/><path class="cls-1" d="M477.56,402.72l-1.23.59c-0.8,3.89-4.74,14.22-8.47,18.27,1.65-5.65,3.94-15.44,4.79-20.61Zm12.57-13.42H475.69c-1.54,4.15-3.62,8.52-5.75,10.81,1.28-5.22,3.36-15.44,4-20.82l5.33,1.7-1.23.53c-0.21,1.12-.64,2.66-1.17,4.42h14l0.48-2.4,4.31,2.24c-1.38,3.46-4.74,10.44-7.4,12.94Zm-10,4.79,5,1.12-1.12.64V423.7c0,2.66-4,3.78-4.26.85-0.11-2.13-3.41-4.42-4.79-5.38l5.22,1.65V394.09Zm15.23,22.58c0.75,2.08.53,3.83-.69,4.42-1.44.75-3-.05-3.46-2.45-0.64-4.37-2.88-14-3.89-17.52C490.34,404.53,494.49,413.37,495.4,416.67Z" transform="translate(-98.71 -211.14)"/><path class="cls-1" d="M399.07,310.08a1,1,0,0,0,.6.57,1.17,1.17,0,0,0,1.38-.63,1.42,1.42,0,0,0-.74-1.82,1.86,1.86,0,0,0-2.24.59,2.42,2.42,0,0,0-.56,2.48,4,4,0,0,0,1.66,1.76s3.65,1.8,3.7,1.87h0c0-.07,3.7-1.87,3.7-1.87a4,4,0,0,0,1.66-1.76,2.42,2.42,0,0,0-.56-2.48,1.86,1.86,0,0,0-2.24-.59,1.42,1.42,0,0,0-.74,1.82,1.17,1.17,0,0,0,1.38.63,1,1,0,0,0,.6-0.57c0.13-.14.8,0.09,0.47,0.75a1.75,1.75,0,0,1-1.87.91,2.25,2.25,0,0,1-1.72-2.46,2.82,2.82,0,0,1,.67-1.43,11,11,0,0,1,2-1.34,2.15,2.15,0,0,0,.74-1.09l-4-2.71-4.19,2.82a2.2,2.2,0,0,0,.72,1,11,11,0,0,1,2,1.34,2.82,2.82,0,0,1,.67,1.43,2.25,2.25,0,0,1-1.72,2.46,1.75,1.75,0,0,1-1.87-.91C398.27,310.16,398.95,309.94,399.07,310.08Z" transform="translate(-98.71 -211.14)"/><path class="cls-1" d="M354.25,326.59h0c0-.05,2.64-1.33,2.64-1.33a2.84,2.84,0,0,0,1.18-1.25,1.73,1.73,0,0,0-.4-1.77,1.33,1.33,0,0,0-1.6-.42,1,1,0,0,0-.53,1.3,0.84,0.84,0,0,0,1,.45,0.75,0.75,0,0,0,.43-0.41c0.09-.1.57,0.06,0.33,0.54a1.25,1.25,0,0,1-1.33.65,1.6,1.6,0,0,1-1.23-1.75,2,2,0,0,1,.47-1,7.85,7.85,0,0,1,1.43-1,1.53,1.53,0,0,0,.53-0.78l-2.83-1.93-3,2a1.57,1.57,0,0,0,.52.7,7.85,7.85,0,0,1,1.43,1,2,2,0,0,1,.47,1,1.6,1.6,0,0,1-1.23,1.75,1.25,1.25,0,0,1-1.33-.65c-0.24-.48.24-0.64,0.33-0.54a0.75,0.75,0,0,0,.43.41,0.84,0.84,0,0,0,1-.45,1,1,0,0,0-.53-1.3,1.33,1.33,0,0,0-1.6.42,1.73,1.73,0,0,0-.4,1.77,2.84,2.84,0,0,0,1.18,1.25s2.6,1.28,2.64,1.33h0Z" transform="translate(-98.71 -211.14)"/><path class="cls-1" d="M467.21,287l-36.5,33.3,2.71,2,0.1,0.05a64.12,64.12,0,0,1-7.89,2.62l-0.15.14-0.07-.08a93.11,93.11,0,0,1-23.33,2.83c-11.67,0-22.35-2-30.59-5.17l0,0L403,300.13l2.21,1.6,47.23-43.09a113.7,113.7,0,0,0-203.93,88.43c10.09-3.62,31.84-10.28,43.45-8,15.16,3,37.78,21.47,78.16,16.12s60.89-19.39,69.47-22.91c6.42-2.63,23.77,9.17,32.1,14.75a125.93,125.93,0,0,0,2-22.26A113.48,113.48,0,0,0,467.21,287ZM427.1,265.09a1.14,1.14,0,1,1-1.14,1.14A1.14,1.14,0,0,1,427.1,265.09ZM400,274.4a1,1,0,1,1-1,1A1,1,0,0,1,400,274.4Zm-23-35.53a1,1,0,1,1-1,1A1,1,0,0,1,377,238.88ZM272.64,300.76a1.31,1.31,0,1,1,1.31-1.31A1.31,1.31,0,0,1,272.64,300.76Zm91-16.65a1,1,0,1,1-1,1A1,1,0,0,1,363.68,284.11Zm-13.33-37.39a1.92,1.92,0,1,1-1.92,1.92A1.92,1.92,0,0,1,350.35,246.73ZM346,233a0.53,0.53,0,1,1-.52.53A0.53,0.53,0,0,1,346,233ZM331.9,332.09l22.44-16,13.55,9.85-2.62,8.93a70,70,0,0,1-11.58.95,61.22,61.22,0,0,1-21.81-3.69Zm-34.9-73a0.45,0.45,0,1,1,.45-0.45A0.45,0.45,0,0,1,297,259.13Zm16.34,49.26a1.05,1.05,0,1,1,1.05-1.05A1.05,1.05,0,0,1,313.34,308.38Zm14.06,40.5,4.1-14.09c5.46,2.27,12,3.39,20,3.39A62.18,62.18,0,0,0,364.64,337l-4.44,15.11C342.36,352.83,330.79,349.9,327.4,348.89Zm80.68-6.35A169.13,169.13,0,0,1,362.64,352l7.68-27.35c8.59,3.57,18.93,5.33,31.45,5.33,13.22,0,23.31-1.64,32.07-5.58l1.26,6.43A170.21,170.21,0,0,1,408.07,342.53Zm43.85-28.92a0.68,0.68,0,1,1,.68-0.68A0.68,0.68,0,0,1,451.92,313.61Z" transform="translate(-98.71 -211.14)"/><path class="cls-1" d="M428.33,318.54L466.14,284q-1.23-3.2-2.64-6.31L423,314.67Z" transform="translate(-98.71 -211.14)"/><path class="cls-1" d="M412.92,307.33l44.71-40.78q-1.68-2.81-3.51-5.52l-46.51,42.43Z" transform="translate(-98.71 -211.14)"/><path class="cls-1" d="M420.62,312.94L462.2,275q-1.46-3-3.1-5.89l-43.8,40Z" transform="translate(-98.71 -211.14)"/><path class="cls-1" d="M274,463.65c0.32-.13.76-0.27,1.21-0.43v-7.6h-1.38l-0.51-1.13h2.19l0.46-.27a0.58,0.58,0,0,1,.59,0l0.84,0.56a0.3,0.3,0,0,1,.16.22,0.25,0.25,0,0,1-.11.22l-0.3.23v7.08c0.62-.25,1.21-0.5,1.75-0.76a8.89,8.89,0,0,1-3.78,3.26Zm2.46-11.58c0.84,1.53-1.57,1.76-1.78.61a14.41,14.41,0,0,0-.76-2.75A5.09,5.09,0,0,1,276.41,452.08Zm2.38,5.17h6.48l0.49-.36a1,1,0,0,1,.84,0l1,0.56a0.4,0.4,0,0,1,.24.27,0.36,0.36,0,0,1-.13.27l-0.54.36a12.58,12.58,0,0,1-2.78,3.51,22,22,0,0,0,4.37,2.36,1.56,1.56,0,0,0-1.3,1.31,15.82,15.82,0,0,1-4.1-2.81,13.79,13.79,0,0,1-6.1,2.83,21.81,21.81,0,0,0,5.13-3.84,15.44,15.44,0,0,1-2.24-3.31h-0.89Zm7.75-2.81a0.1,0.1,0,0,0,.11.07,0.08,0.08,0,0,0,.11,0l1.43-2.05,0.24,0.07a1.52,1.52,0,0,0,.24,2.3,2.13,2.13,0,0,1-2.38,1.51,1.55,1.55,0,0,1-1.7-1.51v-3.33h-2.65v1a4.43,4.43,0,0,1-3.73,4.36,6.45,6.45,0,0,0,1.78-4.5v-2.72l2.78,0.31-0.84.22v0.25H285l0.49-.31a0.64,0.64,0,0,1,.65,0l0.84,0.45a0.23,0.23,0,0,1,.19.23,0.2,0.2,0,0,1-.13.23l-0.49.31v3.2Zm-1.73,3.92H281a12.54,12.54,0,0,0,2.11,2.47A11.48,11.48,0,0,0,284.8,458.36Z" transform="translate(-98.71 -211.14)"/><path class="cls-1" d="M291.88,464l1.21-.47v-7.85h-1.7l-0.51-1.13h2.51l0.46-.27a0.59,0.59,0,0,1,.59,0l0.84,0.56a0.34,0.34,0,0,1,.19.22,0.29,0.29,0,0,1-.13.22l-0.3.23v7.26c0.7-.29,1.38-0.59,2-0.88a8.84,8.84,0,0,1-3.86,3.42ZM294.5,452c0.73,1.55-1.43,1.78-1.78.65a20.24,20.24,0,0,0-1-3.15A6.47,6.47,0,0,1,294.5,452Zm1.75,3.76h4v-6.41l2.67,0.36-0.73.25v5.8h2l0.7-.41a0.23,0.23,0,0,1,.22-0.05,0.59,0.59,0,0,1,.14.09l0.89,1.19a0.19,0.19,0,0,1,0,.23,0.46,0.46,0,0,1-.27.09h-3.7v8.21l-1.94.32v-8.53h-3.56Z" transform="translate(-98.71 -211.14)"/><path class="cls-1" d="M309.13,460.74h7.94l0.67-.43a0.4,0.4,0,0,1,.22-0.05,0.36,0.36,0,0,1,.19.11l0.89,1.19a0.14,0.14,0,0,1,0,.22,0.4,0.4,0,0,1-.3.11h-9.12Zm2.81-11.29,2.59,0.52-0.73.18-0.24,1.93h7.53l0.67-.43a0.22,0.22,0,0,1,.19,0,0.26,0.26,0,0,1,.19.07l0.89,1.19a0.19,0.19,0,0,1,0,.23,0.45,0.45,0,0,1-.3.11h-9.31l-0.4,3.17h7.69l0.54-.32a0.69,0.69,0,0,1,.62,0l0.84,0.56a0.24,0.24,0,0,1,.16.22,0.22,0.22,0,0,1-.08.22l-0.32.23v7.2c0,0.92-2.05,1.3-2.13.31a2.46,2.46,0,0,0-1.51-1.57l1.7,0.34v-6h-7.67l0,0.36-1.94.22Z" transform="translate(-98.71 -211.14)"/><path class="cls-1" d="M325.85,452.2h1.81v-2.77l2.67,0.38-0.73.23v2.16h0.3l0.24-.18a1,1,0,0,1,.94,0l0.81,0.47a0.43,0.43,0,0,1,.3.32,0.49,0.49,0,0,1-.22.34l-0.41.34a12.18,12.18,0,0,1-1.3,3,6.51,6.51,0,0,1,2.21,2.2c0.81,1.51-1.67,1.94-1.84.49a6.28,6.28,0,0,0-.57-2.2V465l-1.94.45v-6.19a10.18,10.18,0,0,1-2.29,1.85,27.36,27.36,0,0,0,3.54-7.78h-3.13Zm6.42,2.57h3.35v-5.29l2.62,0.25-0.7.31v4.74H339l0.67-.45a0.37,0.37,0,0,1,.4.05l0.86,1.21c0.13,0.16-.08.32-0.3,0.32h-3.1v8.19h1.92l0.67-.43a0.39,0.39,0,0,1,.46,0l0.84,1.21c0.14,0.2,0,.34-0.32.34h-8.83l-0.46-1.13h3.81v-8.19h-2.86Z" transform="translate(-98.71 -211.14)"/><path class="cls-1" d="M353.41,450.58l-0.92.11-0.32.36a20.56,20.56,0,0,0,6.72,4.45,1.58,1.58,0,0,0-.92,1.6,17.55,17.55,0,0,1-6.24-5.55c-2.54,2.75-5.07,4.74-8.21,5.73a29.16,29.16,0,0,0,7.29-7.87ZM344,458.79h12.66l0.65-.45a0.42,0.42,0,0,1,.22,0,0.24,0.24,0,0,1,.19.07l0.84,1.19a0.14,0.14,0,0,1,0,.22,0.32,0.32,0,0,1-.3.13h-6.83a35.5,35.5,0,0,1-4.26,3.42l7.8-.38c-0.4-.68-0.84-1.33-1.27-1.94a11.55,11.55,0,0,1,3.81,2.48c1.32,1.48-.84,2.56-1.78.81l-0.46-.83-9,1.33-0.16.63-1.08-2,1.21-.07c0.89-1,2-2.5,2.78-3.46h-4.62Zm2.73-2.74H354l0.67-.43a0.29,0.29,0,0,1,.22-0.05,0.27,0.27,0,0,1,.19.09l0.86,1.19a0.14,0.14,0,0,1,0,.22,0.35,0.35,0,0,1-.3.13h-8.48Z" transform="translate(-98.71 -211.14)"/><path class="cls-1" d="M363,455.86a10.68,10.68,0,0,1-2,1.21,24.07,24.07,0,0,0,4.67-7.63l2.48,0.86-0.7.18-0.4.76a7.54,7.54,0,0,1,3.24,2.7c0.76,1.46-1.29,2.05-1.89.61a16.88,16.88,0,0,0-1.62-2.84,14.8,14.8,0,0,1-3.13,3.64l2.21,0.29-0.94.27v0.2h2.62l0.46-.27a0.75,0.75,0,0,1,.62,0l0.84,0.58a0.18,0.18,0,0,1,.16.2,0.2,0.2,0,0,1-.11.22l-0.32.25v3.58c0,0.88-2,1.26-2.13.25a2.39,2.39,0,0,0-1.3-1.69l1.48,0.4v-2.34h-2.32v5.94a0.78,0.78,0,0,0,1,.85h1.57c1.38,0,1.59-1.17,1.84-2.27l0.3,0a1.31,1.31,0,0,0,1.05,1.8c-0.19.85-.81,1.64-2.62,1.64h-2.73c-1.3,0-2.29-.47-2.29-1.6v-7.76Zm8.12-4.65,2.51,0.29-0.65.25v10.08l-1.86.4v-11Zm4.75,13.4c0,0.9-2,1.3-2.11.29a2.37,2.37,0,0,0-1.48-1.55l1.7,0.34V449.41l2.51,0.34-0.62.25v14.6Z" transform="translate(-98.71 -211.14)"/><path class="cls-1" d="M386.21,453.55l-0.7.18a7.49,7.49,0,0,1-1.84,2h1.08l0.7-.43a0.35,0.35,0,0,1,.22-0.05,0.42,0.42,0,0,1,.16.11l0.86,1.17a0.16,0.16,0,0,1,0,.22,0.33,0.33,0,0,1-.27.13H383.6v1.64h0.89l0.67-.43a0.26,0.26,0,0,1,.22,0,0.13,0.13,0,0,1,.13.11l0.92,1.15a0.36,0.36,0,0,1,0,.23,0.5,0.5,0,0,1-.3.11H383.6v4.86c0,0.9-2.05,1.3-2.16.29a2,2,0,0,0-1.11-1.44l1.32,0.34v-4.05h-2.4l-0.46-1.13h2.86V456.9H379l-0.46-1.13h4.32a20.26,20.26,0,0,0,1-3.06Zm-4.7,7.4-0.59.14a6.27,6.27,0,0,1-2.43,3.58,23.16,23.16,0,0,0,.78-4.32Zm-2.92-9.56h3v-2l2.65,0.4-0.7.23v1.33h1.05l0.67-.41a0.2,0.2,0,0,1,.19-0.05,0.19,0.19,0,0,1,.19.11l0.92,1.15a0.22,0.22,0,0,1,0,.25,0.39,0.39,0,0,1-.3.09h-7.21Zm3.46,3c0.46,1.24-1.62,1.58-1.84.47a7.55,7.55,0,0,0-.67-2A3.32,3.32,0,0,1,382.06,454.35Zm4.26,8.77a0.92,0.92,0,1,1-1.81.25,11.8,11.8,0,0,0-.54-3A5,5,0,0,1,386.32,463.11Zm1.08-13,2.51,0.2-0.62.23v0.63c1.21-.45,2.46-1,3.64-1.6l1.16,1.6-0.73-.14c-1,.18-2.59.5-4.08,0.65v3.42h2.83l0.67-.43a0.29,0.29,0,0,1,.22,0,0.17,0.17,0,0,1,.16.09l0.89,1.17a0.19,0.19,0,0,1,0,.23,0.37,0.37,0,0,1-.3.11h-1.21v8.88l-1.81.34v-9.22h-1.46V457c0,4.09-.94,7.2-3.1,8.5a21.45,21.45,0,0,0,1.21-7.92v-7.4Z" transform="translate(-98.71 -211.14)"/><path class="cls-1" d="M398.69,451.79l2.75,0.27-0.81.22v0.27h1.08L402,451.3h-5l-0.49-1.13h12.74l0.67-.45a0.41,0.41,0,0,1,.22,0,0.14,0.14,0,0,1,.16.09l0.92,1.19a0.14,0.14,0,0,1,0,.22,0.35,0.35,0,0,1-.3.13h-6.64a5.63,5.63,0,0,1-1.46,1.24h4.91l0.43-.29a0.6,0.6,0,0,1,.65,0l0.81,0.43a0.28,0.28,0,0,1,.19.22,0.2,0.2,0,0,1-.13.23l-0.41.29V459l-1.94.32v-0.65h-6.67v0l2.35,0.65-0.81.05-0.46.45h5.67l0.3-.16a1.09,1.09,0,0,1,1,0l0.67,0.45a0.41,0.41,0,0,1,.24.32,0.4,0.4,0,0,1-.22.36l-0.65.34a18.24,18.24,0,0,1-2.78,1.69,41.29,41.29,0,0,0,5.78,1.06c-0.76.49-.92,0.9-0.67,1.48a30.79,30.79,0,0,1-6.72-1.8,24.33,24.33,0,0,1-8.26,1.8,50.8,50.8,0,0,0,6.78-2.45,19.19,19.19,0,0,1-2.62-1.6,10.64,10.64,0,0,1-3.27,1.78,16.36,16.36,0,0,0,3.13-4l-1.38.25v-7.6Zm1.94,2.41h6.67v-0.54h-6.67v0.54Zm0,1.69h6.67v-0.56h-6.67v0.56Zm0,1.69h6.67V457h-6.67v0.56Zm5.51,3.44h-4.89a23.68,23.68,0,0,0,2.86,1.26A18.44,18.44,0,0,0,406.14,461Z" transform="translate(-98.71 -211.14)"/><path class="cls-1" d="M423.47,450.53l-1,.09-0.32.38a21.09,21.09,0,0,0,7,4.41,1.64,1.64,0,0,0-.94,1.55,17.61,17.61,0,0,1-6.48-5.51,18.81,18.81,0,0,1-8.15,5.73,26.32,26.32,0,0,0,7.18-7.78Zm-7.77,7.22h9.15l0.59-.79,2.67,1.35-1,.13L421.91,463a9.75,9.75,0,0,1,1.08.63c1.84,1.3-.22,2.48-1.46,1.24a32.64,32.64,0,0,0-4.08-3.67,30,30,0,0,1,3.7,1.44l2.83-3.78h-7.83Zm7.34-1.93a0.73,0.73,0,0,1-.43,1.15,1.17,1.17,0,0,1-1.59-.72,13.73,13.73,0,0,0-1.05-2.45A5.86,5.86,0,0,1,423,455.82Z" transform="translate(-98.71 -211.14)"/><path class="cls-1" d="M431.14,450.69h3.72v-1.33l2.67,0.4-0.73.2v0.74h4.26v-1.33l2.67,0.4L443,450v0.74h1.73l0.67-.45a0.72,0.72,0,0,1,.22,0,0.27,0.27,0,0,1,.19.09l0.89,1.19a0.14,0.14,0,0,1,0,.22,0.41,0.41,0,0,1-.3.13H443v1l-1.94.32v-1.3h-4.26v0.9l-1.94.32v-1.22H431.6Zm0.13,4.74,2.65-2.59a4,4,0,0,1,0,.81h10.39l0.11-.54,2.16,0.59a5.39,5.39,0,0,1-2.78,2.88l0.32-1.8H433.82a6.47,6.47,0,0,1-.67,1.85Zm13.66,5.49a0.26,0.26,0,0,1,.19.22,0.23,0.23,0,0,1-.14.25l-0.4.29v3.44l-1.94.4v-0.68h-7.4v0.32l-1.94.38v-5.4l2.75,0.29-0.81.2v0.16H443l0.43-.29a0.74,0.74,0,0,1,.65,0Zm-1.51-4.77a0.37,0.37,0,0,1,.19.23,0.24,0.24,0,0,1-.14.23l-0.4.29v2.7l-1.94.4v-0.7h-4.37v0.34l-1.94.36v-4.61l2.78,0.25-0.84.22V456h4.78l0.43-.27a0.64,0.64,0,0,1,.65,0Zm-8.18,7.54h7.4v-1.78h-7.4v1.78Zm1.51-5.51h4.37v-1h-4.37v1Z" transform="translate(-98.71 -211.14)"/><path class="cls-1" d="M99.77,501.61V501a3.74,3.74,0,0,0,.92-0.54,0.57,0.57,0,0,0,.16-0.27,6.55,6.55,0,0,0,.14-1.41q0.06-1.6.06-1.91v-6.3q0-1.59,0-3.11a3.68,3.68,0,0,0-.17-1.32,0.8,0.8,0,0,0-.43-0.3,8.35,8.35,0,0,0-1.69-.12V485q2.86,0.08,3.54.08t3.36-.08v0.75a8.35,8.35,0,0,0-1.69.12,0.77,0.77,0,0,0-.42.27,3,3,0,0,0-.18,1.14q0,0.23-.06,3.33v7.87q0,1.23.06,2,1.34,0.08,2.65.08a17.31,17.31,0,0,0,4.63-.42,5.44,5.44,0,0,0,.27-0.81l0.47-1.95h0.79q-0.26,1.75-.5,4.1a7.44,7.44,0,0,1-.76.12q-0.61,0-1.87,0l-6.94-.08Q100.93,501.53,99.77,501.61Z" transform="translate(-98.71 -211.14)"/><path class="cls-1" d="M115.48,493.59l-0.62-.16q0-.27,0-0.74t0-.79a12.53,12.53,0,0,1,2.44-1.31,5.07,5.07,0,0,1,1.63-.25,4.62,4.62,0,0,1,2.25.5,3.16,3.16,0,0,1,1.36,1.44,4.33,4.33,0,0,1,.3,1.79l-0.06,2.14v3.49a2.49,2.49,0,0,0,.09.81,0.49,0.49,0,0,0,.22.26,1.27,1.27,0,0,0,.49.09l0.76,0.07v0.67q-1-.08-1.69-0.08t-1.87.08l0.06-2.06q-2.39,1.8-2.84,2a2.45,2.45,0,0,1-1.12.23,3.07,3.07,0,0,1-2.21-.76,2.65,2.65,0,0,1-.79-2,3.84,3.84,0,0,1,.28-1.48,3.27,3.27,0,0,1,.66-1.06,2.78,2.78,0,0,1,.79-0.58,12.64,12.64,0,0,1,2.21-.68,26.38,26.38,0,0,1,3-.54,4.2,4.2,0,0,0-.27-1.73,2.28,2.28,0,0,0-.95-1,3.13,3.13,0,0,0-1.63-.4,3.58,3.58,0,0,0-1.21.19,1.87,1.87,0,0,0-.64.32l-0.21.42Q115.63,493.19,115.48,493.59Zm5.38,1.84a23.05,23.05,0,0,0-2.6.57,5,5,0,0,0-1.52.66,1.63,1.63,0,0,0-.47.6,2.78,2.78,0,0,0-.3,1.3,1.84,1.84,0,0,0,.48,1.35,1.79,1.79,0,0,0,1.34.49,3,3,0,0,0,1.55-.45,6.12,6.12,0,0,0,1.53-1.35v-3.16Z" transform="translate(-98.71 -211.14)"/><path class="cls-1" d="M125.27,501.61v-0.67h1.12a0.88,0.88,0,0,0,.38-0.09,0.55,0.55,0,0,0,.21-0.19,2.13,2.13,0,0,0,.17-0.83q0-.15.06-3.36v-1.39q0-.94,0-2a2.64,2.64,0,0,0-.11-0.82,0.47,0.47,0,0,0-.26-0.19,8.64,8.64,0,0,0-1.52-.05v-0.67a12.39,12.39,0,0,0,3.46-.86,0.93,0.93,0,0,1,.32-0.12,0.16,0.16,0,0,1,.13.06,0.28,0.28,0,0,1,0,.18,1.72,1.72,0,0,1,0,.19q0,0.42-.07,1.78l2.18-1.86a5.29,5.29,0,0,1,1.82-.35,4.29,4.29,0,0,1,1.8.39,3.15,3.15,0,0,1,1.28,1,3.35,3.35,0,0,1,.57,1.48,28.89,28.89,0,0,1,.08,2.94v2.07a16.93,16.93,0,0,0,.08,2.07,1,1,0,0,0,.18.49,0.61,0.61,0,0,0,.38.17l1.25,0v0.67q-1.15-.08-1.91-0.08t-2.18.08q0.16-2.89.16-3.66v-2a12.78,12.78,0,0,0-.14-2.41,2.13,2.13,0,0,0-.9-1.27,2.94,2.94,0,0,0-1.7-.48,3.18,3.18,0,0,0-1.61.42,2.68,2.68,0,0,0-1,1,3.94,3.94,0,0,0-.31,1.83v1.42q0.06,3,.06,3.29a2.55,2.55,0,0,0,.14.86,0.48,0.48,0,0,0,.14.18,0.74,0.74,0,0,0,.29.12l1.3,0v0.67q-1.43-.08-2.59-0.08Q127.49,501.53,125.27,501.61Z" transform="translate(-98.71 -211.14)"/><path class="cls-1" d="M146.87,485.7V485a21.74,21.74,0,0,0,2.2-.33,17.25,17.25,0,0,0,1.75-.47l0.15,0.11q0,1-.11,3.84l0,1.88v7.34q0,1.2,0,2.07a3.09,3.09,0,0,0,.15,1,0.74,0.74,0,0,0,.35.28,7.09,7.09,0,0,0,1.46.21v0.63q-1.43-.08-2-0.08t-2.06.08q0-.81.06-2.18-0.47.34-1.26,1t-1.24,1.11a6.92,6.92,0,0,1-1.65.23,4.71,4.71,0,0,1-2.44-.66,4.34,4.34,0,0,1-1.72-1.9,6.36,6.36,0,0,1-.6-2.81,6.64,6.64,0,0,1,.37-2.22,4.36,4.36,0,0,1,.93-1.62,8,8,0,0,1,1.44-1,16.65,16.65,0,0,1,1.82-1,3.81,3.81,0,0,1,1.52-.3,5.81,5.81,0,0,1,1.45.18,5.69,5.69,0,0,1,1.38.56V488a7.71,7.71,0,0,0-.14-2,0.32,0.32,0,0,0-.18-0.19A6.56,6.56,0,0,0,146.87,485.7Zm1.93,7.37a5.28,5.28,0,0,0-1.67-1.28,4.07,4.07,0,0,0-1.72-.4,3.34,3.34,0,0,0-1.77.49,3.11,3.11,0,0,0-1.24,1.49,6,6,0,0,0-.43,2.39,4.88,4.88,0,0,0,1.07,3.35,3.31,3.31,0,0,0,2.57,1.21A3,3,0,0,0,147,500a3.25,3.25,0,0,0,1.09-1,3.21,3.21,0,0,0,.6-1.4,19.75,19.75,0,0,0,.09-2.54v-2Z" transform="translate(-98.71 -211.14)"/><path class="cls-1" d="M154.65,498.07h0.7a8.83,8.83,0,0,0,.07,1.08,3.81,3.81,0,0,0,.2.78,1.59,1.59,0,0,0,.43.64,2.27,2.27,0,0,0,.64.41,2.7,2.7,0,0,0,.7.19,9.16,9.16,0,0,0,1.09,0,3,3,0,0,0,2-.63,2.12,2.12,0,0,0,.77-1.73A1.57,1.57,0,0,0,161,498a1.61,1.61,0,0,0-.69-0.59,12,12,0,0,0-1.94-.55q-1.49-.34-1.92-0.49a3.21,3.21,0,0,1-1-.6,2.49,2.49,0,0,1-.62-0.89,3,3,0,0,1-.23-1.17A3.15,3.15,0,0,1,155,492a3.45,3.45,0,0,1,1.53-1.27,5.33,5.33,0,0,1,2.28-.49,8.45,8.45,0,0,1,1.71.21,6.66,6.66,0,0,1,1.58.51q-0.08,1.3-.12,2.65h-0.67a6.9,6.9,0,0,0-.13-1.12A1.92,1.92,0,0,0,161,492a1.76,1.76,0,0,0-.45-0.45,3.22,3.22,0,0,0-.82-0.43,3.5,3.5,0,0,0-1.23-.19,2.29,2.29,0,0,0-1.66.61,1.93,1.93,0,0,0-.63,1.43,1.6,1.6,0,0,0,.18.79,1.53,1.53,0,0,0,.49.53,3.2,3.2,0,0,0,.86.37l1.95,0.48a12.31,12.31,0,0,1,2,.64,2.1,2.1,0,0,1,.9.84A2.61,2.61,0,0,1,163,498a3.6,3.6,0,0,1-1.31,2.76,5,5,0,0,1-3.5,1.18,15.83,15.83,0,0,1-2.69-.3,4.27,4.27,0,0,1-1-.25,0.14,0.14,0,0,1,0-.12,1,1,0,0,1,0-.2,7.46,7.46,0,0,0,.14-1Q154.62,499.6,154.65,498.07Z" transform="translate(-98.71 -211.14)"/><path class="cls-1" d="M173.91,500.28l-0.47.79a7,7,0,0,1-1.6.63,7.33,7.33,0,0,1-1.79.2,5.25,5.25,0,0,1-3.92-1.48,5.56,5.56,0,0,1-1.46-4.08,6.6,6.6,0,0,1,.39-2.39,4.29,4.29,0,0,1,1-1.57,7.49,7.49,0,0,1,1.47-1,15.58,15.58,0,0,1,1.52-.79,4.85,4.85,0,0,1,1.91-.34,7.45,7.45,0,0,1,1.9.22,4,4,0,0,1,1.08.47q-0.14.9-.19,1.37T173.57,494H172.9a11,11,0,0,0-.14-1.42,0.63,0.63,0,0,0-.21-0.32,4,4,0,0,0-1.09-.57,4.22,4.22,0,0,0-1.45-.24,3.44,3.44,0,0,0-1.71.4,2.68,2.68,0,0,0-1.12,1.28,5.27,5.27,0,0,0-.4,2.18,7.15,7.15,0,0,0,.56,2.89,4,4,0,0,0,1.53,1.88,4.05,4.05,0,0,0,2.16.59,4.65,4.65,0,0,0,1.17-.15,9.14,9.14,0,0,0,1.46-.56Z" transform="translate(-98.71 -211.14)"/><path class="cls-1" d="M176.94,493.59l-0.62-.16q0-.27,0-0.74t0-.79a12.53,12.53,0,0,1,2.44-1.31,5.06,5.06,0,0,1,1.63-.25,4.62,4.62,0,0,1,2.25.5,3.16,3.16,0,0,1,1.36,1.44,4.33,4.33,0,0,1,.3,1.79l-0.06,2.14v3.49a2.49,2.49,0,0,0,.09.81,0.49,0.49,0,0,0,.22.26,1.27,1.27,0,0,0,.49.09l0.76,0.07v0.67q-1-.08-1.69-0.08t-1.87.08l0.06-2.06q-2.39,1.8-2.84,2a2.45,2.45,0,0,1-1.12.23,3.07,3.07,0,0,1-2.21-.76,2.65,2.65,0,0,1-.79-2,3.84,3.84,0,0,1,.28-1.48,3.27,3.27,0,0,1,.66-1.06,2.78,2.78,0,0,1,.79-0.58,12.64,12.64,0,0,1,2.21-.68,26.37,26.37,0,0,1,3-.54A4.2,4.2,0,0,0,182,493a2.28,2.28,0,0,0-.95-1,3.13,3.13,0,0,0-1.63-.4,3.58,3.58,0,0,0-1.21.19,1.87,1.87,0,0,0-.64.32l-0.21.42Q177.09,493.19,176.94,493.59Zm5.38,1.84a23,23,0,0,0-2.6.57,4.94,4.94,0,0,0-1.52.66,1.63,1.63,0,0,0-.47.6,2.78,2.78,0,0,0-.3,1.3,1.84,1.84,0,0,0,.48,1.35,1.79,1.79,0,0,0,1.34.49,3,3,0,0,0,1.55-.45,6.12,6.12,0,0,0,1.53-1.35v-3.16Z" transform="translate(-98.71 -211.14)"/><path class="cls-1" d="M186.81,492v-0.67a8,8,0,0,0,.89-0.1,11.53,11.53,0,0,0,1.51-.34,7,7,0,0,0,1.25-.46,0.47,0.47,0,0,1,.21-0.07,0.17,0.17,0,0,1,.13.06,0.3,0.3,0,0,1,.05.2s0,0.13,0,.28,0,0.43,0,.62v1.24a16.92,16.92,0,0,1,2.47-2.07,4.53,4.53,0,0,1,1.92-.32,4.74,4.74,0,0,1,2.57.67,4,4,0,0,1,1.56,1.75,5.48,5.48,0,0,1,.49,2.29,5.54,5.54,0,0,1-.17,1.39,7.56,7.56,0,0,1-.43,1.24,7.69,7.69,0,0,1-.59,1.07,3.69,3.69,0,0,1-.6.73q-0.16.15-.85,0.7a8.82,8.82,0,0,1-1.46,1,8,8,0,0,1-1.08.5,4.8,4.8,0,0,1-2.56.07,6.76,6.76,0,0,1-1.26-.48v1.86q0,3,.06,3.27a2.15,2.15,0,0,0,.14.84,0.44,0.44,0,0,0,.15.21,0.68,0.68,0,0,0,.29.11q0.11,0,1.4,0v0.67q-1.46-.06-3.88-0.06-1.34,0-2.05.06v-0.67h1.12a0.88,0.88,0,0,0,.38-0.09,0.56,0.56,0,0,0,.21-0.19,2.13,2.13,0,0,0,.17-0.83q0-.15.06-3.35v-4.16q0-2,0-4.16t-0.1-2.33a0.57,0.57,0,0,0-.17-0.29,0.64,0.64,0,0,0-.3-0.13Zm4,7.24a4.71,4.71,0,0,0,1.42,1,4,4,0,0,0,1.68.36,3.49,3.49,0,0,0,3.32-2.19,5.86,5.86,0,0,0,.51-2.45,4.78,4.78,0,0,0-.49-2.22,3.24,3.24,0,0,0-1.38-1.42,3.78,3.78,0,0,0-1.79-.47,3.48,3.48,0,0,0-1.32.26,3.71,3.71,0,0,0-1.18.77,2.77,2.77,0,0,0-.7,1,3.37,3.37,0,0,0-.07.86v4.55Z" transform="translate(-98.71 -211.14)"/><path class="cls-1" d="M211.18,499.79l-0.37.84a10.63,10.63,0,0,1-1.18.67,7.17,7.17,0,0,1-1.26.42,6.36,6.36,0,0,1-1.49.17,6,6,0,0,1-2.8-.64,4.55,4.55,0,0,1-2-1.93,6.2,6.2,0,0,1-.7-3,7.51,7.51,0,0,1,.37-2.43,4.6,4.6,0,0,1,.84-1.6,6.06,6.06,0,0,1,1.05-.86,7.45,7.45,0,0,1,1.42-.77,5.15,5.15,0,0,1,2-.39,4.75,4.75,0,0,1,2.37.6A3.65,3.65,0,0,1,211,492.5a5.35,5.35,0,0,1,.49,2.33,6.6,6.6,0,0,1-.06.8,12.61,12.61,0,0,1-1.51.21q-1.26.09-2.53,0.09h-3.76a5.94,5.94,0,0,0,.58,2.72,3.52,3.52,0,0,0,1.54,1.53,4.46,4.46,0,0,0,2,.49,4.56,4.56,0,0,0,1.42-.23,9.26,9.26,0,0,0,1.75-.85ZM203.67,495q0.33,0,1.24.07,1.75,0.06,2.4.06,1.56,0,2.05-.06,0-.28,0-0.43a4.09,4.09,0,0,0-.75-2.72,2.52,2.52,0,0,0-2-.87,2.66,2.66,0,0,0-2.13.95A4.62,4.62,0,0,0,203.67,495Z" transform="translate(-98.71 -211.14)"/><path class="cls-1" d="M227.31,492.93a1.34,1.34,0,0,1,1,.41,1.37,1.37,0,0,1,.4,1,1.4,1.4,0,0,1-1.39,1.39,1.36,1.36,0,0,1-1-.41,1.34,1.34,0,0,1-.41-1A1.4,1.4,0,0,1,227.31,492.93Z" transform="translate(-98.71 -211.14)"/><path class="cls-1" d="M242.89,485.72V485l3.59,0.08,3.3-.08v0.75a8.27,8.27,0,0,0-1.68.12,0.77,0.77,0,0,0-.41.28,3,3,0,0,0-.17,1.14q0,0.23-.06,3.33v1.63q2.31,0.08,5.63.08,2.54,0,4.07-.08v-1.63q0-1.59-.06-3.12a3.72,3.72,0,0,0-.17-1.32,0.79,0.79,0,0,0-.43-0.3,8.26,8.26,0,0,0-1.68-.12V485q2.52,0.08,3.46.08l3.42-.08v0.75a8.29,8.29,0,0,0-1.68.12,0.71,0.71,0,0,0-.41.27,2.78,2.78,0,0,0-.19,1.14q0,0.23-.06,3.33V496q0,1.59.06,3.1a3.7,3.7,0,0,0,.16,1.32,0.78,0.78,0,0,0,.44.31,8.29,8.29,0,0,0,1.68.12v0.75q-2.26-.08-3.7-0.08t-3.18.08v-0.75a8.39,8.39,0,0,0,1.69-.12,0.77,0.77,0,0,0,.42-0.27,2.68,2.68,0,0,0,.18-1.13q0-.25.06-3.32v-2.66q-3.28-.08-5-0.08-1.85,0-4.71.08V496q0,1.59,0,3.1a3.73,3.73,0,0,0,.17,1.32,0.79,0.79,0,0,0,.43.31,8.4,8.4,0,0,0,1.69.12v0.75q-1.58-.08-3.26-0.08-1.83,0-3.63.08v-0.75a8.29,8.29,0,0,0,1.68-.12,0.77,0.77,0,0,0,.42-0.27,3,3,0,0,0,.17-1.14q0-.25.06-3.33v-5.42q0-1.59,0-3.11a3.68,3.68,0,0,0-.17-1.32,0.8,0.8,0,0,0-.43-0.3A8.35,8.35,0,0,0,242.89,485.72Z" transform="translate(-98.71 -211.14)"/><path class="cls-1" d="M276.15,500.94v0.67q-1.54-.08-2.32-0.08t-1.76.08q0.07-.95.11-2.13A21.26,21.26,0,0,0,270.5,501a1.72,1.72,0,0,1-.43.33,4,4,0,0,1-1,.4,5.14,5.14,0,0,1-1.21.12,4.25,4.25,0,0,1-1.59-.26,2.83,2.83,0,0,1-1.09-.79,2.61,2.61,0,0,1-.53-1,5.24,5.24,0,0,1-.18-1.48q0-.41,0-0.77t0-.71v-2q0-.3,0-1.54a4.2,4.2,0,0,0-.11-1,0.4,0.4,0,0,0-.15-0.19,1.19,1.19,0,0,0-.62-0.12h-1v-0.67a10.51,10.51,0,0,0,3.66-.9,0.67,0.67,0,0,1,.29-0.11,0.17,0.17,0,0,1,.13.06,0.26,0.26,0,0,1,.05.18q0,0.09,0,.23,0,0.38-.08,1.44-0.07,2-.07,2.63v2.29a7.17,7.17,0,0,0,.19,2,1.7,1.7,0,0,0,.75.93,2.56,2.56,0,0,0,1.38.35,3.38,3.38,0,0,0,1.12-.19,3.28,3.28,0,0,0,1-.56,4.1,4.1,0,0,0,.67-0.73,3,3,0,0,0,.34-0.52,1.61,1.61,0,0,0,.11-0.53q0.06-1,.06-2.05v-1q0-.3,0-1.54a4.2,4.2,0,0,0-.11-1,0.4,0.4,0,0,0-.15-0.19,1.19,1.19,0,0,0-.62-0.12h-1v-0.67a10.46,10.46,0,0,0,3.65-.9,0.66,0.66,0,0,1,.29-0.11,0.17,0.17,0,0,1,.13.06,0.26,0.26,0,0,1,.05.18c0,0.06,0,.14,0,0.23q0,0.38-.08,1.49-0.07,1.91-.07,2.58v1.61l0,1.63q0,1.42.06,1.66a2.44,2.44,0,0,0,.13.86,0.63,0.63,0,0,0,.15.18,0.72,0.72,0,0,0,.28.12Z" transform="translate(-98.71 -211.14)"/><path class="cls-1" d="M277.25,501.61v-0.67h1.12a0.88,0.88,0,0,0,.38-0.09,0.55,0.55,0,0,0,.21-0.19,2.13,2.13,0,0,0,.16-0.83q0-.15.06-3.36v-1.39q0-.94,0-2a2.64,2.64,0,0,0-.11-0.82,0.47,0.47,0,0,0-.26-0.19,8.64,8.64,0,0,0-1.52-.05v-0.67a12.39,12.39,0,0,0,3.46-.86,0.93,0.93,0,0,1,.32-0.12,0.16,0.16,0,0,1,.13.06,0.28,0.28,0,0,1,0,.18,1.7,1.7,0,0,1,0,.19q0,0.56-.07,1.68l1.53-1.41a2.85,2.85,0,0,1,.36-0.29,3.27,3.27,0,0,1,.77-0.28,4.2,4.2,0,0,1,1.05-.13,3.67,3.67,0,0,1,2,.55,3.5,3.5,0,0,1,1.34,1.63l1.29-1.2a4.39,4.39,0,0,1,.6-0.49,3.78,3.78,0,0,1,.87-0.33,4.25,4.25,0,0,1,1.11-.15,3.52,3.52,0,0,1,2.24.71,3.17,3.17,0,0,1,1.16,1.61,12.38,12.38,0,0,1,.16,2.58v1.22l0,1.63q0,1.42,0,1.66a2.55,2.55,0,0,0,.14.86,0.46,0.46,0,0,0,.15.18,0.8,0.8,0,0,0,.29.12l1.3,0v0.67q-1.47-.08-2-0.08t-2.07.08l0.1-3.23,0-1.27v-1a11.89,11.89,0,0,0-.2-2.69,2.06,2.06,0,0,0-.84-1.17,2.54,2.54,0,0,0-1.49-.45,3,3,0,0,0-1.76.56,2,2,0,0,0-.76,1,9,9,0,0,0-.19,2.29v0.79l0,1.63c0,0.95,0,1.5,0,1.66a2.55,2.55,0,0,0,.14.86,0.48,0.48,0,0,0,.14.18,0.73,0.73,0,0,0,.28.12l1.31,0v0.67q-1.72-.08-2.77-0.08-0.84,0-3.07.08v-0.67h1.12a0.91,0.91,0,0,0,.4-0.09,0.55,0.55,0,0,0,.21-0.19,2,2,0,0,0,.15-0.83q0-.15.06-3.36v-0.91a7.58,7.58,0,0,0-.23-2.21,2.19,2.19,0,0,0-.82-1.11,2.36,2.36,0,0,0-1.4-.42,3,3,0,0,0-1.33.3,2.6,2.6,0,0,0-1,.74,2,2,0,0,0-.41.95,13.82,13.82,0,0,0-.12,1.95v0.71q0.06,3,.06,3.29a2.55,2.55,0,0,0,.14.86,0.48,0.48,0,0,0,.14.18,0.74,0.74,0,0,0,.3.12l1.3,0v0.67q-1.62-.08-2.75-0.08T277.25,501.61Z" transform="translate(-98.71 -211.14)"/><path class="cls-1" d="M300.49,493.59l-0.62-.16q0-.27,0-0.74t0-.79a12.53,12.53,0,0,1,2.44-1.31,5.07,5.07,0,0,1,1.63-.25,4.62,4.62,0,0,1,2.25.5,3.16,3.16,0,0,1,1.36,1.44,4.33,4.33,0,0,1,.3,1.79l-0.06,2.14v3.49a2.49,2.49,0,0,0,.09.81,0.49,0.49,0,0,0,.22.26,1.27,1.27,0,0,0,.49.09l0.76,0.07v0.67q-1-.08-1.69-0.08t-1.87.08l0.06-2.06q-2.39,1.8-2.84,2a2.45,2.45,0,0,1-1.12.23,3.07,3.07,0,0,1-2.21-.76,2.65,2.65,0,0,1-.79-2,3.84,3.84,0,0,1,.28-1.48,3.27,3.27,0,0,1,.66-1.06,2.78,2.78,0,0,1,.79-0.58,12.64,12.64,0,0,1,2.21-.68,26.38,26.38,0,0,1,3-.54,4.2,4.2,0,0,0-.27-1.73,2.28,2.28,0,0,0-.95-1,3.13,3.13,0,0,0-1.63-.4,3.58,3.58,0,0,0-1.21.19,1.87,1.87,0,0,0-.64.32l-0.21.42Q300.64,493.19,300.49,493.59Zm5.38,1.84a23.05,23.05,0,0,0-2.6.57,5,5,0,0,0-1.52.66,1.63,1.63,0,0,0-.47.6,2.78,2.78,0,0,0-.3,1.3,1.84,1.84,0,0,0,.48,1.35,1.79,1.79,0,0,0,1.34.49,3,3,0,0,0,1.55-.45,6.11,6.11,0,0,0,1.53-1.35v-3.16Z" transform="translate(-98.71 -211.14)"/><path class="cls-1" d="M310.27,501.61v-0.67h1.12a0.88,0.88,0,0,0,.38-0.09,0.55,0.55,0,0,0,.21-0.19,2.13,2.13,0,0,0,.17-0.83q0-.15.06-3.36v-1.39q0-.94,0-2a2.64,2.64,0,0,0-.11-0.82,0.47,0.47,0,0,0-.26-0.19,8.64,8.64,0,0,0-1.52-.05v-0.67a12.39,12.39,0,0,0,3.46-.86,0.93,0.93,0,0,1,.32-0.12,0.16,0.16,0,0,1,.13.06,0.28,0.28,0,0,1,0,.18,1.72,1.72,0,0,1,0,.19q0,0.42-.07,1.78l2.18-1.86a5.29,5.29,0,0,1,1.82-.35,4.29,4.29,0,0,1,1.8.39,3.15,3.15,0,0,1,1.28,1,3.35,3.35,0,0,1,.57,1.48,28.89,28.89,0,0,1,.08,2.94v2.07a16.93,16.93,0,0,0,.08,2.07,1,1,0,0,0,.18.49,0.61,0.61,0,0,0,.38.17l1.25,0v0.67q-1.15-.08-1.91-0.08t-2.18.08q0.16-2.89.16-3.66v-2a12.78,12.78,0,0,0-.14-2.41,2.13,2.13,0,0,0-.9-1.27,2.94,2.94,0,0,0-1.7-.48,3.18,3.18,0,0,0-1.61.42,2.68,2.68,0,0,0-1,1,3.94,3.94,0,0,0-.31,1.83v1.42q0.06,3,.06,3.29a2.55,2.55,0,0,0,.14.86,0.48,0.48,0,0,0,.14.18,0.74,0.74,0,0,0,.29.12l1.3,0v0.67q-1.43-.08-2.59-0.08Q312.5,501.53,310.27,501.61Z" transform="translate(-98.71 -211.14)"/><path class="cls-1" d="M324.44,492V491.3a12.26,12.26,0,0,0,3.82-1l0.26,0.19q-0.09,2.5-.09,3.82v2.13q0.06,3,.07,3.29a2.42,2.42,0,0,0,.13.86,0.62,0.62,0,0,0,.15.18,0.73,0.73,0,0,0,.28.12l1.3,0v0.67q-1.78-.08-2.85-0.08t-3.07.08v-0.67h1.12a0.88,0.88,0,0,0,.38-0.09,0.55,0.55,0,0,0,.21-0.19,2.13,2.13,0,0,0,.17-0.83q0-.15.06-3.36v-2.06a9.73,9.73,0,0,0-.12-2.07,0.49,0.49,0,0,0-.25-0.26A6.79,6.79,0,0,0,324.44,492Zm2.86-6.86a1.26,1.26,0,0,1,.93.39,1.29,1.29,0,0,1,.38.94,1.32,1.32,0,0,1-1.31,1.31,1.28,1.28,0,0,1-.94-0.39,1.26,1.26,0,0,1-.39-0.93A1.32,1.32,0,0,1,327.3,485.11Z" transform="translate(-98.71 -211.14)"/><path class="cls-1" d="M331.44,492.42v-0.49a18.55,18.55,0,0,0,1.79-.8v-3.56a9.7,9.7,0,0,0,2-.9l0.28,0.23q-0.13,1-.28,4.29h1.13l1.21,0q0.61,0,.91,0l0.08,0.08-0.25,1.09h-3.08l-0.06,4.77a17.66,17.66,0,0,0,0,2.09,1.57,1.57,0,0,0,.22.59,1.24,1.24,0,0,0,.43.4,2.57,2.57,0,0,0,.89.23,5.92,5.92,0,0,0,.78,0,3.9,3.9,0,0,0,.75-0.21l0.14,0.46q-0.55.43-1.06,0.9a4,4,0,0,1-.83.22,6.62,6.62,0,0,1-.89.05,2.84,2.84,0,0,1-1-.14,2.37,2.37,0,0,1-.67-0.39,2,2,0,0,1-.51-0.64,3.29,3.29,0,0,1-.26-1.22q0-.8,0-1.75,0-.19,0-0.41v-4.86h-0.48Q332.16,492.37,331.44,492.42Z" transform="translate(-98.71 -211.14)"/><path class="cls-1" d="M339.25,507.88l0.6-1.8h0.28l0.38,0.3a1.26,1.26,0,0,0,.34.17,1.84,1.84,0,0,0,.53.06,1.69,1.69,0,0,0,.71-0.16,1.94,1.94,0,0,0,.64-0.5,5.72,5.72,0,0,0,.71-1.17q0.62-1.26,1.11-2.56-0.37-1.05-.9-2.37l-1.87-4.61q-0.83-2.06-1.36-3.16a1.35,1.35,0,0,0-.45-0.58,3.16,3.16,0,0,0-1.07-.24V490.6q1.45,0.08,2.88.08t2.66-.08v0.67a8.36,8.36,0,0,0-1.38.15,0.42,0.42,0,0,0-.3.42,3.12,3.12,0,0,0,.2.77q0.46,1.44.87,2.46l0.74,1.83q0.67,1.64,1.13,2.66l0.62-1.38q0.36-.82,1.28-3.12t1.06-2.84a1.38,1.38,0,0,0,0-.33,0.39,0.39,0,0,0-.18-0.35,4.94,4.94,0,0,0-1.41-.24v-0.7q1.36,0.08,2.4.08t2.09-.08l-0.12.7a1.69,1.69,0,0,0-.93.26,5.2,5.2,0,0,0-1,1.58q-0.66,1.34-2.46,5.28l-2.71,6.33a11.88,11.88,0,0,1-1.13,2.19,3.24,3.24,0,0,1-1.15,1,3.18,3.18,0,0,1-1.46.34,2.56,2.56,0,0,1-.7-0.09A3.45,3.45,0,0,1,339.25,507.88Z" transform="translate(-98.71 -211.14)"/><path class="cls-1" d="M367.07,492.93a1.34,1.34,0,0,1,1,.41,1.37,1.37,0,0,1,.4,1,1.4,1.4,0,0,1-1.39,1.39,1.36,1.36,0,0,1-1-.41,1.34,1.34,0,0,1-.41-1A1.4,1.4,0,0,1,367.07,492.93Z" transform="translate(-98.71 -211.14)"/><path class="cls-1" d="M381.59,501.61v-0.8a6.22,6.22,0,0,0,1.16-.08,1,1,0,0,0,.42-0.25,3.76,3.76,0,0,0,.56-0.94q0.21-.43,1.53-3.29l2.93-6.61q0.48-1.09,2.05-4.85H391l5,11.75q1.22,2.86,1.62,3.59a1.21,1.21,0,0,0,.49.54,3.46,3.46,0,0,0,1.19.14v0.8q-1.83-.12-2.56-0.12l-3.78.12v-0.8a13,13,0,0,0,1.59-.08,0.71,0.71,0,0,0,.38-0.17,0.4,0.4,0,0,0,.1-0.28,1.9,1.9,0,0,0-.16-0.67L393.43,496h-6.79l-1.27,3a3.52,3.52,0,0,0-.34,1.18,0.39,0.39,0,0,0,.09.27,0.7,0.7,0,0,0,.4.21,8.77,8.77,0,0,0,1.52.11v0.8q-2-.11-3-0.11Q382.94,501.51,381.59,501.61Zm5.46-6.57H393L390,488Z" transform="translate(-98.71 -211.14)"/><path class="cls-1" d="M400.41,501.61v-0.67q1.33,0,1.44,0a0.7,0.7,0,0,0,.3-0.11,0.51,0.51,0,0,0,.16-0.22,2.49,2.49,0,0,0,.14-0.84q0.06-3.13.06-3.27v-1.39q0-.94,0-2a2.54,2.54,0,0,0-.1-0.82,0.47,0.47,0,0,0-.27-0.19,8.76,8.76,0,0,0-1.53-.05v-0.67a12.39,12.39,0,0,0,3.46-.86,0.93,0.93,0,0,1,.32-0.12,0.16,0.16,0,0,1,.13.06,0.28,0.28,0,0,1,0,.18,1.72,1.72,0,0,1,0,.19q-0.06.71-.07,2.21,0.53-.61,1-1.21a5.91,5.91,0,0,1,.64-0.77,2.81,2.81,0,0,1,.81-0.49,2.55,2.55,0,0,1,.95-0.18,2.4,2.4,0,0,1,1,.21l0.07,0.16q-0.18,1.56-.2,2.74h-0.53a2.11,2.11,0,0,0-.63-0.82,1.49,1.49,0,0,0-.9-0.26,2,2,0,0,0-1.54.74,3.37,3.37,0,0,0-.63,2.23v1.21q0,0.77.06,2.82a5.81,5.81,0,0,0,.06.93,0.68,0.68,0,0,0,.12.29,0.57,0.57,0,0,0,.25.15,12.51,12.51,0,0,0,1.9.21v0.67q-2.06-.08-3.52-0.08T400.41,501.61Z" transform="translate(-98.71 -211.14)"/><path class="cls-1" d="M409.88,492.42v-0.49a18.56,18.56,0,0,0,1.79-.8v-3.56a9.7,9.7,0,0,0,2-.9l0.28,0.23q-0.13,1-.28,4.29h1.13l1.21,0q0.61,0,.91,0l0.08,0.08-0.25,1.09h-3.08l-0.06,4.77a17.66,17.66,0,0,0,0,2.09,1.57,1.57,0,0,0,.22.59,1.24,1.24,0,0,0,.43.4,2.57,2.57,0,0,0,.89.23,5.92,5.92,0,0,0,.78,0,3.9,3.9,0,0,0,.75-0.21l0.14,0.46q-0.55.43-1.06,0.9a4,4,0,0,1-.83.22,6.62,6.62,0,0,1-.89.05,2.84,2.84,0,0,1-1-.14,2.37,2.37,0,0,1-.67-0.39,2,2,0,0,1-.51-0.64,3.29,3.29,0,0,1-.26-1.22q0-.8,0-1.75,0-.19,0-0.41v-4.86h-0.48Q410.61,492.37,409.88,492.42Z" transform="translate(-98.71 -211.14)"/><path class="cls-1" d="M417.7,492V491.3a12.26,12.26,0,0,0,3.82-1l0.26,0.19q-0.09,2.5-.09,3.82v2.13q0.06,3,.07,3.29a2.42,2.42,0,0,0,.13.86,0.62,0.62,0,0,0,.15.18,0.73,0.73,0,0,0,.28.12l1.3,0v0.67q-1.78-.08-2.85-0.08t-3.07.08v-0.67h1.12a0.88,0.88,0,0,0,.38-0.09,0.55,0.55,0,0,0,.21-0.19,2.13,2.13,0,0,0,.17-0.83q0-.15.06-3.36v-2.06a9.73,9.73,0,0,0-.12-2.07,0.49,0.49,0,0,0-.25-0.26A6.79,6.79,0,0,0,417.7,492Zm2.86-6.86a1.26,1.26,0,0,1,.93.39,1.29,1.29,0,0,1,.38.94,1.32,1.32,0,0,1-1.31,1.31,1.28,1.28,0,0,1-.94-0.39,1.26,1.26,0,0,1-.39-0.93A1.32,1.32,0,0,1,420.56,485.11Z" transform="translate(-98.71 -211.14)"/><path class="cls-1" d="M425,492.45V492a12,12,0,0,0,1.62-.81v-0.7a8.23,8.23,0,0,1,.19-2.15,3.87,3.87,0,0,1,.54-1.12,16.27,16.27,0,0,1,1.66-1.85,5.88,5.88,0,0,1,1.12-.93,2.44,2.44,0,0,1,1.13-.25,3.1,3.1,0,0,1,.94.15l0,1.95-0.27.11a2.64,2.64,0,0,0-.72-0.45,2.28,2.28,0,0,0-.84-0.14,1.87,1.87,0,0,0-1,.26,1.47,1.47,0,0,0-.58.74,6.68,6.68,0,0,0-.18,2v2.43h1.24q0.94,0,1.84-.08l0.12,0.07-0.23,1.22q-1,0-1.5,0t-1.46,0v4.19q0,0.77.06,2.82a5.79,5.79,0,0,0,.06.92,0.68,0.68,0,0,0,.12.29,0.56,0.56,0,0,0,.25.15,12.54,12.54,0,0,0,1.9.21v0.67l-3.33-.08-3,.08v-0.67h1.12a0.88,0.88,0,0,0,.38-0.09,0.55,0.55,0,0,0,.21-0.19,2.12,2.12,0,0,0,.17-0.83q0-.15.06-3.36v-4.1Z" transform="translate(-98.71 -211.14)"/><path class="cls-1" d="M434.69,493.59l-0.62-.16q0-.27,0-0.74t0-.79a12.53,12.53,0,0,1,2.44-1.31,5.06,5.06,0,0,1,1.63-.25,4.62,4.62,0,0,1,2.25.5,3.16,3.16,0,0,1,1.36,1.44,4.33,4.33,0,0,1,.3,1.79L442,496.22v3.49a2.49,2.49,0,0,0,.09.81,0.49,0.49,0,0,0,.22.26,1.27,1.27,0,0,0,.49.09l0.76,0.07v0.67q-1-.08-1.69-0.08t-1.87.08l0.06-2.06q-2.39,1.8-2.84,2a2.45,2.45,0,0,1-1.12.23,3.07,3.07,0,0,1-2.21-.76,2.65,2.65,0,0,1-.79-2,3.84,3.84,0,0,1,.28-1.48,3.27,3.27,0,0,1,.66-1.06,2.78,2.78,0,0,1,.79-0.58,12.64,12.64,0,0,1,2.21-.68,26.37,26.37,0,0,1,3-.54,4.2,4.2,0,0,0-.27-1.73,2.28,2.28,0,0,0-.95-1,3.13,3.13,0,0,0-1.63-.4,3.58,3.58,0,0,0-1.21.19,1.87,1.87,0,0,0-.64.32l-0.21.42Q434.84,493.19,434.69,493.59Zm5.38,1.84a23,23,0,0,0-2.6.57,4.94,4.94,0,0,0-1.52.66,1.63,1.63,0,0,0-.47.6,2.78,2.78,0,0,0-.3,1.3,1.84,1.84,0,0,0,.48,1.35,1.79,1.79,0,0,0,1.34.49,3,3,0,0,0,1.55-.45,6.12,6.12,0,0,0,1.53-1.35v-3.16Z" transform="translate(-98.71 -211.14)"/><path class="cls-1" d="M454.32,500.28l-0.47.79a7,7,0,0,1-1.6.63,7.33,7.33,0,0,1-1.79.2,5.25,5.25,0,0,1-3.92-1.48,5.56,5.56,0,0,1-1.46-4.08,6.6,6.6,0,0,1,.39-2.39,4.28,4.28,0,0,1,1-1.57,7.49,7.49,0,0,1,1.47-1,15.58,15.58,0,0,1,1.52-.79,4.85,4.85,0,0,1,1.91-.34,7.45,7.45,0,0,1,1.9.22,4,4,0,0,1,1.08.47q-0.14.9-.19,1.37T454,494h-0.67a11,11,0,0,0-.14-1.42,0.63,0.63,0,0,0-.21-0.32,4,4,0,0,0-1.09-.57,4.22,4.22,0,0,0-1.45-.24,3.44,3.44,0,0,0-1.71.4,2.68,2.68,0,0,0-1.12,1.28,5.27,5.27,0,0,0-.4,2.18,7.15,7.15,0,0,0,.56,2.89,4,4,0,0,0,1.53,1.88,4.05,4.05,0,0,0,2.16.59,4.65,4.65,0,0,0,1.17-.15,9.14,9.14,0,0,0,1.46-.56Z" transform="translate(-98.71 -211.14)"/><path class="cls-1" d="M455.34,492.42v-0.49a18.58,18.58,0,0,0,1.79-.8v-3.56a9.7,9.7,0,0,0,2-.9l0.28,0.23q-0.13,1-.28,4.29h1.13l1.21,0q0.61,0,.91,0l0.08,0.08-0.25,1.09h-3.08l-0.06,4.77a17.62,17.62,0,0,0,0,2.09,1.57,1.57,0,0,0,.22.59,1.24,1.24,0,0,0,.43.4,2.57,2.57,0,0,0,.89.23,5.92,5.92,0,0,0,.78,0,3.9,3.9,0,0,0,.75-0.21l0.14,0.46q-0.55.43-1.06,0.9a4,4,0,0,1-.83.22,6.62,6.62,0,0,1-.89.05,2.84,2.84,0,0,1-1-.14,2.38,2.38,0,0,1-.67-0.39,2,2,0,0,1-.51-0.64,3.28,3.28,0,0,1-.26-1.22q0-.8,0-1.75,0-.19,0-0.41v-4.86h-0.48Q456.06,492.37,455.34,492.42Z" transform="translate(-98.71 -211.14)"/><path class="cls-1" d="M477.63,492.93a1.34,1.34,0,0,1,1,.41,1.37,1.37,0,0,1,.4,1,1.4,1.4,0,0,1-1.39,1.39,1.36,1.36,0,0,1-1-.41,1.34,1.34,0,0,1-.41-1A1.4,1.4,0,0,1,477.63,492.93Z" transform="translate(-98.71 -211.14)"/><path class="cls-1" d="M509,499.55l-0.46,1.09a12.22,12.22,0,0,1-2.68,1A12.41,12.41,0,0,1,503,502a12,12,0,0,1-3.37-.46,8.78,8.78,0,0,1-2.72-1.31,8.16,8.16,0,0,1-1.9-1.91,8.29,8.29,0,0,1-1.12-2.29,9.06,9.06,0,0,1-.39-2.71,8.15,8.15,0,0,1,2.61-6.2,10,10,0,0,1,7.12-2.46,14.74,14.74,0,0,1,2,.12,18.77,18.77,0,0,1,2.21.47q1.31,0.35,1.6.4a7.53,7.53,0,0,0-.39,1.27,17.75,17.75,0,0,0-.26,2.31h-0.74v-1.38a2.07,2.07,0,0,0-1.27-1.71,8,8,0,0,0-3.38-.56,9,9,0,0,0-2.82.43,5.42,5.42,0,0,0-2,1.28,6.71,6.71,0,0,0-1.45,2.21,8.89,8.89,0,0,0-.57,3.37,7.44,7.44,0,0,0,7.9,7.88,9.67,9.67,0,0,0,3-.44,7,7,0,0,0,1.86-1Z" transform="translate(-98.71 -211.14)"/><path class="cls-1" d="M510.44,496.22a5.7,5.7,0,0,1,6-5.95,5.3,5.3,0,0,1,5.55,5.55,6.29,6.29,0,0,1-.8,3.13,5.67,5.67,0,0,1-2.25,2.22,6.5,6.5,0,0,1-3.2.8,5.24,5.24,0,0,1-2.3-.46,4.6,4.6,0,0,1-1.53-1.15,5.49,5.49,0,0,1-.89-1.42A7,7,0,0,1,510.44,496.22Zm2.21-.87a9.52,9.52,0,0,0,.48,2.93,4.27,4.27,0,0,0,1.39,2.18,3.2,3.2,0,0,0,2,.69,2.86,2.86,0,0,0,2.27-1.08,5.06,5.06,0,0,0,.91-3.32,8.61,8.61,0,0,0-.54-3.22,4,4,0,0,0-1.39-1.91,3.31,3.31,0,0,0-1.86-.56,2.93,2.93,0,0,0-2.34,1A4.91,4.91,0,0,0,512.65,495.35Z" transform="translate(-98.71 -211.14)"/><path class="cls-1" d="M523.24,501.61v-0.67h1.12a0.88,0.88,0,0,0,.38-0.09,0.55,0.55,0,0,0,.21-0.19,2.13,2.13,0,0,0,.16-0.83q0-.15.06-3.36v-1.39q0-.94,0-2a2.64,2.64,0,0,0-.11-0.82,0.47,0.47,0,0,0-.26-0.19,8.64,8.64,0,0,0-1.52-.05v-0.67a12.39,12.39,0,0,0,3.46-.86,0.93,0.93,0,0,1,.32-0.12,0.16,0.16,0,0,1,.13.06,0.28,0.28,0,0,1,0,.18,1.72,1.72,0,0,1,0,.19q0,0.56-.07,1.68l1.53-1.41a2.86,2.86,0,0,1,.36-0.29,3.27,3.27,0,0,1,.77-0.28,4.2,4.2,0,0,1,1.05-.13,3.67,3.67,0,0,1,2,.55,3.5,3.5,0,0,1,1.34,1.63l1.29-1.2a4.39,4.39,0,0,1,.6-0.49,3.78,3.78,0,0,1,.87-0.33,4.26,4.26,0,0,1,1.11-.15,3.52,3.52,0,0,1,2.24.71,3.17,3.17,0,0,1,1.16,1.61,12.37,12.37,0,0,1,.16,2.58v1.22l0,1.63q0,1.42,0,1.66a2.55,2.55,0,0,0,.14.86,0.46,0.46,0,0,0,.15.18,0.8,0.8,0,0,0,.29.12l1.3,0v0.67q-1.47-.08-2-0.08t-2.07.08l0.1-3.23,0-1.27v-1a11.89,11.89,0,0,0-.2-2.69,2.06,2.06,0,0,0-.84-1.17,2.54,2.54,0,0,0-1.49-.45,3,3,0,0,0-1.76.56,2,2,0,0,0-.76,1,9,9,0,0,0-.19,2.29v0.79l0,1.63c0,0.95,0,1.5,0,1.66a2.55,2.55,0,0,0,.14.86,0.48,0.48,0,0,0,.14.18,0.73,0.73,0,0,0,.28.12l1.31,0v0.67q-1.72-.08-2.77-0.08-0.84,0-3.07.08v-0.67h1.12a0.91,0.91,0,0,0,.4-0.09,0.55,0.55,0,0,0,.21-0.19,2,2,0,0,0,.15-0.83q0-.15.06-3.36v-0.91a7.58,7.58,0,0,0-.23-2.21,2.19,2.19,0,0,0-.82-1.11,2.36,2.36,0,0,0-1.4-.42,3,3,0,0,0-1.33.3,2.6,2.6,0,0,0-1,.74,2,2,0,0,0-.41.95,13.82,13.82,0,0,0-.12,1.95v0.71q0.06,3,.06,3.29a2.55,2.55,0,0,0,.14.86,0.48,0.48,0,0,0,.14.18,0.74,0.74,0,0,0,.29.12l1.3,0v0.67q-1.62-.08-2.75-0.08T523.24,501.61Z" transform="translate(-98.71 -211.14)"/><path class="cls-1" d="M544.42,501.61v-0.67h1.12a0.88,0.88,0,0,0,.38-0.09,0.55,0.55,0,0,0,.21-0.19,2.13,2.13,0,0,0,.16-0.83q0-.15.06-3.36v-1.39q0-.94,0-2a2.64,2.64,0,0,0-.11-0.82,0.47,0.47,0,0,0-.26-0.19,8.64,8.64,0,0,0-1.52-.05v-0.67a12.39,12.39,0,0,0,3.46-.86,0.93,0.93,0,0,1,.32-0.12,0.16,0.16,0,0,1,.13.06,0.28,0.28,0,0,1,0,.18,1.72,1.72,0,0,1,0,.19q0,0.56-.07,1.68l1.53-1.41a2.86,2.86,0,0,1,.36-0.29,3.27,3.27,0,0,1,.77-0.28,4.2,4.2,0,0,1,1.05-.13,3.67,3.67,0,0,1,2,.55,3.5,3.5,0,0,1,1.34,1.63l1.29-1.2a4.39,4.39,0,0,1,.6-0.49,3.78,3.78,0,0,1,.87-0.33,4.26,4.26,0,0,1,1.11-.15,3.52,3.52,0,0,1,2.24.71,3.17,3.17,0,0,1,1.16,1.61,12.37,12.37,0,0,1,.16,2.58v1.22l0,1.63q0,1.42,0,1.66a2.55,2.55,0,0,0,.14.86,0.46,0.46,0,0,0,.15.18,0.8,0.8,0,0,0,.29.12l1.3,0v0.67q-1.47-.08-2-0.08t-2.07.08l0.1-3.23,0-1.27v-1a11.89,11.89,0,0,0-.2-2.69,2.06,2.06,0,0,0-.84-1.17,2.54,2.54,0,0,0-1.49-.45,3,3,0,0,0-1.76.56,2,2,0,0,0-.76,1,9,9,0,0,0-.19,2.29v0.79l0,1.63c0,0.95,0,1.5,0,1.66a2.55,2.55,0,0,0,.14.86,0.48,0.48,0,0,0,.14.18,0.73,0.73,0,0,0,.28.12l1.31,0v0.67q-1.72-.08-2.77-0.08-0.84,0-3.07.08v-0.67h1.12a0.91,0.91,0,0,0,.4-0.09,0.55,0.55,0,0,0,.21-0.19,2,2,0,0,0,.15-0.83q0-.15.06-3.36v-0.91a7.58,7.58,0,0,0-.23-2.21,2.19,2.19,0,0,0-.82-1.11,2.36,2.36,0,0,0-1.4-.42,3,3,0,0,0-1.33.3,2.6,2.6,0,0,0-1,.74,2,2,0,0,0-.41.95,13.82,13.82,0,0,0-.12,1.95v0.71q0.06,3,.06,3.29a2.55,2.55,0,0,0,.14.86,0.48,0.48,0,0,0,.14.18,0.74,0.74,0,0,0,.29.12l1.3,0v0.67q-1.62-.08-2.75-0.08T544.42,501.61Z" transform="translate(-98.71 -211.14)"/><path class="cls-1" d="M579,500.94v0.67q-1.54-.08-2.32-0.08t-1.76.08q0.07-.95.11-2.13a21.22,21.22,0,0,0-1.68,1.54,1.73,1.73,0,0,1-.43.33,4,4,0,0,1-1,.4,5.14,5.14,0,0,1-1.21.12,4.25,4.25,0,0,1-1.59-.26,2.83,2.83,0,0,1-1.09-.79,2.61,2.61,0,0,1-.53-1,5.25,5.25,0,0,1-.18-1.48q0-.41,0-0.77t0-.71v-2q0-.3,0-1.54a4.2,4.2,0,0,0-.11-1,0.4,0.4,0,0,0-.15-0.19,1.19,1.19,0,0,0-.62-0.12h-1v-0.67a10.51,10.51,0,0,0,3.66-.9,0.67,0.67,0,0,1,.29-0.11,0.17,0.17,0,0,1,.13.06,0.26,0.26,0,0,1,.05.18q0,0.09,0,.23,0,0.38-.08,1.44-0.07,2-.07,2.63v2.29a7.17,7.17,0,0,0,.19,2,1.71,1.71,0,0,0,.75.93,2.56,2.56,0,0,0,1.38.35,3.38,3.38,0,0,0,1.12-.19,3.28,3.28,0,0,0,1-.56,4.1,4.1,0,0,0,.67-0.73,3,3,0,0,0,.34-0.52,1.61,1.61,0,0,0,.11-0.53q0.06-1,.06-2.05v-1q0-.3,0-1.54a4.2,4.2,0,0,0-.11-1,0.4,0.4,0,0,0-.15-0.19,1.19,1.19,0,0,0-.62-0.12h-1v-0.67a10.46,10.46,0,0,0,3.65-.9,0.66,0.66,0,0,1,.29-0.11,0.17,0.17,0,0,1,.13.06,0.26,0.26,0,0,1,.05.18c0,0.06,0,.14,0,0.23q0,0.38-.08,1.49-0.07,1.91-.07,2.58v1.61l0,1.63q0,1.42.06,1.66a2.44,2.44,0,0,0,.13.86,0.63,0.63,0,0,0,.15.18,0.72,0.72,0,0,0,.28.12Z" transform="translate(-98.71 -211.14)"/><path class="cls-1" d="M579.92,501.61v-0.67H581a0.88,0.88,0,0,0,.38-0.09,0.55,0.55,0,0,0,.21-0.19,2.13,2.13,0,0,0,.16-0.83q0-.15.06-3.36v-1.39q0-.94,0-2a2.64,2.64,0,0,0-.11-0.82,0.47,0.47,0,0,0-.26-0.19,8.64,8.64,0,0,0-1.52-.05v-0.67a12.39,12.39,0,0,0,3.46-.86,0.93,0.93,0,0,1,.32-0.12,0.16,0.16,0,0,1,.13.06,0.28,0.28,0,0,1,0,.18,1.72,1.72,0,0,1,0,.19q0,0.42-.07,1.78l2.18-1.86a5.29,5.29,0,0,1,1.82-.35,4.29,4.29,0,0,1,1.8.39,3.15,3.15,0,0,1,1.28,1,3.35,3.35,0,0,1,.57,1.48,28.88,28.88,0,0,1,.08,2.94v2.07a16.94,16.94,0,0,0,.08,2.07,1,1,0,0,0,.18.49,0.61,0.61,0,0,0,.38.17l1.25,0v0.67q-1.15-.08-1.91-0.08t-2.18.08q0.16-2.89.16-3.66v-2a12.78,12.78,0,0,0-.14-2.41,2.13,2.13,0,0,0-.9-1.27,2.94,2.94,0,0,0-1.7-.48,3.18,3.18,0,0,0-1.61.42,2.68,2.68,0,0,0-1,1,3.94,3.94,0,0,0-.31,1.83v1.42q0.06,3,.06,3.29a2.55,2.55,0,0,0,.14.86,0.48,0.48,0,0,0,.14.18,0.74,0.74,0,0,0,.29.12l1.3,0v0.67q-1.43-.08-2.59-0.08Q582.15,501.53,579.92,501.61Z" transform="translate(-98.71 -211.14)"/><path class="cls-1" d="M594.09,492V491.3a12.26,12.26,0,0,0,3.82-1l0.26,0.19q-0.09,2.5-.09,3.82v2.13q0.06,3,.07,3.29a2.42,2.42,0,0,0,.13.86,0.62,0.62,0,0,0,.15.18,0.73,0.73,0,0,0,.28.12l1.3,0v0.67q-1.78-.08-2.85-0.08t-3.07.08v-0.67h1.12a0.88,0.88,0,0,0,.38-0.09,0.55,0.55,0,0,0,.21-0.19,2.13,2.13,0,0,0,.16-0.83q0-.15.06-3.36v-2.06a9.73,9.73,0,0,0-.12-2.07,0.49,0.49,0,0,0-.25-0.26A6.79,6.79,0,0,0,594.09,492Zm2.86-6.86a1.26,1.26,0,0,1,.93.39,1.29,1.29,0,0,1,.38.94,1.32,1.32,0,0,1-1.31,1.31,1.28,1.28,0,0,1-.94-0.39,1.26,1.26,0,0,1-.39-0.93A1.32,1.32,0,0,1,596.95,485.11Z" transform="translate(-98.71 -211.14)"/><path class="cls-1" d="M601.08,492.42v-0.49a18.58,18.58,0,0,0,1.79-.8v-3.56a9.7,9.7,0,0,0,2-.9l0.28,0.23q-0.13,1-.28,4.29H606l1.21,0q0.61,0,.91,0l0.08,0.08-0.25,1.09h-3.08l-0.06,4.77a17.62,17.62,0,0,0,0,2.09,1.57,1.57,0,0,0,.22.59,1.24,1.24,0,0,0,.43.4,2.57,2.57,0,0,0,.89.23,5.92,5.92,0,0,0,.78,0,3.9,3.9,0,0,0,.75-0.21L608,500.6q-0.55.43-1.06,0.9a4,4,0,0,1-.83.22,6.62,6.62,0,0,1-.89.05,2.84,2.84,0,0,1-1-.14,2.38,2.38,0,0,1-.67-0.39,2,2,0,0,1-.51-0.64,3.28,3.28,0,0,1-.26-1.22q0-.8,0-1.75,0-.19,0-0.41v-4.86H602.4Q601.81,492.37,601.08,492.42Z" transform="translate(-98.71 -211.14)"/><path class="cls-1" d="M608.9,507.88l0.6-1.8h0.28l0.38,0.3a1.26,1.26,0,0,0,.34.17,1.84,1.84,0,0,0,.53.06,1.69,1.69,0,0,0,.71-0.16,1.94,1.94,0,0,0,.64-0.5,5.72,5.72,0,0,0,.71-1.17q0.62-1.26,1.11-2.56-0.37-1.05-.9-2.37l-1.87-4.61q-0.83-2.06-1.36-3.16a1.35,1.35,0,0,0-.45-0.58,3.16,3.16,0,0,0-1.07-.24V490.6q1.45,0.08,2.87.08t2.66-.08v0.67a8.35,8.35,0,0,0-1.38.15,0.42,0.42,0,0,0-.3.42,3.12,3.12,0,0,0,.2.77q0.46,1.44.87,2.46l0.74,1.83q0.67,1.64,1.13,2.66l0.62-1.38q0.36-.82,1.28-3.12t1.06-2.84a1.38,1.38,0,0,0,0-.33,0.39,0.39,0,0,0-.18-0.35,4.94,4.94,0,0,0-1.41-.24v-0.7q1.36,0.08,2.4.08t2.09-.08l-0.12.7a1.69,1.69,0,0,0-.93.26,5.19,5.19,0,0,0-1,1.58q-0.66,1.34-2.46,5.28L614,504.74a11.89,11.89,0,0,1-1.13,2.19,3.24,3.24,0,0,1-1.15,1,3.18,3.18,0,0,1-1.46.34,2.56,2.56,0,0,1-.7-0.09A3.45,3.45,0,0,1,608.9,507.88Z" transform="translate(-98.71 -211.14)"/></svg>