<?xml version="1.0" encoding="utf-8"?>
<!-- Generator: Adobe Illustrator 21.0.0, SVG Export Plug-In . SVG Version: 6.00 Build 0)  -->
<svg version="1.1" id="图层_1" xmlns="http://www.w3.org/2000/svg" xmlns:xlink="http://www.w3.org/1999/xlink" x="0px" y="0px"
	 viewBox="0 0 1280 102.6" style="enable-background:new 0 0 1280 102.6;" xml:space="preserve">
<style type="text/css">
	.st0{fill:url(#SVGID_1_);}
	.st1{opacity:0.5;fill:url(#SVGID_2_);enable-background:new    ;}
	.st2{fill:#ABDDCA;}
	.st3{fill:#61C9A1;}
	.st4{fill:url(#SVGID_3_);}
	.st5{fill:url(#SVGID_4_);}
	.st6{fill:url(#SVGID_5_);}
	.st7{fill:url(#SVGID_6_);}
	.st8{fill:#FFFFFF;}
</style>
<linearGradient id="SVGID_1_" gradientUnits="userSpaceOnUse" x1="640.05" y1="478.0524" x2="640.05" y2="528.5627" gradientTransform="matrix(1 0 0 1 0 -456)">
	<stop  offset="0" style="stop-color:#FFFFFF;stop-opacity:0"/>
	<stop  offset="1" style="stop-color:#FFFFFF"/>
</linearGradient>
<path class="st0" d="M0,50.2v-15c0,0,23.2,1.7,56.7,9.8c22.5,5.5,31.7-8.1,63.7-2.8s23.6,9.7,53.3,7.9s77.5-12.6,104.6-12.6
	c26.7,0,98.2,8.1,165,16c66.6,7.9,73.2-8.6,130.1-14.9s173.4,10.9,200.1,9.7c26.6-1.2,96.2-27,124.6-26.4s83.3,13.8,124.2,16.6
	c40.9,2.8,111.3-1.8,151.5-10.8c40.2-9,106,3,106,3l0.3,41.7H0V50.2z"/>
<linearGradient id="SVGID_2_" gradientUnits="userSpaceOnUse" x1="640" y1="457.231" x2="640" y2="506.4201" gradientTransform="matrix(1 0 0 1 0 -456)">
	<stop  offset="0" style="stop-color:#FFFFFF;stop-opacity:0"/>
	<stop  offset="1" style="stop-color:#FFFFFF"/>
</linearGradient>
<path class="st1" d="M255.6,35.5c49.9-0.9,122.2-30.4,193.7-20.4c34.4,4.8,210.6,48.1,290.1,44.4s258.4-40.9,326-53.8
	S1279.8,31,1279.8,31l0.2,65L0,88.3V17c0,0,13.8-6.5,63.7-11.4S205.6,36.4,255.6,35.5z"/>
<path class="st2" d="M358,71.6c0,0-111.1-4.4-137.8-5.4c-9-0.3-74.7-9.6-101.2-8.3c-51.8,2.6-97.8,8.8-97.8,8.8l189.2,25.4L358,71.6
	z"/>
<path class="st2" d="M997.7,79.2c0,0-91.5-19.5-130.5-20.8s-78.8-2.3-124.7,2.6c-46,4.9-185.7,0.7-212.3,9.4S997.7,79.2,997.7,79.2z
	"/>
<path class="st3" d="M0,44.9c0,0,24.2,8.4,142.3,23.7s296.2-21.8,359-20.1s329.3,38,388,26s228.6-20.8,263.1-23.4
	C1187,48.4,1280,40.5,1280,40.5v62.2H0V44.9z"/>
<linearGradient id="SVGID_3_" gradientUnits="userSpaceOnUse" x1="1119.9" y1="562.2452" x2="1119.9" y2="534.2119" gradientTransform="matrix(1 0 0 1 0 -456)">
	<stop  offset="0" style="stop-color:#FFFFFF"/>
	<stop  offset="1" style="stop-color:#1E9A79"/>
</linearGradient>
<path class="st4" d="M1265.6,76.9c-1.8,0-114.6,0-148.2,6.6s-98.9,9.7-118.5,12.1s-39,7-39,7h320V76.9H1265.6z"/>
<linearGradient id="SVGID_4_" gradientUnits="userSpaceOnUse" x1="477.05" y1="564.68" x2="477.05" y2="537.3903" gradientTransform="matrix(1 0 0 1 0 -456)">
	<stop  offset="0" style="stop-color:#FFFFFF"/>
	<stop  offset="1" style="stop-color:#1E9A79"/>
</linearGradient>
<path class="st5" d="M0,102.6V69.2c0,0,24.5,6.7,47.4,8.2s63.4,5.2,116,8.2s207.3-1.8,246.4-0.3S802.3,97.2,834.6,96
	s119.5,6.6,119.5,6.6H0L0,102.6z"/>
<linearGradient id="SVGID_5_" gradientUnits="userSpaceOnUse" x1="918.95" y1="570.6955" x2="918.95" y2="551.7881" gradientTransform="matrix(1 0 0 1 0 -456)">
	<stop  offset="0" style="stop-color:#FFFFFF"/>
	<stop  offset="1" style="stop-color:#147555"/>
</linearGradient>
<path class="st6" d="M558,102.5c0,0,107.8-11.5,160.8-7.7c53,3.8,61.2-5.1,116.8-5.1c55.6-0.1,139.1,7.4,156.9,8
	c18,0.6,62-3.1,91.2-2c12.2,0.5,183.2,1.3,196.1,2.6v4.4L558,102.5z"/>
<linearGradient id="SVGID_6_" gradientUnits="userSpaceOnUse" x1="370.5" y1="569.9238" x2="370.5" y2="552.3683" gradientTransform="matrix(1 0 0 1 0 -456)">
	<stop  offset="0" style="stop-color:#FFFFFF"/>
	<stop  offset="1" style="stop-color:#147555"/>
</linearGradient>
<path class="st7" d="M0,102.2v-2.8c20.2-2.1,191.3-3.9,224.8-1.6c54.6,3.8,63-5.1,120.3-5.1s143.2,4.4,161.6,4.9
	c18.5,0.6,63.8-3.1,93.9-2c15.1,0.6,110,2.1,121.3,3.7s19,3.1,19,3.1L0,102.2z"/>
<path class="st8" d="M130.9,42.7c5.4-1.1,10.7,0.8,14.1,4.7c1.6-4.9,5.7-8.8,11.1-9.9c0.4-0.1,0.7-0.1,1.1-0.2
	c-1.5-0.4-3.2-0.5-4.8-0.1c-3.9,0.8-6.8,3.6-8,7.1c-2.5-2.7-6.3-4.2-10.1-3.4c-1.7,0.3-3.1,1-4.4,2
	C130.2,42.9,130.5,42.8,130.9,42.7z"/>
<path class="st8" d="M340.4,37.3c5.5,0,10.2,3,12.8,7.4c2.6-4.4,7.3-7.4,12.8-7.4c0.4,0,0.7,0,1.1,0c-1.4-0.7-3-1.1-4.7-1.1
	c-3.9,0-7.4,2.1-9.2,5.3c-1.8-3.2-5.3-5.3-9.2-5.3c-1.7,0-3.3,0.4-4.7,1.1C339.6,37.3,340,37.3,340.4,37.3z"/>
<path class="st8" d="M895.6,36.8c3.3,0,6.2,1.8,7.8,4.5c1.6-2.7,4.5-4.5,7.8-4.5c0.2,0,0.4,0,0.7,0c-0.9-0.4-1.8-0.7-2.8-0.7
	c-2.4,0-4.5,1.3-5.6,3.2c-1.1-1.9-3.2-3.2-5.6-3.2c-1,0-2,0.2-2.8,0.7C895.1,36.9,895.3,36.8,895.6,36.8z"/>
<path class="st8" d="M914,33.5c0.9,0.4,1.5,1.3,1.6,2.3c0.8-0.6,1.8-0.7,2.8-0.3c0.1,0,0.1,0.1,0.2,0.1c-0.2-0.2-0.4-0.4-0.7-0.5
	c-0.7-0.3-1.4-0.2-2,0.2c-0.1-0.7-0.5-1.3-1.2-1.6c-0.3-0.1-0.6-0.2-0.9-0.2C913.9,33.5,913.9,33.5,914,33.5z"/>
<path class="st8" d="M368,43.1c2.1,0.6,3.7,2.3,4.1,4.4c1.5-1.4,3.7-2,5.8-1.4c0.1,0,0.3,0.1,0.4,0.1c-0.5-0.4-1-0.8-1.7-1
	c-1.5-0.5-3.1,0-4.2,1c-0.4-1.4-1.4-2.7-3-3.1c-0.7-0.2-1.3-0.2-1.9-0.1C367.8,43,367.9,43.1,368,43.1z"/>
</svg>
