<svg xmlns="http://www.w3.org/2000/svg" viewBox="0 0 1280 83.28"><defs><style>.cls-1{fill:#fff;}</style></defs><title>section_bottom</title><g id="图层_2" data-name="图层 2"><g id="图层_1-2" data-name="图层 1"><path class="cls-1" d="M669.94,9.42c-.6,1.7-1.41,15.91-8.39,20.9s-9.25,4.47-12.66,8.49a17.78,17.78,0,0,0-4.21,9c-1,6.95,4.11,14.29,10.88,15.51a11.08,11.08,0,0,0,11.8-5.74c2.13-4.23-2.14-5.67-2.94-4.77s-1,2.69-3.82,3.59-7.31-.37-8.73-4A9,9,0,0,1,656.54,41c5.38-2.63,10-.4,14.18,3.7s5,9.27,3.55,15.64c-1.91,6.26-10.48,11.11-10.48,11.11s-23.09,11.36-23.37,11.82l0,0,0,0C640.09,82.82,617,71.46,617,71.46s-8.57-4.85-10.48-11.11c-1.49-6.38-.65-11.54,3.55-15.64s8.8-6.33,14.18-3.7a9,9,0,0,1,4.67,11.48c-1.42,3.58-5.9,4.86-8.73,4s-3-2.7-3.82-3.59-5.08.54-2.94,4.77a11.08,11.08,0,0,0,11.8,5.74c6.77-1.23,11.91-8.57,10.88-15.51a17.78,17.78,0,0,0-4.21-9c-3.41-4-7.45-3.32-12.66-8.49s-6.17-19.38-6.85-21.06l28.75-2.95Z"/><path class="cls-1" d="M580.44,17.33c-.45,1.13-1,10.57-6.23,13.88s-6.86,3-9.39,5.64a11.31,11.31,0,0,0-3.12,6c-.76,4.61,3,9.49,8.07,10.31a8.54,8.54,0,0,0,8.75-3.82c1.58-2.81-1.59-3.76-2.18-3.17s-.74,1.79-2.84,2.39-5.42-.25-6.48-2.63c-1.31-2.94.16-6.18,3.46-7.63,4-1.74,7.4-.26,10.52,2.46s3.74,6.16,2.63,10.39c-1.42,4.16-7.78,7.38-7.78,7.38s-17.13,7.55-17.34,7.85v0c-.21-.3-17.34-7.85-17.34-7.85s-6.36-3.22-7.78-7.38c-1.11-4.24-.48-7.67,2.63-10.39s6.53-4.2,10.52-2.46c3.3,1.44,4.77,4.68,3.46,7.63-1.06,2.38-4.38,3.23-6.48,2.63s-2.24-1.79-2.84-2.39-3.77.36-2.18,3.17a8.54,8.54,0,0,0,8.75,3.82c5-.81,8.83-5.69,8.07-10.31a11.31,11.31,0,0,0-3.12-6c-2.53-2.67-5.53-2.21-9.39-5.64s-4.57-12.87-5.08-14l21.33-2Z"/><path class="cls-1" d="M743.36,17.33c-.45,1.13-1,10.57-6.23,13.88s-6.86,3-9.39,5.64a11.31,11.31,0,0,0-3.12,6c-.76,4.61,3,9.49,8.07,10.31a8.54,8.54,0,0,0,8.75-3.82c1.58-2.81-1.59-3.76-2.18-3.17s-.74,1.79-2.84,2.39S731,48.33,730,45.95c-1.31-2.94.16-6.18,3.46-7.63,4-1.74,7.4-.26,10.52,2.46s3.74,6.16,2.63,10.39c-1.42,4.16-7.78,7.38-7.78,7.38s-17.13,7.55-17.34,7.85v0c-.21-.3-17.34-7.85-17.34-7.85s-6.36-3.22-7.78-7.38c-1.11-4.24-.48-7.67,2.63-10.39s6.53-4.2,10.52-2.46c3.3,1.44,4.77,4.68,3.46,7.63-1.06,2.38-4.38,3.23-6.48,2.63s-2.24-1.79-2.84-2.39-3.77.36-2.18,3.17a8.54,8.54,0,0,0,8.75,3.82c5-.81,8.83-5.69,8.07-10.31a11.31,11.31,0,0,0-3.12-6c-2.53-2.67-5.53-2.21-9.39-5.64s-4.57-12.87-5.08-14l21.33-2Z"/><polygon class="cls-1" points="1280 64.58 641.39 15.26 0 64.58 0 0 1280 0 1280 64.58"/></g></g></svg>