<svg xmlns="http://www.w3.org/2000/svg" viewBox="0 0 462.54 321.03"><defs><style>.cls-1{fill:#25bf9a;opacity:0.6;}.cls-2{fill:#fff;}.cls-3{fill:none;stroke:#fff;stroke-miterlimit:10;stroke-width:3px;}</style></defs><title>slogan_artifact</title><g id="图层_2" data-name="图层 2"><g id="图层_1-2" data-name="图层 1"><path class="cls-1" d="M181.46,118.42s-10.2,28.88-24.89,28.8c-18.5-.09-14.82-17.35-11.63-20.86,5.34-5.86,22.38-6.64,19.09,8.65,13.33-12.38,5.31-26.35-3.74-33-7.68-5.87-16.19-5.22-19.28-4.87s-18,1.68-34.67,20.58S63,160.52,63,160.52s26.64,23.9,43.31,42.8,31.58,20.24,34.67,20.58,11.6,1,19.28-4.87c9-6.66,17.06-20.63,3.74-33,3.28,15.29-13.75,14.51-19.09,8.65-3.19-3.51-6.87-20.77,11.63-20.86,14.68-.07,24.89,28.8,24.89,28.8h0s28.88,10.2,28.8,24.89c-.09,18.5-17.35,14.82-20.86,11.63-5.86-5.34-6.64-22.38,8.65-19.09-12.38-13.33-26.35-5.3-33,3.74-5.87,7.68-5.22,16.19-4.87,19.28s1.68,18,20.58,34.67S223.56,321,223.56,321s23.9-26.64,42.8-43.32,20.24-31.58,20.58-34.67,1-11.6-4.87-19.28c-6.65-9-20.63-17.06-33-3.74,15.29-3.28,14.51,13.76,8.65,19.09-3.51,3.19-20.76,6.87-20.86-11.63-.08-14.68,28.8-24.89,28.8-24.89h0s10.2-28.88,24.89-28.8c18.5.09,14.82,17.35,11.63,20.86-5.34,5.86-22.38,6.64-19.09-8.65-13.33,12.38-5.31,26.35,3.74,33,7.68,5.86,16.19,5.22,19.28,4.87s18-1.68,34.67-20.58,43.31-42.8,43.31-42.8-26.64-23.9-43.31-42.8-31.58-20.24-34.67-20.58-11.6-1-19.28,4.87c-9,6.65-17.06,20.62-3.74,33-3.28-15.29,13.75-14.51,19.09-8.65,3.19,3.51,6.87,20.76-11.63,20.86-14.68.08-24.89-28.8-24.89-28.8s-28.88-10.2-28.8-24.89c.09-18.5,17.35-14.82,20.86-11.63,5.86,5.34,6.64,22.38-8.65,19.09,12.38,13.33,26.35,5.3,33-3.74,5.87-7.68,5.22-16.19,4.87-19.28s-1.68-18-20.58-34.67S223.56,0,223.56,0s-23.9,26.64-42.8,43.31S160.52,74.9,160.18,78s-1,11.6,4.87,19.28c6.65,9,20.63,17.06,33,3.74-15.29,3.28-14.51-13.76-8.65-19.09,3.51-3.19,20.76-6.87,20.86,11.63C210.34,108.22,181.46,118.42,181.46,118.42Z"/><path class="cls-2" d="M7.85,223.25H7.09a3.41,3.41,0,0,0-.15-1.18.45.45,0,0,0-.31-.15,14.12,14.12,0,0,0-2-.1H3.94v.87q0,1.85,0,2.6a2.6,2.6,0,0,0,.13.87.41.41,0,0,0,.21.14,10.84,10.84,0,0,0,1.35.13V227L2.32,227Q1.58,227,0,227v-.65a6.49,6.49,0,0,0,1.15-.07.26.26,0,0,0,.13-.09.9.9,0,0,0,.12-.41c0-.12,0-.5.07-1.13s0-1.09,0-1.36v-3.23q0-.11-.08-2.19a3.57,3.57,0,0,0-.1-.85.25.25,0,0,0-.08-.13.7.7,0,0,0-.24-.08,10,10,0,0,0-1-.09v-.66l3.05.05,4.14-.07q.87,0,1.64.08l.08.11a10.67,10.67,0,0,0-.16,1.13q-.07.69-.08,1.2H8q0-.19,0-.84a1.57,1.57,0,0,0-.05-.41.16.16,0,0,0-.08-.08,2.47,2.47,0,0,0-.72-.18A8.66,8.66,0,0,0,5.76,217l-.81,0-.91,0a27.27,27.27,0,0,0-.09,2.8V221l1.48.05a6.16,6.16,0,0,0,1.41-.09.25.25,0,0,0,.16-.18,3.3,3.3,0,0,0,.09-.89h.76Z"/><path class="cls-2" d="M9.94,216.76v-.64l1.38,0,1.63,0q.9,0,1.55,0,1.07,0,1.76,0a8.57,8.57,0,0,1,2,.18,2.22,2.22,0,0,1,1.14.73,2,2,0,0,1,.47,1.35,2.62,2.62,0,0,1-.64,1.72,4.3,4.3,0,0,1-2,1.23q.22.35.49.71l.32.44.1.15,1.33,1.81.58.78q.64.78.79.91a.93.93,0,0,0,.28.19,1.88,1.88,0,0,0,.54.06V227l-1.92,0q-.69,0-1.37,0a1.8,1.8,0,0,0-.21-.45l-1.84-2.76Q15.58,222.66,15,222a2.45,2.45,0,0,0-.53-.52l.09-.26a3.85,3.85,0,0,0,1.56-.19,2,2,0,0,0,.88-.8,2.37,2.37,0,0,0,.36-1.29,1.87,1.87,0,0,0-.38-1.2,2,2,0,0,0-.94-.66,4.79,4.79,0,0,0-1.29-.12A5.28,5.28,0,0,0,14,217q0,.28-.05,1.27-.05,2.21-.05,3,0,1.17,0,2.49,0,1.61.05,1.83a1.72,1.72,0,0,0,.09.57.33.33,0,0,0,.11.11.69.69,0,0,0,.25.08,9.82,9.82,0,0,0,1,0V227q-1.47-.05-3-.05-1.34,0-2.48.05v-.69a7.27,7.27,0,0,0,1.16-.09.27.27,0,0,0,.15-.08.45.45,0,0,0,.07-.22,6.52,6.52,0,0,0,.09-.92l.07-2.28v-2.9l0-1.65a4.6,4.6,0,0,0-.1-1.17.3.3,0,0,0-.13-.13A5.36,5.36,0,0,0,9.94,216.76Z"/><path class="cls-2" d="M22.88,221.71a6,6,0,0,1,.48-2.49,5,5,0,0,1,1.36-1.8,5.59,5.59,0,0,1,1.92-1.07,9.73,9.73,0,0,1,2.9-.41,9.46,9.46,0,0,1,2.84.4,5.27,5.27,0,0,1,1.67.88,4.44,4.44,0,0,1,1.68,2.5,6.1,6.1,0,0,1,.19,1.59,6.65,6.65,0,0,1-.56,2.73,4.94,4.94,0,0,1-1.21,1.66,5.7,5.7,0,0,1-1.81,1.12,9,9,0,0,1-3.18.52,7.91,7.91,0,0,1-3.32-.64,5,5,0,0,1-2.18-1.88A5.65,5.65,0,0,1,22.88,221.71Zm2.65-.47a7.22,7.22,0,0,0,.55,3,3.58,3.58,0,0,0,1.41,1.68,4,4,0,0,0,2,.49,4,4,0,0,0,1.94-.47,3.16,3.16,0,0,0,1.34-1.59,6.79,6.79,0,0,0,.49-2.71,7.18,7.18,0,0,0-.26-2,4.59,4.59,0,0,0-.75-1.54,3.37,3.37,0,0,0-1.16-1,4,4,0,0,0-1.77-.34,4,4,0,0,0-2.14.54,3.06,3.06,0,0,0-1.28,1.58A6.44,6.44,0,0,0,25.52,221.25Z"/><path class="cls-2" d="M37.23,227v-.66a7,7,0,0,0,1.15-.12.32.32,0,0,0,.16-.11.62.62,0,0,0,.1-.3q.06-.45.1-1.95,0-.73,0-2.5,0-1.59,0-2.81a7.1,7.1,0,0,0-.11-1.46.35.35,0,0,0-.11-.17.63.63,0,0,0-.28-.09,9,9,0,0,0-1-.1v-.66q1.77.05,2.44.05.88,0,1.78-.05l.76,1.55.6,1.17L45.54,224q.88-1.54,1.31-2.39L48,219.41l1.16-2.23q.21-.42.48-1.06l1.45.05,2.57-.05v.66h-.12a2,2,0,0,0-1.11.18.92.92,0,0,0-.23.74q0,.65,0,1l0,2.2v2.74q0,1,0,1.17a11.78,11.78,0,0,0,.12,1.22.34.34,0,0,0,.1.18.46.46,0,0,0,.2.1,10.39,10.39,0,0,0,1.09.09V227L50.89,227,48.2,227v-.66a4.76,4.76,0,0,0,1.22-.11.53.53,0,0,0,.21-.37A15.05,15.05,0,0,0,49.7,224v-5.69l-2,3.66-1,1.82q-.38.72-1.07,2.09-.42.83-.66,1.34h-.58q-.31-.66-.89-1.8-1-2-1.51-2.91l-2.26-4.2v3.84q0,1,0,2.29t.06,1.5a.51.51,0,0,0,.11.25.58.58,0,0,0,.26.13,6.88,6.88,0,0,0,1.05.1V227q-1-.05-2-.05Q38,227,37.23,227Z"/><path class="cls-2" d="M61.71,227v-.64a4.57,4.57,0,0,0,1.22-.12.5.5,0,0,0,.26-.31,11.65,11.65,0,0,0,.09-2v-4.68q0-1.91,0-2.14H62q-.93,0-1.63.05a.8.8,0,0,0-.33.06.5.5,0,0,0-.1.27,7.09,7.09,0,0,0-.13,1.23h-.71q0-1.6,0-1.8T59,216.2l.08-.08.86.05q.74,0,2.84,0h3.47q2.16,0,2.89,0l.8-.05.09.08a7.59,7.59,0,0,0-.09.84s0,.61,0,1.71h-.71a8.32,8.32,0,0,0-.11-1.16.72.72,0,0,0-.11-.34.64.64,0,0,0-.28-.05q-.7-.06-1.69-.06H65.77q0,.27,0,2.14v4.68a11.72,11.72,0,0,0,.09,2,.47.47,0,0,0,.26.3,4.42,4.42,0,0,0,1.23.13V227q-1.66-.07-2.81-.07T61.71,227Z"/><path class="cls-2" d="M71.05,216.76v-.64l1.38,0,1.63,0q.9,0,1.55,0,1.07,0,1.76,0a8.58,8.58,0,0,1,2,.18,2.22,2.22,0,0,1,1.14.73,2,2,0,0,1,.47,1.35,2.62,2.62,0,0,1-.64,1.72,4.3,4.3,0,0,1-2,1.23q.22.35.49.71l.32.44.1.15,1.33,1.81.58.78q.64.78.79.91a.92.92,0,0,0,.28.19,1.87,1.87,0,0,0,.54.06V227l-1.92,0q-.69,0-1.37,0a1.8,1.8,0,0,0-.21-.45l-1.84-2.76q-.79-1.19-1.34-1.87a2.45,2.45,0,0,0-.53-.52l.09-.26a3.85,3.85,0,0,0,1.56-.19,2,2,0,0,0,.88-.8,2.37,2.37,0,0,0,.36-1.29,1.87,1.87,0,0,0-.38-1.2,2,2,0,0,0-.94-.66,4.79,4.79,0,0,0-1.29-.12,5.28,5.28,0,0,0-.82.06q0,.28-.05,1.27-.05,2.21-.05,3,0,1.17,0,2.49,0,1.61.05,1.83a1.72,1.72,0,0,0,.09.57.33.33,0,0,0,.11.11.69.69,0,0,0,.25.08,9.82,9.82,0,0,0,1,0V227q-1.47-.05-3-.05-1.34,0-2.48.05v-.69a7.27,7.27,0,0,0,1.16-.09.27.27,0,0,0,.15-.08.45.45,0,0,0,.07-.22,6.5,6.5,0,0,0,.09-.92l.07-2.28v-2.9l0-1.65a4.6,4.6,0,0,0-.1-1.17.3.3,0,0,0-.13-.13A5.36,5.36,0,0,0,71.05,216.76Z"/><path class="cls-2" d="M83.48,227v-.65a7,7,0,0,0,.83-.08.61.61,0,0,0,.23-.11.88.88,0,0,0,.19-.23q.1-.16.59-1.19l.86-1.91,2.24-5,.76-1.77H90.4l3.84,8.16.53,1.07.34.72a.83.83,0,0,0,.16.2.52.52,0,0,0,.18.09,2.9,2.9,0,0,0,.5.05l.38,0V227L93.95,227l-3,.05v-.65a5.64,5.64,0,0,0,1.17-.1.23.23,0,0,0,.13-.22,1.86,1.86,0,0,0-.2-.64l-.74-1.71H86.87l-.38.93a5.52,5.52,0,0,0-.43,1.34.28.28,0,0,0,.14.27,4.05,4.05,0,0,0,1.23.14V227l-2-.05Zm3.79-4.23,1.83,0,1.77,0-1.84-4Z"/><path class="cls-2" d="M97.88,227v-.37l.24-.12a6,6,0,0,0,.59-.34q.1-1,.09-3.4v-1.28q0-1,0-3a7.51,7.51,0,0,0-.11-1.41.28.28,0,0,0-.07-.11.45.45,0,0,0-.21-.09l-1.08-.14v-.63l3.12.05,2.07,0,1.76,0a14,14,0,0,1,2.43.17,5.32,5.32,0,0,1,1.59.54,4.43,4.43,0,0,1,1.15.88,3.67,3.67,0,0,1,.71,1.09,5.62,5.62,0,0,1,.4,2.16,5.76,5.76,0,0,1-.6,2.66,5.65,5.65,0,0,1-1.65,2A6.89,6.89,0,0,1,106,226.7a11,11,0,0,1-3,.35l-2.55-.05Zm3.43-1a10.56,10.56,0,0,0,1.53.12,8.5,8.5,0,0,0,2-.22,3.87,3.87,0,0,0,1.14-.48,3.64,3.64,0,0,0,.94-.92,4.61,4.61,0,0,0,.7-1.45,6.37,6.37,0,0,0,.25-1.82,5.94,5.94,0,0,0-.25-1.72,3.72,3.72,0,0,0-.82-1.46,3.24,3.24,0,0,0-1.43-.91,9.14,9.14,0,0,0-2.63-.28,11.73,11.73,0,0,0-1.46.1q-.09,1.11-.09,4.18V223Q101.23,225.35,101.31,226.09Z"/><path class="cls-2" d="M117.7,216.12v.69a9.21,9.21,0,0,0-1,.06.62.62,0,0,0-.23.09.26.26,0,0,0-.1.13,1.69,1.69,0,0,0-.09.51q0,.2,0,.77,0,1.92,0,2.07v3.15l0,1.43a3.89,3.89,0,0,0,.09,1,.32.32,0,0,0,.12.17.69.69,0,0,0,.26.09,9,9,0,0,0,1,.05V227q-1.4-.05-3-.05-1.38,0-2.47.05v-.69q.89,0,1-.05a.54.54,0,0,0,.25-.09.24.24,0,0,0,.08-.12,6.94,6.94,0,0,0,.07-.73q.07-.94.07-1.73v-3.27q0-1.55,0-2a9,9,0,0,0-.1-1.24.33.33,0,0,0-.08-.16.45.45,0,0,0-.21-.09,9.87,9.87,0,0,0-1.09-.07v-.69q1.08.05,2.48.05Q116.3,216.17,117.7,216.12Z"/><path class="cls-2" d="M121.36,227v-.64a4.57,4.57,0,0,0,1.22-.12.5.5,0,0,0,.26-.31,11.65,11.65,0,0,0,.09-2v-4.68q0-1.91,0-2.14h-1.23q-.93,0-1.63.05a.8.8,0,0,0-.33.06.5.5,0,0,0-.1.27,7.09,7.09,0,0,0-.13,1.23h-.71q0-1.6,0-1.8t-.09-.74l.08-.08.86.05q.74,0,2.84,0h3.47q2.16,0,2.89,0l.8-.05.09.08a7.59,7.59,0,0,0-.09.84s0,.61,0,1.71h-.71a8.29,8.29,0,0,0-.11-1.16.72.72,0,0,0-.11-.34.64.64,0,0,0-.28-.05q-.7-.06-1.69-.06h-1.23q0,.27,0,2.14v4.68a11.72,11.72,0,0,0,.09,2,.47.47,0,0,0,.26.3,4.42,4.42,0,0,0,1.23.13V227q-1.66-.07-2.81-.07T121.36,227Z"/><path class="cls-2" d="M136.29,216.12v.69a9.21,9.21,0,0,0-1,.06.63.63,0,0,0-.23.09.26.26,0,0,0-.09.13,1.68,1.68,0,0,0-.09.51c0,.14,0,.39,0,.77q0,1.92,0,2.07v3.15l0,1.43a3.85,3.85,0,0,0,.09,1,.31.31,0,0,0,.12.17.69.69,0,0,0,.26.09,9,9,0,0,0,1,.05V227q-1.4-.05-3-.05-1.38,0-2.47.05v-.69q.89,0,1-.05a.54.54,0,0,0,.25-.09.24.24,0,0,0,.08-.12,7.08,7.08,0,0,0,.07-.73q.07-.94.07-1.73v-3.27q0-1.55,0-2a9,9,0,0,0-.1-1.24.32.32,0,0,0-.08-.16.45.45,0,0,0-.21-.09,9.87,9.87,0,0,0-1.09-.07v-.69q1.08.05,2.48.05Q134.89,216.17,136.29,216.12Z"/><path class="cls-2" d="M137.78,221.71a6,6,0,0,1,.48-2.49,5,5,0,0,1,1.36-1.8,5.6,5.6,0,0,1,1.92-1.07,9.73,9.73,0,0,1,2.9-.41,9.46,9.46,0,0,1,2.84.4,5.28,5.28,0,0,1,1.67.88,4.43,4.43,0,0,1,1.68,2.5,6.1,6.1,0,0,1,.19,1.59,6.65,6.65,0,0,1-.56,2.73,4.94,4.94,0,0,1-1.21,1.66,5.7,5.7,0,0,1-1.81,1.12,9,9,0,0,1-3.18.52,7.91,7.91,0,0,1-3.32-.64,5,5,0,0,1-2.18-1.88A5.65,5.65,0,0,1,137.78,221.71Zm2.65-.47a7.22,7.22,0,0,0,.55,3,3.59,3.59,0,0,0,1.41,1.68,4,4,0,0,0,2,.49,4,4,0,0,0,1.94-.47,3.16,3.16,0,0,0,1.34-1.59,6.79,6.79,0,0,0,.49-2.71,7.18,7.18,0,0,0-.26-2,4.59,4.59,0,0,0-.75-1.54,3.37,3.37,0,0,0-1.16-1,4,4,0,0,0-1.77-.34,4,4,0,0,0-2.14.54,3.06,3.06,0,0,0-1.28,1.58A6.44,6.44,0,0,0,140.42,221.25Z"/><path class="cls-2" d="M152.19,226.38a10.32,10.32,0,0,0,1.16-.09.37.37,0,0,0,.16-.1.65.65,0,0,0,.11-.29q.05-.3.12-1.44,0-.65,0-1.69v-2.51l0-2.27a4.24,4.24,0,0,0-.05-.74.56.56,0,0,0-.12-.25.58.58,0,0,0-.27-.13,9.12,9.12,0,0,0-1.09-.1v-.66q1.09.05,1.61.05l1.25,0,.79,0q1.77,2.1,4.29,4.84,1.81,2,3,3.09v-1.8q0-4.2-.1-4.95a.53.53,0,0,0-.16-.37,3.48,3.48,0,0,0-1.34-.16v-.66q1,.05,1.92.05t2.19-.05v.66a3.74,3.74,0,0,0-1.25.14.21.21,0,0,0-.09.12,8.15,8.15,0,0,0-.17,1.79q0,1.39,0,2.06,0,5.2.11,6.3l-.11.07-1.47-.2q-2.78-2.82-7.87-8.47v3.89q0,1.21.06,2.52a5.46,5.46,0,0,0,.1,1.1.32.32,0,0,0,.12.15.65.65,0,0,0,.29.08,8.12,8.12,0,0,0,.82.06h.17V227l-1.86,0q-.84,0-2.27.05Z"/><path class="cls-2" d="M166.59,227v-.65a7,7,0,0,0,.83-.08.61.61,0,0,0,.23-.11.89.89,0,0,0,.19-.23q.1-.16.59-1.19l.86-1.91,2.24-5,.76-1.77h1.22l3.84,8.16.53,1.07.34.72a.83.83,0,0,0,.16.2.52.52,0,0,0,.18.09,2.9,2.9,0,0,0,.5.05l.38,0V227l-2.39-.05-3,.05v-.65a5.64,5.64,0,0,0,1.17-.1.23.23,0,0,0,.13-.22,1.86,1.86,0,0,0-.2-.64l-.74-1.71H170l-.38.93a5.52,5.52,0,0,0-.43,1.34.28.28,0,0,0,.14.27,4.06,4.06,0,0,0,1.23.14V227l-2-.05Zm3.79-4.23,1.83,0,1.77,0-1.84-4Z"/><path class="cls-2" d="M181,227v-.4a6,6,0,0,0,.63-.3.81.81,0,0,0,.23-.16.18.18,0,0,0,0-.09,13.22,13.22,0,0,0,.08-1.39q0-1.2,0-2.88,0-2.47,0-3a9.57,9.57,0,0,0-.11-1.68.25.25,0,0,0-.13-.14,4.25,4.25,0,0,0-1.32-.16v-.69q1.09.05,2.49.05,1.56,0,3-.05v.69a4.32,4.32,0,0,0-1.19.14.28.28,0,0,0-.14.15,5.72,5.72,0,0,0-.08,1q0,.86,0,2.17,0,.14,0,2.26,0,1.12,0,2.21t0,1.33l1.62.05a16.11,16.11,0,0,0,2.28-.14,1.15,1.15,0,0,0,.42-.1.68.68,0,0,0,.15-.29q.17-.59.34-1.36H190c0,.15,0,.23,0,.26l-.21,1.58q-.07.74-.08.89a3.28,3.28,0,0,1-.5.09q-.52,0-1.62,0l-2,0-2,0Q182.75,227,181,227Z"/><path class="cls-2" d="M207,225.63l-.39.79a9.22,9.22,0,0,1-1.93.71,10,10,0,0,1-2.14.19,9.18,9.18,0,0,1-3.22-.52,5.84,5.84,0,0,1-1.86-1.12,5.26,5.26,0,0,1-1.18-1.51,5.77,5.77,0,0,1-.63-2.66,5,5,0,0,1,1.85-4,7.89,7.89,0,0,1,5.23-1.56,12.54,12.54,0,0,1,2.08.16,15.3,15.3,0,0,1,2.14.55l0,.1a4.41,4.41,0,0,0-.21.92q-.13.88-.16,1.63h-.67a12.87,12.87,0,0,0-.09-1.37,3.81,3.81,0,0,0-1.29-.82,5.29,5.29,0,0,0-1.83-.27,4.48,4.48,0,0,0-3.23,1.16,4.27,4.27,0,0,0-1.21,3.24,5.46,5.46,0,0,0,.41,2.2,4.46,4.46,0,0,0,1.09,1.55,4.75,4.75,0,0,0,1.37.89,6.11,6.11,0,0,0,2.27.38,7.37,7.37,0,0,0,1.66-.18,8.35,8.35,0,0,0,1.7-.62Z"/><path class="cls-2" d="M208.11,216.76v-.64l1.37,0,1.63,0q.9,0,1.55,0,1.07,0,1.76,0a8.57,8.57,0,0,1,2,.18,2.22,2.22,0,0,1,1.14.73,2,2,0,0,1,.47,1.35,2.62,2.62,0,0,1-.64,1.72,4.3,4.3,0,0,1-2,1.23q.22.35.49.71l.32.44.1.15,1.33,1.81.58.78q.64.78.79.91a.92.92,0,0,0,.28.19,1.88,1.88,0,0,0,.54.06V227L218,227q-.69,0-1.37,0a1.8,1.8,0,0,0-.21-.45l-1.84-2.76q-.79-1.19-1.34-1.87a2.45,2.45,0,0,0-.53-.52l.09-.26a3.85,3.85,0,0,0,1.56-.19,2,2,0,0,0,.88-.8,2.37,2.37,0,0,0,.36-1.29,1.87,1.87,0,0,0-.38-1.2,2,2,0,0,0-.94-.66,4.79,4.79,0,0,0-1.29-.12,5.28,5.28,0,0,0-.82.06q0,.28-.05,1.27-.05,2.21-.05,3,0,1.17,0,2.49,0,1.61.05,1.83a1.72,1.72,0,0,0,.09.57.33.33,0,0,0,.11.11.69.69,0,0,0,.25.08,9.82,9.82,0,0,0,1,0V227q-1.47-.05-3-.05-1.34,0-2.48.05v-.69a7.27,7.27,0,0,0,1.16-.09.27.27,0,0,0,.15-.08.45.45,0,0,0,.07-.22,6.5,6.5,0,0,0,.09-.92l.07-2.28v-2.9l0-1.65a4.6,4.6,0,0,0-.1-1.17.3.3,0,0,0-.13-.13A5.36,5.36,0,0,0,208.11,216.76Z"/><path class="cls-2" d="M220.54,227v-.65a7,7,0,0,0,.83-.08.62.62,0,0,0,.23-.11.92.92,0,0,0,.19-.23q.1-.16.59-1.19l.86-1.91,2.24-5,.76-1.77h1.22l3.84,8.16.53,1.07.34.72a.79.79,0,0,0,.16.2.53.53,0,0,0,.18.09,2.91,2.91,0,0,0,.5.05l.38,0V227L231,227l-3,.05v-.65a5.65,5.65,0,0,0,1.17-.1.23.23,0,0,0,.13-.22,1.85,1.85,0,0,0-.2-.64l-.74-1.71h-4.43l-.38.93a5.55,5.55,0,0,0-.43,1.34.28.28,0,0,0,.14.27,4.06,4.06,0,0,0,1.23.14V227l-2-.05Zm3.79-4.23,1.83,0,1.77,0-1.84-4Z"/><path class="cls-2" d="M242.21,223.25h-.76a3.38,3.38,0,0,0-.15-1.18.45.45,0,0,0-.31-.15,14.11,14.11,0,0,0-2-.1h-.69v.87q0,1.85,0,2.6a2.62,2.62,0,0,0,.13.87.41.41,0,0,0,.21.14,10.86,10.86,0,0,0,1.35.13V227l-3.37-.05q-.73,0-2.32.05v-.65a6.48,6.48,0,0,0,1.15-.07.26.26,0,0,0,.13-.09.91.91,0,0,0,.12-.41c0-.12,0-.5.07-1.13s0-1.09,0-1.36v-3.23q0-.11-.08-2.19a3.59,3.59,0,0,0-.09-.85.25.25,0,0,0-.08-.13.7.7,0,0,0-.24-.08,10,10,0,0,0-1-.09v-.66l3.05.05,4.14-.07q.87,0,1.64.08l.08.11a10.7,10.7,0,0,0-.16,1.13q-.07.69-.08,1.2h-.7q0-.19,0-.84a1.51,1.51,0,0,0-.05-.41.15.15,0,0,0-.08-.08,2.47,2.47,0,0,0-.72-.18,8.64,8.64,0,0,0-1.32-.09l-.81,0-.91,0a27.63,27.63,0,0,0-.09,2.8V221l1.48.05a6.16,6.16,0,0,0,1.41-.09.25.25,0,0,0,.16-.18,3.32,3.32,0,0,0,.09-.89h.76Z"/><path class="cls-2" d="M246.7,227v-.64a4.57,4.57,0,0,0,1.22-.12.5.5,0,0,0,.26-.31,11.66,11.66,0,0,0,.09-2v-4.68q0-1.91,0-2.14H247q-.93,0-1.63.05a.8.8,0,0,0-.33.06.5.5,0,0,0-.1.27,7.09,7.09,0,0,0-.13,1.23h-.71q0-1.6,0-1.8t-.09-.74l.08-.08.86.05q.74,0,2.84,0h3.47q2.16,0,2.89,0l.8-.05.09.08a7.59,7.59,0,0,0-.09.84s0,.61,0,1.71h-.71a8.29,8.29,0,0,0-.11-1.16.73.73,0,0,0-.11-.34.64.64,0,0,0-.28-.05q-.7-.06-1.69-.06h-1.23q0,.27,0,2.14v4.68a11.71,11.71,0,0,0,.09,2,.47.47,0,0,0,.26.3,4.42,4.42,0,0,0,1.23.13V227q-1.66-.07-2.81-.07T246.7,227Z"/><path class="cls-2" d="M264.2,219h-.72a9,9,0,0,0-.09-1.28,2.17,2.17,0,0,0-.92-.61,3.89,3.89,0,0,0-1.47-.27,2.74,2.74,0,0,0-1.81.54,1.6,1.6,0,0,0-.64,1.26,1.77,1.77,0,0,0,.19.84,1.32,1.32,0,0,0,.52.51,4,4,0,0,0,1,.34l1.39.23,1.15.2a4.66,4.66,0,0,1,1.12.39,2.29,2.29,0,0,1,.68.53,2.44,2.44,0,0,1,.42.76,3,3,0,0,1,.16,1,3.35,3.35,0,0,1-.45,1.76,3.85,3.85,0,0,1-1,1,4.65,4.65,0,0,1-1.25.71,7.26,7.26,0,0,1-2.47.38,8.88,8.88,0,0,1-1.88-.18,9.55,9.55,0,0,1-1.81-.62,10.4,10.4,0,0,0,.27-2.71h.72a9,9,0,0,0,.09,1.4,2.65,2.65,0,0,0,1.12.85,4,4,0,0,0,1.73.37,3.8,3.8,0,0,0,1.46-.26,1.89,1.89,0,0,0,.93-.72,2,2,0,0,0,.29-1,1.67,1.67,0,0,0-.2-.85,1.43,1.43,0,0,0-.63-.56,7.22,7.22,0,0,0-1.51-.44q-1.56-.3-2-.43a3.05,3.05,0,0,1-1.19-.59,2.41,2.41,0,0,1-.67-.93,3.05,3.05,0,0,1-.22-1.17,3.31,3.31,0,0,1,.4-1.61,3,3,0,0,1,1.07-1.14,4.68,4.68,0,0,1,1.5-.58,8.27,8.27,0,0,1,1.71-.18,10.44,10.44,0,0,1,1.77.15,6.26,6.26,0,0,1,1.48.43l.07.19a8.32,8.32,0,0,0-.18,1Q264.22,218.18,264.2,219Z"/><path class="cls-2" d="M273.59,227v-.64a4.57,4.57,0,0,0,1.22-.12.5.5,0,0,0,.26-.31,11.65,11.65,0,0,0,.09-2v-4.68q0-1.91,0-2.14h-1.23q-.93,0-1.63.05a.8.8,0,0,0-.33.06.5.5,0,0,0-.1.27,7.09,7.09,0,0,0-.13,1.23H271q0-1.6,0-1.8t-.09-.74l.08-.08.86.05q.74,0,2.84,0h3.47q2.16,0,2.89,0l.8-.05.09.08a7.59,7.59,0,0,0-.09.84s0,.61,0,1.71h-.71a8.31,8.31,0,0,0-.11-1.16.72.72,0,0,0-.11-.34.64.64,0,0,0-.28-.05q-.7-.06-1.69-.06h-1.23q0,.27,0,2.14v4.68a11.72,11.72,0,0,0,.09,2,.47.47,0,0,0,.26.3,4.42,4.42,0,0,0,1.23.13V227q-1.66-.07-2.81-.07T273.59,227Z"/><path class="cls-2" d="M283.16,221.71a6,6,0,0,1,.48-2.49,5,5,0,0,1,1.36-1.8,5.61,5.61,0,0,1,1.93-1.07,9.73,9.73,0,0,1,2.9-.41,9.46,9.46,0,0,1,2.84.4,5.29,5.29,0,0,1,1.67.88,4.45,4.45,0,0,1,1.68,2.5,6.1,6.1,0,0,1,.19,1.59,6.65,6.65,0,0,1-.56,2.73,4.93,4.93,0,0,1-1.21,1.66,5.7,5.7,0,0,1-1.81,1.12,9,9,0,0,1-3.18.52,7.91,7.91,0,0,1-3.32-.64,5,5,0,0,1-2.18-1.88A5.65,5.65,0,0,1,283.16,221.71Zm2.65-.47a7.2,7.2,0,0,0,.55,3,3.57,3.57,0,0,0,1.41,1.68,4,4,0,0,0,2,.49,4,4,0,0,0,1.94-.47,3.16,3.16,0,0,0,1.34-1.59,6.81,6.81,0,0,0,.49-2.71,7.18,7.18,0,0,0-.26-2,4.61,4.61,0,0,0-.75-1.54,3.37,3.37,0,0,0-1.16-1,4,4,0,0,0-1.77-.34,4,4,0,0,0-2.14.54,3.06,3.06,0,0,0-1.28,1.58A6.44,6.44,0,0,0,285.8,221.25Z"/><path class="cls-2" d="M301.91,227v-.66a7,7,0,0,0,1.15-.12.32.32,0,0,0,.16-.11.63.63,0,0,0,.1-.3q.06-.45.1-1.95,0-.73,0-2.5,0-1.59,0-2.81a7,7,0,0,0-.11-1.46.33.33,0,0,0-.11-.17.62.62,0,0,0-.28-.09,9,9,0,0,0-1-.1v-.66q1.77.05,2.44.05.88,0,1.78-.05l.76,1.55.6,1.17,2.73,5.13q.88-1.54,1.31-2.39l1.13-2.16,1.16-2.23q.21-.42.48-1.06l1.45.05,2.57-.05v.66h-.12a2,2,0,0,0-1.11.18.92.92,0,0,0-.24.74q0,.65,0,1l0,2.2v2.74q0,1,0,1.17a11.37,11.37,0,0,0,.12,1.22.35.35,0,0,0,.09.18.46.46,0,0,0,.2.1,10.33,10.33,0,0,0,1.09.09V227l-2.75-.05-2.69.05v-.66a4.76,4.76,0,0,0,1.22-.11.53.53,0,0,0,.21-.37,15.06,15.06,0,0,0,.06-1.94v-5.69l-2,3.66-1,1.82q-.38.72-1.07,2.09-.42.83-.66,1.34h-.58q-.31-.66-.89-1.8-1-2-1.51-2.91l-2.26-4.2v3.84q0,1,0,2.29t.06,1.5a.53.53,0,0,0,.11.25.58.58,0,0,0,.26.13,6.91,6.91,0,0,0,1.05.1V227q-1-.05-2-.05Q302.68,227,301.91,227Z"/><path class="cls-2" d="M319.82,221.71a6,6,0,0,1,.48-2.49,5,5,0,0,1,1.36-1.8,5.59,5.59,0,0,1,1.92-1.07,9.73,9.73,0,0,1,2.9-.41,9.46,9.46,0,0,1,2.84.4,5.27,5.27,0,0,1,1.67.88,4.44,4.44,0,0,1,1.68,2.5,6.1,6.1,0,0,1,.19,1.59,6.65,6.65,0,0,1-.56,2.73,4.94,4.94,0,0,1-1.21,1.66,5.7,5.7,0,0,1-1.81,1.12,9,9,0,0,1-3.18.52,7.91,7.91,0,0,1-3.32-.64,5,5,0,0,1-2.18-1.88A5.65,5.65,0,0,1,319.82,221.71Zm2.65-.47a7.22,7.22,0,0,0,.55,3,3.58,3.58,0,0,0,1.41,1.68,4,4,0,0,0,2,.49,4,4,0,0,0,1.94-.47,3.16,3.16,0,0,0,1.34-1.59,6.79,6.79,0,0,0,.49-2.71,7.18,7.18,0,0,0-.26-2,4.59,4.59,0,0,0-.75-1.54,3.37,3.37,0,0,0-1.16-1,4,4,0,0,0-1.77-.34,4,4,0,0,0-2.14.54,3.06,3.06,0,0,0-1.28,1.58A6.44,6.44,0,0,0,322.46,221.25Z"/><path class="cls-2" d="M334.68,227v-.37l.24-.12a6,6,0,0,0,.59-.34q.1-1,.09-3.4v-1.28q0-1,0-3a7.53,7.53,0,0,0-.11-1.41.28.28,0,0,0-.07-.11.45.45,0,0,0-.21-.09l-1.08-.14v-.63l3.12.05,2.07,0,1.76,0a14,14,0,0,1,2.43.17,5.32,5.32,0,0,1,1.59.54,4.43,4.43,0,0,1,1.15.88,3.67,3.67,0,0,1,.71,1.09,5.62,5.62,0,0,1,.4,2.16,5.76,5.76,0,0,1-.6,2.66,5.65,5.65,0,0,1-1.65,2,6.89,6.89,0,0,1-2.28,1.14,11,11,0,0,1-3,.35l-2.55-.05Zm3.43-1a10.56,10.56,0,0,0,1.53.12,8.5,8.5,0,0,0,2-.22,3.87,3.87,0,0,0,1.14-.48,3.64,3.64,0,0,0,.94-.92,4.61,4.61,0,0,0,.7-1.45,6.37,6.37,0,0,0,.25-1.82,5.94,5.94,0,0,0-.25-1.72,3.72,3.72,0,0,0-.82-1.46,3.24,3.24,0,0,0-1.43-.91,9.14,9.14,0,0,0-2.63-.28,11.73,11.73,0,0,0-1.46.1q-.09,1.11-.09,4.18V223Q338,225.35,338.11,226.09Z"/><path class="cls-2" d="M349.27,227v-.42a4.39,4.39,0,0,0,.84-.45c0-.22.06-.57.09-1.06q.07-1.34.07-2v-3.52q0-.2,0-1.52a3.73,3.73,0,0,0-.12-1.08.28.28,0,0,0-.13-.12,5.27,5.27,0,0,0-1.24-.14v-.6h3.13l2.62,0,1.74,0,1.25,0,.28,0,.06.1-.16,1.13-.09,1.13h-.67a6.34,6.34,0,0,0-.08-1.13.28.28,0,0,0-.1-.16,2.21,2.21,0,0,0-.69-.12,16.41,16.41,0,0,0-1.66-.09q-.76,0-1.56.05a17.23,17.23,0,0,0-.12,2.26V221q.58,0,1.22,0l1.42,0a1.71,1.71,0,0,0,.54-.05.3.3,0,0,0,.13-.16,3.65,3.65,0,0,0,.12-1h.7l0,1.72,0,1.71h-.7a2.58,2.58,0,0,0-.13-1.12.51.51,0,0,0-.37-.2,11.14,11.14,0,0,0-1.54-.09q-.84,0-1.39.05v3.28q0,.55,0,.94.69.05,1.65.05t1.71-.05a3.06,3.06,0,0,0,1-.16.29.29,0,0,0,.11-.14,7.52,7.52,0,0,0,.33-1.42h.71a21.8,21.8,0,0,0-.19,2.55l-.11.1q-.55.05-1.56.05L355,227l-2.82,0Z"/><path class="cls-2" d="M359.66,216.76v-.64l1.37,0,1.63,0q.9,0,1.55,0,1.07,0,1.76,0a8.58,8.58,0,0,1,2,.18,2.22,2.22,0,0,1,1.14.73,2,2,0,0,1,.47,1.35,2.62,2.62,0,0,1-.64,1.72,4.3,4.3,0,0,1-2,1.23q.22.35.49.71l.32.44.1.15,1.33,1.81.58.78q.64.78.79.91a.92.92,0,0,0,.28.19,1.87,1.87,0,0,0,.54.06V227l-1.92,0q-.69,0-1.37,0a1.8,1.8,0,0,0-.21-.45l-1.84-2.76q-.79-1.19-1.34-1.87a2.45,2.45,0,0,0-.53-.52l.09-.26a3.85,3.85,0,0,0,1.56-.19,2,2,0,0,0,.88-.8,2.37,2.37,0,0,0,.36-1.29,1.87,1.87,0,0,0-.38-1.2,2,2,0,0,0-.94-.66,4.79,4.79,0,0,0-1.29-.12,5.28,5.28,0,0,0-.82.06q0,.28-.05,1.27-.05,2.21-.05,3,0,1.17,0,2.49,0,1.61.05,1.83a1.72,1.72,0,0,0,.09.57.33.33,0,0,0,.11.11.69.69,0,0,0,.25.08,9.82,9.82,0,0,0,1,0V227q-1.47-.05-3-.05-1.34,0-2.48.05v-.69a7.27,7.27,0,0,0,1.16-.09.27.27,0,0,0,.15-.08A.45.45,0,0,0,361,226a6.5,6.5,0,0,0,.09-.92l.07-2.28v-2.9l0-1.65a4.6,4.6,0,0,0-.1-1.17.3.3,0,0,0-.13-.13A5.36,5.36,0,0,0,359.66,216.76Z"/><path class="cls-2" d="M372.35,226.38a10.27,10.27,0,0,0,1.16-.09.36.36,0,0,0,.16-.1.64.64,0,0,0,.11-.29q.05-.3.12-1.44,0-.65,0-1.69v-2.51l0-2.27a4.21,4.21,0,0,0-.05-.74.54.54,0,0,0-.12-.25.57.57,0,0,0-.27-.13,9.14,9.14,0,0,0-1.09-.1v-.66q1.09.05,1.61.05l1.25,0,.79,0q1.77,2.1,4.29,4.84,1.81,2,3,3.09v-1.8q0-4.2-.1-4.95a.53.53,0,0,0-.15-.37,3.49,3.49,0,0,0-1.34-.16v-.66q1,.05,1.92.05t2.19-.05v.66a3.74,3.74,0,0,0-1.25.14.21.21,0,0,0-.09.12,8.1,8.1,0,0,0-.17,1.79q0,1.39,0,2.06,0,5.2.11,6.3l-.11.07-1.47-.2q-2.78-2.82-7.87-8.47v3.89q0,1.21.06,2.52a5.5,5.5,0,0,0,.1,1.1.32.32,0,0,0,.12.15.64.64,0,0,0,.29.08,8.14,8.14,0,0,0,.82.06h.17V227l-1.86,0q-.84,0-2.27.05Z"/><path class="cls-2" d="M391.87,227v-.37l.24-.12a6,6,0,0,0,.6-.34q.09-1,.09-3.4v-1.28q0-1,0-3a7.57,7.57,0,0,0-.11-1.41.28.28,0,0,0-.07-.11.45.45,0,0,0-.21-.09l-1.08-.14v-.63l3.12.05,2.07,0,1.76,0a14,14,0,0,1,2.44.17,5.31,5.31,0,0,1,1.59.54,4.43,4.43,0,0,1,1.15.88,3.68,3.68,0,0,1,.71,1.09,5.64,5.64,0,0,1,.4,2.16,5.74,5.74,0,0,1-.6,2.66,5.63,5.63,0,0,1-1.65,2A6.9,6.9,0,0,1,400,226.7a11,11,0,0,1-3,.35l-2.55-.05Zm3.43-1a10.54,10.54,0,0,0,1.53.12,8.52,8.52,0,0,0,2-.22,3.86,3.86,0,0,0,1.14-.48,3.63,3.63,0,0,0,.94-.92,4.61,4.61,0,0,0,.7-1.45,6.4,6.4,0,0,0,.25-1.82,6,6,0,0,0-.25-1.72,3.73,3.73,0,0,0-.82-1.46,3.24,3.24,0,0,0-1.44-.91,9.13,9.13,0,0,0-2.63-.28,11.71,11.71,0,0,0-1.46.1q-.09,1.11-.09,4.18V223Q395.21,225.35,395.3,226.09Z"/><path class="cls-2" d="M406.45,227v-.42a4.39,4.39,0,0,0,.84-.45c0-.22.06-.57.09-1.06q.07-1.34.07-2v-3.52q0-.2,0-1.52a3.73,3.73,0,0,0-.12-1.08.28.28,0,0,0-.13-.12,5.28,5.28,0,0,0-1.24-.14v-.6h3.13l2.62,0,1.74,0,1.25,0,.28,0,.06.1-.16,1.13-.09,1.13h-.67a6.34,6.34,0,0,0-.08-1.13.28.28,0,0,0-.1-.16,2.21,2.21,0,0,0-.69-.12,16.41,16.41,0,0,0-1.66-.09q-.76,0-1.56.05a17.23,17.23,0,0,0-.12,2.26V221q.58,0,1.22,0l1.42,0a1.71,1.71,0,0,0,.54-.05.3.3,0,0,0,.13-.16,3.66,3.66,0,0,0,.12-1h.7l0,1.72,0,1.71h-.7a2.58,2.58,0,0,0-.13-1.12.51.51,0,0,0-.37-.2,11.14,11.14,0,0,0-1.54-.09q-.84,0-1.39.05v3.28q0,.55,0,.94.69.05,1.65.05t1.71-.05a3.06,3.06,0,0,0,1-.16.29.29,0,0,0,.11-.14,7.52,7.52,0,0,0,.33-1.42h.71a21.8,21.8,0,0,0-.19,2.55l-.11.1q-.55.05-1.56.05l-1.38,0-2.82,0Z"/><path class="cls-2" d="M425,219h-.72a9.11,9.11,0,0,0-.09-1.28,2.18,2.18,0,0,0-.92-.61,3.9,3.9,0,0,0-1.47-.27,2.73,2.73,0,0,0-1.81.54,1.6,1.6,0,0,0-.64,1.26,1.77,1.77,0,0,0,.19.84,1.32,1.32,0,0,0,.51.51,4,4,0,0,0,1,.34l1.39.23,1.15.2a4.63,4.63,0,0,1,1.12.39,2.29,2.29,0,0,1,.68.53,2.42,2.42,0,0,1,.42.76,3,3,0,0,1,.16,1,3.34,3.34,0,0,1-.46,1.76,3.83,3.83,0,0,1-1,1,4.63,4.63,0,0,1-1.25.71,7.26,7.26,0,0,1-2.47.38,8.86,8.86,0,0,1-1.88-.18,9.58,9.58,0,0,1-1.81-.62,10.35,10.35,0,0,0,.28-2.71h.72a8.78,8.78,0,0,0,.09,1.4,2.66,2.66,0,0,0,1.12.85,4,4,0,0,0,1.73.37,3.8,3.8,0,0,0,1.46-.26,1.89,1.89,0,0,0,.93-.72,1.94,1.94,0,0,0,.29-1,1.67,1.67,0,0,0-.2-.85,1.43,1.43,0,0,0-.63-.56,7.26,7.26,0,0,0-1.51-.44q-1.56-.3-2-.43a3.06,3.06,0,0,1-1.19-.59,2.39,2.39,0,0,1-.67-.93,3,3,0,0,1-.22-1.17,3.31,3.31,0,0,1,.4-1.61,3,3,0,0,1,1.07-1.14,4.69,4.69,0,0,1,1.5-.58,8.27,8.27,0,0,1,1.71-.18,10.46,10.46,0,0,1,1.77.15,6.29,6.29,0,0,1,1.48.43l.07.19a8.49,8.49,0,0,0-.18,1C425,218,425,218.44,425,219Z"/><path class="cls-2" d="M433.18,216.12v.69a9.21,9.21,0,0,0-1,.06.63.63,0,0,0-.23.09.26.26,0,0,0-.09.13,1.68,1.68,0,0,0-.09.51c0,.14,0,.39,0,.77q0,1.92,0,2.07v3.15l0,1.43a3.85,3.85,0,0,0,.09,1,.31.31,0,0,0,.12.17.69.69,0,0,0,.26.09,9,9,0,0,0,1,.05V227q-1.4-.05-3-.05-1.38,0-2.47.05v-.69q.89,0,1-.05a.54.54,0,0,0,.25-.09.24.24,0,0,0,.08-.12,7.08,7.08,0,0,0,.07-.73q.07-.94.07-1.73v-3.27q0-1.55,0-2a9,9,0,0,0-.1-1.24A.32.32,0,0,0,429,217a.45.45,0,0,0-.21-.09,9.87,9.87,0,0,0-1.09-.07v-.69q1.08.05,2.48.05Q431.78,216.17,433.18,216.12Z"/><path class="cls-2" d="M446.33,219.28h-.69q0-.25,0-.74a3.62,3.62,0,0,0-.09-.59,2.06,2.06,0,0,0-.46-.38,4.8,4.8,0,0,0-1.29-.54,6.4,6.4,0,0,0-1.65-.2,4.82,4.82,0,0,0-3.44,1.21,4.34,4.34,0,0,0-1.29,3.33,5,5,0,0,0,1.36,3.68,4.53,4.53,0,0,0,3.33,1.36,5.65,5.65,0,0,0,1.12-.11,6.09,6.09,0,0,0,1.07-.32q0-.21,0-.81t0-.73a3.09,3.09,0,0,0-.07-.89.33.33,0,0,0-.23-.13,12,12,0,0,0-1.63-.15v-.63l2.57,0,2.58,0v.52a1.26,1.26,0,0,0-.65.26.77.77,0,0,0-.09.43q0,.9,0,1.29a9.88,9.88,0,0,0,.08,1.22,21.05,21.05,0,0,1-2.79.75,13.14,13.14,0,0,1-2.38.22,9.17,9.17,0,0,1-3.42-.59,6,6,0,0,1-1.78-1.09,4.89,4.89,0,0,1-1.13-1.43,5.7,5.7,0,0,1-.61-2.64,5.31,5.31,0,0,1,.4-2.14,4.91,4.91,0,0,1,1.11-1.6,6,6,0,0,1,1.62-1.11,7.75,7.75,0,0,1,1.9-.61,12,12,0,0,1,2.18-.18,14.43,14.43,0,0,1,2.72.24,10.77,10.77,0,0,1,2,.53l.07.15A14.7,14.7,0,0,0,446.33,219.28Z"/><path class="cls-2" d="M449.08,226.38a10.27,10.27,0,0,0,1.16-.09.36.36,0,0,0,.16-.1.64.64,0,0,0,.11-.29q.05-.3.12-1.44,0-.65,0-1.69v-2.51l0-2.27a4.21,4.21,0,0,0-.05-.74.54.54,0,0,0-.12-.25.57.57,0,0,0-.27-.13,9.14,9.14,0,0,0-1.09-.1v-.66q1.09.05,1.61.05l1.25,0,.79,0q1.77,2.1,4.29,4.84,1.81,2,3,3.09v-1.8q0-4.2-.1-4.95a.53.53,0,0,0-.15-.37,3.49,3.49,0,0,0-1.34-.16v-.66q1,.05,1.92.05t2.19-.05v.66a3.74,3.74,0,0,0-1.25.14.21.21,0,0,0-.09.12,8.1,8.1,0,0,0-.17,1.79q0,1.39,0,2.06,0,5.2.11,6.3l-.11.07-1.47-.2q-2.78-2.82-7.87-8.47v3.89q0,1.21.06,2.52a5.5,5.5,0,0,0,.1,1.1.32.32,0,0,0,.12.15.64.64,0,0,0,.29.08,8.14,8.14,0,0,0,.82.06h.17V227l-1.86,0q-.84,0-2.27.05Z"/><path class="cls-2" d="M178.84,87.6a94.74,94.74,0,0,0,9.29-2.09V69.67h-3.67a63.83,63.83,0,0,1-6,14.26A189.79,189.79,0,0,0,181,56.42l7.13,2.45V51.31l7.7,1.66a2.89,2.89,0,0,1-1.8,2.59v13h5.4l-.65,1.15H194v14c2-.65,4.1-1.44,6.41-2.3A69.15,69.15,0,0,1,194,87.89l.07,26.28c-1.44,1.8-4.46,2.23-6,2V92.71c-1.66,1.15-3.31,2.23-4.9,3.17a3.73,3.73,0,0,1-1.22,3Zm6-19.08h3.31V59.44a1.83,1.83,0,0,1-1.51,1.37C186.11,63.4,185.54,66,184.82,68.52Zm31.4,38.81c2,.22,3.46-.79,4-4.25.58-4.75.94-26.93,1-37.08H219.6c-1.73,26.07-7.13,37.44-22.39,47.31C209.95,96.82,212.68,82.13,214,66h-1.51c-1.94,15-6.19,26.71-17.21,35.35A101.44,101.44,0,0,0,206.49,66h-.22a52.66,52.66,0,0,1-10.23,15.48c2.23-6.34,6.62-19.95,6.77-30.53l9.29,3.24a2.81,2.81,0,0,1-2.45,2.23,72.32,72.32,0,0,1-2.88,8.43h14.4l6.62-2.3c-.22,12.31-.36,34.92-1,41.84-.86,7.34-5,10.73-11.52,11.88-.58-4.61-1.37-7-8.35-9.51Z"/><path class="cls-2" d="M232.91,76.51h5.47l5.69-2.38.07,26.21,7.49-3.74-11.31,14.76a3,3,0,0,1-.94,2.52l-4-9.14,2.52-1.22V77.59h-4.61Zm3.46-23.91c2.81.22,9.43,2.52,10.22,7.56.94,5.26-3.38,7.42-5.76,6.55A147.54,147.54,0,0,0,236.37,52.6Zm12.46,3.31h32.83L281,57H265.17l-1.8,11.59h7.06v-.07l6.55-2.3V83.78h6.26l-.65,1.15H247.39l-.5-1.15h8.06l2.16-14.11h-5.33l-.58-1.08h6.12L259.12,57H249.4Zm30.6,59A13.81,13.81,0,0,1,273,113.3v-2.16H258.19v3.38a12.2,12.2,0,0,1-6.19,1.73V91a13.14,13.14,0,0,1,6.19,2.38v.07H273l6.41-2.52Zm-21.24-4.82H273V94.51H258.19Zm2.88-26.28h9.36V69.67h-7.2Z"/><path class="cls-2" d="M91,187.7v-2.92a26.31,26.31,0,0,0,3.39-.37,2.45,2.45,0,0,0,.93-.49,4,4,0,0,0,.79-1.05q.4-.72,2.41-5.36.91-2.18,3.52-8.61l9.18-22.64,3.09-8h5L135.05,175l2.18,4.82,1.41,3.23a3.52,3.52,0,0,0,.67.91,2.13,2.13,0,0,0,.72.42,10.68,10.68,0,0,0,2.06.25l1.55.18v2.92l-9.77-.25-12.34.25v-2.92a20.46,20.46,0,0,0,4.8-.47,1,1,0,0,0,.54-1,9,9,0,0,0-.81-2.87l-3-7.71H104.91l-1.54,4.21a26.74,26.74,0,0,0-1.75,6,1.29,1.29,0,0,0,.56,1.19q.84.49,5,.63v2.92l-8.11-.25Zm15.5-19q3.31.11,7.5.11t7.26-.11l-7.52-18.17Z"/><path class="cls-2" d="M167.68,185v2.74q-4-.18-8.86-.18-5.45,0-11.32.18V185a12.62,12.62,0,0,0,3.8-.39,1.34,1.34,0,0,0,.74-.6,6.38,6.38,0,0,0,.39-2.52l.14-3.12q0-1,0-3.19v-4.59q0-3.12-.18-7.57a9,9,0,0,0-.3-2.54,1.13,1.13,0,0,0-.62-.44,19.42,19.42,0,0,0-4-.35V156.9q6.43-1.09,8.44-1.62a28.76,28.76,0,0,0,4.56-1.69l1,.42-.07,7.1q2.27-2.36,3.49-3.9a15.71,15.71,0,0,1,2.73-2.78,5.86,5.86,0,0,1,3.32-.84,6.23,6.23,0,0,1,2.34.42l-.25,5q-.09,4.08-.14,4.68l-1.48.46a5.93,5.93,0,0,0-1.69-1.62,5.67,5.67,0,0,0-2.85-.74,5.29,5.29,0,0,0-3.57,1.28,4.92,4.92,0,0,0-1.78,2.62q-.14.77-.14,5.93v3.51l.07,4.77a20.31,20.31,0,0,0,.19,3.32,1.57,1.57,0,0,0,.72,1,6.22,6.22,0,0,0,2.43.49Z"/><path class="cls-2" d="M175,160.91v-1.58l3.16-2a17,17,0,0,0,1.48-1v-4.71q0-2.53-.28-6.26,3.41-1.12,4.43-1.51l4.46-2.07.91.7-.35,3.66-.25,4-.32,6.15h1.16a52.56,52.56,0,0,0,7.07-.35l-.6,4.75a4.74,4.74,0,0,1-.77.07l-3.45-.07h-3.41v11.74q0,5.41.11,6.4a3.74,3.74,0,0,0,1.18,2.58,4.35,4.35,0,0,0,3,.93,13.32,13.32,0,0,0,1.92-.05q.72-.09,1.85-.33l.56,1.42-1.27,1.27-2.71,2.79a11.3,11.3,0,0,1-2.45.79,12.4,12.4,0,0,1-2.2.19,9.3,9.3,0,0,1-6.43-2.09,6.72,6.72,0,0,1-2.34-5.23l.18-11.62V160.8h-.95Q176.71,160.8,175,160.91Z"/><path class="cls-2" d="M199.74,187.7v-2.6a17.6,17.6,0,0,0,4.5-.62,1.65,1.65,0,0,0,.7-1.25,79.88,79.88,0,0,0,.35-10q0-11-.32-12.53a1.4,1.4,0,0,0-.46-.92q-.7-.46-4.78-.49v-2.67a71.17,71.17,0,0,0,8-1.18,40.47,40.47,0,0,0,5.91-1.91l.84.46q-.42,5.48-.42,10.3v12a48.72,48.72,0,0,0,.28,7.24,1.15,1.15,0,0,0,.56.84,15.06,15.06,0,0,0,4.61.6v2.74q-5-.14-10.86-.14Q203.61,187.55,199.74,187.7Zm9.65-50.91a5.13,5.13,0,0,1,3.8,1.58,5.44,5.44,0,0,1,0,7.63,5.34,5.34,0,0,1-7.59,0,5.43,5.43,0,0,1,0-7.63A5.14,5.14,0,0,1,209.39,136.79Z"/><path class="cls-2" d="M223.82,187.7V185q4.15-.28,4.92-.77a1.78,1.78,0,0,0,.7-1.41q.24-1.83.32-11.46V160.84l-1,0L224,161v-1.72q4.67-2.43,4.85-2.57a1,1,0,0,0,.46-.84q0-1.65.16-4.1a16.81,16.81,0,0,1,.47-3.46,6.56,6.56,0,0,1,1-2,40.41,40.41,0,0,1,5.13-5l4.25-3.8a7.86,7.86,0,0,1,2.36-1.39,8.43,8.43,0,0,1,3-.51,12.1,12.1,0,0,1,3.69.63,41.86,41.86,0,0,0-.49,7l-1.41.63a6.67,6.67,0,0,0-2-1.35,6.26,6.26,0,0,0-2.32-.37A5.91,5.91,0,0,0,240,143a2.69,2.69,0,0,0-1.12,1.51,33.51,33.51,0,0,0-.42,7v4.88l4.15,0q3-.06,5.24-.21l.46.35a10.24,10.24,0,0,0-.28,1.23l-.56,3.13-3.55-.07-1.76-.07q-.63,0-3.69.11v11.23q0,3.77.09,7.18a23.83,23.83,0,0,0,.3,4.12,1.87,1.87,0,0,0,.54.81,2.51,2.51,0,0,0,1.21.46q.21,0,4.78.39v2.67l-12-.18Q231.17,187.52,223.82,187.7Z"/><path class="cls-2" d="M283.66,185.06v2.64q-4-.18-7.17-.18-3,0-5.73.18l-.32-.39.32-4.61q-1.27.81-7.45,5.55a13.94,13.94,0,0,1-3,.35,7.92,7.92,0,0,1-6-2.25q-2.16-2.25-2.16-6.47a10,10,0,0,1,1-4.68,8.23,8.23,0,0,1,2.07-2.69,12.39,12.39,0,0,1,3.43-1.67,73.12,73.12,0,0,1,12.16-3.09q.07-4.18-1.72-6.36a6.84,6.84,0,0,0-5.55-2.18,10.57,10.57,0,0,0-2.88.39,5.56,5.56,0,0,0-1.41.7l-1.48,3.55-2.39-.53.21-4.54q2.6-1.76,5-3.06a20.32,20.32,0,0,1,3.3-1.58,13.44,13.44,0,0,1,3.66-.39,15.54,15.54,0,0,1,6.31,1.11,9.38,9.38,0,0,1,3.66,2.62,8.77,8.77,0,0,1,1.62,3.23,18,18,0,0,1,.44,4.36q0,1.13-.18,5.87-.11,3.16-.11,5.17a44.82,44.82,0,0,0,.35,7.59,1.15,1.15,0,0,0,.56.84A14.23,14.23,0,0,0,283.66,185.06Zm-12.9-14.34a41.19,41.19,0,0,0-5.47,1.53,7.07,7.07,0,0,0-3.43,2.21,5.54,5.54,0,0,0-.95,3.32,4.92,4.92,0,0,0,1.14,3.48,3.91,3.91,0,0,0,3,1.23,6.37,6.37,0,0,0,3.18-.91,7.18,7.18,0,0,0,2.51-2.32Z"/><path class="cls-2" d="M315.58,183.05,314,186.46a25.92,25.92,0,0,1-4.9,2,18.68,18.68,0,0,1-4.52.47,17.37,17.37,0,0,1-9.35-2.25,14.17,14.17,0,0,1-5.45-6.43,19.35,19.35,0,0,1-1.34-7.87,21.58,21.58,0,0,1,.7-6,13.65,13.65,0,0,1,2-4.15,10.33,10.33,0,0,1,2.36-2.25l5.41-3.41a22.67,22.67,0,0,1,3.76-2.11,12.73,12.73,0,0,1,4.39-.63,22.61,22.61,0,0,1,4.2.37,16.19,16.19,0,0,1,3.6,1.11l.35.6-.88,5.73q-.11.77-.35,4.85h-2.74a37.22,37.22,0,0,0-.53-4.66,5.35,5.35,0,0,0-2.29-2,8.58,8.58,0,0,0-3.8-.76,8,8,0,0,0-4.25,1,5.74,5.74,0,0,0-2.32,3.3,18.71,18.71,0,0,0-.74,5.63,19.8,19.8,0,0,0,1.51,7.93,11.27,11.27,0,0,0,4,5.13,10.84,10.84,0,0,0,6.1,1.63,13.16,13.16,0,0,0,3.13-.36,12.79,12.79,0,0,0,2.81-1Z"/><path class="cls-2" d="M318.88,160.91v-1.58l3.16-2a17,17,0,0,0,1.48-1v-4.71q0-2.53-.28-6.26,3.41-1.12,4.43-1.51l4.46-2.07.91.7-.35,3.66-.25,4-.32,6.15h1.16a52.56,52.56,0,0,0,7.07-.35l-.6,4.75a4.74,4.74,0,0,1-.77.07l-3.45-.07h-3.41v11.74q0,5.41.11,6.4a3.74,3.74,0,0,0,1.18,2.58,4.35,4.35,0,0,0,3,.93,13.32,13.32,0,0,0,1.92-.05q.72-.09,1.85-.33l.56,1.42-1.27,1.27-2.71,2.79a11.3,11.3,0,0,1-2.45.79,12.4,12.4,0,0,1-2.2.19,9.3,9.3,0,0,1-6.43-2.09,6.72,6.72,0,0,1-2.34-5.23l.18-11.62V160.8h-.95Q320.64,160.8,318.88,160.91Z"/><path class="cls-2" d="M345,176.62h2.81q.18,3.94.35,5a10.53,10.53,0,0,0,3.48,2.87,9.77,9.77,0,0,0,4.36.93,7.32,7.32,0,0,0,5.06-1.58,5,5,0,0,0,1.76-3.84,4.7,4.7,0,0,0-.58-2.45,5.14,5.14,0,0,0-2.34-1.78,49.91,49.91,0,0,0-5.26-1.34,25.58,25.58,0,0,1-5.89-1.86,7.31,7.31,0,0,1-3.13-3,9.54,9.54,0,0,1-1.12-4.72,10.28,10.28,0,0,1,3.66-8.06q3.66-3.21,10.51-3.21a26,26,0,0,1,5.24.49,17.08,17.08,0,0,1,4.32,1.48l.11.35q-.21,1.23-.32,2.5t-.32,6l-2.74,0q0-.39-.11-1.31a21.7,21.7,0,0,0-.42-3.07,6.83,6.83,0,0,0-2.68-2.12A9.16,9.16,0,0,0,358,157a7.09,7.09,0,0,0-4.61,1.34,4,4,0,0,0-1.63,3.2,3.73,3.73,0,0,0,2.92,4.19,52.21,52.21,0,0,0,5.33,1.18,38.53,38.53,0,0,1,5.22,1.21,9,9,0,0,1,3.09,1.87,7.39,7.39,0,0,1,1.78,2.8,10.6,10.6,0,0,1,.62,3.68,11.33,11.33,0,0,1-4.06,8.83q-4.06,3.59-11.41,3.59a25.64,25.64,0,0,1-4.78-.44,41.17,41.17,0,0,1-5.66-1.6l-.39-.53q.28-2.71.35-3.83Z"/><line class="cls-3" x1="347.66" y1="201.55" x2="114.85" y2="201.55"/></g></g></svg>