<svg xmlns="http://www.w3.org/2000/svg" viewBox="0 0 289.17 69.78"><defs><style>.cls-1{fill:#25bf9a;}.cls-2{fill:none;stroke:#fff;stroke-miterlimit:10;stroke-width:3px;}.cls-3{fill:#fff;}</style></defs><title>title_people</title><g id="图层_2" data-name="图层 2"><g id="图层_1-2" data-name="图层 1"><path class="cls-1" d="M22,15.17V54.61h0s13.42,4.74,13.49,11.58h218.1c.07-6.84,13.49-11.58,13.49-11.58h0V15.17S253.7,10.43,253.64,3.59H35.53C35.47,10.43,22,15.17,22,15.17Z"/><path class="cls-1" d="M275.76,23.79c-4.37-6.84-8.64-8.62-8.64-8.62L247.41,34.89l19.72,19.72s4.27-1.79,8.64-8.62a40.75,40.75,0,0,1,11.08-11.09A40.75,40.75,0,0,1,275.76,23.79Z"/><path class="cls-1" d="M13.41,46C17.78,52.82,22,54.61,22,54.61L41.76,34.89,22,15.17S17.78,17,13.41,23.79A40.74,40.74,0,0,1,2.33,34.89,40.74,40.74,0,0,1,13.41,46Z"/><path class="cls-2" d="M2.33,34.89s6.16,5.19,13.75,5.19,13.75-5.19,13.75-5.19S23.68,29.7,16.08,29.7,2.33,34.89,2.33,34.89Z"/><path class="cls-2" d="M114.62,1.5"/><path class="cls-2" d="M174.55,1.5H114.62c-46.82,0-84.78,33.39-84.78,33.39s38,33.39,84.78,33.39h59.93"/><path class="cls-2" d="M286.84,34.89s-6.16-5.19-13.75-5.19-13.75,5.19-13.75,5.19,6.16,5.19,13.75,5.19S286.84,34.89,286.84,34.89Z"/><path class="cls-2" d="M174.55,68.28"/><path class="cls-2" d="M174.55,68.28c46.82,0,84.78-33.39,84.78-33.39S221.38,1.5,174.55,1.5"/><path class="cls-1" d="M31.73,3.89S29.88,8.68,26,10.11s-8.42-1-8.42-1,1.85-4.79,5.77-6.22S31.73,3.89,31.73,3.89Z"/><path class="cls-1" d="M30.72,67.49s-4.84,1.72-8.48-.32-4.71-7.06-4.71-7.06,4.84-1.72,8.48.32S30.72,67.49,30.72,67.49Z"/><path class="cls-1" d="M257.9,66.4s1.85-4.79,5.77-6.22,8.42,1,8.42,1-1.85,4.79-5.77,6.22S257.9,66.4,257.9,66.4Z"/><path class="cls-1" d="M258.91,2.79s4.84-1.72,8.48.32,4.71,7.06,4.71,7.06-4.84,1.72-8.48-.32S258.91,2.79,258.91,2.79Z"/><path class="cls-3" d="M59.85,34.51h5.82v-6.4H62.45a26.84,26.84,0,0,1-4.29,7.28,75.22,75.22,0,0,0,2.68-12.64l3.51,1.59a1.23,1.23,0,0,1-.91,1,21.26,21.26,0,0,1-.81,2.37h3V21.12l3.3.62a1.19,1.19,0,0,1-.83,1v4.94h6.6l-.26.44H68.15v6.4H74l-.26.42H68.15v8h7l-.23.42H58l-.18-.42h7.9v-8H60.06Z"/><path class="cls-3" d="M79.35,34.51h5.82v-6.4H82a26.84,26.84,0,0,1-4.29,7.28,75.22,75.22,0,0,0,2.68-12.64l3.51,1.59a1.23,1.23,0,0,1-.91,1,21.26,21.26,0,0,1-.81,2.37h3V21.12l3.3.62a1.19,1.19,0,0,1-.83,1v4.94h6.6l-.26.44H87.65v6.4h5.82l-.26.42H87.65v8h7l-.23.42H77.45l-.18-.42h7.9v-8H79.56Z"/><path class="cls-3" d="M96.8,23.85h17.55l-.23.42h-5.8a43.14,43.14,0,0,1-2,4.42l1.22.29c0,.55-.39,1-.78,1V44c-.62.7-2.05.7-2.57.7V32.2a24.78,24.78,0,0,1-7.72,7.41,52.68,52.68,0,0,0,8.58-15.34H97Zm11,6.19c2.65.78,5.3,1.82,6.24,4.21a3.36,3.36,0,0,1-1.56,4.26A41.14,41.14,0,0,0,107.79,30Z"/><path class="cls-3" d="M119,36.8c.75,2.52.39,5.15-.81,5.82s-1.85-.88-2.08-1.87A11.13,11.13,0,0,0,119,36.8Zm12.12-.94a3.34,3.34,0,0,1-2.37-.65V34h-7.54v1.17a4,4,0,0,1-2.31.63V23a4.49,4.49,0,0,1,2.31.91h1.46V20.78l3,.78c-.1.44-.34.52-.75.52L123.32,24h5.56l2.26-1Zm-10.61.52,3.09.57a.83.83,0,0,1-.7.73v2.73c0,.81.42.86.78.86h3c1.35,0,2-2.6,2.34-3.9.05,1.48.08,3.64,1.25,4.32-.18,1.92-1.4,2.08-2.83,2.08h-4.58c-1.74,0-2.39-.91-2.39-3Zm.7-9.23h7.54V24.37h-7.54Zm0,3.2h7.54V27.54h-7.54Zm0,3.2h7.54V30.77h-7.54Zm2.13,1.12c1.43.21,3.56.81,3.69,2.44.16,1.85-1.25,2.55-1.85,2.42A24.42,24.42,0,0,0,123.37,34.67Zm6.58,1.85c2.11.36,4.08,1.46,4.13,3.28.05,1.14-1,2-1.92,2.57A27.11,27.11,0,0,0,129.95,36.51Z"/><path class="cls-3" d="M143.57,42.83a3.32,3.32,0,0,1-2.24-.55V40.68h-2.63l0,2.39a2.56,2.56,0,0,1-2.24.62l0-18.41a4.35,4.35,0,0,1,2.08.78l.05-5.12,3.41.81a1,1,0,0,1-.91.91,17,17,0,0,1-2.21,3.64h2.42v0l2.21-.94Zm-4.89-10h2.63V26.71h-2.63Zm0,7.46h2.63l0-7h-2.63Zm10.19.7c.7.08,1.22-.16,1.27-1.74l.36-12.9h-3.33a21.12,21.12,0,0,1-3.54,6A42.58,42.58,0,0,0,145.78,21l3.46,1a1.05,1.05,0,0,1-1,.94,28.38,28.38,0,0,1-.91,2.91h3.33L153,25l-.49,15c-.05,3.41-1.87,4.13-4,4.42-.16-2.05-.83-2.63-3.25-3.59Zm-3.33-10.66c2.76,1.51,3.74,2.81,3.77,4.26,0,1.79-1.2,2.76-2.26,2.65A39.2,39.2,0,0,0,145.57,30.33Z"/><path class="cls-3" d="M170.12,44.16c-3.2-3.33-5-9.65-5.72-15-.62,5.9-2.57,12.25-9.72,15.42,4.08-4.52,7.64-10.71,7.1-23l3.87.49c.18.39-.52,1.3-.91,1.2q0,1.05-.08,2.18c.7,7.15,5.2,13.08,8.81,15.39A11.84,11.84,0,0,0,170.12,44.16Z"/><path class="cls-3" d="M174.41,34.07c1.12-.18,2.18-.44,3.35-.75V27.6h-1.33a23.09,23.09,0,0,1-2.18,5.15,68.65,68.65,0,0,0,.94-9.93l2.57.88V21l2.78.6a1,1,0,0,1-.65.94v4.68h2l-.23.42h-1.72v5c.73-.23,1.48-.52,2.31-.83a25.09,25.09,0,0,1-2.31,2.37l0,9.49a2.6,2.6,0,0,1-2.16.73V35.92c-.6.42-1.2.81-1.77,1.14a1.35,1.35,0,0,1-.44,1.09Zm2.16-6.89h1.2V23.9a.66.66,0,0,1-.55.49C177,25.33,176.83,26.27,176.56,27.18Zm11.34,14c.73.08,1.25-.29,1.43-1.53.21-1.72.34-9.72.36-13.39h-.57c-.62,9.41-2.57,13.52-8.09,17.08,4.6-6,5.59-11.26,6.06-17.08h-.55c-.7,5.41-2.24,9.65-6.21,12.77a36.62,36.62,0,0,0,4.06-12.77h-.08a19,19,0,0,1-3.69,5.59c.81-2.29,2.39-7.2,2.44-11L186.42,22a1,1,0,0,1-.88.81,26.24,26.24,0,0,1-1,3h5.2l2.39-.83c-.08,4.45-.13,12.61-.36,15.11a4.52,4.52,0,0,1-4.16,4.29c-.21-1.66-.49-2.52-3-3.43Z"/><path class="cls-3" d="M193.93,27h3.25V21.2l3.12.62a1.16,1.16,0,0,1-.81.94V27h3.8l-.23.42H199.5V33h.26v0l2.26-.7v1a53,53,0,0,0,2.29-12.27l3.46,1.38a1,1,0,0,1-.88.81,29,29,0,0,1-1.27,4.16h6.63l-.23.42h-1.64a25.64,25.64,0,0,1-2.68,10.06,9,9,0,0,0,4.71,2.94,28.7,28.7,0,0,0-2.24,3.64A11.19,11.19,0,0,1,206.28,40a13.26,13.26,0,0,1-6.45,4.58,19.31,19.31,0,0,0,5.46-6.81,25.6,25.6,0,0,1-1.43-7,22.34,22.34,0,0,1-1.85,2.6v8.42a2.84,2.84,0,0,1-2.26-.47v-.88H197v2.08a3.27,3.27,0,0,1-2.29.57V32.15a5.29,5.29,0,0,1,2.29.78v0h.21V27.39h-3Zm3,13.08h2.78V33.34H197Zm7.15-9.7a21.47,21.47,0,0,0,2.05,5.28,31,31,0,0,0,1.61-7.93h-2.37A20.87,20.87,0,0,1,204.12,30.35Z"/><path class="cls-3" d="M213.77,24.16h7.38V21l3.41.6c.05.44-.36,1.09-.86,1v1.51h7.72l-.23.42H223.7l0,2h3.2l2.29-.88v5.41a2.9,2.9,0,0,1-2.31-.62h-3.17V32.8h3.22l2.37-.94v3.82h2.5l-.23.42h-2.26v5c-.44.13-1.79.34-2.42-.36v-1.4h-3.17v2.47c0,1.92-1.22,2.88-3.67,3,.16-1.4-.88-2.73-2.86-3.46l3.2.21c.55,0,.81-.31.81-1V39.35h-6l-.18-.44h6.21V36.1h-7.44l-.18-.42h7.62V33.21h-6l-.18-.42h6.21V30.51H218v.78a3.79,3.79,0,0,1-2.37.63V25.78a5.48,5.48,0,0,1,2.37.83h3.15v-2H214ZM218,30.09h3.15v-3H218Zm5.67,0h3.15v-3h-3.15Zm0,5.59h3.17V33.21h-3.17Zm0,3.22h3.17V36.1h-3.17Z"/></g></g></svg>