<svg xmlns="http://www.w3.org/2000/svg" viewBox="0 0 289.17 69.78"><defs><style>.cls-1{fill:#25bf9a;}.cls-2{fill:none;stroke:#ebebeb;stroke-miterlimit:10;stroke-width:3px;}.cls-3{fill:#fff;}</style></defs><title>title_background</title><g id="图层_2" data-name="图层 2"><g id="图层_1-2" data-name="图层 1"><path class="cls-1" d="M22,15.17V54.61h0s13.42,4.74,13.49,11.58h218.1c.07-6.84,13.49-11.58,13.49-11.58h0V15.17S253.7,10.43,253.64,3.59H35.53C35.47,10.43,22,15.17,22,15.17Z"/><path class="cls-1" d="M275.76,23.79c-4.37-6.84-8.64-8.62-8.64-8.62L247.41,34.89l19.72,19.72s4.27-1.79,8.64-8.62a40.74,40.74,0,0,1,11.08-11.09A40.74,40.74,0,0,1,275.76,23.79Z"/><path class="cls-1" d="M13.41,46C17.78,52.82,22,54.61,22,54.61L41.76,34.89,22,15.17S17.78,17,13.41,23.79A40.74,40.74,0,0,1,2.33,34.89,40.74,40.74,0,0,1,13.41,46Z"/><path class="cls-2" d="M2.33,34.89s6.16,5.19,13.75,5.19,13.75-5.19,13.75-5.19S23.68,29.7,16.08,29.7,2.33,34.89,2.33,34.89Z"/><path class="cls-2" d="M114.62,1.5"/><path class="cls-2" d="M174.55,1.5H114.62c-46.82,0-84.78,33.39-84.78,33.39s38,33.39,84.78,33.39h59.93"/><path class="cls-2" d="M286.84,34.89s-6.16-5.19-13.75-5.19-13.75,5.19-13.75,5.19,6.16,5.19,13.75,5.19S286.84,34.89,286.84,34.89Z"/><path class="cls-2" d="M174.55,68.28"/><path class="cls-2" d="M174.55,68.28c46.82,0,84.78-33.39,84.78-33.39S221.38,1.5,174.55,1.5"/><path class="cls-1" d="M31.73,3.89S29.88,8.68,26,10.11s-8.42-1-8.42-1,1.85-4.79,5.77-6.22S31.73,3.89,31.73,3.89Z"/><path class="cls-1" d="M30.72,67.49s-4.84,1.72-8.48-.32-4.71-7.06-4.71-7.06,4.84-1.72,8.48.32S30.72,67.49,30.72,67.49Z"/><path class="cls-1" d="M257.9,66.4s1.85-4.79,5.77-6.22,8.42,1,8.42,1-1.85,4.79-5.77,6.22S257.9,66.4,257.9,66.4Z"/><path class="cls-1" d="M258.91,2.79s4.84-1.72,8.48.32,4.71,7.06,4.71,7.06-4.84,1.72-8.48-.32S258.91,2.79,258.91,2.79Z"/><path class="cls-3" d="M105.84,24h8.06l-.21.42h-2.91V35l3-.73a28.6,28.6,0,0,1-6,4.55c0,.6-.13.88-.55,1.09l-1.35-3.74,2.57-.62V24.37H106Zm12.9,15.37c-1,2.65-3.2,4.6-8.19,5.25,7.93-3.56,6.89-9.2,6.71-15.31l3,.68a1.32,1.32,0,0,1-.75.88c0,2.94.1,5.85-.7,8.27,2,.23,4.19.65,5.28,2.16.83,1.2.16,3.22-1.3,3.17A25.42,25.42,0,0,0,118.74,39.32Zm-5.43-16.74H125l-.26.42h-4.6l-2.65,4h3.35l2.37-1V38.72a4.2,4.2,0,0,1-2.37-.7V27.41h-4.65v11.1a2.38,2.38,0,0,1-1.07.78,3.89,3.89,0,0,1-1.27.18V26.06a3.63,3.63,0,0,1,2.31.94h.75l.08-4h-3.46Z"/><path class="cls-3" d="M141.49,44.21a3.34,3.34,0,0,1-2.65-.7V41.87h-8v1.69a4.68,4.68,0,0,1-2.6.68V21.9A4,4,0,0,1,130.8,23h8l2.65-1.09Zm-10.69-15h8V23.38h-8Zm0,6h8V29.65h-8Zm0,6.19h8V35.68h-8Z"/><path class="cls-3" d="M161.46,32.56c-2.55-1.25-5.25-4.24-7-8.5a22.63,22.63,0,0,1-4.81,6.73l3.15.44a1.11,1.11,0,0,1-.73,1c.1,8.24-1.64,10.22-6.16,12.64,4.16-5.15,3.67-9.57,3.59-13.94a15.79,15.79,0,0,1-4.58,3c3-3.25,6.6-8.45,7.31-13l3.59,1.17c-.16.54-.44.83-.86.8,0,.05,0,.08-.05.1,2.63,3.09,6.06,5.67,8.68,6.06A31.45,31.45,0,0,0,161.46,32.56Zm-5.38-1.87,3.25.6a1.12,1.12,0,0,1-.75,1.07V43.69a3.5,3.5,0,0,1-2.5.75Z"/><path class="cls-3" d="M164.71,39.38a42.8,42.8,0,0,0,7.54-1.61,37.16,37.16,0,0,1-5.93,4.63,1.28,1.28,0,0,1-.49.91Zm0-10.92.49,0a27.17,27.17,0,0,0,2.16-7.62l3,1.61c-.18.55-.47.75-.91.7a36.11,36.11,0,0,1-3.35,5.28l2.86-.16a19.71,19.71,0,0,0,.86-3.33l2.94,1.85a.86.86,0,0,1-.91.68,55.46,55.46,0,0,1-4.34,6.87c1.43-.08,2.94-.26,4.65-.47a34.42,34.42,0,0,1-5.23,3.25c-.08.39-.13.57-.44.75l-1.09-3.46h.91a51.85,51.85,0,0,0,2.37-5.33A25.9,25.9,0,0,1,166,30.74c-.05.44-.1.65-.39.83Zm13.65,1c.57.08,1.17-.26,1.25-1.38l.29-4.68h-3.17c-.21,6.24-3.15,8.61-6.6,10.17a15.24,15.24,0,0,0,4.08-10.17h-2.42L171.6,23h8.35l2.47-1L182,28.58c-.26,3.48-1.46,3.9-3.82,4.19,0-1.09.05-2.37-2.21-3.59Zm3.07,14.87a5,5,0,0,1-2.37-.62V42.21h-4.45v1.61a4.55,4.55,0,0,1-2.37.68v-11a4.45,4.45,0,0,1,2.37.83h4.45l2.37-1Zm-6.81-2.6h4.45v-7h-4.45Z"/></g></g></svg>