<svg xmlns="http://www.w3.org/2000/svg" viewBox="0 0 289.17 69.78"><defs><style>.cls-1{fill:#25bf9a;}.cls-2{fill:none;stroke:#fff;stroke-miterlimit:10;stroke-width:3px;}.cls-3{fill:#fff;}</style></defs><title>title_community</title><g id="图层_2" data-name="图层 2"><g id="图层_1-2" data-name="图层 1"><path class="cls-1" d="M22,15.17V54.61h0s13.42,4.74,13.49,11.58h218.1c.07-6.84,13.49-11.58,13.49-11.58h0V15.17S253.7,10.43,253.64,3.59H35.53C35.47,10.43,22,15.17,22,15.17Z"/><path class="cls-1" d="M275.76,23.79c-4.37-6.84-8.64-8.62-8.64-8.62L247.41,34.89l19.72,19.72s4.27-1.79,8.64-8.62a40.74,40.74,0,0,1,11.08-11.09A40.74,40.74,0,0,1,275.76,23.79Z"/><path class="cls-1" d="M13.41,46C17.78,52.82,22,54.61,22,54.61L41.76,34.89,22,15.17S17.78,17,13.41,23.79A40.74,40.74,0,0,1,2.33,34.89,40.74,40.74,0,0,1,13.41,46Z"/><path class="cls-2" d="M2.33,34.89s6.16,5.19,13.75,5.19,13.75-5.19,13.75-5.19S23.68,29.7,16.08,29.7,2.33,34.89,2.33,34.89Z"/><path class="cls-2" d="M114.62,1.5"/><path class="cls-2" d="M174.55,1.5H114.62c-46.82,0-84.78,33.39-84.78,33.39s38,33.39,84.78,33.39h59.93"/><path class="cls-2" d="M286.84,34.89s-6.16-5.19-13.75-5.19-13.75,5.19-13.75,5.19,6.16,5.19,13.75,5.19S286.84,34.89,286.84,34.89Z"/><path class="cls-2" d="M174.55,68.28"/><path class="cls-2" d="M174.55,68.28c46.82,0,84.78-33.39,84.78-33.39S221.38,1.5,174.55,1.5"/><path class="cls-1" d="M31.73,3.89S29.88,8.68,26,10.11s-8.42-1-8.42-1,1.85-4.79,5.77-6.22S31.73,3.89,31.73,3.89Z"/><path class="cls-1" d="M30.72,67.49s-4.84,1.72-8.48-.32-4.71-7.06-4.71-7.06,4.84-1.72,8.48.32S30.72,67.49,30.72,67.49Z"/><path class="cls-1" d="M257.9,66.4s1.85-4.79,5.77-6.22,8.42,1,8.42,1-1.85,4.79-5.77,6.22S257.9,66.4,257.9,66.4Z"/><path class="cls-1" d="M258.91,2.79s4.84-1.72,8.48.32,4.71,7.06,4.71,7.06-4.84,1.72-8.48-.32S258.91,2.79,258.91,2.79Z"/><path class="cls-3" d="M57.74,26.35h4.58c.21-.62.42-1.22.6-1.85l2.65,2.18c-.13.52-.29.63-.83.75a17.34,17.34,0,0,1-2.34,4.32v.44c2.05.57,3,1.53,3.17,2.55.18,1.61-.91,2-1.77,2.21a37.36,37.36,0,0,0-1.4-4.71V43.87a3.73,3.73,0,0,1-2.29.55V34.36a19,19,0,0,1-2.78,2.24,45,45,0,0,0,4.86-9.83H58Zm2.55-.6c-.29-1.82-.62-3.54-.94-4.81,2.65.63,3.12,1.61,3.07,2.83S61.2,25.59,60.29,25.75Zm4.39,4h3.54V21.17l3.43.62a1.23,1.23,0,0,1-.91,1v6.94H75l-.26.44h-4V42.86h5.33l-.26.44H63.88l-.18-.44h4.52V30.22H64.89Z"/><path class="cls-3" d="M93.16,32c-2.83-1.59-5-4-6.66-8.32-2.7,4.78-6,7.88-9.75,9.46,3-3.22,6.68-8.14,7.44-11.91L88,22.37a1.07,1.07,0,0,1-1.14.73,1.52,1.52,0,0,0-.1.18c2.68,3.07,5.77,5.15,8.68,5.62Zm-14,8.92,1.12,0A24.69,24.69,0,0,0,82.86,35h-5.1l-.18-.42H94.43l-.21.42H86.29a16,16,0,0,1-4.91,5.8l8.14-.29a41.49,41.49,0,0,0-1.9-4.32c3.72,2.11,4.91,4.08,5.07,5.15a3.11,3.11,0,0,1-1.77,3.25c-.23-.81-.62-2-1.09-3.2a84.07,84.07,0,0,1-9.1,2.34,1.2,1.2,0,0,1-.57,1.12Zm2.39-10.43h8.32l-.23.42h-7.9Z"/><path class="cls-3" d="M96.82,23.67h17.06l-.23.42H104L103.09,29h5.3l2.68-.88-2.16,14.72h5.8l-.23.42H96.69l-.18-.42h9.88l.83-5.85h-5.62l-.26,1.43a2.34,2.34,0,0,1-2.47-1.51,116.84,116.84,0,0,0,2.65-12.79H97Zm4.86,12.84h5.62l1-7.1H103Z"/><path class="cls-3" d="M116.19,29.73h9.33l-.21.44h-3.56a39.49,39.49,0,0,1-3.85,6.71l4.39-.39a24.81,24.81,0,0,0-1-3.51c3.56,2.18,5.17,5.25,1.74,7-.16-.7-.36-1.74-.6-2.81L118.06,40a.88.88,0,0,1-.6,1.12L116.24,37l.81-.08c.73-2.24,1.38-4.47,1.9-6.79h-2.57Zm1-5.36h7.44l-.23.39h-7ZM129.32,41.3c.68,0,.91-1,.91-1.61.26-3.74.49-7.83.57-11.73h-1.72c-.49,11-2.63,12.79-7.8,16.69,3.3-3.69,5-8.63,5.36-16.69H125l-.21-.42h1.85c.05-2,.05-4.16-.05-6.55l3.46.68a1.12,1.12,0,0,1-.86,1c0,1.79-.05,3.41-.1,4.86h1.69v0l2.52-.65c-.1,4.29-.23,8.63-.49,12.92-.18,3.17-1.46,4.21-3.77,4.42-.05-1.14-.31-2.16-2.5-3.07Z"/><path class="cls-3" d="M135.46,36.75h12.19l-.23.42H135.64ZM147,41.64c1.51.1,1.87-.42,1.92-1.4l.36-8.74H141L140.89,33a2.22,2.22,0,0,1-2.6-1.14c.47-3.35.81-6.92,1.12-10.48l3.33.57a.82.82,0,0,1-.83.91l-.31,3h12l-.23.42h-11.8l-.47,4.81h8.27v0l2.52-.88L151.4,41c-.13,3.35-2.26,3.74-4.21,3.74.18-1.48-1.48-2.89-3.2-3.35Z"/><path class="cls-3" d="M157.53,25.44l1.51,0a19.45,19.45,0,0,0,3.46-4.79l3.22,1.92a33,33,0,0,1-5.64,2.86l7.57.05c-.55-.75-1.12-1.48-1.66-2.21,1.48.42,3.87.47,4.89,2.42.6,1.17-.52,2.89-1.3,2.91A19.32,19.32,0,0,0,168,26a40.75,40.75,0,0,1-5.46,1.35l2.6.91c-.05.49-.29.75-1,.73-.08.23-.18.47-.29.73h9.36l-.23.36h-7.18c2.39,2.05,4.84,3.35,7.41,3.43a15.62,15.62,0,0,0-1.92,3.3c-2.08-.78-4.6-3.48-5.67-6.73h-2a19.54,19.54,0,0,1-9,8.09,30.77,30.77,0,0,0,6.19-8.09h-5.64l-.16-.36h6a11.22,11.22,0,0,0,.81-2.24q-1.52.27-3,.47a1,1,0,0,1-.49.88Zm13.75,14.3c-.16.39-.49.49-1,.29a21.46,21.46,0,0,1-14.2,4.86c2.78-.91,10.09-3.67,12.58-7.51Zm-2.6-3.15c-.21.39-.52.37-.83.26a23.73,23.73,0,0,1-11.23,5c1.61-.7,7.2-3.85,9.67-7.54Zm-2.08-3.12a.67.67,0,0,1-.86.23,20.51,20.51,0,0,1-8.92,4.78c1.35-.91,5.72-4,7.36-7.1Z"/><path class="cls-3" d="M174.46,36.75h12.19l-.23.42H174.64ZM186,41.64c1.51.1,1.87-.42,1.92-1.4l.36-8.74H180L179.89,33a2.22,2.22,0,0,1-2.6-1.14c.47-3.35.81-6.92,1.12-10.48l3.33.57a.82.82,0,0,1-.83.91l-.31,3h12l-.23.42h-11.8l-.47,4.81h8.27v0l2.52-.88L190.4,41c-.13,3.35-2.26,3.74-4.21,3.74.18-1.48-1.48-2.89-3.2-3.35Z"/><path class="cls-3" d="M200.2,23.54a24.52,24.52,0,0,1-2.81,5.51,4.29,4.29,0,0,1,.57.36h2.83l2.29-.62-.13,5c-.05,2.05-.88,3.25-2.86,3.62a2.81,2.81,0,0,0-2-2.83v5.9c0,.7.21.94.83.94h2.39c1.07,0,1.43-2.11,2.11-4.45-.05,1.59.1,4.26,1.12,4.84-.05,1.56-1.09,1.72-2.42,1.72l-4.06,0c-1.46,0-2.16-.49-2.16-2.6v-10A14.7,14.7,0,0,1,193.65,33c.73-1.14,3.77-7.38,4.39-11.93l3.3.94c.1.81-.34,1.09-1,1.09l-.08.21c1.46.36,3.48.91,4.08,2.6a1.78,1.78,0,0,1-1.69,2.42A29.72,29.72,0,0,0,200.2,23.54Zm.55,10,.05-3.72h-2.65v4.55l1.9.18C200.3,34.62,200.72,34.41,200.74,33.58Zm4.24-9,3,.68c.05.57-.26.88-.68.78V38a3.78,3.78,0,0,1-2.31.73Zm2.94,16.74c.57,0,1-.6,1-1.4V21.64l3.12.44c.05.55-.29,1.12-.81,1l0,17.24c0,2.94-.6,3.54-3.28,4-.08-.94,0-2.26-2.81-3.22Z"/><path class="cls-3" d="M213.43,30.8h5.17l.52-5.17,2.78,1.22a.88.88,0,0,1-.78.7L219,30.8h4.26l-.23.44h-3.9v3.22h3.72l-.26.39H219.1V36c1.87.7,3.09,1.48,3.28,2.68a2.68,2.68,0,0,1-1.53,2.65,30.26,30.26,0,0,0-1.74-5.17v5.51c0,1.4-.68,2.34-2.57,2.52a3.1,3.1,0,0,0-2-2.7l1.74.21c.49,0,.7-.36.7-1.25v-3a1,1,0,0,1-.52.26,23.85,23.85,0,0,1-3.15,5.43,35.46,35.46,0,0,0,1.43-7.25l2.24.91v-2h-3.12l-.21-.39H217V31.24h-3.33Zm.34-5.9h3.51c-.23-1.09-.65-2.47-.94-3.64,1.43.13,2.63.57,2.78,1.43a3,3,0,0,1-.73,2.21h4.21l-.23.42H214Zm.94,1.09c1.43.52,2.57,1.12,2.68,2.31a2.24,2.24,0,0,1-1.64,2.29A31,31,0,0,0,214.71,26Zm8.76-2.24a2.68,2.68,0,0,1,2.29.75,16.7,16.7,0,0,0,3.35-3.28l2.39,2.52a31.64,31.64,0,0,1-5.75,1.48v5.69h6.06l-.21.42h-1.82v12.3c-.44.65-1.87.78-2.26.78V31.34h-1.77v.13c0,5-1.12,10.37-5,12.74,2.52-4,2.76-9.13,2.73-13.34Z"/></g></g></svg>