<svg xmlns="http://www.w3.org/2000/svg" viewBox="0 0 289.17 69.78"><defs><style>.cls-1{fill:#25bf9a;}.cls-2{fill:none;stroke:#fff;stroke-miterlimit:10;stroke-width:3px;}.cls-3{fill:#fff;}</style></defs><title>title_featured</title><g id="图层_2" data-name="图层 2"><g id="图层_1-2" data-name="图层 1"><path class="cls-1" d="M22,15.17V54.61h0s13.42,4.74,13.49,11.58h218.1c.07-6.84,13.49-11.58,13.49-11.58h0V15.17S253.7,10.43,253.64,3.59H35.53C35.47,10.43,22,15.17,22,15.17Z"/><path class="cls-1" d="M275.76,23.79c-4.37-6.84-8.64-8.62-8.64-8.62L247.41,34.89l19.72,19.72s4.27-1.79,8.64-8.62a40.75,40.75,0,0,1,11.08-11.09A40.74,40.74,0,0,1,275.76,23.79Z"/><path class="cls-1" d="M13.41,46C17.78,52.82,22,54.61,22,54.61L41.76,34.89,22,15.17S17.78,17,13.41,23.79A40.74,40.74,0,0,1,2.33,34.89,40.74,40.74,0,0,1,13.41,46Z"/><path class="cls-2" d="M2.33,34.89s6.16,5.19,13.75,5.19,13.75-5.19,13.75-5.19S23.68,29.7,16.08,29.7,2.33,34.89,2.33,34.89Z"/><path class="cls-2" d="M114.62,1.5"/><path class="cls-2" d="M174.55,1.5H114.62c-46.82,0-84.78,33.39-84.78,33.39s38,33.39,84.78,33.39h59.93"/><path class="cls-2" d="M286.84,34.89s-6.16-5.19-13.75-5.19-13.75,5.19-13.75,5.19,6.16,5.19,13.75,5.19S286.84,34.89,286.84,34.89Z"/><path class="cls-2" d="M174.55,68.28"/><path class="cls-2" d="M174.55,68.28c46.82,0,84.78-33.39,84.78-33.39S221.38,1.5,174.55,1.5"/><path class="cls-1" d="M31.73,3.89S29.88,8.68,26,10.11s-8.42-1-8.42-1,1.85-4.79,5.77-6.22S31.73,3.89,31.73,3.89Z"/><path class="cls-1" d="M30.72,67.49s-4.84,1.72-8.48-.32-4.71-7.06-4.71-7.06,4.84-1.72,8.48.32S30.72,67.49,30.72,67.49Z"/><path class="cls-1" d="M257.9,66.4s1.85-4.79,5.77-6.22,8.42,1,8.42,1-1.85,4.79-5.77,6.22S257.9,66.4,257.9,66.4Z"/><path class="cls-1" d="M258.91,2.79s4.84-1.72,8.48.32,4.71,7.06,4.71,7.06-4.84,1.72-8.48-.32S258.91,2.79,258.91,2.79Z"/><path class="cls-3" d="M103.48,26.17h2.74V20.23l3.19.62a1,1,0,0,1-.76,1.12v4.2h2.18l-.25.45h-1.93v4.45l1.76-.62c-.64.73-1.2,1.34-1.76,1.9v9.83a3,3,0,0,1-3.16,3.19c0-1-.45-2.07-2.3-3.19l2.41.06c.53,0,.62-.64.62-1V34.57c-.39.34-.81.67-1.23,1.06a1.49,1.49,0,0,1-.5,1.2l-1.2-3.89,2.94-1V26.62H103.7Zm12.6-4.23a1.14,1.14,0,0,1-1,.78c-.34,1.15-.7,2.21-1.09,3.22h8.9l-.31.48h-4v5.32h3.89l-.28.48h-3.61v5.24h3.86l-.28.45h-3.58v5.43h4.28l-.31.48h-8.79v1a5.17,5.17,0,0,1-2.52.62v-14a19.43,19.43,0,0,1-2.1,2.69,50,50,0,0,0,3.22-13.5Zm-2.24,9.8h2.3V26.42h-2.3Zm0,5.71h2.3V32.22h-2.3Zm0,5.88h2.3V37.9h-2.3Zm2.41-22.9c2.1.5,3.25,1.46,3.25,2.66a2,2,0,0,1-1.93,2.27A45.53,45.53,0,0,0,116.25,20.43Z"/><path class="cls-3" d="M124.7,28h6.1A14.48,14.48,0,0,0,132,24.43l3,1.79a1,1,0,0,1-1,.78,9.91,9.91,0,0,1-.45,1h9.88l-.25.45h-9.86A20.43,20.43,0,0,1,130.16,33V44.45a4,4,0,0,1-2.55.67V35.41a40.31,40.31,0,0,1-3.39,2.49,53.1,53.1,0,0,0,3.39-4.45V31a6.44,6.44,0,0,1,1.4.34c.56-1,1.09-1.93,1.57-2.91h-5.71Zm-.42-5.1h5V20l3.16.64a1.41,1.41,0,0,1-.76,1v1.15h4.2V19.92l3.19.64a1.23,1.23,0,0,1-.84,1v1.29h5.54l-.25.42h-5.29v2a3.44,3.44,0,0,1-2.35.67V23.28h-4.2v2a3.62,3.62,0,0,1-2.41.67V23.28h-4.76Zm7.48,8.29h7.31l.67-1.82,2.86,2.74-4.2,2.52v2h5.43l-.22.48H138.4v4.37c0,2.69-1,3.3-3.64,3.61,0-1.54-.28-3.14-3.22-3.81l3.33.28c.73.08,1-.34,1-1.06V37.12h-5l-.22-.48h5.24V33.78L138,34l.87-2.44H132Z"/><path class="cls-3" d="M146,25h8.23l-1.65-5.26c2.32.2,3.67,1,3.92,2.13A3.5,3.5,0,0,1,155.17,25h9.32l-.28.45h-2.83a28.59,28.59,0,0,1-4.65,11.76,16.8,16.8,0,0,0,8.2,3.67,23.55,23.55,0,0,0-2.13,3.92,16.61,16.61,0,0,1-8-5.26,22,22,0,0,1-9.58,5.68,43.48,43.48,0,0,0,8-7.87,27.27,27.27,0,0,1-3.5-11.9h-3.56Zm12,.45h-8a24.81,24.81,0,0,0,4.7,9.69A26.5,26.5,0,0,0,158,25.44Z"/><path class="cls-3" d="M166.45,40.42h8.32V37.65h-2.83v.81a3.81,3.81,0,0,1-2.46.64V29.44a4.86,4.86,0,0,1,2.38.9h8.37v0l2.46-.9V39a2.87,2.87,0,0,1-2.46-.73v-.64h-2.91v2.77h8.2l-.25.48h-8v3.56a3,3,0,0,1-2.55.78V40.9h-8.09Zm1.06-17.47h7.64c-.31-1.12-.64-2.49-.92-3.36,2,.14,3,.59,3.05,1.79a2.35,2.35,0,0,1-.64,1.57h7.78l-.22.45h-5.66l2.77,1.46a1.1,1.1,0,0,1-1.18.9l-2.07,2.13h7.34l-.25.42H166.87l-.2-.42h5.77a24.19,24.19,0,0,0-1.15-4.06c1.9.08,3.14.76,3.14,2.52a2.26,2.26,0,0,1-.76,1.54h3.89l.7-4.48H167.71Zm4.42,10.75h8.29V30.82h-8.29Zm0,3.5h8.29V34.15h-8.29Z"/></g></g></svg>