<svg xmlns="http://www.w3.org/2000/svg" viewBox="0 0 104.84 65.31"><defs><style>.cls-1{fill:#333;}</style></defs><title>top_menu_artifact_gray</title><g id="图层_2" data-name="图层 2"><g id="图层_1-2" data-name="图层 1"><path class="cls-1" d="M.43,36.65a94.74,94.74,0,0,0,9.29-2.09V18.72H6A63.83,63.83,0,0,1,0,33,189.79,189.79,0,0,0,2.59,5.47L9.72,7.92V.36L17.43,2a2.89,2.89,0,0,1-1.8,2.59v13H21l-.65,1.15H15.63v14c2-.65,4.1-1.44,6.41-2.3a69.15,69.15,0,0,1-6.41,6.55l.07,26.28c-1.44,1.8-4.46,2.23-6,2V41.76C8.06,42.92,6.41,44,4.82,44.93A3.73,3.73,0,0,1,3.6,48Zm6-19.08H9.72V8.5A1.83,1.83,0,0,1,8.21,9.87C7.7,12.46,7.13,15,6.41,17.57ZM37.8,56.38c2,.22,3.46-.79,4-4.25.58-4.75.94-26.93,1-37.08H41.19c-1.73,26.07-7.13,37.44-22.39,47.31C31.54,45.87,34.28,31.18,35.57,15H34.06C32.12,30,27.87,41.76,16.85,50.4A101.44,101.44,0,0,0,28.08,15h-.22A52.66,52.66,0,0,1,17.64,30.53C19.87,24.2,24.27,10.59,24.41,0L33.7,3.24a2.81,2.81,0,0,1-2.45,2.23,72.32,72.32,0,0,1-2.88,8.43h14.4l6.62-2.3c-.22,12.31-.36,34.92-1,41.84-.86,7.34-5,10.73-11.52,11.88-.58-4.61-1.37-7-8.35-9.51Z"/><path class="cls-1" d="M54.5,25.56H60l5.69-2.38.07,26.21,7.49-3.74L61.92,60.41A3,3,0,0,1,61,62.93l-4-9.14,2.52-1.22V26.64H54.86ZM58,1.66c2.81.22,9.43,2.52,10.22,7.56.94,5.26-3.38,7.42-5.76,6.55A147.54,147.54,0,0,0,58,1.66ZM70.42,5h32.83L102.6,6H86.76L85,17.64H92v-.07l6.55-2.3V32.84h6.26L104.19,34H69l-.5-1.15h8.06L78.7,18.72H73.37l-.58-1.08h6.12L80.71,6H71Zm30.6,59a13.81,13.81,0,0,1-6.41-1.58V60.2H79.78v3.38a12.2,12.2,0,0,1-6.19,1.73V40a13.14,13.14,0,0,1,6.19,2.38v.07H94.61L101,40ZM79.78,59.12H94.61V43.56H79.78Zm2.88-26.28H92V18.72h-7.2Z"/></g></g></svg>