<svg xmlns="http://www.w3.org/2000/svg" viewBox="0 0 104.69 65.03"><defs><style>.cls-1{fill:#333;}</style></defs><title>top_menu_community_gray</title><g id="图层_2" data-name="图层 2"><g id="图层_1-2" data-name="图层 1"><path class="cls-1" d="M1.15,15H13.83c.58-1.73,1.15-3.38,1.66-5.11l7.34,6c-.36,1.44-.79,1.73-2.3,2.09A48.1,48.1,0,0,1,14,30v1.22c5.69,1.58,8.42,4.25,8.78,7.06.5,4.46-2.52,5.54-4.9,6.12-1.3-4.9-2.45-9.72-3.89-13V63.51A10.34,10.34,0,0,1,7.7,65V37.15A52.75,52.75,0,0,1,0,43.35,124.54,124.54,0,0,0,13.47,16.13H1.8Zm7.06-1.66C7.42,8.28,6.48,3.53,5.62,0c7.34,1.73,8.64,4.46,8.5,7.85S10.73,12.89,8.21,13.32ZM20.38,24.48h9.79V.65l9.5,1.73a3.4,3.4,0,0,1-2.52,2.88V24.48H48.82l-.72,1.22H37.16v35H51.92l-.72,1.22H18.15l-.5-1.22H30.17v-35H21Z"/><path class="cls-1" d="M103.4,7l-.65,1.15H65.31v50h39.39L104,59.26H65.31v2.09a12.44,12.44,0,0,1-6.84,1.73V4.39A11.79,11.79,0,0,1,65.31,7ZM84.53,37.08A62.6,62.6,0,0,1,66.1,55.3,136.23,136.23,0,0,0,80.64,31c-4-5.9-8.21-11.31-11.81-14.55a81,81,0,0,1,14.11,9.22,123.15,123.15,0,0,0,4.82-14.83l8.86,4.68c-.43,1.58-1.3,2.3-2.88,1.94a88.24,88.24,0,0,1-5.4,13c5.18,5.11,8.42,9.86,8.93,12.38a11.64,11.64,0,0,1-3.89,10.87A140.86,140.86,0,0,0,84.53,37.08Z"/></g></g></svg>