<svg xmlns="http://www.w3.org/2000/svg" viewBox="0 0 105.41 65.96"><defs><style>.cls-1{fill:#333;}</style></defs><title>top_menu_humanity_gray</title><g id="图层_2" data-name="图层 2"><g id="图层_1-2" data-name="图层 1"><path class="cls-1" d="M42.77,64.66c-8.86-9.22-13.9-26.71-15.84-41.4C25.2,39.6,19.8,57.17,0,66,11.31,53.43,21.17,36.29,19.66,2.3L30.39,3.67c.5,1.08-1.44,3.6-2.52,3.31q-.11,2.92-.22,6c1.94,19.8,14.4,36.22,24.41,42.63A32.77,32.77,0,0,0,42.77,64.66Z"/><path class="cls-1" d="M56.59,13.54H77.76L73.51,0c6,.5,9.43,2.45,10.08,5.47.65,3.24-1.37,6.41-3.31,8.06h24l-.72,1.15H96.27c-2.23,12.53-6.41,22.47-12,30.24a43.2,43.2,0,0,0,21.1,9.43c-2,3.53-4.32,6.62-5.47,10.08-2.16-.94-12.1-3.17-20.67-13.54A56.55,56.55,0,0,1,54.65,65.53c7.56-6.12,14.83-12.38,20.59-20.23-4.32-7.13-7.78-16.92-9-30.6H57.1Zm31,1.15H66.89c3,10.95,7.13,19,12.1,24.91A68.16,68.16,0,0,0,87.56,14.69Z"/></g></g></svg>