<svg xmlns="http://www.w3.org/2000/svg" viewBox="0 0 74.56 74.86"><defs><style>.cls-1,.cls-2{fill:#e7465a;}.cls-2{fill-rule:evenodd;}</style></defs><title>logo_mini</title><g id="图层_2" data-name="图层 2"><g id="图层_1-2" data-name="图层 1"><path class="cls-1" d="M16.2,47.68c-.47.23-2.1,1.87-2.57,2.1-.23.23-3.5,2.26-4,2.1v.47C7.24,53.6,3.74,56.79,0,56.79c0-1.48,1.79-1.56,3.27-2.57a21.55,21.55,0,0,0,3.12-2.8c.16,0,1.4-.93,1.56-.93.55,0,1.48-1.32,2.18-2.34s2.1-1.32,3-2.34c1.25-1.32,3.74-4,3.74-4.21l.7-1.17c0-.23,1.17-.93,1.17-1.17.39.08.86-2,1.63-3.11s1.87-2,1.87-3.43c0-.78-.47-1.25-.47-2.18-.78-.08,1.56-1.56,4-1.56.86-.23,1.56,1.4,2.1,1.87,1,.93,2.1,1.4,2.1,2.8,0,1.17-1.17,1.95-1.87,3-1.48,2-2.8,4.36-2.8,6.85,0,1.87.47,3.74.47,5.61,0,.47-.23,1.17-.23,1.64,0,3.82.39,9.66,1.4,9.66.7,0,.93-.78,1.48-.93,1.32,0,3.19-2.34,5.14-4.28.16,0,2-2.1,2.8-2.57a4.75,4.75,0,0,1,.93-.7c1.79-1.79,3.43-3,3.43-5.61,0-3.74-.16-7.24-.47-11.06a5.27,5.27,0,0,0-2.34-4.36c-.23-1.87,1.32-1.79,2.34-2.34a4.92,4.92,0,0,1,2.65-.93c1.87,0,5.14,2.18,5.14,3.27C48,31.8,47,32.26,47,33.2v8.41c0,.08.23.62.62.47,0,.31,1.09-.86,1.71-1.4.47-.47.47-1.17.62-1.4,1,0,1.56-1.63,2.34-2.65,1.4-1.87,3.11-3.27,3.74-5.61.08-1.25-.47-1.79-.47-2.49s.47-.78,1.25-.78a16.47,16.47,0,0,1,3.74.31c.62.16.93.93,1.4,1.09,1.48,1.25,4,2,4,4.05.23,2.34-1.56,1.95-2.57,3-3.19,3.19-6.7,6-9.81,9.19-.86,0-5.37,3.12-6.85,4.91a19.15,19.15,0,0,0-.31,4.21,17.77,17.77,0,0,0,.31,4c0,.16.47,1.4.47,1.56,0,4.67,2.41,4.67,4.52,4.67l5.3-1.09c1.32,0,4.36-2.34,8.25-2.34,1.25-.86,2.18-4.28,2.57-6.85.23-1.17.08-4.44,1.4-4.44.23-.23.31.23.47.47,0,.54-.08,1-.08,1.56,0,5.14,1.4,10.75,5,14.56.23.78-.86,2.88-1.4,3.27a16.12,16.12,0,0,1-2.57.78,41.7,41.7,0,0,1-8.64,1.4H55.37c-1.4,0-5.3.08-5.61.47-1.79.23-2.57-.7-4-.93-2.41,0-3.66-2.26-4.52-3.74-.7-3.74-.08-7.94-.93-12-2.8,0-5,2.57-7.48,3.74-.16.31-2.49.93-2.8,1.25-2,1.56-3.43.86-4,3,0,.78.23,3.74.23,4.52-.08,2,.39,6.54-3.51,6.54-2.34,0-2.57-3.74-2.57-5.92V46.51c-.08-.08-.47-.62-.7-.47C18.07,46,17.37,47.45,16.2,47.68Zm.23-27.41c-.23,0-1.17.47-1.4.47a4.62,4.62,0,0,0-2.34.31c-2.1.54-3.11-2.1-3.27-3.12,0-1,1.32-1.4,2.1-1.25a5,5,0,0,1,3.5-.93c1.17,0,2.1.47,3.27.47.7,0,2.57-.47,2.8-1.4v-3c0-3.58-1.87-3.27-1.87-4.67,0-.78.93-.93,1.4-1.25,1.64,0,2.49-1.4,4-1.4,1.17,0,2.1.93,3,1.71.93.62,1.87.47,1.87,1.87,0,.47,0,.93-.16,1.09C28,9.84,28.11,11,28.11,12c0,1.25.31,2.34,1.4,2.34,1.4,0,2.65-.47,3.74-.47.7,0,1.25-.16,1.25.62v.31c0,.78-.54,3.27-1.87,3.27H29.36c-.39.23-.39.7-.47.78v5.45a18.93,18.93,0,0,1-1.95,2.34,4.39,4.39,0,0,1-2.34.62l-.47-.16c-.55,0-1.17-1.71-1.4-1.87v-5c0-.31-.23-.47-.47-.78A28.52,28.52,0,0,0,16.43,20.27Z"/><path class="cls-2" d="M40.09,14.8a3.91,3.91,0,0,0,.41.15c3.72.89,7.22-.52,10.76-1.41.9-.22.56-.92.13-1.38A26.24,26.24,0,0,0,44,6.09c-1.9-1-3-.38-4,1.64A15.53,15.53,0,0,1,38.76,9.6C37.21,11.82,37.72,13.84,40.09,14.8Z"/><path class="cls-2" d="M64.71,12.63c-2.09-.78-4.47.43-6.88,1.3a.68.68,0,0,0-.38.92,65.44,65.44,0,0,1,1.92,8.61c.12.84.38,1.64,1.3,1.87a1.5,1.5,0,0,0,1.74-.71c1.16-2.06,3-3.57,4.34-5.45C68.28,17.08,67.48,14,64.71,12.63Z"/><path class="cls-2" d="M59.48.47c-1.12-.43-2-.75-2.79-.09s-.52,1.36-.37,2.09A35.08,35.08,0,0,1,57.2,10c0,.89.22,1.53,1.27,1.17a18.79,18.79,0,0,0,5.41-2.52c1.09-.82,1.66-2.07.76-3.11C63,3.65,61.08,2,59.48.47Z"/><path class="cls-2" d="M42,22.12c-.25,1-.57,2,.16,2.73s1.76.44,2.58,0a27.52,27.52,0,0,0,8.69-7.44c.32-.4.69-.88.36-1.38s-.91-.32-1.39-.2a23.52,23.52,0,0,0-6.32,2.57A10.87,10.87,0,0,0,42,22.12Z"/><path class="cls-2" d="M53.65,9.56c.64-1.69-.72-6.75-2.16-8.19-1.84-1.84-3.86-.33-5.69,0-1.67.29-1.39,1.77-.35,2.72,2.17,2,4.42,3.83,6.66,5.7C52.62,10.21,53.26,10.64,53.65,9.56Z"/></g></g></svg>