<svg xmlns="http://www.w3.org/2000/svg" viewBox="0 0 100 50"><defs><style>.cls-1{fill:none;}.cls-2{fill:#444;}</style></defs><title>top_menu_community_gray</title><g id="图层_2" data-name="图层 2"><g id="图层_1-2" data-name="图层 1"><rect class="cls-1" width="100" height="50"/><path class="cls-2" d="M1.14,35.34c2.2-1.63,1.29-1.18,3.53-3.42,0-.49,1.25-2.09,1.71-3.08a9.89,9.89,0,0,0,.38-1.6c0-.3.3-1,.3-1.14,0-.87.46-1.75.46-2.28A24.24,24.24,0,0,0,8,20.56a1.26,1.26,0,0,0,.15-.8V19c0-.8.23-1.29.23-2.28,0-.34,0-2.58-.38-2.51-.19-.91,1.06-1.71,2-1.71.34,0,.8.49,1.22.91.42.19.8.8,1.29,1.14,0,1.67-1.14,1.6-1.14,2.62.08,0,.3.38.3.46-.19,1.1-.49,2.43-.76,3.57,0,.68-.38,1.33-.38,2-.27.91-.23,1.67-.46,2.58a20.39,20.39,0,0,1-1,2.43,9.92,9.92,0,0,1-1.75,3.08,12.39,12.39,0,0,1-4.56,4.1c-.72,0-1.48,1.14-2.28,1.14-.46,0-.34,0-.46-.23C.49,35.57.61,35.5,1.14,35.34Zm12.54-4.1c0-1.71-.11-3.72-.08-5.28l.08-.23c0-1.37.15-2.58.15-4.1,0-2.2.08-4.48.08-6.61,0-.15.15-1.41.15-1.52-.19-.15.42-3.08-.46-3.08-1.37,0-2.66.23-4,.23a.63.63,0,0,1-.46.19c-.08,0-.23-.08-.3-.08s-.68.11-.84.11-1.37.34-1.44.34c-1.33,0-1.82.46-2.66.46s-1-1.37-1.48-2.05c-.34-.11-.3-.57-.34-.68s.46-.34.68-.34c.57,0,1.14.23,1.71.23,1.6,0,3.23-.23,4.83-.23.08,0,.46.11.53.11s.91-.11,1.06-.11c1.71,0,3.08-.23,4.33-.23.57,0,1.33.11,2.05.11A3.09,3.09,0,0,0,19,8.14a6.71,6.71,0,0,1,2.51-1.37c.68.76,2.17,1.37,2.17,2.51a1.85,1.85,0,0,1-1.82.91c-.65,0-2.05-.11-3.57-.11-.57,0-1.67,0-1.67.57,0,.91,1.14,1,1.14,1.94-.34.46-.8.57-1,1v6c0,.23-.11,1.14-.11,1.37v7.83a4.53,4.53,0,0,0-.23,1.71c0,.11-.23,1.6-.23,1.71,0,.84-.27,2.51-1.52,2.51-.91,0-1-1.37-1-2.05C13.6,32.27,13.68,31.7,13.68,31.24ZM7.22,2.44a3.19,3.19,0,0,1,1.14.23c.08,0,.53-.15.68-.15l.46.15c2.39,0,4.75-.49,7.14-.49.42,0,.8,0,1.18,0a7.13,7.13,0,0,0,1.37-.91A3.41,3.41,0,0,1,21.58,3c0,.42-.27.65-.57.91H19.72c-3.19,0-6.46.27-9.54.46a9.94,9.94,0,0,1-2.05.46c-.61,0-.84-.76-1.06-1.22,0-.15-.46-.61-.46-.68S6.61,2.44,7.22,2.44Zm12,17.21c0-1.22.11-2.85.11-3.27.08,0-.11-.27-.11-.91,0-1.06,0-3,.57-3s2.85,1,2.85,2.32c0,.68-.8.76-.8,1.37v4a1.93,1.93,0,0,0-.23,1.14c0,.61.11,1.22.11,1.9,0,1-.11,1-.11,2.05,0,.08-.23.76-.23.91a1.67,1.67,0,0,1-1.6,1.9.72.72,0,0,1-.68-.76v-7C19.07,20.11,19.19,19.8,19.19,19.65Zm1.67,9.27c1,0,1.67.15,2.43.15s1.56-.15,2.28-.15l.46.15c.68,0,1.75-.15,1.75-.91a.93.93,0,0,0-.15-.38V18.89l.15-.23c0-.46-.15-.68-.15-1.14a1.92,1.92,0,0,1,.15-.91c0-.23-.15-1.37-.15-1.6,0-.72-.53-.72-1.22-.72-.46,0-.91.11-1.37.11-1.29,0-1.63-.3-1.63-1.37a.54.54,0,0,1,.57-.57c.38,0,.68.27,1.06.23a8,8,0,0,1,2.13-.11c.65-.38.68-1.94.68-2.28,0-.11-.08-.91-.08-1,0-.42.08-.72.08-1.14,0-1.86-.23-3.46-.23-5.4-.08-.76-.91-1.22-.91-1.82s1.79-1,2-.91A12.61,12.61,0,0,0,29.9.92a2.44,2.44,0,0,0,.61.23c-.15,0,1.67.91,1.67,1.14,0,.84-1.22,1.14-1.6,1.82V5.48c0,.15-.3,1.14-.3,1.29v4.56c.08,1.25,1.44,1.14,2.51,1.14.76,0,1.52-1.6,3-1.6.46,0,.61.46.91.8A2.74,2.74,0,0,1,38,13.84c0,.27-.15.49-.46.46-1.22-.27-3.23-.11-4-.68-.53.57-1.14.46-1.82.46,0,0-1.52,0-1.67-.19,0,1.41.23,2.81.23,4.18,0,.8-.23,1.94-.23,2.51v3.8a3.69,3.69,0,0,0,.23,1.29c0,.68-.15,1.14-.15,1.67,0,1.52.38,1.52,1.33,1.52A3.39,3.39,0,0,0,33,28.69h.08c.15,0,.84.15,1,.15.76-.34,1.71-1.37,3-1.37.68,0,.8.57,1.14.91.61.46,1.37,1.18,1.82,1.6-.08.38.15.91-.46.91-1.22,0-2.62-.68-4-.68l-.3.11H31c-.23,0-.23-.23-.61-.23-.95.19-1.44.19-2.28.34a3.08,3.08,0,0,1-1.71.34h-.87c-1.41,0-3.12.57-4.25.57,0,0-.23,0-.23-.11,0-1.1-.46-1.33-.46-2.09C20.56,29,20.71,28.92,20.86,28.92Z" transform="translate(12.78 6.76)"/><path class="cls-2" d="M44.31,34a.8.8,0,0,0,.11-.46c0-.23-.11-.53-.11-.91,0-.08.23-1.14.23-1.22v-2.2l.11-.23a13,13,0,0,1,.23-3.42c0-.91-.11-1.44-.11-2.2,0-.53.11-2,.11-3.53,0-.57.23-1.14.23-1.71s-.11-1-.11-1.6c0-1,.23-4.94.23-5.51,0-1,.11-2.05.11-2.74V8.18c0-.15-.11-1.52-.11-1.63s.11-.65.11-.91c0-.08-.11-1-.11-1L45,4.38c-1.14,0-1.94.11-2.85.11a10,10,0,0,1-.68-1.71s-.15-.8.46-.8a6.46,6.46,0,0,0,1.6.23,29.82,29.82,0,0,0,3.08-.11c.91,0,2,.23,2.85.23.46,0,.91-.11,1.25-.11a6.62,6.62,0,0,1,1.71.23l.23-.23a9.78,9.78,0,0,1,1.48.11c.15,0,.38-.11.61-.11s1.63.23,2.05.23h6.38c0-.11.34-.34.46-.34a3.56,3.56,0,0,1,1.14.23,15.23,15.23,0,0,0,2.77.15c.87,0,1-.46,1.56-.72.49,0,1.25-.91,1.82-.91,0-.19.8.46,1,.68.53.46,2,1.25,2,1.82s-3,.57-3.34.57c0,0-1-.11-1.25-.11H60l-.91.11H54.34L53.88,4H50c-.23,0-.91.11-.91.46a1.92,1.92,0,0,1,.34.68c.11.84-.61,1.22-.68,1.82a39.14,39.14,0,0,0-.34,4.67c0,.49-.11,3.12-.11,5.05,0,.23-.23,1.6-.23,1.82,0,1.44-.08,1.94.11,2.28v.11c0,.11-.23.95-.23,1a21.49,21.49,0,0,0,.11,3l-.11.38c0,.08.11.68.11.76,0,1.06-.23,2-.23,3a2.09,2.09,0,0,0,.34,1.22c.11.38.68.23.91.46l.46.46c.49,0,.38.61.91.61.19.15-.3-.61,1.48-.61h5.28a.26.26,0,0,1,.23-.15c.65,0,1.14.15,1.82.15-.15-.15,1.22-.08,1.82-.08.08,0,.53-.15.68-.15h3.53c.68,0,2.39-.23,2.51-.23l1.82-.91c.46-.53,1.14-.68,1.71-1.14.23-.23.11-.23.49-.38.91,1,2.58,2.28,2.58,3.27,0,.3-1.67.53-1.9.53-.61,0-1.18-.08-1.75-.08a12.51,12.51,0,0,0-3,.23H64.75c-2.62,0-3.91.46-5.17.46a4.92,4.92,0,0,1-2.05-.15c0-.15-.27.15-.68.15-1.9,0-5.66-.19-5.93.23-.11.27-.27.68-.34.68-.65,0-.38-.68-1.6-.68-1.37,0-1,1.22-1.6,2.13-.15.3-.65,0-1,.61H44.88l-.23-.23Zm6.38-7.9L50.58,26c0-2.55.15-5.32-.46-7,0-.11-.34-.57-.34-.68,0-.3,0-.46.34-.46.08,0,1,.11,1.48.11.46.34.91,1,1.48,1a1.65,1.65,0,0,0,.8-.23h2.66a10.13,10.13,0,0,1,.91-.46c.08,0,.76-.57.91-.57a1,1,0,0,1,.3-.11c-.08.11.68.46.68.91.23.34,1.06.57,1.06,1.14s-.68.91-.68,1.71v3c0,.23-.27.61-.23,1-1,.23-2.28.42-3.12.61-.65,0-1,.08-2.74.08-1.56.19-.46,2.66-2.39,3.12-.68.15-.8-1.29-.8-1.6A8,8,0,0,1,50.69,26.07Zm2.55-14.63c0-.23.08-.42.08-.53a6.22,6.22,0,0,1-.11-1.82c0-.34-.46-.61-1.14-1.63-.08-.46.49-.8.95-.8.15,0,.34,0,.46,0A.87.87,0,0,0,54,6.54C54.38,6.32,55.59,8,56.39,8c.23,0,.38-.08.61-.08a1.93,1.93,0,0,1,1,.46,3.13,3.13,0,0,1,1.86-.49c.46,0,1,0,1.48,0a5.8,5.8,0,0,0,1.37-.27c.34-.08.3.11.57.11,1-.76,1.94-2.05,2.28-2.28A10.62,10.62,0,0,1,67,7.23c.34.46,1.14.72,1.14,1.25a1.06,1.06,0,0,1-.34.84A8.82,8.82,0,0,0,67.26,13c0,.15-.23.61-.23.68l.11.23c.34,1.06-3.3,1-4.45,1-.57.57-3.38.19-4.79.57-.46,0-.8.68-1.29.46a2.6,2.6,0,0,1-1.9,1.25c-1.33,0-1.25-2.09-1.29-2.17V12.13A1.43,1.43,0,0,1,53.24,11.44ZM53,23.56c0,1.37,1.18,1.14,2.2,1.14-.11-.15,1.67.15,1.67-.53a2.1,2.1,0,0,0-.08-.68V21.06c-.19-.3-.19-1.14-.84-1.14-.08,0-.53.11-.68.11-1,.11-1.82-.23-2.05,1A4.49,4.49,0,0,0,53,23ZM59.5,9.09c-1.48,0-3.19-.23-3.19,1.14v3.19c0,.08.3.3.46.46s.19-.15,1.37-.15h2.28a1.61,1.61,0,0,1,.53-.23,3,3,0,0,1,1.14.23c.38,0,1.63-.46,1.63-.91V10.68a1.72,1.72,0,0,1-.15-.68V9.73c0-.3-.08-.53-.53-.87-.08-.23-.76-.11-1-.15A15.16,15.16,0,0,0,59.5,9.09ZM62.32,23c0-1.06-.23-3.72-.23-5.17-.11-.3.46-.46.61-.46,1.14,0,1.37,1,2.17,1.25a4.27,4.27,0,0,0,1.25.11c2.09,0,2.7-1,3.87-2.17.23.11.46.11.57.34a7.42,7.42,0,0,1,.68,1l.11-.11a1.14,1.14,0,0,1,.8,1.14,3.74,3.74,0,0,1-.68,1.71,1,1,0,0,0,.23.46c0,1.67-.11,2.7-.11,4.14,0,.3.19.53-1.82.53-.11,0-.57.15-.68.15-1.06.08-3.08-.08-4,.53-.49.38-.34,1.1-.34,1.52,0,.61-1.41,2-1.48,1.82a1.16,1.16,0,0,1-1.18-1V23.72A7.15,7.15,0,0,1,62.32,23ZM66.8,24.7c0-.15,1.48.15,1.6-.91V20.6l-.23-.91a8.91,8.91,0,0,0-3,.34l-.34,1v2.43c.11.23.3.91.57,1A9.84,9.84,0,0,1,66.8,24.7Z" transform="translate(12.78 6.76)"/></g></g></svg>