<svg id="图层_1" data-name="图层 1" xmlns="http://www.w3.org/2000/svg" viewBox="0 0 300 121"><defs><style>.cls-1{fill:#e7e9e9;}</style></defs><title>3</title><path class="cls-1" d="M300,119.25V121h-8.83v-5.81h-4V121H279.9v-7.56h5.51v-3.55H279.9l-3,3V121h-8.16v-1.75h6.41V112.2l4.06-4.06h8v5.3h5.76v5.81H300Zm-14.59,0v-4.07h-3.76v4.07h3.76Z"/><path class="cls-1" d="M300,89.7v8.16h-8.08l-3,3v5.51h3.55V100.9H300v7.25h-5.81v4H300V121h-1.75v-7.09h-5.81v-5.76h-5.3v-8l4.05-4.06h7.05V89.7H300Zm-1.75,16.7v-3.76h-4.07v3.76h4.07Z"/><path class="cls-1" d="M1.75,121H0v-8.83H5.81v-4H0V100.9H7.56v5.51h3.55V100.9l-3-3H0V89.71H1.75v6.41H8.8l4.06,4.06v8H7.56v5.76H1.75V121Zm0-14.59H5.81v-3.76H1.75v3.76Z"/><path class="cls-1" d="M31.3,121H23.14v-8.08l-3-3H14.6v3.55H20.1V121H12.85v-5.81h-4V121H0v-1.75H7.09v-5.81h5.76v-5.3h8l4.06,4.05v7.05H31.3V121Zm-16.7-1.75h3.76v-4.07H14.6v4.07Z"/><path class="cls-1" d="M0,1.75V0H8.83V5.81h4V0H20.1V7.56H14.59v3.55H20.1l3-3V0h8.16V1.75H24.88V8.8l-4.06,4.06h-8V7.56H7.08V1.75H0Zm14.59,0V5.81h3.76V1.75H14.59Z"/><path class="cls-1" d="M0,31.3V23.14H8.08l3-3V14.6H7.56V20.1H0V12.85H5.81v-4H0V0H1.75V7.09H7.56v5.76h5.3v8L8.8,24.89H1.75V31.3H0ZM1.75,14.6v3.76H5.81V14.6H1.75Z"/><path class="cls-1" d="M298.25,0H300V8.83h-5.81v4H300V20.1h-7.56V14.59h-3.55V20.1l3,3H300v8.16h-1.75V24.88H291.2l-4.06-4.06v-8h5.3V7.08h5.81V0Zm0,14.59h-4.07v3.76h4.07V14.59Z"/><path class="cls-1" d="M268.7,0h8.16V8.08l3,3h5.51V7.56H279.9V0h7.25V5.81h4V0H300V1.75h-7.09V7.56h-5.76v5.3h-8L275.11,8.8V1.75H268.7V0Zm16.7,1.75h-3.76V5.81h3.76V1.75Z"/></svg>