<svg id="图层_1" data-name="图层 1" xmlns="http://www.w3.org/2000/svg" viewBox="0 0 104.55 270.14"><defs><style>.cls-1{fill:#e7e9e9;}</style></defs><title>left</title><path class="cls-1" d="M290.79,322.12c-10.69,0-19.92,8.74-24.28,21.41C253.17,349,243.78,360,243.78,360s11,12.88,26.07,17.68c7.94,12,20.94,20.2,20.94,20.2,0-37.88,27-37.88,27-37.88S290.79,360,290.79,322.12Z" transform="translate(-243.78 -224.93)"/><path class="cls-1" d="M338.08,389.51a10,10,0,1,0,0,20c0.22,0,.44,0,0.66,0-0.75,4-3.09,7.87-9.43,7.48-12.78-.78-17.11-12-15.91-23.62s8.13-18.63,21.24-22.68h0V349.33h0c-13.11-4-20-11-21.24-22.68s3.14-22.84,15.91-23.62c6.35-.39,8.68,3.49,9.43,7.48-0.22,0-.44,0-0.66,0a10,10,0,1,0,10,10.94,36,36,0,0,0,.21-7.31c-1.13-20.31-13.8-23.29-13.8-23.29,17.67-17.27,16-40.43,7.47-47A14.05,14.05,0,0,0,327,242a10,10,0,1,0-9.07,2.72h0c4.65,1.22-2.45,13.49-2.45,13.49v0A10,10,0,1,0,327,254c0.42-1,1.38-1.68,3.13-2,9.08-1.73,10.11,5.06,9.73,9-3.24,32-30.94,22.63-38.37,55.75s22.47,39.69,22.47,39.69H324v7.1h-0.06s-29.9,6.58-22.47,39.69S336.59,427,339.83,459c0.38,4-.65,10.75-9.73,9-1.74-.33-2.71-1.06-3.13-2a10,10,0,1,0-11.48-4.27v0S322.61,474,318,475.26h0A10,10,0,1,0,327,478a14.05,14.05,0,0,0,14.9-1.81c8.55-6.55,10.2-29.71-7.47-47,0,0,12.67-3,13.8-23.29a36,36,0,0,0-.21-7.31A10,10,0,0,0,338.08,389.51Z" transform="translate(-243.78 -224.93)"/></svg>