<svg id="图层_1" data-name="图层 1" xmlns="http://www.w3.org/2000/svg" viewBox="0 0 284.61 554.38"><defs><style>.cls-1{fill:#e7e9e9;opacity:0.61;}</style></defs><title>推荐left</title><path class="cls-1" d="M486.16,580.72c-17.35-14.41-28.82-14.08-33.4-22.92S439,519.09,419.69,518.47c-32.11,0-44.53,14.77-44.53,14.77s23.25-3.6,24.23,10.81-16.37,22.27-23.9,20.3-19-2.62-19.32-35,11.13-87.1,5.24-105.11a80,80,0,0,0-10.7-25.39c17.5-9.33,28.63-23.25,28.63-38.81s-11.12-29.48-28.63-38.81a80,80,0,0,0,10.7-25.39c5.89-18-5.57-72.69-5.24-105.11s11.79-33.07,19.32-35,24.89,5.89,23.9,20.3-24.23,10.81-24.23,10.81,12.42,14.77,44.53,14.77c19.32-.62,28.49-30.49,33.07-39.33s16-8.51,33.4-22.92,16.13-56.47,16.13-56.47-22.22,18-31.62,22.08-47.85,8.59-78.52,7.77-41.3,13.9-61.34,42.53-5.6,111.73-6.5,125.82-10.07,27.07-25.05,28-25.05-5.14-31.09-17.89,9.39-23,17.22-19.24-1.36,19-1.36,19,21.82,2,29.43-29.94-25.88-42.62-25.88-42.62,0-23.34-16.24-38.06-46.68,6.6-46.68,6.6S254.09,193.91,248,237s-12.69,34.5-14.21,54.29,8.12,28.92,8.12,28.92,0.55,0.95,1.62,2.48C227.65,332,217.69,345.28,217.69,360s10,28,25.84,37.26c-1.07,1.54-1.62,2.48-1.62,2.48s-9.64,9.13-8.12,28.92S241.91,439.83,248,483s-23.34,50.23-23.34,50.23,30.44,21.31,46.68,6.6,16.24-38.06,16.24-38.06,33.49-10.66,25.88-42.62S284,429.18,284,429.18s9.19,15.18,1.36,19-23.26-6.49-17.22-19.24,16.11-18.79,31.09-17.89,24.16,13.87,25.05,28-13.54,97.19,6.5,125.82,30.67,43.35,61.34,42.53,69.11,3.68,78.52,7.77,31.62,22.08,31.62,22.08S503.51,595.13,486.16,580.72Z" transform="translate(-217.69 -82.81)"/></svg>