<svg id="图层_1" data-name="图层 1" xmlns="http://www.w3.org/2000/svg" viewBox="0 0 284.62 554.38"><defs><style>.cls-1{fill:#e7e9e9;opacity:0.61;}</style></defs><title>推荐right</title><path class="cls-1" d="M233.84,580.72c17.35-14.41,28.82-14.08,33.4-22.92s13.75-38.71,33.07-39.33c32.11,0,44.53,14.77,44.53,14.77s-23.25-3.6-24.23,10.81,16.37,22.27,23.9,20.3,19-2.62,19.32-35-11.13-87.1-5.24-105.11a80,80,0,0,1,10.7-25.39c-17.5-9.33-28.63-23.25-28.63-38.81s11.12-29.48,28.63-38.81a80,80,0,0,1-10.7-25.39c-5.89-18,5.57-72.69,5.24-105.11s-11.79-33.07-19.32-35-24.89,5.89-23.9,20.3,24.23,10.81,24.23,10.81-12.42,14.77-44.53,14.77C281,200.92,271.82,171,267.24,162.2s-16-8.51-33.4-22.92-16.13-56.47-16.13-56.47,22.22,18,31.62,22.08,47.85,8.59,78.52,7.77,41.3,13.9,61.34,42.53,5.6,111.73,6.5,125.82,10.07,27.07,25.05,28,25.05-5.14,31.09-17.89-9.39-23-17.22-19.24,1.36,19,1.36,19-21.82,2-29.43-29.94,25.88-42.62,25.88-42.62,0-23.34,16.24-38.06,46.68,6.6,46.68,6.6S465.91,193.91,472,237s12.69,34.5,14.21,54.29-8.12,28.92-8.12,28.92-0.55.95-1.62,2.48c15.89,9.29,25.84,22.54,25.84,37.26s-10,28-25.84,37.26c1.07,1.54,1.62,2.48,1.62,2.48s9.64,9.13,8.12,28.92S478.09,439.83,472,483s23.34,50.23,23.34,50.23-30.44,21.31-46.68,6.6-16.24-38.06-16.24-38.06-33.49-10.66-25.88-42.62S436,429.18,436,429.18s-9.19,15.18-1.36,19,23.26-6.49,17.22-19.24S435.73,410.14,420.74,411s-24.16,13.87-25.05,28,13.54,97.19-6.5,125.82-30.67,43.35-61.34,42.53-69.11,3.68-78.52,7.77-31.62,22.08-31.62,22.08S216.49,595.13,233.84,580.72Z" transform="translate(-217.69 -82.81)"/></svg>