<?xml version="1.0" encoding="utf-8"?>
<!-- Generator: Adobe Illustrator 21.0.0, SVG Export Plug-In . SVG Version: 6.00 Build 0)  -->
<svg version="1.1" id="图层_1" xmlns="http://www.w3.org/2000/svg" xmlns:xlink="http://www.w3.org/1999/xlink" x="0px" y="0px"
	 viewBox="0 0 260 80" style="enable-background:new 0 0 260 80;" xml:space="preserve">
<style type="text/css">
	.st0{fill:none;}
	.st1{fill:#DBF6EC;}
	.st2{fill:#72E5BA;}
	.st3{fill:#F9F9CF;}
	.st4{fill:#25BF9A;}
</style>
<g>
	<path class="st0" d="M129.6,0H87.3v42.3C87.3,18.9,106.2,0,129.6,0z"/>
	<path class="st0" d="M129.6,0C153,0,172,19,172,42.3V0H129.6z"/>
	<path class="st1" d="M129.6,0c-23.3,0-42.3,19-42.3,42.3h8c0-19,15.4-34.2,34.2-34.2c19,0,34.2,15.4,34.2,34.2h8
		C171.8,18.9,153,0,129.6,0z"/>
	<path class="st2" d="M129.6,8c-19,0-34.2,15.4-34.2,34.2h7.7c0-14.6,11.8-26.6,26.6-26.6c14.6,0,26.6,11.8,26.6,26.6h7.7
		C163.9,23.3,148.5,8,129.6,8z"/>
	<path class="st3" d="M129.6,15.7C115,15.7,103,27.6,103,42.3h8.2c0-10.2,8.2-18.3,18.3-18.3c10.2,0,18.3,8.2,18.3,18.3h8.2
		C156.1,27.6,144.3,15.7,129.6,15.7z"/>
	<path class="st4" d="M129.6,23.9c-10.2,0-18.3,8.2-18.3,18.3h36.5C147.9,32.2,139.7,23.9,129.6,23.9z"/>
</g>
<g>
	<path class="st0" d="M172.3,19.8H130v42.3C130,38.8,148.9,19.8,172.3,19.8z"/>
	<path class="st0" d="M172.3,19.8c23.3,0,42.3,19,42.3,42.3V19.8H172.3z"/>
	<path class="st1" d="M172.3,19.8c-23.3,0-42.3,19-42.3,42.3h8c0-19,15.4-34.2,34.2-34.2c19,0,34.2,15.4,34.2,34.2h8
		C214.5,38.8,195.7,19.8,172.3,19.8z"/>
	<path class="st2" d="M172.3,27.8c-19,0-34.2,15.4-34.2,34.2h7.7c0-14.6,11.8-26.6,26.6-26.6S199,47.3,199,62h7.7
		C206.5,43.2,191.2,27.8,172.3,27.8z"/>
	<path class="st3" d="M172.3,35.5c-14.6,0-26.6,11.8-26.6,26.6h8.2c0-10.2,8.2-18.3,18.3-18.3s18.3,8.2,18.3,18.3h8.2
		C198.8,47.4,187,35.5,172.3,35.5z"/>
	<path class="st4" d="M172.3,43.9c-10.2,0-18.3,8.2-18.3,18.3l18.3,17.2l18.3-17.2C190.6,52,182.4,43.9,172.3,43.9z"/>
</g>
<g>
	<path class="st0" d="M87,19.8H44.6v42.3C44.6,38.8,63.6,19.8,87,19.8z"/>
	<path class="st0" d="M87,19.8c23.3,0,42.3,19,42.3,42.3V19.8H87z"/>
	<path class="st1" d="M87,19.8c-23.3,0-42.3,19-42.3,42.3h8c0-19,15.4-34.2,34.2-34.2c19,0,34.2,15.4,34.2,34.2h8
		C129.3,38.8,110.3,19.8,87,19.8z"/>
	<path class="st2" d="M87,27.8c-19,0-34.2,15.4-34.2,34.2h7.7c0-14.6,11.8-26.6,26.6-26.6s26.6,11.8,26.6,26.6h7.7
		C121.2,43.2,105.8,27.8,87,27.8z"/>
	<path class="st3" d="M87,35.5c-14.6,0-26.6,11.8-26.6,26.6h8.2c0-10.2,8.2-18.3,18.3-18.3c10.2,0,18.3,8.2,18.3,18.3h8.2
		C113.6,47.4,101.6,35.5,87,35.5z"/>
	<path class="st4" d="M87,43.9c-10.2,0-18.3,8.2-18.3,18.3L87,79.3l18.3-17.2C105.2,52,97,43.9,87,43.9z"/>
</g>
<path class="st0" d="M129.6,37H87v42.3C87,55.9,106.1,37,129.6,37z"/>
<path class="st0" d="M129.6,37c23.6,0,42.7,19,42.7,42.3V37H129.6z"/>
<path class="st1" d="M129.6,37C106.1,37,87,56,87,79.3h8.1c0-19,15.5-34.2,34.6-34.2s34.6,15.4,34.6,34.2h8.1
	C172.3,55.9,153.2,37,129.6,37z"/>
<path class="st4" d="M129.6,45c-19.1,0-34.6,15.4-34.6,34.2h69.2C164.2,60.3,148.7,45,129.6,45z"/>
<g>
	<path class="st0" d="M214.5,37h-42.3v42.3C172.3,55.9,191.2,37,214.5,37z"/>
	<path class="st0" d="M214.5,37c23.3,0,42.3,19,42.3,42.3V37H214.5z"/>
	<path class="st1" d="M214.5,37c-23.3,0-42.3,19-42.3,42.3h8c0-19,15.4-34.2,34.2-34.2c19,0,34.2,15.4,34.2,34.2h8
		C256.8,55.9,238,37,214.5,37z"/>
	<path class="st2" d="M214.5,45c-19,0-34.2,15.4-34.2,34.2h7.7c0-14.6,11.8-26.6,26.6-26.6c14.6,0,26.6,11.8,26.6,26.6h7.7
		C248.9,60.3,233.5,45,214.5,45z"/>
	<path class="st3" d="M214.5,52.7c-14.6,0-26.6,11.8-26.6,26.6h8.2c0-10.2,8.2-18.3,18.3-18.3c10.2,0,18.3,8.2,18.3,18.3h8.2
		C241.1,64.6,229.3,52.7,214.5,52.7z"/>
	<path class="st4" d="M214.5,60.9c-10.2,0-18.3,8.2-18.3,18.3h36.5C232.9,69.2,224.7,60.9,214.5,60.9z"/>
</g>
<g>
	<path class="st0" d="M45,37H3.2v42.3C3.2,55.9,21.9,37,45,37z"/>
	<path class="st0" d="M45,37c23.1,0,42,19,42,42.3V37H45z"/>
	<path class="st1" d="M45,37C21.9,37,3.2,56,3.2,79.3h8c0-19,15.2-34.2,34-34.2s34,15.4,34,34.2h8C87,55.9,68.2,37,45,37z"/>
	<path class="st2" d="M45,45c-18.7,0-34,15.4-34,34.2h7.6c0-14.6,11.7-26.6,26.4-26.6c14.5,0,26.4,11.8,26.4,26.6H79
		C79,60.3,63.7,45,45,45z"/>
	<path class="st3" d="M45,52.7c-14.5,0-26.4,11.8-26.4,26.6h8.2c0-10.2,8.1-18.3,18.1-18.3s18.1,8.2,18.1,18.3h8.2
		C71.4,64.6,59.6,52.7,45,52.7z"/>
	<path class="st4" d="M45,60.9c-10,0-18.1,8.2-18.1,18.3h36.3C63.1,69.2,55,60.9,45,60.9z"/>
</g>
</svg>
