<svg xmlns="http://www.w3.org/2000/svg" viewBox="0 0 464.32 317.39"><defs><style>.cls-1{fill:#25bf9a;opacity:0.6;}.cls-2{fill:#fff;}.cls-3{fill:none;stroke:#fff;stroke-miterlimit:10;stroke-width:3px;}</style></defs><title>slogan_community</title><g id="图层_2" data-name="图层 2"><g id="图层_1-2" data-name="图层 1"><path class="cls-1" d="M347.65,116C331.22,97.33,316.52,96,313.48,95.67s-11.44-1-19,4.8C285.57,107,277.66,120.8,290.8,133c-3.24-15.06,12.46-12.08,15.79-9.79,6.54,3.52,9.8,21.73-8.43,21.82-14,.07-24.27-28.32-24.27-28.32s-28.46-10.06-28.39-24.53c.09-18.23,18.3-15,21.82-8.43,2.29,3.33,5.28,19-9.79,15.79,12.2,13.14,26,5.23,32.53-3.68,5.78-7.56,5.14-16,4.8-19s-1.66-17.74-20.28-34.17S232.41,0,232.41,0s-23.95,26.69-42.57,43.12-19.94,31.13-20.28,34.17-1,11.44,4.8,19c6.56,8.91,20.33,16.82,32.53,3.68-15.06,3.24-12.08-12.46-9.79-15.79,3.52-6.54,21.73-9.8,21.82,8.43.07,13.72-27.6,24.1-27.6,24.1s-7.25,29.4-25.49,29.3-15-18.3-8.43-21.82c3.33-2.29,19-5.28,15.79,9.79,13.14-12.2,5.23-26-3.68-32.53-7.56-5.78-16-5.14-19-4.8s-17.74,1.66-34.17,20.28-42.69,42.18-42.69,42.18,26.69,23.95,43.12,42.57S147.9,221.63,150.94,222s11.44,1,19-4.8c8.91-6.56,16.82-20.33,3.68-32.53,3.24,15.06-12.46,12.08-15.79,9.79-6.54-3.52-9.8-21.73,8.43-21.82,15.69-.08,25.05,28.9,25.05,28.9s28.26,10.57,28.2,23.7c-.09,18.23-18.3,15-21.82,8.43-2.29-3.33-5.28-19,9.79-15.79-12.2-13.14-26-5.23-32.53,3.68-5.78,7.56-5.14,16-4.8,19s1.66,17.74,20.28,34.17,42.18,42.69,42.18,42.69,23.95-26.69,42.57-43.12,19.94-31.13,20.28-34.17,1-11.44-4.8-19c-6.56-8.91-20.33-16.82-32.53-3.68,15.06-3.24,12.08,12.46,9.79,15.79-3.52,6.54-21.73,9.8-21.82-8.43-.06-12.56,27.79-23.27,27.79-23.27s9.88-30,24.7-29.88c18.23.09,15,18.3,8.43,21.82-3.33,2.29-19,5.28-15.79-9.79-13.14,12.2-5.23,26,3.68,32.53,7.56,5.78,16,5.14,19,4.8s17.74-1.66,34.17-20.28,42.69-42.18,42.69-42.18S364.08,134.58,347.65,116Z"/><path class="cls-2" d="M.07,216.51a18.12,18.12,0,0,0,.15-2.43H.74a5.8,5.8,0,0,0,.13,1.35,1.17,1.17,0,0,0,.43.44,3.57,3.57,0,0,0,.92.42,3.68,3.68,0,0,0,1.12.18,3,3,0,0,0,1.45-.36,2.29,2.29,0,0,0,1-1,2.71,2.71,0,0,0,.31-1.26,2.35,2.35,0,0,0-.15-.89,1.38,1.38,0,0,0-.46-.61,1.94,1.94,0,0,0-.77-.32l-1.16-.16q-.87-.11-1.48-.24a3.3,3.3,0,0,1-1.2-.59,2.44,2.44,0,0,1-.62-.88A2.91,2.91,0,0,1,0,209a3.36,3.36,0,0,1,.48-1.74A3.21,3.21,0,0,1,1.9,206a4.65,4.65,0,0,1,2-.45,6.67,6.67,0,0,1,1.45.18,6.46,6.46,0,0,1,1.46.51,8.43,8.43,0,0,0-.16.92q0,.43-.07,1.25H6.11A8.76,8.76,0,0,0,6,207.11a2,2,0,0,0-.53-.51,3.39,3.39,0,0,0-1.68-.45,2.43,2.43,0,0,0-1.81.69,2.44,2.44,0,0,0-.68,1.79,1.84,1.84,0,0,0,.24,1,1.66,1.66,0,0,0,.87.58,8.12,8.12,0,0,0,1.41.28q1,.13,1.76.28a3,3,0,0,1,1.09.52,2.29,2.29,0,0,1,.58.79,2.7,2.7,0,0,1,.23,1.15A3.54,3.54,0,0,1,6.21,216a4.81,4.81,0,0,1-3.34,1.16A6.32,6.32,0,0,1,.07,216.51Z"/><path class="cls-2" d="M8.34,211.41a6.78,6.78,0,0,1,.37-2.28,4.89,4.89,0,0,1,1.23-1.88A5.82,5.82,0,0,1,11.89,206a6.78,6.78,0,0,1,2.48-.43,7.16,7.16,0,0,1,2.34.36,5.07,5.07,0,0,1,1.73,1,4.92,4.92,0,0,1,1.07,1.31,5,5,0,0,1,.47,1.25,6.47,6.47,0,0,1,.18,1.54,5.91,5.91,0,0,1-1.77,4.38,6.09,6.09,0,0,1-4.46,1.75,6.46,6.46,0,0,1-2.29-.4,4.66,4.66,0,0,1-1.8-1.18,5.2,5.2,0,0,1-1.12-1.91A6.82,6.82,0,0,1,8.34,211.41Zm1.63-.65a7.89,7.89,0,0,0,.15,1.51,7,7,0,0,0,.38,1.32,4.88,4.88,0,0,0,1,1.57,3.83,3.83,0,0,0,1.35.94,4.37,4.37,0,0,0,1.65.3,3.88,3.88,0,0,0,2.19-.61,3.68,3.68,0,0,0,1.39-1.73,6.72,6.72,0,0,0,.46-2.57,7.62,7.62,0,0,0-.33-2.29,4.82,4.82,0,0,0-.54-1.16,3.69,3.69,0,0,0-2-1.56,4.73,4.73,0,0,0-1.6-.27,4.21,4.21,0,0,0-2.18.55,3.46,3.46,0,0,0-1.41,1.61A5.74,5.74,0,0,0,10,210.77Z"/><path class="cls-2" d="M31.44,215.52l-.3.73a8.13,8.13,0,0,1-1.79.67,8.3,8.3,0,0,1-1.91.21,8,8,0,0,1-2.25-.3,5.84,5.84,0,0,1-1.82-.87,5.44,5.44,0,0,1-1.27-1.27,5.52,5.52,0,0,1-.75-1.53,6,6,0,0,1-.26-1.81,5.43,5.43,0,0,1,1.74-4.13,6.64,6.64,0,0,1,4.75-1.64,9.84,9.84,0,0,1,1.32.08,12.62,12.62,0,0,1,1.48.31l1.07.27a5,5,0,0,0-.26.84,11.82,11.82,0,0,0-.17,1.54h-.49v-.92a1.38,1.38,0,0,0-.85-1.14,5.32,5.32,0,0,0-2.25-.37,6,6,0,0,0-1.88.29,3.61,3.61,0,0,0-1.36.85,4.48,4.48,0,0,0-1,1.48,5.93,5.93,0,0,0-.38,2.25,5,5,0,0,0,5.27,5.25,6.41,6.41,0,0,0,2-.29,4.64,4.64,0,0,0,1.24-.63Z"/><path class="cls-2" d="M32.15,216.89v-.53a4.05,4.05,0,0,0,.77-.05.67.67,0,0,0,.28-.16,2.49,2.49,0,0,0,.37-.63l1-2.2,2-4.41q.32-.73,1.37-3.23h.5l3.34,7.84q.81,1.91,1.08,2.39a.8.8,0,0,0,.32.36,2.29,2.29,0,0,0,.79.09v.53q-1.22-.08-1.71-.08l-2.52.08v-.53a8.43,8.43,0,0,0,1.06-.05.46.46,0,0,0,.25-.11.26.26,0,0,0,.07-.18,1.27,1.27,0,0,0-.11-.45l-1-2.39H35.52l-.85,2a2.36,2.36,0,0,0-.23.79.26.26,0,0,0,.06.18.46.46,0,0,0,.27.14,5.79,5.79,0,0,0,1,.07v.53q-1.32-.07-2-.07T32.15,216.89Zm3.64-4.38h3.94l-1.95-4.7Z"/><path class="cls-2" d="M49.29,216.39v.5l-2.18-.05-2.41.05v-.5a5.42,5.42,0,0,0,1.12-.08.51.51,0,0,0,.28-.18,2,2,0,0,0,.12-.76q0-.16,0-2.22v-3.61q0-1.06,0-2.08a2.46,2.46,0,0,0-.11-.88.53.53,0,0,0-.29-.2,5.62,5.62,0,0,0-1.13-.08v-.5q1.49.06,2.3.05t2.29-.05v.5a5.56,5.56,0,0,0-1.12.08.51.51,0,0,0-.28.18,2,2,0,0,0-.12.76q0,.16,0,2.22v3.61q0,1.06,0,2.07a2.49,2.49,0,0,0,.11.88.52.52,0,0,0,.29.21A5.46,5.46,0,0,0,49.29,216.39Z"/><path class="cls-2" d="M50.71,216.89v-.41a2.46,2.46,0,0,0,.61-.36.37.37,0,0,0,.11-.18,4.34,4.34,0,0,0,.09-.94q0-1.07,0-1.27v-4.2q0-1.06,0-2.08a2.46,2.46,0,0,0-.11-.88.53.53,0,0,0-.29-.2A5.62,5.62,0,0,0,50,206.3v-.5l2.36.05,2.24-.05v.5a5.62,5.62,0,0,0-1.13.08.51.51,0,0,0-.28.18,2,2,0,0,0-.12.76q0,.16,0,2.22v5.25q0,.82,0,1.33.89.06,1.77.05a11.54,11.54,0,0,0,3.09-.28,3.67,3.67,0,0,0,.18-.54l.31-1.3H59q-.17,1.16-.34,2.73l-.51.08q-.41,0-1.25,0l-4.62-.05Q51.48,216.84,50.71,216.89Z"/><path class="cls-2" d="M63.8,208.38h-.48q0-1.87-.08-2.59l2.67.08,2,0,2.46,0,2-.06q-.09.88-.12,2.59h-.5l-.06-.75q-.06-.68-.09-.77a.27.27,0,0,0-.07-.13.32.32,0,0,0-.13-.06l-.78-.06-1.06,0h-1q-.08.75-.08,2v4.57q0,1.06,0,2.07a2.49,2.49,0,0,0,.11.88.52.52,0,0,0,.29.21,5.46,5.46,0,0,0,1.13.08v.5q-1.4-.06-2.1-.06l-2.44.06v-.5a5.48,5.48,0,0,0,1.13-.08.47.47,0,0,0,.27-.18,1.84,1.84,0,0,0,.12-.76q0-.16,0-2.22V208.6c0-.22,0-.46,0-.72l0-1.32H65.89a13,13,0,0,0-1.6.08.34.34,0,0,0-.24.1,2.77,2.77,0,0,0-.16.85Z"/><path class="cls-2" d="M77.67,216.39v.5l-2.18-.05-2.41.05v-.5a5.42,5.42,0,0,0,1.12-.08.51.51,0,0,0,.28-.18,2,2,0,0,0,.12-.76q0-.16,0-2.22v-3.61q0-1.06,0-2.08a2.46,2.46,0,0,0-.11-.88.53.53,0,0,0-.29-.2,5.62,5.62,0,0,0-1.13-.08v-.5q1.49.06,2.3.05t2.29-.05v.5a5.56,5.56,0,0,0-1.12.08.51.51,0,0,0-.28.18,2,2,0,0,0-.12.76q0,.16,0,2.22v3.61q0,1.06,0,2.07a2.49,2.49,0,0,0,.11.88.52.52,0,0,0,.29.21A5.46,5.46,0,0,0,77.67,216.39Z"/><path class="cls-2" d="M79,208.38h-.48q0-1.87-.08-2.59l2.67.08,2,0,2.46,0,2-.06q-.09.88-.12,2.59H87l-.06-.75q-.06-.68-.09-.77a.27.27,0,0,0-.07-.13.32.32,0,0,0-.13-.06l-.78-.06-1.06,0h-1q-.08.75-.08,2v4.57q0,1.06,0,2.07a2.49,2.49,0,0,0,.11.88.52.52,0,0,0,.29.21,5.46,5.46,0,0,0,1.13.08v.5q-1.4-.06-2.1-.06l-2.44.06v-.5a5.48,5.48,0,0,0,1.13-.08.47.47,0,0,0,.27-.18,1.84,1.84,0,0,0,.12-.76q0-.16,0-2.22V208.6c0-.22,0-.46,0-.72l0-1.32H81.09a13,13,0,0,0-1.6.08.34.34,0,0,0-.24.1,2.77,2.77,0,0,0-.16.85Z"/><path class="cls-2" d="M88.45,216.89v-.5a3.2,3.2,0,0,0,1.08-.12.29.29,0,0,0,.16-.15,2.76,2.76,0,0,0,.11-.82q0-1,0-1.78v-4q0-1.06,0-2.08a2.45,2.45,0,0,0-.11-.88.53.53,0,0,0-.29-.2,5.54,5.54,0,0,0-1.13-.08v-.5l2.23,0,2.36,0,2.46,0a11.91,11.91,0,0,1,1.46.09,6.12,6.12,0,0,0-.17.77s-.06.59-.14,1.63H96a8.41,8.41,0,0,0-.1-1.45,3.59,3.59,0,0,0-.95-.24,14.22,14.22,0,0,0-1.75-.11l-.84,0-.93.05q0,.86,0,1.62l0,2.63q.91.06,1.68.05a12.4,12.4,0,0,0,1.59-.09.47.47,0,0,0,.32-.12,1.86,1.86,0,0,0,.13-.64l0-.55h.47v.15l0,1.63,0,1.82H95l0-.53a1.8,1.8,0,0,0-.11-.72.51.51,0,0,0-.34-.2,10.16,10.16,0,0,0-1.73-.09l-1.48,0q0,.78,0,2.32t0,2.2q1.12.09,2.52.09a10.9,10.9,0,0,0,1.41-.06,3.24,3.24,0,0,0,.78-.21,4.84,4.84,0,0,0,.19-.66c.11-.46.19-.81.23-1H97a21.14,21.14,0,0,0-.2,2.62,10.91,10.91,0,0,1-1.63.1l-4.66-.05Z"/><path class="cls-2" d="M98,206.3v-.5l.93,0,1.5,0,1.38,0,1.41,0a6.49,6.49,0,0,1,2.18.27,2.12,2.12,0,0,1,1.06.86,2.4,2.4,0,0,1,.38,1.3,2.71,2.71,0,0,1-.35,1.3,3,3,0,0,1-1,1.08,5.32,5.32,0,0,1-1.74.66q.19.27.92,1.22l2,2.59q.84,1.09,1,1.21a.46.46,0,0,0,.14.08,2.05,2.05,0,0,0,.51,0v.5q-.59-.05-1-.05t-1.13.05q-.51-.59-1.71-2.29-.67-.94-1.18-1.58-.82-1-1.57-1.9l.08-.23.62,0a3.09,3.09,0,0,0,2.16-.67,2.29,2.29,0,0,0,.73-1.77,2,2,0,0,0-.63-1.53,2.8,2.8,0,0,0-1.91-.57,5.26,5.26,0,0,0-1.58.24q0,.42,0,.79,0,.11-.05,2.27v3.46q0,1.06,0,2.07a2.46,2.46,0,0,0,.1.88.52.52,0,0,0,.29.21,5.42,5.42,0,0,0,1.12.08v.5q-1.11-.05-2-.05-.75,0-2.52.05v-.5a5.42,5.42,0,0,0,1.12-.08.51.51,0,0,0,.28-.18,2,2,0,0,0,.12-.76q0-.16,0-2.22v-3.61q0-1.06,0-2.08a2.46,2.46,0,0,0-.11-.88.53.53,0,0,0-.29-.2A5.62,5.62,0,0,0,98,206.3Z"/><path class="cls-2" d="M108.72,206.3v-.5l.93,0,1.5,0,1.38,0,1.41,0a6.49,6.49,0,0,1,2.18.27,2.12,2.12,0,0,1,1.06.86,2.4,2.4,0,0,1,.38,1.3,2.71,2.71,0,0,1-.35,1.3,3,3,0,0,1-1,1.08,5.32,5.32,0,0,1-1.74.66q.19.27.92,1.22l2,2.59q.84,1.09,1,1.21a.46.46,0,0,0,.14.08,2.05,2.05,0,0,0,.51,0v.5q-.59-.05-1-.05t-1.13.05q-.51-.59-1.71-2.29-.67-.94-1.18-1.58-.82-1-1.57-1.9l.08-.23.62,0a3.09,3.09,0,0,0,2.16-.67,2.29,2.29,0,0,0,.73-1.77,2,2,0,0,0-.63-1.53,2.8,2.8,0,0,0-1.91-.57,5.26,5.26,0,0,0-1.58.24q0,.42,0,.79,0,.11-.05,2.27v3.46q0,1.06,0,2.07a2.46,2.46,0,0,0,.1.88.52.52,0,0,0,.29.21,5.42,5.42,0,0,0,1.12.08v.5q-1.11-.05-2-.05-.75,0-2.52.05v-.5a5.42,5.42,0,0,0,1.12-.08.51.51,0,0,0,.28-.18,2,2,0,0,0,.12-.76q0-.16,0-2.22v-3.61q0-1.06,0-2.08a2.46,2.46,0,0,0-.11-.88.53.53,0,0,0-.29-.2A5.62,5.62,0,0,0,108.72,206.3Z"/><path class="cls-2" d="M119.32,216.89v-.53a4.05,4.05,0,0,0,.77-.05.68.68,0,0,0,.28-.16,2.5,2.5,0,0,0,.37-.63q.14-.29,1-2.2l2-4.41q.32-.73,1.37-3.23h.5l3.34,7.84q.81,1.91,1.08,2.39a.8.8,0,0,0,.32.36,2.29,2.29,0,0,0,.79.09v.53q-1.22-.08-1.71-.08l-2.52.08v-.53a8.43,8.43,0,0,0,1.06-.05.46.46,0,0,0,.25-.11.26.26,0,0,0,.07-.18,1.26,1.26,0,0,0-.11-.45l-1-2.39h-4.52l-.85,2a2.36,2.36,0,0,0-.23.79.26.26,0,0,0,.06.18.46.46,0,0,0,.27.14,5.78,5.78,0,0,0,1,.07v.53q-1.32-.07-2-.07T119.32,216.89Zm3.64-4.38h3.94l-1.95-4.7Z"/><path class="cls-2" d="M142.4,215.52l-.3.73a8.13,8.13,0,0,1-1.79.67,8.3,8.3,0,0,1-1.91.21,8,8,0,0,1-2.25-.3,5.84,5.84,0,0,1-1.82-.87,5.44,5.44,0,0,1-1.27-1.27,5.52,5.52,0,0,1-.75-1.53,6,6,0,0,1-.26-1.81,5.43,5.43,0,0,1,1.74-4.13,6.64,6.64,0,0,1,4.75-1.64,9.84,9.84,0,0,1,1.32.08,12.62,12.62,0,0,1,1.48.31l1.07.27a5,5,0,0,0-.26.84,11.81,11.81,0,0,0-.17,1.54h-.49v-.92a1.38,1.38,0,0,0-.85-1.14,5.32,5.32,0,0,0-2.25-.37,6,6,0,0,0-1.88.29,3.61,3.61,0,0,0-1.36.85,4.48,4.48,0,0,0-1,1.48,5.92,5.92,0,0,0-.38,2.25,5,5,0,0,0,5.27,5.25,6.41,6.41,0,0,0,2-.29,4.64,4.64,0,0,0,1.24-.63Z"/><path class="cls-2" d="M143.74,208.38h-.48q0-1.87-.08-2.59l2.67.08,2,0,2.46,0,2-.06q-.09.88-.12,2.59h-.5l-.06-.75q-.06-.68-.09-.77a.27.27,0,0,0-.07-.13.32.32,0,0,0-.13-.06l-.78-.06-1.06,0h-1q-.08.75-.08,2v4.57q0,1.06,0,2.07a2.49,2.49,0,0,0,.11.88.52.52,0,0,0,.29.21,5.46,5.46,0,0,0,1.13.08v.5q-1.4-.06-2.1-.06l-2.44.06v-.5a5.48,5.48,0,0,0,1.13-.08.47.47,0,0,0,.27-.18,1.84,1.84,0,0,0,.12-.76q0-.16,0-2.22V208.6c0-.22,0-.46,0-.72l0-1.32h-1.16a13,13,0,0,0-1.6.08.34.34,0,0,0-.24.1,2.77,2.77,0,0,0-.16.85Z"/><path class="cls-2" d="M157.61,216.39v.5l-2.18-.05-2.41.05v-.5a5.42,5.42,0,0,0,1.12-.08.51.51,0,0,0,.28-.18,2,2,0,0,0,.12-.76q0-.16,0-2.22v-3.61q0-1.06,0-2.08a2.46,2.46,0,0,0-.11-.88.53.53,0,0,0-.29-.2,5.62,5.62,0,0,0-1.13-.08v-.5q1.49.06,2.3.05t2.29-.05v.5a5.56,5.56,0,0,0-1.12.08.51.51,0,0,0-.28.18,2,2,0,0,0-.12.76q0,.16,0,2.22v3.61q0,1.06,0,2.07a2.49,2.49,0,0,0,.11.88.52.52,0,0,0,.29.21A5.46,5.46,0,0,0,157.61,216.39Z"/><path class="cls-2" d="M158.42,211.41a6.78,6.78,0,0,1,.37-2.28,4.89,4.89,0,0,1,1.23-1.88A5.82,5.82,0,0,1,162,206a6.78,6.78,0,0,1,2.48-.43,7.16,7.16,0,0,1,2.34.36,5.07,5.07,0,0,1,1.73,1,4.92,4.92,0,0,1,1.07,1.31,5,5,0,0,1,.47,1.25,6.47,6.47,0,0,1,.18,1.54,5.91,5.91,0,0,1-1.77,4.38,6.09,6.09,0,0,1-4.46,1.75,6.46,6.46,0,0,1-2.29-.4,4.66,4.66,0,0,1-1.8-1.18,5.2,5.2,0,0,1-1.12-1.91A6.82,6.82,0,0,1,158.42,211.41Zm1.63-.65a7.89,7.89,0,0,0,.15,1.51,7,7,0,0,0,.38,1.32,4.88,4.88,0,0,0,1,1.57,3.83,3.83,0,0,0,1.35.94,4.37,4.37,0,0,0,1.65.3,3.88,3.88,0,0,0,2.19-.61,3.68,3.68,0,0,0,1.39-1.73,6.72,6.72,0,0,0,.46-2.57,7.62,7.62,0,0,0-.33-2.29,4.83,4.83,0,0,0-.54-1.16,3.69,3.69,0,0,0-2-1.56,4.73,4.73,0,0,0-1.6-.27,4.21,4.21,0,0,0-2.18.55,3.46,3.46,0,0,0-1.41,1.61A5.74,5.74,0,0,0,160,210.77Z"/><path class="cls-2" d="M171.06,216.89v-.5a3.24,3.24,0,0,0,1.08-.12.29.29,0,0,0,.16-.15,2.73,2.73,0,0,0,.11-.82q0-1,0-1.78v-6.35a1.12,1.12,0,0,0,0-.33,1.11,1.11,0,0,0-.28-.34.66.66,0,0,0-.32-.16,6.2,6.2,0,0,0-.82,0v-.5l1.7,0c.39,0,.78,0,1.17,0l1,1.28,1.6,2,2.33,2.84q1.12,1.35,1.8,2.13.43.51.73.81v-5.69q0-.76-.05-1.79a3,3,0,0,0-.1-.8.33.33,0,0,0-.16-.15,3.4,3.4,0,0,0-1.07-.12v-.5q.92,0,1.87,0t1.62,0v.5a3.47,3.47,0,0,0-1.08.12.29.29,0,0,0-.16.16,2.68,2.68,0,0,0-.11.82q0,1,0,1.77v3.75q0,1.14,0,4.25l-.8-.23-.19,0-.09,0a3.16,3.16,0,0,1-.3-.32q-.65-.74-1-1.12l-1-1.29-5.54-6.69v6.06q0,.77.05,1.82a2.93,2.93,0,0,0,.1.81.32.32,0,0,0,.16.16,3.39,3.39,0,0,0,1.07.12v.5q-.69-.05-1.52-.05T171.06,216.89Z"/><path class="cls-2" d="M187.59,216.89v-.53a4.05,4.05,0,0,0,.77-.05.68.68,0,0,0,.28-.16,2.5,2.5,0,0,0,.37-.63l1-2.2,2-4.41q.32-.73,1.37-3.23h.5l3.34,7.84q.81,1.91,1.08,2.39a.8.8,0,0,0,.32.36,2.29,2.29,0,0,0,.79.09v.53q-1.22-.08-1.71-.08l-2.52.08v-.53a8.43,8.43,0,0,0,1.06-.05.46.46,0,0,0,.25-.11.26.26,0,0,0,.07-.18,1.27,1.27,0,0,0-.11-.45l-1-2.39H191l-.85,2a2.36,2.36,0,0,0-.23.79.26.26,0,0,0,.06.18.46.46,0,0,0,.27.14,5.79,5.79,0,0,0,1,.07v.53q-1.32-.07-2-.07T187.59,216.89Zm3.64-4.38h3.94l-1.95-4.7Z"/><path class="cls-2" d="M200.22,216.89v-.5a3.23,3.23,0,0,0,1.08-.12.29.29,0,0,0,.16-.15,2.74,2.74,0,0,0,.11-.82q0-1,0-1.78v-6.35a1.12,1.12,0,0,0,0-.33,1.11,1.11,0,0,0-.28-.34.67.67,0,0,0-.32-.16,6.2,6.2,0,0,0-.82,0v-.5l1.7,0c.39,0,.78,0,1.17,0l1,1.28,1.6,2,2.33,2.84q1.12,1.35,1.8,2.13.43.51.73.81v-5.69q0-.76-.05-1.79a3,3,0,0,0-.1-.8.33.33,0,0,0-.16-.15,3.4,3.4,0,0,0-1.07-.12v-.5q.92,0,1.87,0t1.62,0v.5a3.47,3.47,0,0,0-1.08.12.29.29,0,0,0-.16.16,2.67,2.67,0,0,0-.11.82q0,1,0,1.77v3.75q0,1.14,0,4.25l-.8-.23-.19,0-.09,0a3.15,3.15,0,0,1-.3-.32q-.65-.74-1-1.12l-1-1.29-5.54-6.69v6.06q0,.77.05,1.82a2.93,2.93,0,0,0,.1.81.32.32,0,0,0,.16.16,3.39,3.39,0,0,0,1.07.12v.5q-.69-.05-1.52-.05T200.22,216.89Z"/><path class="cls-2" d="M213.78,216.89v-.37q.45-.26.75-.47,0-.53.08-1.47.05-1.61.05-2.23v-3.18q0-.76,0-1.79a2.66,2.66,0,0,0-.11-.8.32.32,0,0,0-.17-.15,3.43,3.43,0,0,0-1.08-.12v-.5q1.14,0,2,0l1.83,0,1.8,0a8.07,8.07,0,0,1,3.08.49,4.58,4.58,0,0,1,2,1.63,4.73,4.73,0,0,1,.81,2.8,6.38,6.38,0,0,1-.38,2.23,6,6,0,0,1-1,1.82A5.75,5.75,0,0,1,222,216a6.31,6.31,0,0,1-1.57.68,8.71,8.71,0,0,1-2.26.23l-1.29,0-1.39,0Q215,216.84,213.78,216.89Zm2.41-.85a10.57,10.57,0,0,0,1.81.15,7.83,7.83,0,0,0,1.74-.17,4.53,4.53,0,0,0,1.29-.48,3.91,3.91,0,0,0,1-.92,4.25,4.25,0,0,0,.77-1.56,7.14,7.14,0,0,0,.27-2,5.54,5.54,0,0,0-.52-2.49A3.57,3.57,0,0,0,221,207a6.2,6.2,0,0,0-2.87-.55,13.23,13.23,0,0,0-2,.15q0,.38,0,1.36l0,1.13v3.11l0,2.42C216.15,215,216.17,215.46,216.2,216Z"/><path class="cls-2" d="M229.87,206.3v-.5q1.57.06,2.48.05l1.3,0,1.23,0h.38a5.62,5.62,0,0,1,2,.27,2.28,2.28,0,0,1,1.11.87,2.4,2.4,0,0,1,.4,1.36,3.1,3.1,0,0,1-.33,1.37,3.15,3.15,0,0,1-1,1.15,4.17,4.17,0,0,1-1.32.68,3.7,3.7,0,0,1-1.06.14,5.78,5.78,0,0,1-1.08-.11l-.16-.58a5.08,5.08,0,0,0,1.09.16,2.31,2.31,0,0,0,1.11-.29,2,2,0,0,0,.82-.86,2.76,2.76,0,0,0,.29-1.27,2.58,2.58,0,0,0-.29-1.22,1.87,1.87,0,0,0-.87-.83,3.22,3.22,0,0,0-1.41-.28,5.37,5.37,0,0,0-1.59.27q-.07.83-.07,2.59v3.93q0,1.06,0,2.07a2.48,2.48,0,0,0,.11.88.52.52,0,0,0,.29.21,5.46,5.46,0,0,0,1.13.08v.5q-1.45-.05-2.12-.05l-2.45.05v-.5a5.42,5.42,0,0,0,1.12-.08.51.51,0,0,0,.28-.18,2,2,0,0,0,.12-.76q0-.16,0-2.22v-3.61q0-1.06,0-2.08a2.46,2.46,0,0,0-.11-.88.53.53,0,0,0-.29-.2A5.62,5.62,0,0,0,229.87,206.3Z"/><path class="cls-2" d="M237.91,216.89v-.53a4.05,4.05,0,0,0,.77-.05.67.67,0,0,0,.28-.16,2.5,2.5,0,0,0,.37-.63q.14-.29,1-2.2l2-4.41q.32-.73,1.37-3.23h.5l3.34,7.84q.81,1.91,1.08,2.39a.8.8,0,0,0,.33.36,2.29,2.29,0,0,0,.79.09v.53q-1.22-.08-1.71-.08l-2.52.08v-.53a8.44,8.44,0,0,0,1.06-.05.46.46,0,0,0,.25-.11.26.26,0,0,0,.07-.18,1.27,1.27,0,0,0-.11-.45l-1-2.39h-4.52l-.85,2a2.35,2.35,0,0,0-.23.79.26.26,0,0,0,.06.18.46.46,0,0,0,.27.14,5.79,5.79,0,0,0,1,.07v.53q-1.32-.07-2-.07T237.91,216.89Zm3.64-4.38h3.94l-1.95-4.7Z"/><path class="cls-2" d="M250.45,206.3v-.5l.93,0,1.5,0,1.38,0,1.41,0a6.5,6.5,0,0,1,2.18.27,2.12,2.12,0,0,1,1.06.86,2.4,2.4,0,0,1,.38,1.3,2.71,2.71,0,0,1-.35,1.3,3,3,0,0,1-1,1.08,5.32,5.32,0,0,1-1.74.66q.19.27.92,1.22l2,2.59q.84,1.09,1,1.21a.46.46,0,0,0,.14.08,2,2,0,0,0,.51,0v.5q-.59-.05-1-.05t-1.13.05q-.51-.59-1.71-2.29-.67-.94-1.18-1.58-.82-1-1.57-1.9l.08-.23.62,0a3.09,3.09,0,0,0,2.16-.67,2.29,2.29,0,0,0,.73-1.77,2,2,0,0,0-.63-1.53,2.8,2.8,0,0,0-1.91-.57,5.26,5.26,0,0,0-1.58.24q0,.42,0,.79,0,.11-.05,2.27v3.46q0,1.06,0,2.07a2.45,2.45,0,0,0,.1.88.52.52,0,0,0,.29.21,5.42,5.42,0,0,0,1.12.08v.5q-1.11-.05-2-.05-.75,0-2.52.05v-.5a5.42,5.42,0,0,0,1.12-.08.51.51,0,0,0,.28-.18,2,2,0,0,0,.12-.76q0-.16,0-2.22v-3.61q0-1.06,0-2.08a2.46,2.46,0,0,0-.11-.88.53.53,0,0,0-.29-.2A5.62,5.62,0,0,0,250.45,206.3Z"/><path class="cls-2" d="M261.09,208.38h-.48q0-1.87-.08-2.59l2.67.08,2,0,2.46,0,2-.06q-.09.88-.12,2.59H269l-.06-.75q-.06-.68-.09-.77a.27.27,0,0,0-.07-.13.33.33,0,0,0-.13-.06l-.78-.06-1.06,0h-1q-.08.75-.08,2v4.57q0,1.06,0,2.07a2.48,2.48,0,0,0,.11.88.52.52,0,0,0,.29.21,5.46,5.46,0,0,0,1.13.08v.5q-1.4-.06-2.1-.06l-2.44.06v-.5a5.48,5.48,0,0,0,1.13-.08.47.47,0,0,0,.27-.18,1.84,1.84,0,0,0,.13-.76q0-.16,0-2.22V208.6c0-.22,0-.46,0-.72l0-1.32h-1.16a13,13,0,0,0-1.6.08.34.34,0,0,0-.24.1,2.77,2.77,0,0,0-.16.85Z"/><path class="cls-2" d="M275,216.39v.5l-2.18-.05-2.41.05v-.5a5.42,5.42,0,0,0,1.12-.08.51.51,0,0,0,.28-.18,2,2,0,0,0,.12-.76q0-.16,0-2.22v-3.61q0-1.06,0-2.08a2.46,2.46,0,0,0-.11-.88.53.53,0,0,0-.29-.2,5.63,5.63,0,0,0-1.13-.08v-.5q1.49.06,2.3.05t2.29-.05v.5a5.55,5.55,0,0,0-1.12.08.51.51,0,0,0-.28.18,2,2,0,0,0-.12.76q0,.16,0,2.22v3.61q0,1.06,0,2.07a2.48,2.48,0,0,0,.11.88.52.52,0,0,0,.29.21A5.46,5.46,0,0,0,275,216.39Z"/><path class="cls-2" d="M286.29,215.52l-.3.73a8.13,8.13,0,0,1-1.79.67,8.3,8.3,0,0,1-1.91.21,8,8,0,0,1-2.25-.3,5.83,5.83,0,0,1-1.82-.87,5.44,5.44,0,0,1-1.27-1.27,5.52,5.52,0,0,1-.75-1.53,6,6,0,0,1-.26-1.81,5.43,5.43,0,0,1,1.74-4.13,6.64,6.64,0,0,1,4.75-1.64,9.84,9.84,0,0,1,1.32.08,12.62,12.62,0,0,1,1.48.31l1.07.27a4.93,4.93,0,0,0-.26.84,11.73,11.73,0,0,0-.17,1.54h-.49v-.92a1.38,1.38,0,0,0-.85-1.14,5.32,5.32,0,0,0-2.25-.37,6,6,0,0,0-1.88.29,3.61,3.61,0,0,0-1.36.85,4.48,4.48,0,0,0-1,1.48,5.92,5.92,0,0,0-.38,2.25,5,5,0,0,0,5.27,5.25,6.41,6.41,0,0,0,2-.29,4.66,4.66,0,0,0,1.24-.63Z"/><path class="cls-2" d="M291.7,216.39v.5l-2.18-.05-2.41.05v-.5a5.42,5.42,0,0,0,1.12-.08.51.51,0,0,0,.28-.18,2,2,0,0,0,.12-.76q0-.16,0-2.22v-3.61q0-1.06,0-2.08a2.46,2.46,0,0,0-.11-.88.53.53,0,0,0-.29-.2,5.63,5.63,0,0,0-1.13-.08v-.5q1.49.06,2.3.05t2.29-.05v.5a5.55,5.55,0,0,0-1.12.08.51.51,0,0,0-.28.18,2,2,0,0,0-.12.76q0,.16,0,2.22v3.61q0,1.06,0,2.07a2.48,2.48,0,0,0,.11.88.52.52,0,0,0,.29.21A5.46,5.46,0,0,0,291.7,216.39Z"/><path class="cls-2" d="M292.55,206.3v-.5q1.57.06,2.48.05l1.3,0,1.23,0h.38a5.62,5.62,0,0,1,2,.27,2.28,2.28,0,0,1,1.11.87,2.4,2.4,0,0,1,.4,1.36,3.1,3.1,0,0,1-.33,1.37,3.15,3.15,0,0,1-1,1.15,4.17,4.17,0,0,1-1.32.68,3.7,3.7,0,0,1-1.06.14,5.78,5.78,0,0,1-1.08-.11l-.16-.58a5.07,5.07,0,0,0,1.09.16,2.31,2.31,0,0,0,1.11-.29,2,2,0,0,0,.82-.86,2.76,2.76,0,0,0,.29-1.27,2.58,2.58,0,0,0-.29-1.22,1.87,1.87,0,0,0-.87-.83,3.22,3.22,0,0,0-1.41-.28,5.37,5.37,0,0,0-1.59.27q-.07.83-.07,2.59v3.93q0,1.06,0,2.07a2.48,2.48,0,0,0,.11.88.52.52,0,0,0,.29.21,5.46,5.46,0,0,0,1.13.08v.5q-1.45-.05-2.12-.05l-2.45.05v-.5a5.42,5.42,0,0,0,1.12-.08.51.51,0,0,0,.28-.18,2,2,0,0,0,.12-.76q0-.16,0-2.22v-3.61q0-1.06,0-2.08a2.46,2.46,0,0,0-.11-.88.53.53,0,0,0-.29-.2A5.63,5.63,0,0,0,292.55,206.3Z"/><path class="cls-2" d="M300.59,216.89v-.53a4,4,0,0,0,.77-.05.67.67,0,0,0,.28-.16,2.51,2.51,0,0,0,.37-.63q.14-.29,1-2.2l2-4.41q.32-.73,1.37-3.23h.5l3.34,7.84q.81,1.91,1.08,2.39a.8.8,0,0,0,.33.36,2.29,2.29,0,0,0,.79.09v.53q-1.22-.08-1.71-.08l-2.52.08v-.53a8.44,8.44,0,0,0,1.06-.05.46.46,0,0,0,.25-.11.27.27,0,0,0,.07-.18,1.26,1.26,0,0,0-.11-.45l-1-2.39H304l-.85,2a2.35,2.35,0,0,0-.23.79.26.26,0,0,0,.06.18.46.46,0,0,0,.27.14,5.79,5.79,0,0,0,1,.07v.53q-1.32-.07-2-.07T300.59,216.89Zm3.64-4.38h3.94l-1.95-4.7Z"/><path class="cls-2" d="M312.48,208.38H312q0-1.87-.08-2.59l2.67.08,2,0,2.46,0,2-.06q-.09.88-.12,2.59h-.5l-.06-.75q-.06-.68-.09-.77a.27.27,0,0,0-.07-.13.33.33,0,0,0-.13-.06l-.78-.06-1.06,0h-1q-.08.75-.08,2v4.57q0,1.06,0,2.07a2.48,2.48,0,0,0,.11.88.52.52,0,0,0,.29.21,5.46,5.46,0,0,0,1.13.08v.5q-1.4-.06-2.1-.06l-2.44.06v-.5a5.48,5.48,0,0,0,1.13-.08.47.47,0,0,0,.27-.18,1.84,1.84,0,0,0,.13-.76q0-.16,0-2.22V208.6c0-.22,0-.46,0-.72l0-1.32h-1.16a13,13,0,0,0-1.6.08.34.34,0,0,0-.24.1,2.77,2.77,0,0,0-.16.85Z"/><path class="cls-2" d="M321.49,211.41a6.77,6.77,0,0,1,.37-2.28,4.89,4.89,0,0,1,1.23-1.88A5.81,5.81,0,0,1,325,206a6.78,6.78,0,0,1,2.48-.43,7.16,7.16,0,0,1,2.34.36,5.08,5.08,0,0,1,1.73,1,4.92,4.92,0,0,1,1.07,1.31,5,5,0,0,1,.47,1.25,6.47,6.47,0,0,1,.18,1.54,5.91,5.91,0,0,1-1.77,4.38,6.09,6.09,0,0,1-4.46,1.75,6.46,6.46,0,0,1-2.29-.4,4.65,4.65,0,0,1-1.8-1.18,5.2,5.2,0,0,1-1.12-1.91A6.8,6.8,0,0,1,321.49,211.41Zm1.63-.65a7.85,7.85,0,0,0,.15,1.51,7,7,0,0,0,.38,1.32,4.87,4.87,0,0,0,1,1.57,3.82,3.82,0,0,0,1.35.94,4.37,4.37,0,0,0,1.65.3,3.88,3.88,0,0,0,2.19-.61,3.68,3.68,0,0,0,1.39-1.73,6.72,6.72,0,0,0,.46-2.57,7.62,7.62,0,0,0-.33-2.29,4.83,4.83,0,0,0-.54-1.16,3.69,3.69,0,0,0-2-1.56,4.73,4.73,0,0,0-1.6-.27,4.21,4.21,0,0,0-2.18.55,3.46,3.46,0,0,0-1.41,1.61A5.74,5.74,0,0,0,323.12,210.77Z"/><path class="cls-2" d="M334,206.3v-.5l.93,0,1.5,0,1.38,0,1.41,0a6.5,6.5,0,0,1,2.18.27,2.12,2.12,0,0,1,1.06.86,2.4,2.4,0,0,1,.38,1.3,2.71,2.71,0,0,1-.35,1.3,3,3,0,0,1-1,1.08,5.32,5.32,0,0,1-1.74.66q.19.27.92,1.22l2,2.59q.84,1.09,1,1.21a.46.46,0,0,0,.14.08,2,2,0,0,0,.51,0v.5q-.59-.05-1-.05t-1.13.05q-.51-.59-1.71-2.29-.67-.94-1.18-1.58-.82-1-1.57-1.9l.08-.23.62,0a3.09,3.09,0,0,0,2.16-.67,2.29,2.29,0,0,0,.73-1.77,2,2,0,0,0-.63-1.53,2.8,2.8,0,0,0-1.91-.57,5.26,5.26,0,0,0-1.58.24q0,.42,0,.79,0,.11-.05,2.27v3.46q0,1.06,0,2.07a2.45,2.45,0,0,0,.1.88.52.52,0,0,0,.29.21,5.42,5.42,0,0,0,1.12.08v.5q-1.11-.05-2-.05-.75,0-2.52.05v-.5a5.42,5.42,0,0,0,1.12-.08.51.51,0,0,0,.28-.18,2,2,0,0,0,.12-.76q0-.16,0-2.22v-3.61q0-1.06,0-2.08a2.46,2.46,0,0,0-.11-.88.53.53,0,0,0-.29-.2A5.63,5.63,0,0,0,334,206.3Z"/><path class="cls-2" d="M344,206.49V206l1.88-.37a1.47,1.47,0,0,1,.43.21,4.72,4.72,0,0,1,.49.6,19.75,19.75,0,0,1,1.28,2q.73,1.28,1.55,2.93.83-1.27,1.7-2.76L353,205.8h1.19V206q-.43.48-1.58,2.07-.66.92-1.73,2.68a11.23,11.23,0,0,0-.75,1.33,1.4,1.4,0,0,0-.09.46v.6q0,1.06,0,2.07a2.48,2.48,0,0,0,.11.88.52.52,0,0,0,.29.21,5.46,5.46,0,0,0,1.13.08v.5q-1.27-.05-2.2-.05t-2.35.05v-.5a5.42,5.42,0,0,0,1.12-.08.47.47,0,0,0,.27-.18,1.85,1.85,0,0,0,.13-.76q0-.16,0-2.22v-.91c-.11-.23-.22-.45-.32-.63l-.8-1.34-.52-.84q-.61-1-.91-1.42a7.89,7.89,0,0,0-.95-1.16,1.17,1.17,0,0,0-.43-.27A2.23,2.23,0,0,0,344,206.49Z"/><path class="cls-2" d="M363.14,216.39v.5l-2.18-.05-2.41.05v-.5a5.42,5.42,0,0,0,1.12-.08.51.51,0,0,0,.28-.18,2,2,0,0,0,.12-.76q0-.16,0-2.22v-3.61q0-1.06,0-2.08a2.46,2.46,0,0,0-.11-.88.53.53,0,0,0-.29-.2,5.63,5.63,0,0,0-1.13-.08v-.5q1.49.06,2.3.05t2.29-.05v.5a5.55,5.55,0,0,0-1.12.08.51.51,0,0,0-.28.18,2,2,0,0,0-.12.76q0,.16,0,2.22v3.61q0,1.06,0,2.07a2.48,2.48,0,0,0,.11.88.52.52,0,0,0,.29.21A5.46,5.46,0,0,0,363.14,216.39Z"/><path class="cls-2" d="M364,216.89v-.5a3.23,3.23,0,0,0,1.08-.12.29.29,0,0,0,.16-.15,2.73,2.73,0,0,0,.11-.82q0-1,0-1.78v-6.35a1.12,1.12,0,0,0,0-.33,1.11,1.11,0,0,0-.28-.34.67.67,0,0,0-.32-.16,6.21,6.21,0,0,0-.82,0v-.5l1.7,0c.39,0,.78,0,1.17,0l1,1.28,1.6,2,2.33,2.84q1.12,1.35,1.8,2.13.43.51.73.81v-5.69q0-.76-.05-1.79a3,3,0,0,0-.1-.8.33.33,0,0,0-.16-.15,3.4,3.4,0,0,0-1.07-.12v-.5q.92,0,1.87,0t1.62,0v.5a3.47,3.47,0,0,0-1.08.12.29.29,0,0,0-.16.16,2.68,2.68,0,0,0-.11.82q0,1,0,1.77v3.75q0,1.14,0,4.25l-.8-.23-.19,0-.09,0a3.08,3.08,0,0,1-.3-.32q-.65-.74-1-1.12l-1-1.29-5.54-6.69v6.06q0,.77.05,1.82a2.93,2.93,0,0,0,.1.81.32.32,0,0,0,.16.16,3.39,3.39,0,0,0,1.07.12v.5q-.69-.05-1.52-.05T364,216.89Z"/><path class="cls-2" d="M377.31,216.89v-.5a3.23,3.23,0,0,0,1.08-.12.29.29,0,0,0,.16-.15,2.73,2.73,0,0,0,.11-.82q0-1,0-1.78v-6.35a1.12,1.12,0,0,0,0-.33,1.11,1.11,0,0,0-.28-.34.66.66,0,0,0-.32-.16,6.21,6.21,0,0,0-.82,0v-.5l1.7,0c.39,0,.78,0,1.17,0l1,1.28,1.6,2L385,211.9q1.12,1.35,1.8,2.13.43.51.73.81v-5.69q0-.76-.05-1.79a3,3,0,0,0-.1-.8.33.33,0,0,0-.16-.15,3.4,3.4,0,0,0-1.07-.12v-.5q.92,0,1.87,0t1.62,0v.5a3.47,3.47,0,0,0-1.08.12.29.29,0,0,0-.16.16,2.68,2.68,0,0,0-.11.82q0,1,0,1.77v3.75q0,1.14,0,4.25l-.8-.23-.19,0-.09,0a3.09,3.09,0,0,1-.3-.32q-.65-.74-1-1.12l-1-1.29-5.54-6.69v6.06q0,.77.05,1.82a2.93,2.93,0,0,0,.1.81.32.32,0,0,0,.16.16,3.39,3.39,0,0,0,1.07.12v.5q-.69-.05-1.52-.05T377.31,216.89Z"/><path class="cls-2" d="M390.55,211.41a6.77,6.77,0,0,1,.37-2.28,4.89,4.89,0,0,1,1.23-1.88,5.81,5.81,0,0,1,1.95-1.26,6.78,6.78,0,0,1,2.48-.43,7.16,7.16,0,0,1,2.34.36,5.08,5.08,0,0,1,1.73,1,4.92,4.92,0,0,1,1.07,1.31,5,5,0,0,1,.47,1.25,6.47,6.47,0,0,1,.18,1.54,5.91,5.91,0,0,1-1.77,4.38,6.09,6.09,0,0,1-4.46,1.75,6.46,6.46,0,0,1-2.29-.4,4.65,4.65,0,0,1-1.8-1.18,5.2,5.2,0,0,1-1.12-1.91A6.8,6.8,0,0,1,390.55,211.41Zm1.62-.65a7.85,7.85,0,0,0,.15,1.51,7,7,0,0,0,.38,1.32,4.87,4.87,0,0,0,1,1.57,3.82,3.82,0,0,0,1.35.94,4.37,4.37,0,0,0,1.65.3,3.88,3.88,0,0,0,2.19-.61,3.68,3.68,0,0,0,1.39-1.73,6.72,6.72,0,0,0,.46-2.57,7.62,7.62,0,0,0-.33-2.29,4.83,4.83,0,0,0-.54-1.16,3.69,3.69,0,0,0-2-1.56,4.73,4.73,0,0,0-1.6-.27,4.21,4.21,0,0,0-2.18.55,3.46,3.46,0,0,0-1.41,1.61A5.74,5.74,0,0,0,392.17,210.77Z"/><path class="cls-2" d="M408.12,217q-.23-.68-1-2.62l-2.66-6.57q-.42-1-.52-1.21a.4.4,0,0,0-.2-.15,3.27,3.27,0,0,0-.86-.12v-.5q1.41.06,2.09.05t2.15-.05v.5q-1,0-1.11,0a.34.34,0,0,0-.21.09.23.23,0,0,0-.06.16,1.87,1.87,0,0,0,.11.42q.34,1.06.59,1.71l2.45,6.17,2-5.12q.45-1.1.85-2.4a3.54,3.54,0,0,0,.17-.69.25.25,0,0,0-.2-.25,8.53,8.53,0,0,0-1.2-.13v-.5q1.18.06,1.77.05t1.68-.05v.5a2.77,2.77,0,0,0-.71.08.54.54,0,0,0-.22.22q-.07.12-.58,1.26l-2.44,6-.6,1.54q-.19.46-.3.8c-.08.22-.16.48-.26.78Z"/><path class="cls-2" d="M412.79,216.89v-.53a4.05,4.05,0,0,0,.77-.05.67.67,0,0,0,.28-.16,2.5,2.5,0,0,0,.37-.63q.14-.29,1-2.2l2-4.41q.32-.73,1.37-3.23h.5l3.34,7.84q.81,1.91,1.08,2.39a.8.8,0,0,0,.33.36,2.29,2.29,0,0,0,.79.09v.53q-1.22-.08-1.71-.08l-2.52.08v-.53a8.44,8.44,0,0,0,1.06-.05.46.46,0,0,0,.25-.11.26.26,0,0,0,.07-.18,1.27,1.27,0,0,0-.11-.45l-1-2.39h-4.52l-.85,2a2.35,2.35,0,0,0-.23.79.26.26,0,0,0,.06.18.46.46,0,0,0,.27.14,5.79,5.79,0,0,0,1,.07v.53q-1.32-.07-2-.07T412.79,216.89Zm3.64-4.38h3.94l-1.95-4.7Z"/><path class="cls-2" d="M424.69,208.38h-.48q0-1.87-.08-2.59l2.67.08,2,0,2.46,0,2-.06q-.09.88-.12,2.59h-.5l-.06-.75q-.06-.68-.09-.77a.27.27,0,0,0-.07-.13.33.33,0,0,0-.13-.06l-.78-.06-1.06,0h-1q-.08.75-.08,2v4.57q0,1.06,0,2.07a2.48,2.48,0,0,0,.11.88.52.52,0,0,0,.29.21,5.46,5.46,0,0,0,1.13.08v.5q-1.4-.06-2.1-.06l-2.44.06v-.5a5.48,5.48,0,0,0,1.13-.08.47.47,0,0,0,.27-.18,1.84,1.84,0,0,0,.13-.76q0-.16,0-2.22V208.6c0-.22,0-.46,0-.72l0-1.32h-1.16a13,13,0,0,0-1.6.08.34.34,0,0,0-.24.1,2.77,2.77,0,0,0-.16.85Z"/><path class="cls-2" d="M438.56,216.39v.5l-2.18-.05-2.41.05v-.5a5.42,5.42,0,0,0,1.12-.08.51.51,0,0,0,.28-.18,2,2,0,0,0,.12-.76q0-.16,0-2.22v-3.61q0-1.06,0-2.08a2.46,2.46,0,0,0-.11-.88.53.53,0,0,0-.29-.2,5.62,5.62,0,0,0-1.13-.08v-.5q1.49.06,2.3.05t2.29-.05v.5a5.56,5.56,0,0,0-1.12.08.51.51,0,0,0-.28.18,2,2,0,0,0-.12.76q0,.16,0,2.22v3.61q0,1.06,0,2.07a2.48,2.48,0,0,0,.11.88.52.52,0,0,0,.29.21A5.46,5.46,0,0,0,438.56,216.39Z"/><path class="cls-2" d="M439.37,211.41a6.77,6.77,0,0,1,.37-2.28,4.89,4.89,0,0,1,1.23-1.88,5.81,5.81,0,0,1,1.95-1.26,6.78,6.78,0,0,1,2.48-.43,7.16,7.16,0,0,1,2.34.36,5.08,5.08,0,0,1,1.73,1,4.92,4.92,0,0,1,1.07,1.31,5,5,0,0,1,.47,1.25,6.47,6.47,0,0,1,.18,1.54,5.91,5.91,0,0,1-1.77,4.38,6.09,6.09,0,0,1-4.46,1.75,6.46,6.46,0,0,1-2.29-.4,4.65,4.65,0,0,1-1.8-1.18,5.2,5.2,0,0,1-1.12-1.91A6.8,6.8,0,0,1,439.37,211.41Zm1.63-.65a7.85,7.85,0,0,0,.15,1.51,7,7,0,0,0,.38,1.32,4.87,4.87,0,0,0,1,1.57,3.82,3.82,0,0,0,1.35.94,4.37,4.37,0,0,0,1.65.3,3.88,3.88,0,0,0,2.19-.61,3.68,3.68,0,0,0,1.39-1.73,6.72,6.72,0,0,0,.46-2.57,7.62,7.62,0,0,0-.33-2.29,4.83,4.83,0,0,0-.54-1.16,3.69,3.69,0,0,0-2-1.56,4.73,4.73,0,0,0-1.6-.27,4.21,4.21,0,0,0-2.18.55,3.46,3.46,0,0,0-1.41,1.61A5.74,5.74,0,0,0,441,210.77Z"/><path class="cls-2" d="M452,216.89v-.5a3.23,3.23,0,0,0,1.08-.12.29.29,0,0,0,.16-.15,2.72,2.72,0,0,0,.11-.82q0-1,0-1.78v-6.35a1.12,1.12,0,0,0,0-.33,1.11,1.11,0,0,0-.28-.34.66.66,0,0,0-.32-.16,6.21,6.21,0,0,0-.82,0v-.5l1.7,0c.39,0,.78,0,1.17,0l1,1.28,1.6,2,2.33,2.84q1.12,1.35,1.8,2.13.43.51.73.81v-5.69q0-.76-.05-1.79a3,3,0,0,0-.1-.8.33.33,0,0,0-.16-.15,3.4,3.4,0,0,0-1.07-.12v-.5q.92,0,1.87,0t1.62,0v.5a3.47,3.47,0,0,0-1.08.12.29.29,0,0,0-.16.16,2.68,2.68,0,0,0-.11.82q0,1,0,1.77v3.75q0,1.14,0,4.25l-.8-.23-.19,0-.09,0a3.09,3.09,0,0,1-.3-.32q-.65-.74-1-1.12l-1-1.29-5.54-6.69v6.06q0,.77.05,1.82a2.93,2.93,0,0,0,.1.81.32.32,0,0,0,.16.16,3.39,3.39,0,0,0,1.07.12v.5q-.69-.05-1.52-.05T452,216.89Z"/><path class="cls-2" d="M180.73,45.36H193.4c.58-1.73,1.15-3.38,1.66-5.11l7.34,6c-.36,1.44-.79,1.73-2.3,2.09a48.1,48.1,0,0,1-6.48,12v1.22c5.69,1.58,8.42,4.25,8.78,7.06.5,4.46-2.52,5.54-4.9,6.12-1.3-4.9-2.45-9.72-3.89-13V93.89a10.34,10.34,0,0,1-6.34,1.51V67.54a52.75,52.75,0,0,1-7.7,6.19A124.54,124.54,0,0,0,193,46.51H181.38Zm7.06-1.66c-.79-5-1.73-9.79-2.59-13.32,7.34,1.73,8.64,4.46,8.5,7.85S190.31,43.27,187.79,43.7ZM200,54.87h9.79V31l9.5,1.73a3.4,3.4,0,0,1-2.52,2.88V54.87H228.4l-.72,1.22H216.73v35H231.5l-.72,1.22H197.72l-.5-1.22h12.53v-35h-9.22Z"/><path class="cls-2" d="M283,37.37l-.65,1.15H244.88v50h39.39l-.72,1.08H244.88v2.09A12.44,12.44,0,0,1,238,93.46V34.78a11.79,11.79,0,0,1,6.84,2.59Zm-18.87,30.1a62.6,62.6,0,0,1-18.43,18.22,136.23,136.23,0,0,0,14.54-24.27c-4-5.9-8.21-11.31-11.81-14.55a81,81,0,0,1,14.11,9.22,123.15,123.15,0,0,0,4.82-14.83l8.86,4.68c-.43,1.58-1.3,2.3-2.88,1.94a88.24,88.24,0,0,1-5.4,13c5.18,5.11,8.42,9.86,8.93,12.38A11.64,11.64,0,0,1,273,84.17,140.86,140.86,0,0,0,264.11,67.47Z"/><path class="cls-2" d="M84.36,160.48,82.74,164a35.47,35.47,0,0,1-7.89,3.18,37.29,37.29,0,0,1-8.74.86,34.47,34.47,0,0,1-13.18-2.36,23.67,23.67,0,0,1-12.45-11.81,28.08,28.08,0,0,1-2.57-12q0-11.07,7.58-18.09t21.39-7a46.86,46.86,0,0,1,8.53.7,57.79,57.79,0,0,1,8.77,2.5l.18.46a21.51,21.51,0,0,0-.88,4.15q-.53,4-.67,7.35H80.07q-.07-3.87-.35-6.19a15.47,15.47,0,0,0-5.29-3.67,19.84,19.84,0,0,0-7.51-1.21q-8.26,0-13.22,5.22t-5,14.57a26.75,26.75,0,0,0,1.67,9.88,20.11,20.11,0,0,0,4.45,7,19.31,19.31,0,0,0,5.59,4,23,23,0,0,0,9.28,1.69,27.61,27.61,0,0,0,6.79-.81,32.32,32.32,0,0,0,7-2.78Z"/><path class="cls-2" d="M89.21,150.25a21.33,21.33,0,0,1,2-9.9,13.22,13.22,0,0,1,6.12-5.91,21.44,21.44,0,0,1,9.49-2q8.12,0,12.36,4.25t4.24,12.48a24.71,24.71,0,0,1-1.23,8.23,15.11,15.11,0,0,1-3.3,5.61,15.39,15.39,0,0,1-4.36,3.22,20.49,20.49,0,0,1-8.79,1.83q-7.95,0-12.25-4.52T89.21,150.25ZM99,148.56q0,9.35,2.74,13.32a6,6,0,0,0,5.2,2.64,5.66,5.66,0,0,0,4.57-2q2.25-2.67,2.25-10.34a41.21,41.21,0,0,0-.9-9.23q-.9-3.85-2.64-5.36a6.19,6.19,0,0,0-4.2-1.51,6.27,6.27,0,0,0-3.69,1.11,7.13,7.13,0,0,0-2.46,3.73A25.37,25.37,0,0,0,99,148.56Z"/><path class="cls-2" d="M128.41,166.84V164.1a12.58,12.58,0,0,0,3.8-.39,1.34,1.34,0,0,0,.74-.6,6.36,6.36,0,0,0,.39-2.52l.14-3.12q0-1,0-3.19v-4.59q0-3.12-.18-7.57a9,9,0,0,0-.3-2.54,1.13,1.13,0,0,0-.62-.44,19.45,19.45,0,0,0-4-.35V136q6.4-1.09,8.4-1.62a28.5,28.5,0,0,0,4.54-1.69l.95.42v5.67l6.39-5.15a11,11,0,0,1,1.91-.62,11.28,11.28,0,0,1,2.12-.16,12.1,12.1,0,0,1,6.37,1.36,9.81,9.81,0,0,1,3.56,4.56l6.41-5.15a11,11,0,0,1,1.92-.62,11.36,11.36,0,0,1,2.13-.16,13.59,13.59,0,0,1,5.41.86,9.07,9.07,0,0,1,5,5.5,18.76,18.76,0,0,1,.53,5.2q0,3.86-.07,5.13,0,.42,0,1v3.65q0,5.62.19,7.18a3.25,3.25,0,0,0,.67,2,4,4,0,0,0,2.11.51q.57,0,2,.18v2.74q-4.82-.25-7.95-.25-3.55,0-6,.25l-.49-.67.4-6.36q.13-3.87.13-6.64v-2.67q0-6.26-.56-7.89a5.06,5.06,0,0,0-1.88-2.57,5.62,5.62,0,0,0-3.32-.93,6.38,6.38,0,0,0-3.83,1.14,5.61,5.61,0,0,0-2,2.07,11.18,11.18,0,0,0-.35,3.74v8.5l.09,3.51.09,2.84a5.55,5.55,0,0,0,.24,1.79,1.57,1.57,0,0,0,.59.74,4.47,4.47,0,0,0,1.33.32l2.86.35v2.74q-3.13-.14-9-.14-6.54,0-9.67.14V164.1q.67-.11,1.74-.21a5.07,5.07,0,0,0,2-.37,1.88,1.88,0,0,0,.66-1.05,16.1,16.1,0,0,0,.25-3.67l.07-6.21v-5a20.31,20.31,0,0,0-.44-5.07A4.71,4.71,0,0,0,152,140a5.69,5.69,0,0,0-3.48-1,6.45,6.45,0,0,0-4,1.19,6.29,6.29,0,0,0-2.12,2.39,41,41,0,0,0-.14,5.51v6.14q0,4.74.18,7.27a3.42,3.42,0,0,0,.35,1.68,1.75,1.75,0,0,0,.95.53,27.28,27.28,0,0,0,3.27.35v2.74q-3.79-.14-9.12-.14Q131.92,166.7,128.41,166.84Z"/><path class="cls-2" d="M192.43,166.84V164.1a12.58,12.58,0,0,0,3.8-.39,1.34,1.34,0,0,0,.74-.6,6.36,6.36,0,0,0,.39-2.52l.14-3.12q0-1,0-3.19v-4.59q0-3.12-.18-7.57a9,9,0,0,0-.3-2.54,1.13,1.13,0,0,0-.62-.44,19.45,19.45,0,0,0-4-.35V136q6.4-1.09,8.4-1.62a28.5,28.5,0,0,0,4.54-1.69l.95.42v5.67l6.39-5.15a11,11,0,0,1,1.91-.62,11.28,11.28,0,0,1,2.12-.16,12.1,12.1,0,0,1,6.37,1.36,9.81,9.81,0,0,1,3.56,4.56l6.41-5.15a11,11,0,0,1,1.92-.62,11.36,11.36,0,0,1,2.13-.16,13.59,13.59,0,0,1,5.41.86,9.07,9.07,0,0,1,5,5.5,18.74,18.74,0,0,1,.53,5.2q0,3.86-.07,5.13,0,.42,0,1v3.65q0,5.62.19,7.18a3.25,3.25,0,0,0,.67,2,4,4,0,0,0,2.11.51q.57,0,2,.18v2.74q-4.82-.25-7.95-.25-3.55,0-6,.25l-.49-.67.4-6.36q.13-3.87.13-6.64v-2.67q0-6.26-.56-7.89A5.06,5.06,0,0,0,236.5,140a5.62,5.62,0,0,0-3.32-.93,6.38,6.38,0,0,0-3.83,1.14,5.61,5.61,0,0,0-2,2.07,11.18,11.18,0,0,0-.35,3.74v8.5l.09,3.51.09,2.84a5.55,5.55,0,0,0,.24,1.79,1.57,1.57,0,0,0,.59.74,4.47,4.47,0,0,0,1.33.32l2.86.35v2.74q-3.13-.14-9-.14-6.54,0-9.67.14V164.1q.67-.11,1.74-.21a5.07,5.07,0,0,0,2-.37,1.88,1.88,0,0,0,.66-1.05,16.11,16.11,0,0,0,.25-3.67l.07-6.21v-5a20.31,20.31,0,0,0-.44-5.07A4.71,4.71,0,0,0,216,140a5.69,5.69,0,0,0-3.48-1,6.45,6.45,0,0,0-4,1.19,6.29,6.29,0,0,0-2.12,2.39,41,41,0,0,0-.14,5.51v6.14q0,4.74.18,7.27a3.42,3.42,0,0,0,.35,1.68,1.75,1.75,0,0,0,.95.53,27.29,27.29,0,0,0,3.27.35v2.74q-3.79-.14-9.12-.14Q195.94,166.7,192.43,166.84Z"/><path class="cls-2" d="M256.14,138.68V136a41.85,41.85,0,0,0,6.1-.82,69.31,69.31,0,0,0,7.86-2.28l.49.39q-.53,7-.53,12.87v3.94a57.61,57.61,0,0,0,.25,6.71,5.26,5.26,0,0,0,1.68,3.34,5.31,5.31,0,0,0,3.54,1.13,6.73,6.73,0,0,0,4.25-1.33,8,8,0,0,0,2.4-2.73,10.6,10.6,0,0,0,.43-3.79v-6l-.07-5a7.44,7.44,0,0,0-.32-2.91,1.19,1.19,0,0,0-.7-.49,31.63,31.63,0,0,0-4.29-.38V136q5.45-.71,7.42-1.14t6.68-2l.67.39-.39,6.47q-.28,6.89-.28,7.7v7.21a55.94,55.94,0,0,0,.32,7.95,1.32,1.32,0,0,0,.53.88,15.76,15.76,0,0,0,4.32.53v2.81l-7.24-.18-6.64.18-.25-.28.21-2.71q0-.67,0-2.71-1.37,1.09-2.39,2l-4,3.77a14.33,14.33,0,0,1-4.9.88,10.34,10.34,0,0,1-7.46-2.6,9.14,9.14,0,0,1-2.71-6.92q0-.53.13-3.9,0-1.79,0-4.63l-.07-7.41a7,7,0,0,0-.26-2.53,1.64,1.64,0,0,0-.86-.74A19.08,19.08,0,0,0,256.14,138.68Z"/><path class="cls-2" d="M340.79,164.24v2.61q-4.79-.25-7.82-.25-3.49,0-6.06.25l-.63-.63q.07-.74.46-6.08l.18-5.77v-2.78a42.57,42.57,0,0,0-.47-8.09,5.55,5.55,0,0,0-2-3.11,6.13,6.13,0,0,0-3.94-1.18,6.75,6.75,0,0,0-4.08,1.18,5.39,5.39,0,0,0-2,2.37,31,31,0,0,0-.21,5.62v5.9q0,2.56.18,6.28a6.45,6.45,0,0,0,.28,2.18,1.22,1.22,0,0,0,.45.56,5.08,5.08,0,0,0,1.64.53q.42.07,2.93.28v2.74q-3.83-.14-9.39-.14-6.43,0-10,.14V164.1a12.58,12.58,0,0,0,3.8-.39,1.33,1.33,0,0,0,.74-.6,6.35,6.35,0,0,0,.39-2.52l.14-3.12q0-1,0-3.19v-4.59q0-3.12-.18-7.57a8.92,8.92,0,0,0-.3-2.54,1.13,1.13,0,0,0-.62-.44,19.45,19.45,0,0,0-4-.35V136q6.4-1.09,8.4-1.62a28.49,28.49,0,0,0,4.54-1.69l.95.42v5.67l6.4-5.14a9.15,9.15,0,0,1,4.15-.77,14.39,14.39,0,0,1,5.64.85,8.92,8.92,0,0,1,3.18,2.38,9.28,9.28,0,0,1,1.83,3.21,18.93,18.93,0,0,1,.53,5.24q0,4-.07,5.12c0,.28,0,.62,0,1l0,3.63q0,6,.19,7.37a2.88,2.88,0,0,0,.64,1.82,4,4,0,0,0,2.11.51Q339.41,164.1,340.79,164.24Z"/><path class="cls-2" d="M344.66,166.84v-2.6a17.57,17.57,0,0,0,4.5-.62,1.64,1.64,0,0,0,.7-1.25,79.66,79.66,0,0,0,.35-10q0-11-.32-12.53a1.39,1.39,0,0,0-.46-.91q-.7-.46-4.78-.49V135.8a71.57,71.57,0,0,0,8-1.18,40.47,40.47,0,0,0,5.91-1.91l.84.46q-.42,5.48-.42,10.3v12a48.88,48.88,0,0,0,.28,7.24,1.15,1.15,0,0,0,.56.84,15.07,15.07,0,0,0,4.61.6v2.74q-5-.14-10.86-.14Q348.53,166.7,344.66,166.84Zm9.65-50.91a5.13,5.13,0,0,1,3.8,1.58,5.44,5.44,0,0,1,0,7.63,5.34,5.34,0,0,1-7.59,0,5.42,5.42,0,0,1,0-7.63A5.13,5.13,0,0,1,354.31,115.94Z"/><path class="cls-2" d="M367.83,140.05v-1.58l3.16-2a16.68,16.68,0,0,0,1.48-1v-4.71q0-2.53-.28-6.26,3.41-1.12,4.43-1.51l4.46-2.07.91.7-.35,3.66-.25,4-.32,6.15h1.16a52.54,52.54,0,0,0,7.07-.35l-.6,4.75a4.73,4.73,0,0,1-.77.07l-3.45-.07h-3.41v11.74q0,5.41.11,6.4a3.75,3.75,0,0,0,1.18,2.58,4.36,4.36,0,0,0,3,.93,13.61,13.61,0,0,0,1.92-.05q.72-.09,1.85-.33l.56,1.42-1.27,1.27-2.71,2.79a11.25,11.25,0,0,1-2.45.79,12.41,12.41,0,0,1-2.2.19,9.3,9.3,0,0,1-6.43-2.1,6.72,6.72,0,0,1-2.34-5.23l.18-11.62v-8.69h-.95Q369.58,139.95,367.83,140.05Z"/><path class="cls-2" d="M392.47,184.77q.6-2.57.77-3.59l.53-3.55.91-.18a10.46,10.46,0,0,0,2,1.62,7.31,7.31,0,0,0,3,.6,5.26,5.26,0,0,0,3.38-1.25q1.55-1.25,3.45-5.47l1.41-3.38-11.39-29.23a7.27,7.27,0,0,0-1.93-3.22,6.62,6.62,0,0,0-3.48-.58V133.8q3.45.14,8.44.14,5.91,0,10.51-.14v2.74h-.81a6,6,0,0,0-3,.49,1.06,1.06,0,0,0-.53.91,4.47,4.47,0,0,0,.35,1.55l1.72,4.75,5.14,13.38,3.11-7.29q4.52-10.84,4.52-12.53a.85.85,0,0,0-.18-.56,1.62,1.62,0,0,0-.88-.42,20.19,20.19,0,0,0-3.37-.28V133.8q2.25.14,5.66.14,4.15,0,7.73-.14v2.74h-.56a3.9,3.9,0,0,0-1.79.35,2.32,2.32,0,0,0-.93.7,30.78,30.78,0,0,0-2,3.87q-2.07,4.43-3.34,7.32-3.94,8.94-5,11.47l-5.66,13.83q-2.6,6.3-5.52,9a10.06,10.06,0,0,1-7.1,2.71,13.88,13.88,0,0,1-2.51-.21A14.52,14.52,0,0,1,392.47,184.77Z"/><line class="cls-3" x1="350.82" y1="185.31" x2="118.02" y2="185.31"/></g></g></svg>