<svg xmlns="http://www.w3.org/2000/svg" viewBox="0 0 332.68 321.03"><defs><style>.cls-1{fill:#25bf9a;opacity:0.6;}.cls-2{fill:#fff;}.cls-3{fill:none;stroke:#fff;stroke-miterlimit:10;stroke-width:3px;}</style></defs><title>slogan_humanity</title><g id="图层_2" data-name="图层 2"><g id="图层_1-2" data-name="图层 1"><path class="cls-1" d="M128.35,118.42s-10.2,28.88-24.89,28.8c-18.5-.09-14.82-17.35-11.63-20.86,5.34-5.86,22.38-6.64,19.09,8.65,13.33-12.38,5.31-26.35-3.74-33C99.52,96.15,91,96.79,87.91,97.14s-18,1.68-34.67,20.58-43.31,42.8-43.31,42.8,26.64,23.9,43.31,42.8,31.58,20.24,34.67,20.58,11.6,1,19.28-4.87c9-6.66,17.06-20.63,3.74-33,3.28,15.29-13.75,14.51-19.09,8.65-3.19-3.51-6.87-20.77,11.63-20.86,14.68-.07,24.89,28.8,24.89,28.8h0s28.88,10.2,28.8,24.89c-.09,18.5-17.35,14.82-20.86,11.63-5.86-5.34-6.64-22.38,8.65-19.09-12.38-13.33-26.35-5.3-33,3.74-5.87,7.68-5.22,16.19-4.87,19.28s1.68,18,20.58,34.67S170.44,321,170.44,321s23.9-26.64,42.8-43.32,20.24-31.58,20.58-34.67,1-11.6-4.87-19.28c-6.65-9-20.63-17.06-33-3.74,15.29-3.28,14.51,13.76,8.65,19.09-3.51,3.19-20.76,6.87-20.86-11.63-.08-14.68,28.8-24.89,28.8-24.89h0s10.2-28.88,24.89-28.8c18.5.09,14.82,17.35,11.63,20.86-5.34,5.86-22.38,6.64-19.09-8.65-13.33,12.37-5.31,26.35,3.74,33,7.68,5.86,16.19,5.22,19.28,4.87s18-1.68,34.67-20.58S331,160.52,331,160.52s-26.64-23.9-43.31-42.8S256.06,97.48,253,97.14s-11.6-1-19.28,4.87c-9,6.65-17.06,20.62-3.74,33-3.28-15.29,13.75-14.51,19.09-8.65,3.19,3.51,6.87,20.76-11.63,20.86-14.68.08-24.89-28.8-24.89-28.8s-28.88-10.2-28.8-24.89c.09-18.5,17.35-14.82,20.86-11.63,5.86,5.34,6.64,22.38-8.65,19.09,12.38,13.33,26.35,5.3,33-3.74,5.87-7.68,5.22-16.19,4.87-19.28s-1.68-18-20.58-34.67S170.44,0,170.44,0s-23.9,26.64-42.8,43.31S107.41,74.9,107.06,78s-1,11.6,4.87,19.28c6.65,9,20.63,17.06,33,3.74-15.29,3.28-14.51-13.76-8.65-19.09,3.51-3.19,20.76-6.87,20.86,11.63C157.23,108.22,128.35,118.42,128.35,118.42Z"/><path class="cls-2" d="M28,220.08v-.42a4.39,4.39,0,0,0,.84-.45c0-.22.06-.57.09-1.06q.07-1.34.07-2v-3.52q0-.2,0-1.52a3.73,3.73,0,0,0-.12-1.08.28.28,0,0,0-.13-.12,5.28,5.28,0,0,0-1.24-.14v-.6h3.13l2.62,0,1.74,0,1.25,0,.28,0,.06.1-.16,1.13-.09,1.13h-.67a6.34,6.34,0,0,0-.08-1.13.28.28,0,0,0-.1-.16,2.21,2.21,0,0,0-.69-.12,16.41,16.41,0,0,0-1.66-.09q-.76,0-1.56.05a17.23,17.23,0,0,0-.12,2.26V214q.58,0,1.22,0l1.42,0a1.71,1.71,0,0,0,.54-.05.3.3,0,0,0,.13-.16,3.66,3.66,0,0,0,.12-1h.7l0,1.72,0,1.71h-.7a2.58,2.58,0,0,0-.13-1.12.51.51,0,0,0-.37-.2,11.12,11.12,0,0,0-1.54-.09q-.84,0-1.39.05v3.28q0,.55,0,.94.69.05,1.65.05t1.71-.05a3.06,3.06,0,0,0,1-.16.29.29,0,0,0,.11-.14,7.52,7.52,0,0,0,.33-1.42H37a21.8,21.8,0,0,0-.19,2.55l-.11.1q-.55.05-1.56.05l-1.38,0-2.82,0Z"/><path class="cls-2" d="M38.41,219.42a10.23,10.23,0,0,0,1.16-.09.36.36,0,0,0,.16-.1.64.64,0,0,0,.11-.29q.05-.3.12-1.44,0-.65,0-1.69v-2.51l0-2.27a4.2,4.2,0,0,0-.05-.74.54.54,0,0,0-.12-.25.57.57,0,0,0-.27-.13,9.15,9.15,0,0,0-1.09-.1v-.66q1.09.05,1.61.05l1.25,0,.79,0q1.77,2.1,4.29,4.84,1.81,2,3,3.09v-1.8q0-4.2-.1-4.95a.53.53,0,0,0-.15-.37,3.49,3.49,0,0,0-1.34-.16v-.66q1,.05,1.92.05t2.19-.05v.66a3.74,3.74,0,0,0-1.25.14.21.21,0,0,0-.09.12,8.1,8.1,0,0,0-.17,1.79q0,1.39,0,2.06,0,5.2.11,6.3l-.11.07-1.47-.2q-2.78-2.82-7.87-8.47v3.89q0,1.21.06,2.52a5.51,5.51,0,0,0,.1,1.1.32.32,0,0,0,.12.15.64.64,0,0,0,.29.08,8.14,8.14,0,0,0,.82.06h.17v.63l-1.86,0q-.83,0-2.27.05Z"/><path class="cls-2" d="M53.52,220.08v-.37l.24-.12a6,6,0,0,0,.6-.34q.09-1,.09-3.4v-1.28q0-1,0-3a7.58,7.58,0,0,0-.11-1.41.28.28,0,0,0-.07-.11.45.45,0,0,0-.21-.09l-1.08-.14v-.63l3.12.05,2.07,0,1.76,0a14,14,0,0,1,2.44.17,5.31,5.31,0,0,1,1.59.54,4.43,4.43,0,0,1,1.15.88,3.68,3.68,0,0,1,.71,1.09,5.64,5.64,0,0,1,.4,2.16,5.75,5.75,0,0,1-.6,2.66,5.63,5.63,0,0,1-1.65,2,6.9,6.9,0,0,1-2.28,1.14,11,11,0,0,1-3,.35L56.13,220Zm3.43-1a10.54,10.54,0,0,0,1.53.12,8.52,8.52,0,0,0,2-.22,3.85,3.85,0,0,0,1.14-.48,3.63,3.63,0,0,0,.94-.92,4.61,4.61,0,0,0,.7-1.45,6.4,6.4,0,0,0,.25-1.82,6,6,0,0,0-.25-1.72,3.73,3.73,0,0,0-.82-1.46,3.24,3.24,0,0,0-1.44-.91,9.13,9.13,0,0,0-2.63-.28,11.74,11.74,0,0,0-1.46.1q-.09,1.11-.09,4.18v1.8Q56.87,218.38,57,219.12Z"/><path class="cls-2" d="M68.23,220.08v-.4a6,6,0,0,0,.63-.3.8.8,0,0,0,.23-.16.17.17,0,0,0,0-.09,13.08,13.08,0,0,0,.08-1.39q0-1.2,0-2.88,0-2.47,0-3a9.45,9.45,0,0,0-.11-1.68A.25.25,0,0,0,69,210a4.24,4.24,0,0,0-1.32-.16v-.69q1.09.05,2.49.05,1.56,0,3-.05v.69a4.27,4.27,0,0,0-1.19.14.28.28,0,0,0-.14.15,5.91,5.91,0,0,0-.08,1q0,.86,0,2.17,0,.14,0,2.26,0,1.12,0,2.21t0,1.33l1.62.05a16.12,16.12,0,0,0,2.28-.14,1.16,1.16,0,0,0,.42-.1.67.67,0,0,0,.15-.29q.17-.59.34-1.36h.71c0,.15,0,.23,0,.26L77,219.07q-.07.74-.08.89a3.28,3.28,0,0,1-.5.09q-.52,0-1.62,0l-2,0-2,0Q69.95,220,68.23,220.08Z"/><path class="cls-2" d="M78.86,220.08v-.42a4.38,4.38,0,0,0,.84-.45c0-.22.06-.57.09-1.06q.07-1.34.07-2v-3.52q0-.2,0-1.52a3.73,3.73,0,0,0-.12-1.08.28.28,0,0,0-.13-.12,5.28,5.28,0,0,0-1.24-.14v-.6h3.13l2.62,0,1.74,0,1.25,0,.28,0,.06.1-.16,1.13-.09,1.13h-.67a6.33,6.33,0,0,0-.08-1.13.28.28,0,0,0-.1-.16,2.21,2.21,0,0,0-.69-.12,16.41,16.41,0,0,0-1.66-.09q-.76,0-1.56.05a17.24,17.24,0,0,0-.12,2.26V214q.58,0,1.22,0l1.42,0a1.71,1.71,0,0,0,.54-.05.3.3,0,0,0,.13-.16,3.65,3.65,0,0,0,.12-1h.7l0,1.72,0,1.71h-.7a2.58,2.58,0,0,0-.13-1.12.51.51,0,0,0-.37-.2,11.12,11.12,0,0,0-1.54-.09q-.84,0-1.39.05v3.28q0,.55,0,.94.69.05,1.65.05t1.71-.05a3.06,3.06,0,0,0,1-.16.29.29,0,0,0,.11-.14,7.52,7.52,0,0,0,.33-1.42h.71a21.8,21.8,0,0,0-.19,2.55l-.11.1q-.55.05-1.56.05l-1.38,0-2.82,0Z"/><path class="cls-2" d="M97.41,212h-.72a9.11,9.11,0,0,0-.09-1.28,2.17,2.17,0,0,0-.92-.61,3.9,3.9,0,0,0-1.47-.27,2.73,2.73,0,0,0-1.81.54,1.6,1.6,0,0,0-.64,1.26,1.77,1.77,0,0,0,.19.84,1.32,1.32,0,0,0,.51.51,4,4,0,0,0,1,.34l1.39.23,1.15.2a4.67,4.67,0,0,1,1.12.39,2.32,2.32,0,0,1,.68.53,2.44,2.44,0,0,1,.42.76,3,3,0,0,1,.16,1,3.34,3.34,0,0,1-.46,1.76,3.83,3.83,0,0,1-1,1,4.65,4.65,0,0,1-1.25.71,7.26,7.26,0,0,1-2.47.38,8.93,8.93,0,0,1-1.88-.18,9.58,9.58,0,0,1-1.81-.62,10.34,10.34,0,0,0,.28-2.71h.72a8.78,8.78,0,0,0,.09,1.4,2.66,2.66,0,0,0,1.12.85,4,4,0,0,0,1.73.37,3.81,3.81,0,0,0,1.46-.26,1.89,1.89,0,0,0,.93-.72,1.94,1.94,0,0,0,.29-1,1.67,1.67,0,0,0-.2-.84,1.42,1.42,0,0,0-.63-.56,7.2,7.2,0,0,0-1.51-.44q-1.56-.3-2-.43a3.08,3.08,0,0,1-1.19-.59,2.4,2.4,0,0,1-.67-.93,3,3,0,0,1-.22-1.17,3.31,3.31,0,0,1,.4-1.61,3,3,0,0,1,1.07-1.14,4.69,4.69,0,0,1,1.5-.58,8.27,8.27,0,0,1,1.71-.18,10.35,10.35,0,0,1,1.77.15,6.34,6.34,0,0,1,1.48.43l.07.19a8.51,8.51,0,0,0-.18,1C97.46,211,97.43,211.48,97.41,212Z"/><path class="cls-2" d="M108.16,212h-.72a9.11,9.11,0,0,0-.09-1.28,2.17,2.17,0,0,0-.92-.61,3.9,3.9,0,0,0-1.47-.27,2.73,2.73,0,0,0-1.81.54,1.6,1.6,0,0,0-.64,1.26,1.77,1.77,0,0,0,.19.84,1.32,1.32,0,0,0,.51.51,4,4,0,0,0,1,.34l1.39.23,1.15.2a4.67,4.67,0,0,1,1.12.39,2.32,2.32,0,0,1,.68.53,2.44,2.44,0,0,1,.42.76,3,3,0,0,1,.16,1,3.34,3.34,0,0,1-.46,1.76,3.83,3.83,0,0,1-1,1,4.65,4.65,0,0,1-1.25.71,7.26,7.26,0,0,1-2.47.38,8.93,8.93,0,0,1-1.88-.18,9.58,9.58,0,0,1-1.81-.62,10.35,10.35,0,0,0,.28-2.71h.72a8.78,8.78,0,0,0,.09,1.4,2.66,2.66,0,0,0,1.12.85,4,4,0,0,0,1.73.37,3.82,3.82,0,0,0,1.46-.26,1.89,1.89,0,0,0,.93-.72,1.94,1.94,0,0,0,.29-1,1.67,1.67,0,0,0-.2-.84,1.42,1.42,0,0,0-.63-.56,7.2,7.2,0,0,0-1.51-.44q-1.56-.3-2-.43a3.08,3.08,0,0,1-1.19-.59,2.4,2.4,0,0,1-.67-.93,3,3,0,0,1-.22-1.17,3.31,3.31,0,0,1,.4-1.61,3,3,0,0,1,1.07-1.14,4.69,4.69,0,0,1,1.5-.58,8.26,8.26,0,0,1,1.71-.18,10.35,10.35,0,0,1,1.77.15,6.34,6.34,0,0,1,1.48.43l.07.19a8.49,8.49,0,0,0-.18,1C108.21,211,108.18,211.48,108.16,212Z"/><path class="cls-2" d="M123.31,212h-.72a9.11,9.11,0,0,0-.09-1.28,2.17,2.17,0,0,0-.92-.61,3.9,3.9,0,0,0-1.47-.27,2.73,2.73,0,0,0-1.81.54,1.6,1.6,0,0,0-.64,1.26,1.76,1.76,0,0,0,.19.84,1.32,1.32,0,0,0,.51.51,4,4,0,0,0,1,.34l1.39.23,1.15.2a4.67,4.67,0,0,1,1.12.39,2.32,2.32,0,0,1,.68.53,2.44,2.44,0,0,1,.42.76,3,3,0,0,1,.16,1,3.34,3.34,0,0,1-.46,1.76,3.83,3.83,0,0,1-1,1,4.65,4.65,0,0,1-1.25.71,7.26,7.26,0,0,1-2.47.38,8.93,8.93,0,0,1-1.88-.18,9.58,9.58,0,0,1-1.81-.62,10.35,10.35,0,0,0,.28-2.71h.72a8.78,8.78,0,0,0,.09,1.4,2.65,2.65,0,0,0,1.12.85,4,4,0,0,0,1.73.37,3.82,3.82,0,0,0,1.46-.26,1.89,1.89,0,0,0,.93-.72,1.94,1.94,0,0,0,.29-1,1.67,1.67,0,0,0-.2-.84,1.42,1.42,0,0,0-.63-.56,7.2,7.2,0,0,0-1.51-.44q-1.56-.3-2-.43a3.08,3.08,0,0,1-1.19-.59,2.4,2.4,0,0,1-.67-.93,3,3,0,0,1-.22-1.17,3.31,3.31,0,0,1,.4-1.61,3,3,0,0,1,1.07-1.14,4.69,4.69,0,0,1,1.5-.58,8.26,8.26,0,0,1,1.71-.18,10.35,10.35,0,0,1,1.77.15,6.34,6.34,0,0,1,1.48.43l.07.19a8.49,8.49,0,0,0-.18,1C123.36,211,123.33,211.48,123.31,212Z"/><path class="cls-2" d="M126.13,214.75a6,6,0,0,1,.48-2.49,5,5,0,0,1,1.36-1.8,5.59,5.59,0,0,1,1.92-1.07,9.73,9.73,0,0,1,2.9-.41,9.46,9.46,0,0,1,2.84.4,5.27,5.27,0,0,1,1.67.88,4.44,4.44,0,0,1,1.68,2.5,6.1,6.1,0,0,1,.19,1.59,6.65,6.65,0,0,1-.56,2.73,4.94,4.94,0,0,1-1.21,1.66,5.7,5.7,0,0,1-1.81,1.12,9,9,0,0,1-3.18.52,7.92,7.92,0,0,1-3.32-.64,5,5,0,0,1-2.18-1.88A5.65,5.65,0,0,1,126.13,214.75Zm2.65-.47a7.22,7.22,0,0,0,.55,3,3.58,3.58,0,0,0,1.41,1.68,4,4,0,0,0,2,.49,4,4,0,0,0,1.94-.47,3.15,3.15,0,0,0,1.34-1.59,6.78,6.78,0,0,0,.49-2.71,7.19,7.19,0,0,0-.26-2,4.59,4.59,0,0,0-.75-1.54,3.37,3.37,0,0,0-1.16-1,4,4,0,0,0-1.77-.34,4,4,0,0,0-2.14.54,3.07,3.07,0,0,0-1.28,1.58A6.44,6.44,0,0,0,128.78,214.28Z"/><path class="cls-2" d="M143,220.08v-.64a4.57,4.57,0,0,0,1.22-.12.5.5,0,0,0,.26-.31,11.55,11.55,0,0,0,.09-2V212.3q0-1.91,0-2.14h-1.23q-.93,0-1.63.05a.8.8,0,0,0-.33.06.51.51,0,0,0-.1.27,7.08,7.08,0,0,0-.13,1.23h-.71q0-1.6,0-1.8t-.09-.74l.08-.08.86.05q.74,0,2.84,0h3.47q2.17,0,2.89,0l.8-.05.09.08a7.56,7.56,0,0,0-.09.84s0,.61,0,1.71h-.71a8.45,8.45,0,0,0-.11-1.16.73.73,0,0,0-.11-.34.64.64,0,0,0-.27-.05q-.7-.06-1.69-.06H147q0,.27,0,2.14V217a11.72,11.72,0,0,0,.09,2,.47.47,0,0,0,.26.3,4.43,4.43,0,0,0,1.23.13v.64q-1.66-.07-2.81-.07T143,220.08Z"/><path class="cls-2" d="M152.31,209.79v-.64l1.38,0,1.63,0q.9,0,1.55,0,1.07,0,1.76,0a8.57,8.57,0,0,1,2,.18,2.21,2.21,0,0,1,1.14.73,2,2,0,0,1,.47,1.35,2.62,2.62,0,0,1-.64,1.72,4.31,4.31,0,0,1-2,1.23q.22.35.49.71l.32.44.1.15,1.33,1.81.58.78q.64.77.79.92a.9.9,0,0,0,.28.19,1.83,1.83,0,0,0,.54.06v.69l-1.92,0q-.69,0-1.37,0a1.79,1.79,0,0,0-.21-.45l-1.84-2.76q-.79-1.19-1.34-1.87a2.45,2.45,0,0,0-.53-.52l.09-.26a3.85,3.85,0,0,0,1.56-.19,2,2,0,0,0,.88-.8,2.37,2.37,0,0,0,.36-1.29,1.87,1.87,0,0,0-.38-1.2,2,2,0,0,0-.94-.66,4.78,4.78,0,0,0-1.29-.12,5.28,5.28,0,0,0-.82.06q0,.28-.05,1.27-.05,2.21-.05,3,0,1.17,0,2.49,0,1.61.05,1.83a1.72,1.72,0,0,0,.09.57.34.34,0,0,0,.11.11.73.73,0,0,0,.25.08,9.8,9.8,0,0,0,1,0v.69q-1.47-.05-3-.05-1.34,0-2.48.05v-.69a7.27,7.27,0,0,0,1.16-.09.27.27,0,0,0,.15-.08.46.46,0,0,0,.07-.22,6.53,6.53,0,0,0,.09-.92l.07-2.28v-2.9l0-1.65a4.6,4.6,0,0,0-.1-1.17.3.3,0,0,0-.13-.13A5.36,5.36,0,0,0,152.31,209.79Z"/><path class="cls-2" d="M170.61,209.15v.69a9.25,9.25,0,0,0-1,.06.63.63,0,0,0-.23.09.26.26,0,0,0-.1.13,1.69,1.69,0,0,0-.09.51q0,.2,0,.77,0,1.92,0,2.07v3.15l0,1.43a3.89,3.89,0,0,0,.09,1,.32.32,0,0,0,.12.17.69.69,0,0,0,.26.09,9,9,0,0,0,1,.05v.69q-1.4-.05-3-.05-1.38,0-2.47.05v-.69q.89,0,1-.05a.55.55,0,0,0,.25-.09.24.24,0,0,0,.08-.12,6.94,6.94,0,0,0,.07-.73q.07-.94.07-1.73V213.4q0-1.55,0-2a9,9,0,0,0-.1-1.24.33.33,0,0,0-.08-.16.45.45,0,0,0-.21-.09,9.87,9.87,0,0,0-1.09-.07v-.69q1.08.05,2.48.05Q169.21,209.21,170.61,209.15Z"/><path class="cls-2" d="M172.22,220.08v-.42a4.39,4.39,0,0,0,.84-.45q.05-.33.09-1.06.07-1.34.07-2v-3.52q0-.2,0-1.52a3.68,3.68,0,0,0-.12-1.08.27.27,0,0,0-.13-.12,5.26,5.26,0,0,0-1.24-.14v-.6h3.13l2.62,0,1.75,0,1.25,0,.28,0,.06.1-.16,1.13-.09,1.13h-.67a6.44,6.44,0,0,0-.08-1.13.28.28,0,0,0-.1-.16,2.23,2.23,0,0,0-.69-.12,16.4,16.4,0,0,0-1.66-.09q-.76,0-1.56.05a17.43,17.43,0,0,0-.12,2.26V214q.58,0,1.22,0l1.42,0a1.71,1.71,0,0,0,.54-.05.3.3,0,0,0,.12-.16,3.65,3.65,0,0,0,.12-1h.7l0,1.72,0,1.71h-.7a2.57,2.57,0,0,0-.13-1.12.51.51,0,0,0-.37-.2,11.13,11.13,0,0,0-1.54-.09q-.84,0-1.39.05v3.28q0,.55,0,.94.7.05,1.65.05t1.71-.05a3.07,3.07,0,0,0,1-.16.29.29,0,0,0,.11-.14,7.67,7.67,0,0,0,.33-1.42h.7a21.77,21.77,0,0,0-.19,2.55l-.11.1q-.55.05-1.56.05l-1.38,0-2.82,0Z"/><path class="cls-2" d="M190.77,212h-.72a9.11,9.11,0,0,0-.09-1.28,2.17,2.17,0,0,0-.92-.61,3.9,3.9,0,0,0-1.47-.27,2.73,2.73,0,0,0-1.81.54,1.6,1.6,0,0,0-.64,1.26,1.77,1.77,0,0,0,.19.84,1.32,1.32,0,0,0,.51.51,4,4,0,0,0,1,.34l1.39.23,1.15.2a4.67,4.67,0,0,1,1.12.39,2.32,2.32,0,0,1,.68.53,2.44,2.44,0,0,1,.42.76,3,3,0,0,1,.16,1,3.34,3.34,0,0,1-.45,1.76,3.83,3.83,0,0,1-1,1,4.66,4.66,0,0,1-1.25.71,7.26,7.26,0,0,1-2.47.38,8.93,8.93,0,0,1-1.88-.18,9.58,9.58,0,0,1-1.81-.62,10.34,10.34,0,0,0,.28-2.71h.72a8.78,8.78,0,0,0,.09,1.4,2.66,2.66,0,0,0,1.12.85,4,4,0,0,0,1.73.37,3.81,3.81,0,0,0,1.46-.26,1.89,1.89,0,0,0,.93-.72,1.94,1.94,0,0,0,.29-1,1.67,1.67,0,0,0-.2-.84,1.42,1.42,0,0,0-.63-.56,7.2,7.2,0,0,0-1.51-.44q-1.56-.3-2-.43a3.08,3.08,0,0,1-1.19-.59,2.4,2.4,0,0,1-.67-.93,3,3,0,0,1-.22-1.17,3.31,3.31,0,0,1,.4-1.61,3,3,0,0,1,1.07-1.14,4.69,4.69,0,0,1,1.5-.58,8.27,8.27,0,0,1,1.71-.18,10.35,10.35,0,0,1,1.77.15,6.34,6.34,0,0,1,1.48.43l.07.19a8.51,8.51,0,0,0-.18,1C190.82,211,190.79,211.48,190.77,212Z"/><path class="cls-2" d="M198,214.75a6,6,0,0,1,.48-2.49,5,5,0,0,1,1.36-1.8,5.61,5.61,0,0,1,1.93-1.07,9.73,9.73,0,0,1,2.9-.41,9.46,9.46,0,0,1,2.84.4,5.28,5.28,0,0,1,1.67.88,4.45,4.45,0,0,1,1.68,2.5,6.1,6.1,0,0,1,.19,1.59,6.65,6.65,0,0,1-.56,2.73,4.93,4.93,0,0,1-1.21,1.66,5.7,5.7,0,0,1-1.81,1.12,9,9,0,0,1-3.18.52,7.92,7.92,0,0,1-3.32-.64,5,5,0,0,1-2.18-1.88A5.65,5.65,0,0,1,198,214.75Zm2.65-.47a7.2,7.2,0,0,0,.55,3A3.57,3.57,0,0,0,202.6,219a4,4,0,0,0,2,.49,4,4,0,0,0,1.94-.47,3.16,3.16,0,0,0,1.34-1.59,6.8,6.8,0,0,0,.49-2.71,7.19,7.19,0,0,0-.26-2,4.61,4.61,0,0,0-.75-1.54,3.37,3.37,0,0,0-1.16-1,4,4,0,0,0-1.77-.34,4,4,0,0,0-2.14.54A3.07,3.07,0,0,0,201,212,6.44,6.44,0,0,0,200.64,214.28Z"/><path class="cls-2" d="M220.12,216.29h-.76a3.41,3.41,0,0,0-.15-1.18.45.45,0,0,0-.31-.15,14.14,14.14,0,0,0-2-.1h-.69v.87q0,1.85,0,2.6a2.6,2.6,0,0,0,.13.87.41.41,0,0,0,.21.14,10.81,10.81,0,0,0,1.35.13v.62l-3.37-.05q-.73,0-2.32.05v-.65a6.49,6.49,0,0,0,1.15-.07.26.26,0,0,0,.13-.09.9.9,0,0,0,.12-.41q0-.18.07-1.13t0-1.36v-3.23q0-.11-.08-2.19a3.57,3.57,0,0,0-.1-.85.25.25,0,0,0-.08-.13.7.7,0,0,0-.24-.08,10,10,0,0,0-1-.09v-.66l3.05.05,4.14-.07q.87,0,1.64.08l.08.11a10.67,10.67,0,0,0-.16,1.13q-.07.69-.08,1.2h-.7c0-.12,0-.4,0-.84a1.57,1.57,0,0,0-.05-.41.16.16,0,0,0-.08-.08,2.48,2.48,0,0,0-.72-.18,8.53,8.53,0,0,0-1.32-.09l-.81,0-.91,0a27.27,27.27,0,0,0-.09,2.8V214l1.48.05a6.16,6.16,0,0,0,1.41-.09.25.25,0,0,0,.16-.18,3.31,3.31,0,0,0,.09-.89h.76Z"/><path class="cls-2" d="M222.06,209.8v-.65l2.54.05,3.84-.07a6,6,0,0,1,1.78.21,2.42,2.42,0,0,1,1.12.77,2.15,2.15,0,0,1,.47,1.44,3.15,3.15,0,0,1-.45,1.64,3.35,3.35,0,0,1-1.41,1.25,4.46,4.46,0,0,1-2,.49l-.54,0-.52-.08a3.22,3.22,0,0,0-.31-.55l.18-.17.36.08.3,0a1.87,1.87,0,0,0,1.38-.54,2.09,2.09,0,0,0,.54-1.56,2.12,2.12,0,0,0-.57-1.61,2.2,2.2,0,0,0-1.58-.54,6.44,6.44,0,0,0-1.07.1q0,.48-.05,1.42l0,1.53v3q0,1.09,0,2.27a3.56,3.56,0,0,0,.09.86.33.33,0,0,0,.12.14.71.71,0,0,0,.29.09l1.15.07v.69q-2.2-.05-3.31-.05t-2.33.05v-.69a3.81,3.81,0,0,0,1.2-.13.28.28,0,0,0,.12-.12,1.87,1.87,0,0,0,.09-.57q.09-1.25.09-2.78V213l0-1.47q0-.94,0-1.18a.84.84,0,0,0-.08-.34.29.29,0,0,0-.12-.11,1,1,0,0,0-.29-.09Z"/><path class="cls-2" d="M233.32,220.08v-.42a4.4,4.4,0,0,0,.84-.45q.05-.33.09-1.06.07-1.34.07-2v-3.52q0-.2,0-1.52a3.68,3.68,0,0,0-.12-1.08A.27.27,0,0,0,234,210a5.26,5.26,0,0,0-1.24-.14v-.6h3.13l2.62,0,1.75,0,1.25,0,.28,0,.06.1-.16,1.13-.09,1.13H241a6.44,6.44,0,0,0-.08-1.13.28.28,0,0,0-.1-.16,2.23,2.23,0,0,0-.69-.12,16.4,16.4,0,0,0-1.66-.09q-.76,0-1.56.05a17.43,17.43,0,0,0-.12,2.26V214q.58,0,1.22,0l1.42,0A1.71,1.71,0,0,0,240,214a.3.3,0,0,0,.12-.16,3.66,3.66,0,0,0,.12-1h.7l0,1.72,0,1.71h-.7a2.57,2.57,0,0,0-.13-1.12.51.51,0,0,0-.37-.2,11.13,11.13,0,0,0-1.54-.09q-.84,0-1.39.05v3.28q0,.55,0,.94.7.05,1.65.05t1.71-.05a3.07,3.07,0,0,0,1-.16.29.29,0,0,0,.11-.14,7.69,7.69,0,0,0,.33-1.42h.7a21.77,21.77,0,0,0-.19,2.55l-.11.1q-.55.05-1.56.05l-1.38,0-2.82,0Z"/><path class="cls-2" d="M243.94,214.75a6,6,0,0,1,.48-2.49,5,5,0,0,1,1.36-1.8,5.6,5.6,0,0,1,1.92-1.07,9.73,9.73,0,0,1,2.9-.41,9.46,9.46,0,0,1,2.84.4,5.27,5.27,0,0,1,1.67.88,4.44,4.44,0,0,1,1.68,2.5,6.1,6.1,0,0,1,.19,1.59,6.65,6.65,0,0,1-.56,2.73,4.94,4.94,0,0,1-1.21,1.66,5.7,5.7,0,0,1-1.81,1.12,9,9,0,0,1-3.18.52,7.92,7.92,0,0,1-3.32-.64,5,5,0,0,1-2.18-1.88A5.65,5.65,0,0,1,243.94,214.75Zm2.65-.47a7.22,7.22,0,0,0,.55,3,3.59,3.59,0,0,0,1.41,1.68,4,4,0,0,0,2,.49,4,4,0,0,0,1.94-.47,3.15,3.15,0,0,0,1.34-1.59,6.79,6.79,0,0,0,.49-2.71,7.19,7.19,0,0,0-.26-2,4.59,4.59,0,0,0-.75-1.54,3.37,3.37,0,0,0-1.16-1,4,4,0,0,0-1.77-.34,4,4,0,0,0-2.14.54A3.07,3.07,0,0,0,247,212,6.44,6.44,0,0,0,246.59,214.28Z"/><path class="cls-2" d="M258.23,209.8v-.65l2.54.05,3.84-.07a6,6,0,0,1,1.78.21,2.42,2.42,0,0,1,1.12.77,2.15,2.15,0,0,1,.47,1.44,3.15,3.15,0,0,1-.45,1.64,3.35,3.35,0,0,1-1.41,1.25,4.46,4.46,0,0,1-2,.49l-.54,0-.52-.08a3.15,3.15,0,0,0-.31-.55l.18-.17.36.08.31,0a1.88,1.88,0,0,0,1.38-.54,2.1,2.1,0,0,0,.54-1.56,2.12,2.12,0,0,0-.57-1.61,2.2,2.2,0,0,0-1.58-.54,6.45,6.45,0,0,0-1.07.1q0,.48-.05,1.42l0,1.53v3q0,1.09,0,2.27a3.53,3.53,0,0,0,.09.86.34.34,0,0,0,.12.14.71.71,0,0,0,.29.09l1.15.07v.69q-2.2-.05-3.31-.05t-2.33.05v-.69a3.8,3.8,0,0,0,1.2-.13.29.29,0,0,0,.12-.12,1.85,1.85,0,0,0,.09-.57q.1-1.25.09-2.78V213l0-1.47c0-.63,0-1,0-1.18a.86.86,0,0,0-.08-.34.3.3,0,0,0-.12-.11,1,1,0,0,0-.29-.09Z"/><path class="cls-2" d="M269.48,220.08v-.42a4.4,4.4,0,0,0,.84-.45q.05-.33.09-1.06.07-1.34.07-2v-3.52q0-.2,0-1.52a3.68,3.68,0,0,0-.12-1.08.27.27,0,0,0-.13-.12,5.26,5.26,0,0,0-1.24-.14v-.6h3.13l2.62,0,1.75,0,1.25,0,.28,0,.06.1-.16,1.13-.09,1.13h-.67a6.44,6.44,0,0,0-.08-1.13.28.28,0,0,0-.1-.16,2.23,2.23,0,0,0-.69-.12,16.4,16.4,0,0,0-1.66-.09q-.76,0-1.56.05a17.43,17.43,0,0,0-.12,2.26V214q.58,0,1.22,0l1.42,0a1.71,1.71,0,0,0,.54-.05.3.3,0,0,0,.12-.16,3.66,3.66,0,0,0,.12-1h.7l0,1.72,0,1.71h-.7a2.57,2.57,0,0,0-.13-1.12.51.51,0,0,0-.37-.2,11.14,11.14,0,0,0-1.54-.09q-.84,0-1.39.05v3.28q0,.55,0,.94.7.05,1.65.05t1.71-.05a3.07,3.07,0,0,0,1-.16.29.29,0,0,0,.11-.14,7.67,7.67,0,0,0,.33-1.42h.7a21.77,21.77,0,0,0-.19,2.55l-.11.1q-.55.05-1.56.05l-1.38,0-2.82,0Z"/><path class="cls-2" d="M280.36,220.08v-.4a6,6,0,0,0,.63-.3.8.8,0,0,0,.23-.16.17.17,0,0,0,0-.09,13.09,13.09,0,0,0,.08-1.39q0-1.2,0-2.88,0-2.47,0-3a9.45,9.45,0,0,0-.11-1.68.25.25,0,0,0-.13-.14,4.24,4.24,0,0,0-1.32-.16v-.69q1.09.05,2.49.05,1.56,0,3-.05v.69a4.26,4.26,0,0,0-1.19.14.28.28,0,0,0-.14.15,5.9,5.9,0,0,0-.08,1q0,.86,0,2.17,0,.14,0,2.26,0,1.12,0,2.21t0,1.33l1.62.05a16.12,16.12,0,0,0,2.28-.14,1.16,1.16,0,0,0,.42-.1.67.67,0,0,0,.15-.29q.17-.59.34-1.36h.71c0,.15,0,.23,0,.26l-.21,1.58q-.07.74-.08.89a3.28,3.28,0,0,1-.5.09q-.52,0-1.62,0l-2,0-2,0Q282.07,220,280.36,220.08Z"/><path class="cls-2" d="M146.19,98.6c-8.86-9.22-13.9-26.71-15.84-41.4-1.73,16.35-7.13,33.91-26.93,42.7,11.31-12.53,21.17-29.67,19.66-63.65l10.73,1.37c.5,1.08-1.44,3.6-2.52,3.31q-.11,2.92-.22,6c1.94,19.8,14.4,36.22,24.41,42.63A32.77,32.77,0,0,0,146.19,98.6Z"/><path class="cls-2" d="M160,47.47h21.17l-4.25-13.54c6,.5,9.43,2.45,10.08,5.47.65,3.24-1.37,6.41-3.31,8.06h24L207,48.63h-7.27c-2.23,12.53-6.41,22.47-12,30.24a43.2,43.2,0,0,0,21.1,9.43c-2,3.53-4.32,6.62-5.47,10.08-2.16-.94-12.1-3.17-20.67-13.54a56.55,56.55,0,0,1-24.63,14.62c7.56-6.12,14.83-12.38,20.59-20.23-4.32-7.13-7.78-16.92-9-30.6h-9.15Zm31,1.15H170.31c3,10.95,7.13,19,12.1,24.91A68.16,68.16,0,0,0,191,48.63Z"/><path class="cls-2" d="M0,170.76v-3.09a36.65,36.65,0,0,0,4.08-.21,2.68,2.68,0,0,0,1.09-.4,1.38,1.38,0,0,0,.49-.76A20.8,20.8,0,0,0,6,161.4l.14-7V138L6,131a21.26,21.26,0,0,0-.39-5,1.43,1.43,0,0,0-.47-.76,2.67,2.67,0,0,0-1.07-.42A32.69,32.69,0,0,0,0,124.67v-3.09q5.77.25,12.16.25,5.73,0,10.16-.25v3.09a38.34,38.34,0,0,0-4.43.3,1.67,1.67,0,0,0-.95.51,6.36,6.36,0,0,0-.42,2.46q-.32,3.58-.32,10.32v4q2.53.25,10.63.25,10.21,0,12.6-.25v-4q0-5.44-.07-7Q39.09,126.6,39,126a1.37,1.37,0,0,0-.33-.65,1.89,1.89,0,0,0-.84-.39,36.6,36.6,0,0,0-4.41-.3v-3.09q4.42.25,10.14.25,6.39,0,12.14-.25v3.09a36.91,36.91,0,0,0-4.08.21,2.68,2.68,0,0,0-1.09.4A1.38,1.38,0,0,0,50,126a21.1,21.1,0,0,0-.39,4.89l-.14,7v16.45l.14,6.89a23.28,23.28,0,0,0,.35,5,1.75,1.75,0,0,0,.51.77,2.36,2.36,0,0,0,1.07.42,37.13,37.13,0,0,0,4.11.21v3.09q-5.76-.25-12.14-.25-5.72,0-10.14.25v-3.09a38.29,38.29,0,0,0,4.43-.3,1.67,1.67,0,0,0,.95-.51,6.39,6.39,0,0,0,.42-2.46q.28-3.59.28-10.34v-7.35q-1.76-.25-10.25-.25-8.13,0-10.84.07-1.09,0-2.15.18v7.35q0,5.48.11,7,.28,4.68.42,5.31a1.35,1.35,0,0,0,.33.62,1.88,1.88,0,0,0,.84.39,36.56,36.56,0,0,0,4.41.3v3.09q-4.43-.25-10.16-.25Q5.77,170.51,0,170.76Z"/><path class="cls-2" d="M59.34,142.6v-2.67a41.78,41.78,0,0,0,6.1-.82,69.25,69.25,0,0,0,7.86-2.28l.49.39q-.53,7-.53,12.87V154a57.6,57.6,0,0,0,.25,6.71,5.26,5.26,0,0,0,1.68,3.34,5.31,5.31,0,0,0,3.54,1.12A6.74,6.74,0,0,0,83,163.87a8,8,0,0,0,2.4-2.73,10.6,10.6,0,0,0,.43-3.79v-6l-.07-5a7.43,7.43,0,0,0-.32-2.91,1.19,1.19,0,0,0-.7-.49,31.45,31.45,0,0,0-4.29-.39v-2.67q5.45-.71,7.42-1.14t6.68-2l.67.39-.39,6.47q-.28,6.89-.28,7.7v7.21a55.94,55.94,0,0,0,.32,7.95,1.32,1.32,0,0,0,.53.88,15.76,15.76,0,0,0,4.32.53v2.81l-7.24-.18-6.64.18-.25-.28.21-2.71q0-.67,0-2.71-1.37,1.09-2.39,2l-4,3.77a14.31,14.31,0,0,1-4.9.88,10.34,10.34,0,0,1-7.46-2.6,9.14,9.14,0,0,1-2.71-6.92q0-.53.13-3.9,0-1.79,0-4.63l-.07-7.41a7,7,0,0,0-.26-2.53,1.64,1.64,0,0,0-.86-.74A19.11,19.11,0,0,0,59.34,142.6Z"/><path class="cls-2" d="M103.64,170.76V168a12.6,12.6,0,0,0,3.8-.39,1.34,1.34,0,0,0,.74-.6,6.35,6.35,0,0,0,.39-2.52l.14-3.12q0-1,0-3.19V153.6q0-3.12-.18-7.57a8.91,8.91,0,0,0-.3-2.54,1.13,1.13,0,0,0-.62-.44,19.41,19.41,0,0,0-4-.35V140q6.4-1.09,8.4-1.62a28.5,28.5,0,0,0,4.54-1.69l.95.42v5.67l6.39-5.15a11,11,0,0,1,1.91-.62,11.29,11.29,0,0,1,2.12-.16,12.1,12.1,0,0,1,6.37,1.36,9.81,9.81,0,0,1,3.56,4.56l6.41-5.15a11.07,11.07,0,0,1,1.92-.62,11.37,11.37,0,0,1,2.13-.16,13.58,13.58,0,0,1,5.41.86,9.06,9.06,0,0,1,5,5.5,18.75,18.75,0,0,1,.53,5.2q0,3.86-.07,5.13,0,.42,0,1v3.65q0,5.62.19,7.18a3.25,3.25,0,0,0,.67,2,4,4,0,0,0,2.11.51q.57,0,2,.18v2.74q-4.82-.25-7.95-.25-3.55,0-6,.25l-.49-.67.4-6.36q.13-3.87.13-6.64v-2.67q0-6.26-.56-7.89a5.06,5.06,0,0,0-1.88-2.57,5.62,5.62,0,0,0-3.32-.93,6.38,6.38,0,0,0-3.83,1.14,5.61,5.61,0,0,0-2,2.07,11.18,11.18,0,0,0-.35,3.74v8.5l.09,3.51.09,2.84a5.55,5.55,0,0,0,.25,1.79,1.57,1.57,0,0,0,.59.74,4.46,4.46,0,0,0,1.33.32l2.86.35v2.74q-3.13-.14-9-.14-6.54,0-9.67.14V168q.67-.11,1.74-.21a5.08,5.08,0,0,0,2-.37,1.88,1.88,0,0,0,.66-1.05,16.1,16.1,0,0,0,.25-3.67l.07-6.21v-5a20.28,20.28,0,0,0-.44-5.07,4.71,4.71,0,0,0-1.78-2.49,5.68,5.68,0,0,0-3.48-1,6.45,6.45,0,0,0-4,1.19,6.28,6.28,0,0,0-2.12,2.39,41.07,41.07,0,0,0-.14,5.51v6.14q0,4.74.18,7.27a3.43,3.43,0,0,0,.35,1.68,1.74,1.74,0,0,0,.95.53,27.11,27.11,0,0,0,3.27.35v2.74q-3.79-.14-9.12-.14Q107.15,170.62,103.64,170.76Z"/><path class="cls-2" d="M199.83,168.12v2.64q-4-.18-7.17-.18-3,0-5.73.18l-.32-.39.32-4.61q-1.27.81-7.45,5.55a14,14,0,0,1-3,.35,7.92,7.92,0,0,1-6-2.25q-2.16-2.25-2.16-6.47a10,10,0,0,1,1-4.68,8.24,8.24,0,0,1,2.07-2.69,12.41,12.41,0,0,1,3.43-1.67,73.2,73.2,0,0,1,12.16-3.09q.07-4.18-1.72-6.36a6.84,6.84,0,0,0-5.55-2.18,10.57,10.57,0,0,0-2.88.39,5.59,5.59,0,0,0-1.41.7l-1.48,3.55-2.39-.53.21-4.54q2.6-1.76,5-3.06a20.45,20.45,0,0,1,3.3-1.58,13.45,13.45,0,0,1,3.66-.39,15.54,15.54,0,0,1,6.31,1.11,9.38,9.38,0,0,1,3.66,2.62,8.76,8.76,0,0,1,1.62,3.23,18,18,0,0,1,.44,4.36q0,1.13-.18,5.87-.11,3.16-.11,5.17a44.82,44.82,0,0,0,.35,7.59,1.15,1.15,0,0,0,.56.84A14.21,14.21,0,0,0,199.83,168.12Zm-12.9-14.34a41.18,41.18,0,0,0-5.47,1.53,7.07,7.07,0,0,0-3.43,2.21,5.54,5.54,0,0,0-.95,3.32,4.92,4.92,0,0,0,1.14,3.48,3.91,3.91,0,0,0,3,1.23,6.37,6.37,0,0,0,3.18-.91,7.18,7.18,0,0,0,2.51-2.32Z"/><path class="cls-2" d="M244,168.15v2.61q-4.79-.25-7.82-.25-3.49,0-6.06.25l-.63-.63q.07-.74.46-6.08l.18-5.77V155.5a42.57,42.57,0,0,0-.47-8.09,5.55,5.55,0,0,0-2-3.11,6.13,6.13,0,0,0-3.94-1.18,6.75,6.75,0,0,0-4.08,1.18,5.38,5.38,0,0,0-2,2.37,31,31,0,0,0-.21,5.62v5.9q0,2.56.18,6.28a6.45,6.45,0,0,0,.28,2.18,1.23,1.23,0,0,0,.45.56,5.08,5.08,0,0,0,1.64.53q.42.07,2.93.28v2.74q-3.83-.14-9.39-.14-6.43,0-10,.14V168a12.6,12.6,0,0,0,3.8-.39,1.34,1.34,0,0,0,.74-.6,6.36,6.36,0,0,0,.39-2.52l.14-3.12q0-1,0-3.19V153.6q0-3.12-.18-7.57a8.91,8.91,0,0,0-.3-2.54,1.13,1.13,0,0,0-.62-.44,19.41,19.41,0,0,0-4-.35V140q6.4-1.09,8.4-1.62a28.49,28.49,0,0,0,4.54-1.69l.95.42v5.67l6.4-5.14a9.13,9.13,0,0,1,4.15-.77,14.39,14.39,0,0,1,5.64.85,8.91,8.91,0,0,1,3.18,2.38,9.28,9.28,0,0,1,1.83,3.21,18.93,18.93,0,0,1,.53,5.24q0,4-.07,5.11,0,.42,0,1l0,3.63q0,6,.19,7.37a2.88,2.88,0,0,0,.64,1.82A4,4,0,0,0,242,168Q242.64,168,244,168.15Z"/><path class="cls-2" d="M247.89,170.76v-2.6a17.58,17.58,0,0,0,4.5-.62,1.64,1.64,0,0,0,.7-1.25,79.71,79.71,0,0,0,.35-10q0-11-.32-12.53a1.39,1.39,0,0,0-.46-.91q-.7-.46-4.78-.49v-2.67a71.22,71.22,0,0,0,8-1.18,40.41,40.41,0,0,0,5.91-1.91l.84.46q-.42,5.48-.42,10.3v12a48.87,48.87,0,0,0,.28,7.24,1.15,1.15,0,0,0,.56.84,15,15,0,0,0,4.61.6v2.74q-5-.14-10.86-.14Q251.75,170.62,247.89,170.76Zm9.65-50.91a5.13,5.13,0,0,1,3.8,1.58,5.44,5.44,0,0,1,0,7.63,5.34,5.34,0,0,1-7.59,0,5.42,5.42,0,0,1,0-7.63A5.13,5.13,0,0,1,257.54,119.85Z"/><path class="cls-2" d="M271.05,144v-1.58l3.16-2a16.69,16.69,0,0,0,1.48-1v-4.71q0-2.53-.28-6.26,3.41-1.12,4.43-1.51l4.46-2.07.91.7-.35,3.66-.25,4-.32,6.15h1.16a52.54,52.54,0,0,0,7.07-.35l-.6,4.75a4.68,4.68,0,0,1-.77.07l-3.45-.07h-3.41V155.5q0,5.41.11,6.4a3.75,3.75,0,0,0,1.18,2.58,4.36,4.36,0,0,0,3,.93,13.47,13.47,0,0,0,1.92-.05q.72-.09,1.85-.33l.56,1.42-1.27,1.27-2.71,2.79a11.28,11.28,0,0,1-2.45.79,12.41,12.41,0,0,1-2.2.19,9.3,9.3,0,0,1-6.43-2.09,6.72,6.72,0,0,1-2.34-5.23l.18-11.62v-8.69h-.95Q272.81,143.86,271.05,144Z"/><path class="cls-2" d="M295.7,188.69q.6-2.57.77-3.59l.53-3.55.91-.18a10.44,10.44,0,0,0,2,1.62,7.31,7.31,0,0,0,3,.6,5.26,5.26,0,0,0,3.37-1.25q1.55-1.25,3.45-5.47l1.41-3.38-11.39-29.23a7.27,7.27,0,0,0-1.93-3.22,6.63,6.63,0,0,0-3.48-.58v-2.74q3.45.14,8.44.14,5.91,0,10.51-.14v2.74h-.81a6,6,0,0,0-3,.49,1.06,1.06,0,0,0-.53.91,4.48,4.48,0,0,0,.35,1.55l1.72,4.75,5.14,13.38,3.11-7.29q4.52-10.84,4.52-12.53a.85.85,0,0,0-.18-.56,1.63,1.63,0,0,0-.88-.42,20.25,20.25,0,0,0-3.37-.28v-2.74q2.25.14,5.66.14,4.15,0,7.73-.14v2.74h-.56a3.9,3.9,0,0,0-1.79.35,2.32,2.32,0,0,0-.93.7,30.69,30.69,0,0,0-2,3.87q-2.07,4.43-3.34,7.32-3.94,8.94-5,11.47L313.42,178q-2.6,6.3-5.52,9a10.06,10.06,0,0,1-7.1,2.71,13.87,13.87,0,0,1-2.51-.21A14.48,14.48,0,0,1,295.7,188.69Z"/><line class="cls-3" x1="274.7" y1="191.97" x2="41.89" y2="191.97"/></g></g></svg>