<svg xmlns="http://www.w3.org/2000/svg" viewBox="0 0 289.17 69.78"><defs><style>.cls-1{fill:#25bf9a;}.cls-2{fill:none;stroke:#fff;stroke-miterlimit:10;stroke-width:3px;}.cls-3{fill:#fff;}</style></defs><title>title_artifact</title><g id="图层_2" data-name="图层 2"><g id="图层_1-2" data-name="图层 1"><path class="cls-1" d="M22,15.17V54.61h0s13.42,4.74,13.49,11.58h218.1c.07-6.84,13.49-11.58,13.49-11.58h0V15.17S253.7,10.43,253.64,3.59H35.53C35.47,10.43,22,15.17,22,15.17Z"/><path class="cls-1" d="M275.76,23.79c-4.37-6.84-8.64-8.62-8.64-8.62L247.41,34.89l19.72,19.72s4.27-1.79,8.64-8.62a40.75,40.75,0,0,1,11.08-11.09A40.75,40.75,0,0,1,275.76,23.79Z"/><path class="cls-1" d="M13.41,46C17.78,52.82,22,54.61,22,54.61L41.76,34.89,22,15.17S17.78,17,13.41,23.79A40.75,40.75,0,0,1,2.33,34.89,40.75,40.75,0,0,1,13.41,46Z"/><path class="cls-2" d="M2.33,34.89s6.16,5.19,13.75,5.19,13.75-5.19,13.75-5.19S23.68,29.7,16.08,29.7,2.33,34.89,2.33,34.89Z"/><path class="cls-2" d="M114.62,1.5"/><path class="cls-2" d="M174.55,1.5H114.62c-46.82,0-84.78,33.39-84.78,33.39s38,33.39,84.78,33.39h59.93"/><path class="cls-2" d="M286.84,34.89s-6.16-5.19-13.75-5.19-13.75,5.19-13.75,5.19,6.16,5.19,13.75,5.19S286.84,34.89,286.84,34.89Z"/><path class="cls-2" d="M174.55,68.28"/><path class="cls-2" d="M174.55,68.28c46.82,0,84.78-33.39,84.78-33.39S221.38,1.5,174.55,1.5"/><path class="cls-1" d="M31.73,3.89S29.88,8.68,26,10.11s-8.42-1-8.42-1,1.85-4.79,5.77-6.22S31.73,3.89,31.73,3.89Z"/><path class="cls-1" d="M30.72,67.49s-4.84,1.72-8.48-.32-4.71-7.06-4.71-7.06,4.84-1.72,8.48.32S30.72,67.49,30.72,67.49Z"/><path class="cls-1" d="M257.9,66.4s1.85-4.79,5.77-6.22,8.42,1,8.42,1-1.85,4.79-5.77,6.22S257.9,66.4,257.9,66.4Z"/><path class="cls-1" d="M258.91,2.79s4.84-1.72,8.48.32,4.71,7.06,4.71,7.06-4.84,1.72-8.48-.32S258.91,2.79,258.91,2.79Z"/><path class="cls-3" d="M53.2,31.83c-.52,4.55-2,8.66-5.69,12.17,1.72-3.41,4.19-9.36,3.43-22l3.35.42a2.31,2.31,0,0,1-.78,1.3,76.26,76.26,0,0,1-.29,7.83c1.48.78,3.56,2.13,3.64,3.9s-1.12,2.08-2,2.5A38.13,38.13,0,0,0,53.2,31.83ZM63.18,44c-1.46-2.94-2.34-8.37-2.7-12.92-.6,5.56-2.39,10.92-7.54,13.75,2.68-3.64,6.16-7.64,5.25-23l3.43.44a1.81,1.81,0,0,1-.86,1.2c0,1.07,0,2.16,0,3.25.62,5.38,2.81,11.54,5.64,14.46A8.84,8.84,0,0,0,63.18,44Z"/><path class="cls-3" d="M74.2,22.19c-.23.7-.6,1-1,1.07A25.36,25.36,0,0,1,71.39,28l1.3.1a1,1,0,0,1-.7,1V43.51a2.74,2.74,0,0,1-2.29.94V31.13a41.28,41.28,0,0,1-2.65,3.93,59.26,59.26,0,0,0,3.67-14ZM80.34,22a1.07,1.07,0,0,1-.94.94C79.2,24,79,25.2,78.73,26.37h5.9l-.29.47H78.65l-.78,4h7.46l-.23.44H77.79c-.21,1.09-.44,2.16-.62,3.15h4.32L82.11,33,85,35.29a.87.87,0,0,1-1,.36,25.59,25.59,0,0,1-4.13,4.06A6.68,6.68,0,0,1,82,41.4a2.23,2.23,0,0,1-1,3.35,39.27,39.27,0,0,0-6.63-6.32,14.41,14.41,0,0,1,5,1l1.92-4.58H77.06c-.05.31-.1.6-.16.88a3.69,3.69,0,0,1-2.65.6c.36-1.66.75-3.35,1.09-5.07h-2.5l-.23-.44h2.81c.26-1.3.52-2.65.75-4H73.71l-.21-.47h2.76c.29-1.69.55-3.41.81-5.17Z"/><path class="cls-3" d="M86.66,28.4h.65a29.53,29.53,0,0,0,2-7.54l3.15,1.38c-.16.52-.44.78-.86.73a47.28,47.28,0,0,1-3.38,5.41l2.55,0a18.77,18.77,0,0,0,.7-3l3,1.59a.81.81,0,0,1-.86.68,50.14,50.14,0,0,1-4.21,6.68c1.35-.13,2.78-.36,4.39-.57A32.57,32.57,0,0,1,89,37.11c-.05.42-.1.57-.42.75l-1.25-3.41c.29,0,.57,0,.88,0a42,42,0,0,0,2.21-5.28A22.54,22.54,0,0,1,88,30.82a.85.85,0,0,1-.39.81Zm.08,11a38.61,38.61,0,0,0,7.1-1.61,31.37,31.37,0,0,1-5.59,4.58,1.12,1.12,0,0,1-.47.91ZM98.12,34a1,1,0,0,1-.75,1c-.36,4.89-.73,7.64-6.58,9.39,3.59-3.22,4.29-4.84,4.19-11.26Zm-5.3-9.28h5.07a31.19,31.19,0,0,0-1.3-4c1.9.26,3.09.91,3.12,2.26a2.08,2.08,0,0,1-.83,1.72h6l-.26.42H99.42a22.81,22.81,0,0,1-4.6,5l6.08-.18c-.47-1.25-1-2.47-1.3-3.09,2.16.6,4,1.9,4.24,3.82a2,2,0,0,1-1.9,2.47,23.86,23.86,0,0,0-.81-2.5l-6.58,1.92a1,1,0,0,1-.55.91l-.7-3.3.73,0a18.85,18.85,0,0,0,2.29-5H93ZM99,33l3.07.62a1.18,1.18,0,0,1-.81,1l0,5.77c0,.88.49,1.12.78.94.75-.47,1.4-3.8,1.85-5.62,0,1.85.16,4.16,1.17,5.51-.05,2.16-1,2.39-2.24,2.39H101.4c-1.74,0-2.39-.55-2.39-2.44Z"/><path class="cls-3" d="M107.48,23.77h15.76l-.23.42h-6.32V42.65h7.85l-.23.44H106.36l-.21-.44H114V24.19h-6.29Z"/><path class="cls-3" d="M125.71,24.71h4.63V21.12l2.94.6a1.12,1.12,0,0,1-.68,1v2h3.64V21.12l3,.47a1.18,1.18,0,0,1-.7,1v2.11h5l-.23.49h-4.76v2.57a3,3,0,0,1-2.29.75V25.2H132.6v3.33a2.91,2.91,0,0,1-2.26.78V25.2h-4.45Zm1.59,6h8.29c.42-.44.86-.91,1.33-1.43l2.34,2.7c-.36.55-.81.31-1.25.1-4.52,3.3-9.07,8.74-6.24,8.74h7.15c1.46,0,2.83-4,3.25-6,0,2.6-.13,5.15,1,5.88-.31,1.87-1.07,2.57-2.89,2.57l-9,0a2.7,2.7,0,0,1-2.73-3c.23-2.57,2.65-4.81,6.73-9.18h-7.7Z"/><path class="cls-3" d="M145.65,35.24h3.67V31.55l3.17.52c0,.68-.26.94-.7,1v2.16h4l-.26.42h-3.72v3.72L156,39a31.94,31.94,0,0,1-9.23,3.85c.16.75-.13,1-.65,1.17L145,39.95l4.32-.36V35.66h-3.43Zm-.44-12h10.87l-.26.42h-4.24A26.31,26.31,0,0,1,148.2,29l4.52-.29a32.13,32.13,0,0,0-1.14-3c2.42,1.09,4.19,2.37,4.13,4.13A2,2,0,0,1,153.63,32c-.16-.7-.34-1.43-.57-2.18l-5.72,2c.05.68-.21,1-.7,1.09l-1.09-3.77.88-.05a12.66,12.66,0,0,0,2-5.41h-3Zm14.07,18.28c.6.08,1-.42,1-1.2V21.25l3.17.63c0,.44-.29,1-.75,1V40.6c0,3.12-.68,3.3-3.35,3.85-.1-1,0-2.08-2.91-3Zm-2.68-16.9,3,.52a.8.8,0,0,1-.75,1V38.44a3.48,3.48,0,0,1-2.21.78Z"/><path class="cls-3" d="M164.81,23.28H172l-.23.44h-2.52V30h2.57l-.23.44h-2.34v6c1.07-.34,2.08-.7,2.94-1.07a45.63,45.63,0,0,1-6,5.17,1.35,1.35,0,0,1-.42,1.07l-1.17-4q1.13-.23,2.34-.55V30.46h-1.87l-.18-.44H167V23.72h-2Zm11.91,14.17c-1.35,3.38-3.72,5.3-7.2,7.25,4.16-4.71,7.15-8.42,6.21-19.37l3.15.65a1.24,1.24,0,0,1-.81,1,41.3,41.3,0,0,1-.36,6.63l1.72.42c-.1.29-.42.78-.65.81v5.69c0,.7.08,1.17.52,1.17H180c1,0,1.43-2.55,2-5,.08,1.61-.21,4.5,1.07,4.71,0,1.95-.88,2.34-2.21,2.34h-2.11c-1.61,0-2-.86-2-3.41Zm5-2.13a2.67,2.67,0,0,1-2.26-.62V23.18h-4.91V35.29a3.14,3.14,0,0,1-2.16.57V22a4.06,4.06,0,0,1,2.16.81h4.91v0l2.26-.75Z"/><path class="cls-3" d="M191.57,22.4a1.37,1.37,0,0,1-1.07,1.07,19.55,19.55,0,0,1-1.69,4.21l1,.29A1.17,1.17,0,0,1,189,29.1l0,14.46a3.16,3.16,0,0,1-2.5,1V31.39c-.83,1.25-1.74,2.47-2.6,3.59,1.3-3.3,3.46-8.89,4-13.83Zm5-.52a1.33,1.33,0,0,1-.65,1.07c0,2.24.05,4.19.18,5.9l6.08-.62-.21.44-5.85.57c.55,5.75,1.92,8.68,3.3,10.63.29.42.83.65,1,.05L202,34.49c-.26,2.57-.57,6.89.6,8.55-1.72,2.76-4.24,0-5.43-1.66-1.69-2.37-2.86-5.8-3.38-10.92-.05-.34-.08-.65-.1-1l-3.67.36-.23-.36,3.85-.39a66.1,66.1,0,0,1-.31-7.62Zm.73.57c3.93,0,5.77,4,2.55,5.1A29.19,29.19,0,0,0,197.29,22.45Z"/><path class="cls-3" d="M203.68,29.49h2.42l1.92-.83v9L210.89,36l-4,5.8a1.2,1.2,0,0,1-.34.91L204.9,39.5l1-.6v-9h-2.11Zm1.53-8.22c1,.08,3.25.68,3.56,2.57s-1.27,2.7-2.16,2.37A50.37,50.37,0,0,0,205.22,21.28Zm4.63,10.95h7c.18-.55.34-1.09.49-1.69l2.81,2.31a1,1,0,0,1-.86.86,19.63,19.63,0,0,1-2.5,5,14.88,14.88,0,0,0,5.33,1.77l-2.05,3.72a10,10,0,0,1-5.3-3.22,15.49,15.49,0,0,1-6.94,3.56,26.43,26.43,0,0,0,5.59-5.41,15.41,15.41,0,0,1-1.9-6.5H210Zm1.46-10.84a4.1,4.1,0,0,1,2.42.86h2.5l2.31-.83v5.43c0,1,.1,1.14.65,1.14h.39c.78,0,1-.6,1.09-1.27,1.25,1.69,1.4,3.56-.75,3.56h-1.69c-1.46,0-2-.62-2-2.91V22.68h-2.5l0,1.51c-.1,4.94-2.16,6.5-4.73,8.06a13.74,13.74,0,0,0,2.31-8.35Zm5.46,11.23h-5a12.75,12.75,0,0,0,3,4.52A23.63,23.63,0,0,0,216.76,32.61Z"/><path class="cls-3" d="M223,29.83h2.76l2-.83,0,9.07,3.15-2-4.26,6.37a1,1,0,0,1-.39.88L224.72,40l.86-.52V30.22h-2.44Zm1.74-8.63a4,4,0,0,1,3.72,2.65,1.91,1.91,0,0,1-2,2.6A51.73,51.73,0,0,0,224.74,21.2Zm4.81,9.34h4.29V21.25l3.46.6a1.33,1.33,0,0,1-.94,1.17v7.51h5.49l-.29.39h-5.2V43.87a3.15,3.15,0,0,1-2.52.7V30.92h-4.06Z"/></g></g></svg>