<svg xmlns="http://www.w3.org/2000/svg" viewBox="0 0 501.4 181.6"><title>logo_meikemeijia_black</title><g id="图层_2" data-name="图层 2"><g id="图层_1-2" data-name="图层 1"><path d="M202.1,0V181.6H157.7V56.9c-3.7,11.6-39.4,124.7-39.4,124.7H85.2S47.5,67.6,43.9,56.4V181.6H0V0H72.3s27,78.7,28.8,84c1.8-5.4,28.6-84,28.6-84ZM131,1.8c-.8,2.3-29.9,87.7-29.9,87.7S71.8,4.1,71,1.8H1.7v178H42.1V45.1S85.7,177.4,86.5,179.8H117c.8-2.4,42.5-134.7,42.5-134.7V179.8h40.9V1.8H131Z"/><path d="M157.9,181.5h9.3l34.5-49.1v-4.8s-38.5,47.8-43.8,53.9"/><path d="M137.7,74.9a12.1,12.1,0,0,0-1.9.1c-15.8,1-33.9,15.3-47.2,28.2.1-1.4.2-2.7.2-4.2,0-6.9-1.9-12.6-5.7-17.2a18,18,0,0,0-14.5-6.9h0c-14.4,0-30.9,11.7-44.2,23.7a25.28,25.28,0,0,0,.1-2.8,22.22,22.22,0,0,0-4.9-14.6,15.2,15.2,0,0,0-12-6.4A12.73,12.73,0,0,0,0,77.2v5C1.7,79.7,4.5,78,6.5,78c3.2,0,4.8,2,4.8,6.1,0,4.5-3.8,11.7-11.3,24.8v40.7A462.66,462.66,0,0,1,29,110C46.6,88.6,59.2,77.9,67,77.9c5.2,0,7.8,3,7.8,9.2q0,10.2-29.3,55.2L19.6,181.6H45.7c12.7-20.5,24.4-37.9,34.9-52.3l11.2-14.2a28.32,28.32,0,0,1,2-2.8C112.4,89.5,127,78,137.3,78c5.8,0,8.6,2.8,8.6,8.3,0,5-5.9,15.6-17.7,31.9-9.3,12.8-14.4,20.1-15.4,21.7-5.4,8.8-8,17-8,24.6q0,10.35,5.4,17.1h10.9a6.6,6.6,0,0,1-.8-3.2c0-5.1,3.3-12.5,9.9-22.5,11.5-17.4,16.6-24.9,16.8-25.1,10.4-15,12.1-21.8,12.1-30.2a27.75,27.75,0,0,0-6.3-18.2,18.39,18.39,0,0,0-15.1-7.5"/><polygon points="273.9 110 276.7 110 289.2 139.9 289.4 139.9 301.7 110 304.6 110 304.6 142.1 302.6 142.1 302.6 112.5 302.5 112.5 290.3 142.1 288.3 142.1 276 112.5 275.9 112.5 275.9 142.1 273.9 142.1 273.9 110"/><path d="M321.9,110l12.7,32h-2.1l-4-10.3H313.1L309,142h-2.1l12.9-32Zm5.9,20.1L320.9,112h-.1l-7.1,18.1Z"/><path d="M336.9,110h13.4c5.6,0,10.1,2.1,10.1,8.3a7.88,7.88,0,0,1-6.9,8.2v.1c4.8.5,5.9,3.5,6.3,6.9s-.2,6.9,1.1,8.6h-2.2c-1.2-2.2-.5-5.9-.9-9s-1.9-5.6-7.5-5.6H338.9v14.6h-2V110Zm13.3,15.8c4.7,0,8.2-2.2,8.2-7.4,0-4.8-3.9-6.7-8.2-6.7H338.8v14.1Z"/><polygon points="365.1 110 367.1 110 367.1 128.5 387.3 110 389.8 110 375.2 123.4 390.7 142.1 388.3 142.1 373.8 124.7 367.1 130.8 367.1 142.1 365.1 142.1 365.1 110"/><path d="M406.5,142.9c-9.6,0-15.3-7.4-15.3-16.8s5.7-16.8,15.3-16.8,15.2,7.4,15.2,16.8-5.6,16.8-15.2,16.8m0-1.8c8.4,0,13.3-6.9,13.3-15.1s-4.9-15.1-13.3-15.1-13.3,6.9-13.3,15.1,4.9,15.1,13.3,15.1"/><path d="M425.9,110h13.4c5.6,0,10.2,2.1,10.2,8.3a7.88,7.88,0,0,1-6.9,8.2v.1c4.8.5,5.9,3.5,6.2,6.9s-.2,6.9,1.1,8.6h-2.2c-1.2-2.2-.5-5.9-.9-9s-1.9-5.6-7.5-5.6H427.9v14.6h-2V110Zm13.4,15.8c4.7,0,8.2-2.2,8.2-7.4,0-4.8-3.9-6.7-8.2-6.7H427.9v14.1Z"/><polygon points="230.3 165 230.3 180.8 228.3 180.8 228.3 148.7 248.4 148.7 248.4 150.5 230.3 150.5 230.3 163.3 246.6 163.3 246.6 165 230.3 165"/><path d="M253.4,148.7v19.2c0,3.9.8,11.9,10,11.9,7.8,0,10.5-4.6,10.5-11.9V148.7h2v19.2c0,7.6-2.9,13.6-12.5,13.6-11.4,0-12-9.3-12-13.6V148.7Z"/><path d="M281.5,148.7h13.4c5.6,0,10.2,2.1,10.2,8.3a7.88,7.88,0,0,1-6.9,8.2v.1c4.8.5,5.9,3.5,6.2,6.9s-.2,6.9,1.1,8.6h-2.2c-1.2-2.2-.5-5.9-.9-9s-1.9-5.6-7.5-5.6H283.5v14.6h-2V148.7Zm13.4,15.8c4.7,0,8.2-2.2,8.2-7.4,0-4.9-3.8-6.7-8.2-6.7H283.5v14h11.4Z"/><polygon points="309.8 148.7 312.3 148.7 332.6 178.2 332.6 178.2 332.6 148.7 334.6 148.7 334.6 180.8 332.3 180.8 311.9 151.2 311.8 151.2 311.8 180.8 309.8 180.8 309.8 148.7"/><rect x="340.3" y="148.7" width="2" height="32.1"/><path d="M368.8,157.9c-.2-5.5-4.4-8.2-10.3-8.2-3.6,0-8.8,1.5-8.8,6.8s5.5,6,10.9,7.1,11,2.5,11,8.9c0,6.6-6.4,9-11.3,9-7.5,0-13.6-3.1-13.5-11.4h2c-.4,7,5.2,9.6,11.5,9.6,3.8,0,9.3-1.8,9.3-7.3s-5.5-6.4-11-7.5-10.9-2.4-10.9-8.5,5.7-8.5,10.8-8.5c6.7,0,11.9,2.9,12.3,9.9h-2Z"/><polygon points="378.2 165 378.2 180.8 376.2 180.8 376.2 148.7 378.2 148.7 378.2 163.3 398.6 163.3 398.6 148.7 400.6 148.7 400.6 180.8 398.6 180.8 398.6 165 378.2 165"/><rect x="406.3" y="148.7" width="2" height="32.1"/><polygon points="413.9 148.7 416.4 148.7 436.6 178.2 436.7 178.2 436.7 148.7 438.7 148.7 438.7 180.8 436.4 180.8 416 151.2 415.9 151.2 415.9 180.8 413.9 180.8 413.9 148.7"/><path d="M472.2,165.1v15.7h-1.7V174h-.1c-1.6,4.7-6.5,7.6-12.1,7.6-9.7,0-15.1-7.4-15.1-16.6s5.5-17,15.1-17c6.6,0,12.2,4,13.3,10.7h-1.9c-1.5-5.5-5.6-9-11.4-9-8.7,0-13.2,7.3-13.2,15.3,0,8.2,4.4,14.9,13.2,14.9,7.6,0,12.4-5.2,12.1-13.1H458.6v-1.7Z"/><path d="M498.5,157.9c-.2-5.5-4.3-8.2-10.3-8.2-3.6,0-8.8,1.5-8.8,6.8s5.5,6,10.9,7.1,11,2.5,11,8.9c0,6.6-6.4,9-11.3,9-7.5,0-13.6-3.1-13.5-11.4h2c-.4,7,5.2,9.6,11.5,9.6,3.9,0,9.3-1.8,9.3-7.3s-5.5-6.4-11-7.5-10.9-2.4-10.9-8.5,5.7-8.5,10.8-8.5c6.7,0,11.9,2.9,12.3,9.9h-2Z"/><polygon points="289.5 55.2 230 55.2 229.5 53.2 286.5 53.2 288.4 52.4 289.5 55.2"/><polygon points="289.5 44.6 230 44.6 229.5 42.6 286.5 42.6 288.4 41.8 289.5 44.6"/><polygon points="289.5 23.5 230 23.5 229.5 21.5 286.5 21.5 288.4 20.7 289.5 23.5"/><polygon points="360.4 21.7 301 21.7 300.5 19.8 357.4 19.8 359.3 19 360.4 21.7"/><polygon points="286.6 34 232.7 34 232.2 32.1 283.6 32.1 285.4 31.2 286.6 34"/><path d="M239.3,10.2a163.77,163.77,0,0,1,11.4,12.2l2.7-3.1S250.1,14,240.3,9.2Z"/><path d="M273.7,9.8a140.91,140.91,0,0,1-10.8,12.5h3s9.1-5.9,12.2-9Z"/><path d="M256.9,22.7V46.9c0,8-5.2,24.9-28.7,28l.3,1.4s33.2.2,33.2-28.8V22.8Z"/><path d="M261.7,47c0,7.8,3.1,21.8,28.8,23.8l-1.8,5.4s-22.8-.4-28.9-19.8Z"/><polygon points="428.5 55.2 368.9 55.2 368.5 53.2 425.5 53.2 427.3 52.4 428.5 55.2"/><polygon points="428.5 44.6 368.9 44.6 368.5 42.6 425.5 42.6 427.3 41.8 428.5 44.6"/><polygon points="428.5 23.5 368.9 23.5 368.5 21.5 425.5 21.5 427.3 20.7 428.5 23.5"/><polygon points="425.5 34 371.7 34 371.2 32.1 422.5 32.1 424.4 31.2 425.5 34"/><polygon points="489.6 34 447 34 446.5 32.1 486.6 32.1 488.4 31.2 489.6 34"/><path d="M378.3,10.2a163.78,163.78,0,0,1,11.4,12.2l2.6-3.1S389,14,379.2,9.2Z"/><path d="M458.7,10.2a169.08,169.08,0,0,1,12.2,12.2l2.8-3.1s-3.5-5.3-14-10.1Z"/><path d="M412.7,9.8a140.91,140.91,0,0,1-10.8,12.5h3s9.1-5.9,12.2-9Z"/><path d="M395.9,22.7V46.9c0,8-5.2,24.9-28.7,28l.3,1.4s33.2.2,33.2-28.8V22.8Z"/><path d="M400.7,47c0,7.8,3.1,21.8,28.8,23.8l-1.8,5.4s-22.8-.4-28.9-19.8Z"/><rect x="327.7" y="9.1" width="4.8" height="24"/><rect x="307.9" y="31.2" width="4.8" height="23"/><rect x="347.2" y="32.6" width="4.8" height="21.5"/><rect x="310.9" y="31.2" width="38.8" height="1.9"/><rect x="444.9" y="21.5" width="51.3" height="1.9"/><rect x="310.9" y="47.6" width="38.8" height="1.9"/><polygon points="494 21.5 495.5 19.9 500.6 22.9 499.2 24.2 495.7 24.2 494 21.5"/><polygon points="346.7 31.2 348.2 29.6 353.3 32.5 352 33.8 348.4 33.8 346.7 31.2"/><path d="M320.6,48.3c0,7.8-1.5,23.8-22.9,26.6l.3,1.4s28,2.4,28-28h-5.4Z"/><path d="M334.7,48.9V66.2c0,6.6,3,9.2,8.4,9.2h8.4c6.1,0,8.5-2.7,9-10.8l-4.8-3.3c-.6,5.8-1.1,9.3-5.3,9.3h-5.8c-3.6,0-5.1-1.7-5.1-6V48.9Z"/><path d="M446.6,21.5a51.55,51.55,0,0,1-3,13l-5.5-2a90.89,90.89,0,0,0,5.6-12.1Z"/><path d="M500.6,22.9S499,29,492.5,34.5L491,31.3a64.41,64.41,0,0,0,3.6-8.1Z"/><path d="M462.7,33.2s-5.3,10.3-24.6,15.2l.3,1.4s20.4-2.2,31.4-16.4Z"/><path d="M466.1,42.4s-9.1,11.3-28,16.7l.3,1.4s18.2-2.1,30.3-15Z"/><path d="M469.6,50s-9.9,13.5-31.5,20.4l.3,1.7S459.5,68,471,53.9Z"/><path d="M463.6,37.5s10.1,7.2,11.3,22.5c1.4,17.8-12.1,17.3-18.3,15.3l-1.4-4.2c9.1,2.5,15.2.3,15.2-8.5,0-12.4-8-23.7-8-23.7Z"/><path d="M490.6,36.2S478,44.8,471.2,47.6l.8,2s14.6-5.1,21.8-8.8Z"/><path d="M477,47.1s8.1,15.7,24.4,20.4l-2.2,6.4a41.63,41.63,0,0,1-23.6-26.3Z"/><path d="M428.3,52.4c.5-.1,1-.3,1.5-.4l.3-.1-1.5.4c-.1,0-.2.1-.3.1"/></g></g></svg>