<svg xmlns="http://www.w3.org/2000/svg" viewBox="0 0 470.62 321.03"><defs><style>.cls-1{fill:#25bf9a;opacity:0.6;}.cls-2{fill:#fff;}.cls-3{fill:none;stroke:#fff;stroke-miterlimit:10;stroke-width:3px;}</style></defs><title>slogan_landscape</title><g id="图层_2" data-name="图层 2"><g id="图层_1-2" data-name="图层 1"><path class="cls-1" d="M190.8,118.42s-10.2,28.88-24.89,28.8c-18.5-.09-14.82-17.35-11.63-20.86,5.34-5.86,22.38-6.64,19.09,8.65,13.33-12.38,5.31-26.35-3.74-33-7.68-5.87-16.19-5.22-19.28-4.87s-18,1.68-34.67,20.58-43.31,42.8-43.31,42.8,26.64,23.9,43.31,42.8,31.58,20.24,34.67,20.58,11.6,1,19.28-4.87c9-6.66,17.06-20.63,3.74-33,3.28,15.29-13.75,14.51-19.09,8.65-3.19-3.51-6.87-20.77,11.63-20.86,14.68-.07,24.89,28.8,24.89,28.8h0s28.88,10.2,28.8,24.89c-.09,18.5-17.35,14.82-20.86,11.63-5.86-5.34-6.64-22.38,8.65-19.09-12.38-13.33-26.35-5.3-33,3.74-5.87,7.68-5.22,16.19-4.87,19.28s1.68,18,20.58,34.67S232.89,321,232.89,321s23.9-26.64,42.8-43.32,20.24-31.58,20.58-34.67,1-11.6-4.87-19.28c-6.65-9-20.63-17.06-33-3.74,15.29-3.28,14.51,13.76,8.65,19.09-3.51,3.19-20.76,6.87-20.86-11.63-.08-14.68,28.8-24.89,28.8-24.89h0s10.2-28.88,24.89-28.8c18.5.09,14.82,17.35,11.63,20.86-5.34,5.86-22.38,6.64-19.09-8.65-13.33,12.38-5.31,26.35,3.74,33,7.68,5.86,16.19,5.22,19.28,4.87s18-1.68,34.67-20.58,43.31-42.8,43.31-42.8-26.64-23.9-43.31-42.8-31.58-20.24-34.67-20.58-11.6-1-19.28,4.87c-9,6.65-17.06,20.62-3.74,33-3.28-15.29,13.76-14.51,19.09-8.65,3.19,3.51,6.87,20.76-11.63,20.86-14.68.08-24.89-28.8-24.89-28.8s-28.88-10.2-28.8-24.89C246.28,75,263.53,78.72,267,81.91c5.86,5.34,6.64,22.38-8.65,19.09,12.38,13.33,26.35,5.3,33-3.74,5.87-7.68,5.22-16.19,4.87-19.28s-1.68-18-20.58-34.67S232.89,0,232.89,0,209,26.64,190.1,43.31,169.86,74.9,169.52,78s-1,11.6,4.87,19.28c6.65,9,20.63,17.06,33,3.74-15.29,3.28-14.51-13.76-8.65-19.09,3.51-3.19,20.76-6.87,20.86,11.63C219.68,108.22,190.8,118.42,190.8,118.42Z"/><path class="cls-2" d="M220.71,90.78c0,6.41.14,18.36,2.66,27,1,3.31,1.58,3.38,2.59.65l3.24-7.63c-2.59,16.35-.86,15.12.36,18.94-.14,5.83-4.9,5.83-7.85,2-7.85-10.15-7.85-29.74-7.85-40V77H192.34V90.28c-.07,19-1.3,32.91-14,45.36,5.76-15.7,7.2-23.11,7.2-44.64l-.07-17.64a8.86,8.86,0,0,1,6.7,2.52h21.89l6.62-2.16Zm-17.64,19.87a59,59,0,0,1-14.4,18.65,133.37,133.37,0,0,0,11.45-26.93,129.59,129.59,0,0,0-7.49-16.2,71.74,71.74,0,0,1,9.29,9.43,99.47,99.47,0,0,0,2.23-14.11l8.93,4c-.29,1.66-1.15,1.8-2.38,1.94a149.15,149.15,0,0,1-4.1,14.62c4.32,6.7,6.7,12.89,7,16.06.29,4.54-1.66,8.14-5.83,7.92C206.45,121.45,204.87,116.13,203.07,110.65Z"/><path class="cls-2" d="M250.09,123.4a2.13,2.13,0,0,1-2.74,1.58,37.52,37.52,0,0,1-14,10.3c3.46-4.68,7.34-10.37,9.5-16.56ZM234,97.84h22c-.65-2.38-1.37-4.61-2-6.84,4.39.22,7.27.5,7.85,3.46a3.79,3.79,0,0,1-1.22,3.38h22.39l-.65,1.22H234.46Zm41.62-4.32c-1.22.22-5.11,0-6.84-1.37v-1.3h-22v2.23A14,14,0,0,1,240,94.31V72.78a13.61,13.61,0,0,1,6.77,2.52h22l6.84-2.38Zm-22.75,33.27c1.94.22,2.3-1.15,2.3-3.31v-8.35h-6.91v1.37c-2.16,1.66-4.54,1.8-6.84,1.73V101.65a14.6,14.6,0,0,1,6.84,2.74h19.44l6.91-2.81v16.27c-1.3.29-5.18.07-6.91-2v-.72h-6l.14,11.74c0,5.83-2.59,7.85-8.86,8.42-.43-4.75-1.94-7.06-6.77-8.93Zm-6-44.28h22V76.38h-22Zm0,7.2h22V83.58h-22ZM248.21,114h19.44v-8.5H248.21Zm16.63,5.83c7.2.79,13.68,1.8,14.83,6.48.86,3.74-1.66,6.41-3.6,7.78C272.84,128.87,269,123.25,264.85,119.87Z"/><path class="cls-2" d="M89,195v2.74q-4.4-.25-9.18-.25t-10.76.25V195a29.47,29.47,0,0,0,4.07-.28,1.75,1.75,0,0,0,.8-.41,1.55,1.55,0,0,0,.37-.83,50.71,50.71,0,0,0,.34-6.65q.09-5.59.09-9.92V165.26q0-5.52-.25-10.1a12.41,12.41,0,0,0-.35-2.92,1,1,0,0,0-.39-.39,3.43,3.43,0,0,0-1.34-.42q-.53-.07-3.16-.18v-2.6q4.37-.46,7-1t7-1.92l.74.42-.3,7.11q-.19,6-.23,14.68v9q0,5.11.06,7.64.12,6.3.19,7.62A5.39,5.39,0,0,0,84,193.9a1,1,0,0,0,.35.42,2.62,2.62,0,0,0,1.1.39Q85.74,194.79,89,195Z"/><path class="cls-2" d="M125.48,195.07v2.64q-4-.18-7.17-.18-3,0-5.73.18l-.32-.39.32-4.61q-1.27.81-7.45,5.55a14,14,0,0,1-3,.35,7.93,7.93,0,0,1-6-2.25q-2.16-2.25-2.16-6.47a10,10,0,0,1,1-4.68A8.23,8.23,0,0,1,97,182.53a12.39,12.39,0,0,1,3.43-1.67,73.14,73.14,0,0,1,12.16-3.09q.07-4.18-1.72-6.36a6.84,6.84,0,0,0-5.55-2.18,10.57,10.57,0,0,0-2.88.39,5.57,5.57,0,0,0-1.41.7l-1.48,3.55-2.39-.53.21-4.54q2.6-1.76,5-3.06a20.34,20.34,0,0,1,3.3-1.58,13.45,13.45,0,0,1,3.66-.39,15.54,15.54,0,0,1,6.31,1.11,9.38,9.38,0,0,1,3.66,2.62,8.76,8.76,0,0,1,1.62,3.23,18,18,0,0,1,.44,4.36q0,1.13-.18,5.87-.11,3.16-.11,5.17a44.82,44.82,0,0,0,.35,7.59,1.15,1.15,0,0,0,.56.84A14.23,14.23,0,0,0,125.48,195.07Zm-12.9-14.34a41.17,41.17,0,0,0-5.47,1.53,7.07,7.07,0,0,0-3.43,2.21,5.54,5.54,0,0,0-.95,3.32,4.92,4.92,0,0,0,1.14,3.48,3.91,3.91,0,0,0,3,1.23,6.37,6.37,0,0,0,3.18-.91,7.18,7.18,0,0,0,2.51-2.32Z"/><path class="cls-2" d="M169.68,195.1v2.61q-4.79-.25-7.82-.25-3.49,0-6.06.25l-.63-.63q.07-.74.46-6.08l.18-5.77v-2.78a42.57,42.57,0,0,0-.47-8.09,5.55,5.55,0,0,0-2-3.11,6.13,6.13,0,0,0-3.94-1.18,6.75,6.75,0,0,0-4.08,1.18,5.38,5.38,0,0,0-2,2.37,31,31,0,0,0-.21,5.62v5.9q0,2.56.18,6.28a6.46,6.46,0,0,0,.28,2.18,1.23,1.23,0,0,0,.45.56,5.08,5.08,0,0,0,1.64.53q.42.07,2.93.28v2.74q-3.83-.14-9.39-.14-6.43,0-10,.14V195a12.62,12.62,0,0,0,3.8-.39,1.34,1.34,0,0,0,.74-.6,6.37,6.37,0,0,0,.39-2.52l.14-3.12q0-1,0-3.19v-4.59q0-3.12-.18-7.57a9,9,0,0,0-.3-2.54,1.13,1.13,0,0,0-.62-.44,19.42,19.42,0,0,0-4-.35v-2.74q6.4-1.09,8.4-1.62a28.52,28.52,0,0,0,4.54-1.69l.95.42v5.67l6.4-5.14a9.13,9.13,0,0,1,4.15-.77,14.39,14.39,0,0,1,5.64.85,8.91,8.91,0,0,1,3.18,2.38,9.28,9.28,0,0,1,1.83,3.21,18.93,18.93,0,0,1,.53,5.24q0,4-.07,5.12,0,.42,0,1l0,3.63q0,6,.19,7.37a2.87,2.87,0,0,0,.64,1.82,4,4,0,0,0,2.11.51Q168.29,195,169.68,195.1Z"/><path class="cls-2" d="M213.3,195.17v2.53l-7.4-.11-6.34.11-.32-.28.18-2.78.07-2.88q-2.42,2-5.3,4.57a18.16,18.16,0,0,1-2.21,1.79,9.84,9.84,0,0,1-3.55.53,12.41,12.41,0,0,1-9.65-4.27q-3.83-4.27-3.83-11.69a22.31,22.31,0,0,1,1.12-7.35,11.87,11.87,0,0,1,2-3.8,30.45,30.45,0,0,1,4.72-3.73,31.64,31.64,0,0,1,5.62-3.39,12.53,12.53,0,0,1,4.41-.65,13.16,13.16,0,0,1,2.79.25,31,31,0,0,1,3.81,1.3q.11-2,.11-4.31,0-2.66-.18-6.45a5.3,5.3,0,0,0-.39-2.28,1.14,1.14,0,0,0-.7-.46q-.46-.11-4.32-.21V149a56.47,56.47,0,0,0,13.89-3.09l.91.53q-.4,9.42-.43,11.07-.1,9.18-.1,25.7v3.27q0,2.39.18,5.17a7.51,7.51,0,0,0,.35,2.41,1.47,1.47,0,0,0,.81.65A22.65,22.65,0,0,0,213.3,195.17Zm-13.92-22.46a13.61,13.61,0,0,0-3.16-3,10,10,0,0,0-5.09-1.34,6.28,6.28,0,0,0-3.95,1.18,7.11,7.11,0,0,0-2.28,3.81,22.16,22.16,0,0,0-.75,6.08q0,6.4,2.74,9.88a6.62,6.62,0,0,0,5.47,2.57,7.31,7.31,0,0,0,4.54-1.48,5.85,5.85,0,0,0,2.32-2.85,50.69,50.69,0,0,0,.37-8.37Z"/><path class="cls-2" d="M218.86,186.63h2.81q.18,3.94.35,5a10.53,10.53,0,0,0,3.48,2.87,9.77,9.77,0,0,0,4.36.93,7.32,7.32,0,0,0,5.06-1.58,5,5,0,0,0,1.76-3.84,4.7,4.7,0,0,0-.58-2.45,5.15,5.15,0,0,0-2.34-1.78,50.15,50.15,0,0,0-5.26-1.34,25.63,25.63,0,0,1-5.89-1.86,7.32,7.32,0,0,1-3.13-3,9.55,9.55,0,0,1-1.12-4.73,10.28,10.28,0,0,1,3.66-8.06q3.66-3.22,10.51-3.21a26,26,0,0,1,5.24.49,17.08,17.08,0,0,1,4.32,1.48l.11.35q-.21,1.23-.32,2.5t-.32,6l-2.74,0q0-.39-.1-1.31a21.7,21.7,0,0,0-.42-3.07,6.84,6.84,0,0,0-2.68-2.12,9.15,9.15,0,0,0-3.73-.71,7.09,7.09,0,0,0-4.61,1.34,4,4,0,0,0-1.63,3.2,3.74,3.74,0,0,0,2.92,4.19,52.22,52.22,0,0,0,5.33,1.18,38.13,38.13,0,0,1,5.22,1.21A9,9,0,0,1,242.2,180a7.39,7.39,0,0,1,1.78,2.8,10.58,10.58,0,0,1,.62,3.68,11.33,11.33,0,0,1-4.06,8.83q-4.06,3.59-11.41,3.59a25.65,25.65,0,0,1-4.78-.44,41.35,41.35,0,0,1-5.66-1.6l-.39-.53q.28-2.71.35-3.83Z"/><path class="cls-2" d="M277.32,193.06l-1.55,3.41a25.88,25.88,0,0,1-4.9,2,18.68,18.68,0,0,1-4.52.47,17.38,17.38,0,0,1-9.35-2.25,14.18,14.18,0,0,1-5.45-6.43,19.36,19.36,0,0,1-1.34-7.87,21.61,21.61,0,0,1,.7-6,13.64,13.64,0,0,1,2-4.15,10.35,10.35,0,0,1,2.36-2.25l5.41-3.41a22.71,22.71,0,0,1,3.76-2.11,12.73,12.73,0,0,1,4.39-.63,22.6,22.6,0,0,1,4.2.37,16.17,16.17,0,0,1,3.6,1.11l.35.6-.88,5.73q-.11.77-.35,4.85H273a37.27,37.27,0,0,0-.53-4.66,5.35,5.35,0,0,0-2.29-2,8.56,8.56,0,0,0-3.8-.76,8,8,0,0,0-4.25,1,5.74,5.74,0,0,0-2.32,3.3,18.71,18.71,0,0,0-.74,5.63,19.8,19.8,0,0,0,1.51,7.93,11.27,11.27,0,0,0,4,5.13,10.84,10.84,0,0,0,6.1,1.63,13.16,13.16,0,0,0,3.13-.36,12.72,12.72,0,0,0,2.81-1Z"/><path class="cls-2" d="M313.36,195.07v2.64q-4-.18-7.17-.18-3,0-5.73.18l-.32-.39.32-4.61q-1.27.81-7.45,5.55a14,14,0,0,1-3,.35,7.93,7.93,0,0,1-6-2.25q-2.16-2.25-2.16-6.47a10,10,0,0,1,1-4.68,8.23,8.23,0,0,1,2.07-2.69,12.39,12.39,0,0,1,3.43-1.67,73.15,73.15,0,0,1,12.16-3.09q.07-4.18-1.72-6.36a6.84,6.84,0,0,0-5.55-2.18,10.57,10.57,0,0,0-2.88.39,5.58,5.58,0,0,0-1.41.7l-1.48,3.55-2.39-.53.21-4.54q2.6-1.76,5-3.06a20.36,20.36,0,0,1,3.3-1.58,13.45,13.45,0,0,1,3.66-.39,15.54,15.54,0,0,1,6.31,1.11,9.37,9.37,0,0,1,3.66,2.62,8.75,8.75,0,0,1,1.62,3.23,18,18,0,0,1,.44,4.36q0,1.13-.18,5.87-.11,3.16-.11,5.17a44.82,44.82,0,0,0,.35,7.59,1.15,1.15,0,0,0,.56.84A14.24,14.24,0,0,0,313.36,195.07Zm-12.9-14.34a41.18,41.18,0,0,0-5.47,1.53,7.07,7.07,0,0,0-3.43,2.21,5.54,5.54,0,0,0-.95,3.32,4.93,4.93,0,0,0,1.14,3.48,3.91,3.91,0,0,0,3,1.23,6.37,6.37,0,0,0,3.18-.91,7.18,7.18,0,0,0,2.51-2.32Z"/><path class="cls-2" d="M331,197.46v13a4,4,0,0,0,.32,2,1.94,1.94,0,0,0,1.16.58q.35.07,4.75.42v2.74L326,216l-9.23.25v-2.74a15.53,15.53,0,0,0,3.94-.28,1.36,1.36,0,0,0,.69-.51,2,2,0,0,0,.33-.9q.18-1.41.32-6.05l.11-7.57V181.93q0-4.43-.14-7.76a12.71,12.71,0,0,0-.49-3.92,1.5,1.5,0,0,0-.74-.58,21,21,0,0,0-4-.23V166.7a69.24,69.24,0,0,0,7.93-1.2,31.64,31.64,0,0,0,5.53-1.9l.81.53L331,170l1.75-1.44,3.51-2.88,1.05-1a13.58,13.58,0,0,1,2.3-.76,13.36,13.36,0,0,1,2.58-.19,14.44,14.44,0,0,1,6,1.05,12.84,12.84,0,0,1,5.37,4.69,13.73,13.73,0,0,1,2.11,7.75,21.82,21.82,0,0,1-.77,5.73,19.67,19.67,0,0,1-1.74,4.54,14.15,14.15,0,0,1-2.05,2.81,22.33,22.33,0,0,1-2.72,2.25q-1.91,1.41-3.53,2.74t-2.32,1.79a8.24,8.24,0,0,1-2.14,1,11.39,11.39,0,0,1-3.27.42,16.82,16.82,0,0,1-3-.28A22.87,22.87,0,0,1,331,197.46Zm0-6.75a11.76,11.76,0,0,0,3.37,2.48A8.46,8.46,0,0,0,338,194a8,8,0,0,0,4.47-1.27,8.27,8.27,0,0,0,3.05-4.25,19.79,19.79,0,0,0,1.11-6.89,19.34,19.34,0,0,0-.56-4.73,10.8,10.8,0,0,0-1.54-3.62,7.8,7.8,0,0,0-2.68-2.32,7.58,7.58,0,0,0-3.7-.93,8.74,8.74,0,0,0-3.91,1,9.88,9.88,0,0,0-3.25,2.5Z"/><path class="cls-2" d="M391.62,192.29l-1.55,3.45a23.28,23.28,0,0,1-5.94,2.6,20.62,20.62,0,0,1-5.2.6,21.09,21.09,0,0,1-6.13-.81,14.61,14.61,0,0,1-4.54-2.21,14.93,14.93,0,0,1-3.3-3.45,13.62,13.62,0,0,1-2.06-4.71,27.74,27.74,0,0,1,.6-14.06,9.38,9.38,0,0,1,2-3.66,29.44,29.44,0,0,1,3.66-2.64,36.14,36.14,0,0,1,4.29-2.53,14.23,14.23,0,0,1,5.8-1.09,13.93,13.93,0,0,1,7.73,2,10.82,10.82,0,0,1,4.27,5,19.64,19.64,0,0,1,1.25,7.42q0,1-.07,1.9a25.8,25.8,0,0,1-2.67.63,27.35,27.35,0,0,1-3.23.49q-2.64.21-7,.25t-4.78.07q-.46,0-1,0H371.4a13,13,0,0,0,3.45,8.77,10.52,10.52,0,0,0,7.8,3.22,14.63,14.63,0,0,0,3.69-.44,24.3,24.3,0,0,0,4.43-1.81Zm-8.37-14.59q.14-5.57-1.51-7.81a5.25,5.25,0,0,0-4.36-2.21,5.51,5.51,0,0,0-4.54,2.31q-1.83,2.35-1.69,7.71a52.39,52.39,0,0,0,6.93.32A35.32,35.32,0,0,0,383.25,177.7Z"/><path class="cls-2" d="M.07,250.64a18.12,18.12,0,0,0,.15-2.43H.74a5.8,5.8,0,0,0,.13,1.35,1.17,1.17,0,0,0,.43.44,3.56,3.56,0,0,0,.92.42,3.69,3.69,0,0,0,1.12.18,3,3,0,0,0,1.45-.36,2.28,2.28,0,0,0,1-1A2.71,2.71,0,0,0,6.08,248a2.36,2.36,0,0,0-.15-.89,1.38,1.38,0,0,0-.46-.61,1.94,1.94,0,0,0-.77-.32L3.53,246q-.87-.11-1.48-.25a3.31,3.31,0,0,1-1.2-.58,2.45,2.45,0,0,1-.62-.88A2.91,2.91,0,0,1,0,243.15a3.36,3.36,0,0,1,.48-1.74,3.21,3.21,0,0,1,1.42-1.27,4.66,4.66,0,0,1,2-.45,6.64,6.64,0,0,1,1.45.18,6.49,6.49,0,0,1,1.46.51,8.48,8.48,0,0,0-.16.92q0,.43-.07,1.25H6.11A8.78,8.78,0,0,0,6,241.24a2,2,0,0,0-.53-.51,3.39,3.39,0,0,0-1.68-.45A2.42,2.42,0,0,0,2,241a2.44,2.44,0,0,0-.68,1.79,1.84,1.84,0,0,0,.24,1,1.66,1.66,0,0,0,.87.58,8.07,8.07,0,0,0,1.41.28q1,.13,1.76.28a3,3,0,0,1,1.09.52,2.28,2.28,0,0,1,.58.79,2.7,2.7,0,0,1,.23,1.15,3.54,3.54,0,0,1-1.29,2.71,4.8,4.8,0,0,1-3.34,1.16A6.34,6.34,0,0,1,.07,250.64Z"/><path class="cls-2" d="M18.86,249.65l-.3.73a8.13,8.13,0,0,1-1.79.67,8.29,8.29,0,0,1-1.91.21,8,8,0,0,1-2.25-.3,5.84,5.84,0,0,1-1.82-.87,5.44,5.44,0,0,1-1.27-1.27,5.53,5.53,0,0,1-.75-1.53,6,6,0,0,1-.26-1.81,5.43,5.43,0,0,1,1.74-4.13A6.64,6.64,0,0,1,15,239.7a9.84,9.84,0,0,1,1.32.08,12.6,12.6,0,0,1,1.48.31l1.07.27a5,5,0,0,0-.26.84,11.8,11.8,0,0,0-.17,1.54h-.49v-.92a1.38,1.38,0,0,0-.85-1.14,5.32,5.32,0,0,0-2.25-.37,6,6,0,0,0-1.88.29,3.61,3.61,0,0,0-1.36.85,4.47,4.47,0,0,0-1,1.48,5.92,5.92,0,0,0-.38,2.25,5,5,0,0,0,5.27,5.25,6.44,6.44,0,0,0,2-.29,4.66,4.66,0,0,0,1.24-.64Z"/><path class="cls-2" d="M19.85,251v-.5a3.2,3.2,0,0,0,1.08-.12.29.29,0,0,0,.16-.15,2.77,2.77,0,0,0,.11-.82q0-1,0-1.78v-4q0-1.06,0-2.08a2.46,2.46,0,0,0-.11-.88.53.53,0,0,0-.29-.2,5.59,5.59,0,0,0-1.13-.08v-.5l2.23,0,2.36,0,2.46,0a11.83,11.83,0,0,1,1.46.09,6.11,6.11,0,0,0-.17.77s-.06.59-.14,1.63h-.49a8.42,8.42,0,0,0-.1-1.45,3.57,3.57,0,0,0-.95-.24,14.14,14.14,0,0,0-1.75-.11l-.84,0-.93.05q0,.86,0,1.62l0,2.63q.91.05,1.68.05A12.41,12.41,0,0,0,26,244.9a.47.47,0,0,0,.32-.12,1.87,1.87,0,0,0,.13-.64l0-.55H27v.15l0,1.63,0,1.82h-.55l0-.53a1.8,1.8,0,0,0-.11-.72.51.51,0,0,0-.34-.2,10.16,10.16,0,0,0-1.73-.09l-1.48,0q0,.78,0,2.32t0,2.2q1.12.09,2.52.09a10.9,10.9,0,0,0,1.41-.06,3.28,3.28,0,0,0,.78-.21,4.83,4.83,0,0,0,.19-.66q.17-.7.23-1h.52a21.12,21.12,0,0,0-.2,2.62,11,11,0,0,1-1.63.1L21.9,251Z"/><path class="cls-2" d="M29.52,251v-.5a3.24,3.24,0,0,0,1.08-.12.29.29,0,0,0,.16-.15,2.74,2.74,0,0,0,.11-.82q0-1,0-1.78V241.3a.65.65,0,0,0-.31-.67.67.67,0,0,0-.32-.16,6.1,6.1,0,0,0-.82,0v-.5l1.7,0q.59,0,1.17,0l1,1.28,1.6,2L37.22,246q1.12,1.36,1.8,2.13.43.51.73.81v-5.69q0-.76-.05-1.79a3,3,0,0,0-.1-.8.33.33,0,0,0-.16-.15,3.41,3.41,0,0,0-1.07-.12v-.5q.92,0,1.87,0t1.62,0v.5a3.44,3.44,0,0,0-1.08.12.29.29,0,0,0-.16.16,2.68,2.68,0,0,0-.11.82q0,1,0,1.77V247q0,1.14,0,4.25l-.8-.23-.19,0-.09,0a3.2,3.2,0,0,1-.3-.32q-.65-.74-1-1.12l-1-1.29-5.54-6.69v6.06q0,.77.05,1.82a2.92,2.92,0,0,0,.1.81.32.32,0,0,0,.16.16,3.38,3.38,0,0,0,1.07.12v.5q-.69-.05-1.52-.05T29.52,251Z"/><path class="cls-2" d="M47.34,250.52v.5L45.15,251l-2.41.05v-.5a5.49,5.49,0,0,0,1.12-.08.51.51,0,0,0,.28-.18,2,2,0,0,0,.12-.76q0-.16,0-2.22v-3.61q0-1.06,0-2.08a2.46,2.46,0,0,0-.11-.88.53.53,0,0,0-.29-.2,5.63,5.63,0,0,0-1.13-.08v-.5q1.49.05,2.3.05t2.29-.05v.5a5.57,5.57,0,0,0-1.12.08.51.51,0,0,0-.28.18,2,2,0,0,0-.12.76q0,.16,0,2.22v3.61q0,1.06,0,2.07a2.49,2.49,0,0,0,.11.88.52.52,0,0,0,.29.21A5.53,5.53,0,0,0,47.34,250.52Z"/><path class="cls-2" d="M58.66,249.65l-.3.73a8.13,8.13,0,0,1-1.79.67,8.29,8.29,0,0,1-1.91.21,8,8,0,0,1-2.25-.3,5.84,5.84,0,0,1-1.82-.87,5.44,5.44,0,0,1-1.27-1.27,5.53,5.53,0,0,1-.75-1.53,6,6,0,0,1-.26-1.81,5.43,5.43,0,0,1,1.74-4.13,6.64,6.64,0,0,1,4.75-1.64,9.84,9.84,0,0,1,1.32.08,12.6,12.6,0,0,1,1.48.31l1.07.27a5,5,0,0,0-.26.84,11.82,11.82,0,0,0-.17,1.54h-.49v-.92a1.38,1.38,0,0,0-.85-1.14,5.32,5.32,0,0,0-2.25-.37,6,6,0,0,0-1.88.29,3.61,3.61,0,0,0-1.36.85,4.47,4.47,0,0,0-1,1.48,5.92,5.92,0,0,0-.38,2.25,5,5,0,0,0,5.27,5.25,6.44,6.44,0,0,0,2-.29,4.65,4.65,0,0,0,1.24-.64Z"/><path class="cls-2" d="M64.1,251v-.41a2.47,2.47,0,0,0,.61-.36.37.37,0,0,0,.11-.18,4.36,4.36,0,0,0,.09-.94q0-1.07,0-1.27v-4.2q0-1.06,0-2.08a2.46,2.46,0,0,0-.11-.88.53.53,0,0,0-.29-.2,5.63,5.63,0,0,0-1.13-.08v-.5l2.36.05,2.24-.05v.5a5.62,5.62,0,0,0-1.13.08.51.51,0,0,0-.28.18,2,2,0,0,0-.12.76q0,.16,0,2.22v5.25q0,.82,0,1.33.89.05,1.77.05a11.54,11.54,0,0,0,3.09-.28,3.68,3.68,0,0,0,.18-.54l.31-1.3h.52q-.17,1.16-.34,2.73l-.51.08q-.41,0-1.25,0L65.63,251Q64.88,251,64.1,251Z"/><path class="cls-2" d="M73.15,251v-.53a4.1,4.1,0,0,0,.77-.05.68.68,0,0,0,.28-.16,2.51,2.51,0,0,0,.37-.63l1-2.2,2-4.41q.32-.73,1.37-3.23h.5l3.34,7.84q.81,1.91,1.08,2.39a.81.81,0,0,0,.32.36,2.29,2.29,0,0,0,.79.09V251q-1.22-.08-1.71-.08l-2.52.08v-.53a8.52,8.52,0,0,0,1.06-.05.47.47,0,0,0,.25-.11.26.26,0,0,0,.07-.18,1.26,1.26,0,0,0-.11-.45l-1-2.39H76.52l-.85,2a2.35,2.35,0,0,0-.23.79.26.26,0,0,0,.06.18.47.47,0,0,0,.27.14,5.78,5.78,0,0,0,1,.07V251q-1.32-.07-2-.07T73.15,251Zm3.64-4.38h3.94l-1.95-4.7Z"/><path class="cls-2" d="M85.77,251v-.5a3.24,3.24,0,0,0,1.08-.12.29.29,0,0,0,.16-.15,2.74,2.74,0,0,0,.11-.82q0-1,0-1.78V241.3a.65.65,0,0,0-.31-.67.67.67,0,0,0-.32-.16,6.1,6.1,0,0,0-.82,0v-.5l1.7,0q.59,0,1.17,0l1,1.28,1.6,2L93.47,246q1.12,1.36,1.8,2.13.43.51.73.81v-5.69q0-.76-.05-1.79a3,3,0,0,0-.1-.8.33.33,0,0,0-.16-.15,3.41,3.41,0,0,0-1.07-.12v-.5q.92,0,1.87,0t1.62,0v.5a3.44,3.44,0,0,0-1.08.12.29.29,0,0,0-.16.16,2.69,2.69,0,0,0-.11.82q0,1,0,1.77V247q0,1.14,0,4.25l-.8-.23-.19,0-.09,0a3.18,3.18,0,0,1-.3-.32q-.65-.74-1-1.12l-1-1.29-5.54-6.69v6.06q0,.77.05,1.82a2.93,2.93,0,0,0,.1.81.32.32,0,0,0,.16.16,3.38,3.38,0,0,0,1.07.12v.5q-.69-.05-1.52-.05T85.77,251Z"/><path class="cls-2" d="M99.13,250.64a18.12,18.12,0,0,0,.15-2.43h.52a5.8,5.8,0,0,0,.13,1.35,1.17,1.17,0,0,0,.43.44,3.56,3.56,0,0,0,.92.42,3.69,3.69,0,0,0,1.12.18,3,3,0,0,0,1.45-.36,2.28,2.28,0,0,0,1-1,2.71,2.71,0,0,0,.31-1.26,2.36,2.36,0,0,0-.15-.89,1.38,1.38,0,0,0-.46-.61,1.94,1.94,0,0,0-.77-.32l-1.16-.16q-.87-.11-1.48-.25a3.31,3.31,0,0,1-1.2-.58,2.45,2.45,0,0,1-.62-.88,2.91,2.91,0,0,1-.24-1.18,3.36,3.36,0,0,1,.48-1.74,3.21,3.21,0,0,1,1.42-1.27,4.66,4.66,0,0,1,2-.45,6.64,6.64,0,0,1,1.45.18,6.49,6.49,0,0,1,1.46.51,8.48,8.48,0,0,0-.16.92q0,.43-.07,1.25h-.52a8.78,8.78,0,0,0-.07-1.31,2,2,0,0,0-.53-.51,3.39,3.39,0,0,0-1.68-.45,2.35,2.35,0,0,0-2.49,2.48,1.84,1.84,0,0,0,.24,1,1.66,1.66,0,0,0,.87.58,8.07,8.07,0,0,0,1.41.28q1,.13,1.76.28a3,3,0,0,1,1.09.52,2.28,2.28,0,0,1,.58.79,2.7,2.7,0,0,1,.23,1.15,3.54,3.54,0,0,1-1.29,2.71,4.8,4.8,0,0,1-3.34,1.16A6.34,6.34,0,0,1,99.13,250.64Z"/><path class="cls-2" d="M117.92,249.65l-.3.73a8.13,8.13,0,0,1-1.79.67,8.29,8.29,0,0,1-1.91.21,8,8,0,0,1-2.25-.3,5.84,5.84,0,0,1-1.82-.87,5.44,5.44,0,0,1-1.27-1.27,5.53,5.53,0,0,1-.75-1.53,6,6,0,0,1-.26-1.81,5.43,5.43,0,0,1,1.74-4.13,6.64,6.64,0,0,1,4.75-1.64,9.84,9.84,0,0,1,1.32.08,12.6,12.6,0,0,1,1.48.31l1.07.27a5,5,0,0,0-.26.84,11.8,11.8,0,0,0-.17,1.54H117v-.92a1.38,1.38,0,0,0-.85-1.14,5.32,5.32,0,0,0-2.25-.37,6,6,0,0,0-1.88.29,3.61,3.61,0,0,0-1.36.85,4.47,4.47,0,0,0-1,1.48,5.92,5.92,0,0,0-.38,2.25,5,5,0,0,0,5.27,5.25,6.44,6.44,0,0,0,2-.29,4.66,4.66,0,0,0,1.24-.64Z"/><path class="cls-2" d="M118.63,251v-.53a4.1,4.1,0,0,0,.77-.05.68.68,0,0,0,.28-.16,2.51,2.51,0,0,0,.37-.63q.14-.29,1-2.2l2-4.41q.32-.73,1.37-3.23h.5l3.34,7.84q.81,1.91,1.08,2.39a.81.81,0,0,0,.32.36,2.29,2.29,0,0,0,.79.09V251q-1.22-.08-1.71-.08l-2.52.08v-.53a8.52,8.52,0,0,0,1.06-.05.47.47,0,0,0,.25-.11.26.26,0,0,0,.07-.18,1.27,1.27,0,0,0-.11-.45l-1-2.39H122l-.85,2a2.35,2.35,0,0,0-.23.79.26.26,0,0,0,.06.18.47.47,0,0,0,.27.14,5.79,5.79,0,0,0,1,.07V251q-1.32-.07-2-.07T118.63,251Zm3.64-4.38h3.94l-1.95-4.7Z"/><path class="cls-2" d="M131.23,240.43v-.5q1.57.05,2.48.05l1.3,0,1.23,0h.38a5.61,5.61,0,0,1,2,.27,2.28,2.28,0,0,1,1.11.87,2.4,2.4,0,0,1,.4,1.36,3.09,3.09,0,0,1-.33,1.37,3.15,3.15,0,0,1-1,1.15,4.17,4.17,0,0,1-1.32.68,3.7,3.7,0,0,1-1.06.14,5.79,5.79,0,0,1-1.08-.11l-.16-.58a5.08,5.08,0,0,0,1.09.16,2.3,2.3,0,0,0,1.11-.29,2,2,0,0,0,.82-.86,2.76,2.76,0,0,0,.29-1.27,2.58,2.58,0,0,0-.29-1.22,1.87,1.87,0,0,0-.87-.83,3.21,3.21,0,0,0-1.41-.28,5.38,5.38,0,0,0-1.59.27q-.07.83-.07,2.59v3.93q0,1.06,0,2.07a2.49,2.49,0,0,0,.11.88.52.52,0,0,0,.29.21,5.53,5.53,0,0,0,1.13.08v.5q-1.45-.05-2.12-.05l-2.45.05v-.5a5.49,5.49,0,0,0,1.12-.08.51.51,0,0,0,.28-.18,2,2,0,0,0,.12-.76q0-.16,0-2.22v-3.61q0-1.06,0-2.08a2.46,2.46,0,0,0-.11-.88.53.53,0,0,0-.29-.2A5.63,5.63,0,0,0,131.23,240.43Z"/><path class="cls-2" d="M141,251v-.5a3.2,3.2,0,0,0,1.08-.12.29.29,0,0,0,.16-.15,2.77,2.77,0,0,0,.11-.82q0-1,0-1.78v-4q0-1.06,0-2.08a2.46,2.46,0,0,0-.11-.88.53.53,0,0,0-.29-.2,5.59,5.59,0,0,0-1.13-.08v-.5l2.23,0,2.36,0,2.46,0a11.83,11.83,0,0,1,1.46.09,6.12,6.12,0,0,0-.17.77s-.06.59-.14,1.63h-.49a8.41,8.41,0,0,0-.1-1.45,3.57,3.57,0,0,0-.95-.24,14.14,14.14,0,0,0-1.75-.11l-.84,0-.93.05q0,.86,0,1.62l0,2.63q.91.05,1.68.05a12.41,12.41,0,0,0,1.59-.09.47.47,0,0,0,.32-.12,1.87,1.87,0,0,0,.13-.64l0-.55h.47v.15l0,1.63,0,1.82h-.55l0-.53a1.8,1.8,0,0,0-.11-.72.51.51,0,0,0-.34-.2,10.16,10.16,0,0,0-1.73-.09l-1.48,0q0,.78,0,2.32t0,2.2q1.12.09,2.52.09a10.9,10.9,0,0,0,1.41-.06,3.28,3.28,0,0,0,.78-.21,4.83,4.83,0,0,0,.19-.66q.17-.7.23-1h.52a21.13,21.13,0,0,0-.2,2.62,11,11,0,0,1-1.63.1l-4.66-.05Z"/><path class="cls-2" d="M150.76,250.64a18.12,18.12,0,0,0,.15-2.43h.52a5.8,5.8,0,0,0,.13,1.35,1.17,1.17,0,0,0,.43.44,3.56,3.56,0,0,0,.92.42,3.69,3.69,0,0,0,1.12.18,3,3,0,0,0,1.45-.36,2.28,2.28,0,0,0,1-1,2.71,2.71,0,0,0,.31-1.26,2.36,2.36,0,0,0-.15-.89,1.38,1.38,0,0,0-.46-.61,1.94,1.94,0,0,0-.77-.32l-1.16-.16q-.87-.11-1.48-.25a3.31,3.31,0,0,1-1.2-.58,2.45,2.45,0,0,1-.62-.88,2.91,2.91,0,0,1-.24-1.18,3.36,3.36,0,0,1,.48-1.74,3.21,3.21,0,0,1,1.42-1.27,4.66,4.66,0,0,1,2-.45,6.64,6.64,0,0,1,1.45.18,6.49,6.49,0,0,1,1.46.51,8.48,8.48,0,0,0-.16.92q0,.43-.07,1.25h-.52a8.78,8.78,0,0,0-.07-1.31,2,2,0,0,0-.53-.51,3.39,3.39,0,0,0-1.68-.45,2.35,2.35,0,0,0-2.49,2.48,1.84,1.84,0,0,0,.24,1,1.66,1.66,0,0,0,.87.58,8.07,8.07,0,0,0,1.41.28q1,.13,1.76.28a3,3,0,0,1,1.09.52,2.28,2.28,0,0,1,.58.79,2.7,2.7,0,0,1,.23,1.15,3.54,3.54,0,0,1-1.29,2.71,4.8,4.8,0,0,1-3.34,1.16A6.34,6.34,0,0,1,150.76,250.64Z"/><path class="cls-2" d="M167.55,242.52h-.48q0-1.87-.08-2.59l2.67.08,2,0,2.46,0,2-.06q-.09.88-.12,2.59h-.5l-.06-.75q-.06-.68-.09-.77a.27.27,0,0,0-.07-.13.32.32,0,0,0-.13-.06l-.78-.06-1.06,0h-1q-.08.75-.08,2v4.57q0,1.06,0,2.07a2.49,2.49,0,0,0,.11.88.52.52,0,0,0,.29.21,5.53,5.53,0,0,0,1.13.08v.5q-1.4-.06-2.1-.06l-2.44.06v-.5a5.55,5.55,0,0,0,1.13-.08.47.47,0,0,0,.27-.18,1.84,1.84,0,0,0,.12-.76q0-.16,0-2.22v-4.55q0-.33,0-.72l0-1.32h-1.16a12.94,12.94,0,0,0-1.6.08.34.34,0,0,0-.24.1,2.77,2.77,0,0,0-.16.85Z"/><path class="cls-2" d="M176.84,240.43v-.5l2.39.05,2.2-.05v.5a5.57,5.57,0,0,0-1.12.08.51.51,0,0,0-.28.18,2,2,0,0,0-.12.76q0,.16,0,2.22v1.09q1.54.06,3.75.05,1.69,0,2.71-.05v-1.09q0-1.06,0-2.08a2.47,2.47,0,0,0-.11-.88.53.53,0,0,0-.29-.2,5.57,5.57,0,0,0-1.12-.08v-.5q1.68.05,2.3.05l2.28-.05v.5a5.59,5.59,0,0,0-1.12.08.47.47,0,0,0-.27.18,1.85,1.85,0,0,0-.12.76q0,.16,0,2.22v3.61q0,1.06,0,2.07a2.45,2.45,0,0,0,.11.88.52.52,0,0,0,.29.21,5.49,5.49,0,0,0,1.12.08v.5q-1.51-.05-2.47-.05t-2.12.05v-.5a5.54,5.54,0,0,0,1.13-.08.51.51,0,0,0,.28-.18,1.8,1.8,0,0,0,.12-.76q0-.16,0-2.21v-1.78q-2.19-.05-3.32-.05t-3.14.05v1.78q0,1.06,0,2.06a2.48,2.48,0,0,0,.11.88.52.52,0,0,0,.29.21,5.53,5.53,0,0,0,1.13.08v.5q-1.05-.05-2.17-.05t-2.42.05v-.5a5.49,5.49,0,0,0,1.12-.08.51.51,0,0,0,.28-.18,2,2,0,0,0,.12-.76q0-.16,0-2.22v-3.61q0-1.06,0-2.08a2.46,2.46,0,0,0-.11-.88.53.53,0,0,0-.29-.2A5.63,5.63,0,0,0,176.84,240.43Z"/><path class="cls-2" d="M190,251v-.53a4.1,4.1,0,0,0,.77-.05.68.68,0,0,0,.28-.16,2.51,2.51,0,0,0,.37-.63l1-2.2,2-4.41q.32-.73,1.37-3.23h.5l3.34,7.84q.81,1.91,1.08,2.39a.81.81,0,0,0,.32.36,2.29,2.29,0,0,0,.79.09V251q-1.22-.08-1.71-.08l-2.52.08v-.53a8.52,8.52,0,0,0,1.06-.05.47.47,0,0,0,.25-.11.26.26,0,0,0,.07-.18,1.26,1.26,0,0,0-.11-.45l-1-2.39H193.4l-.85,2a2.35,2.35,0,0,0-.23.79.26.26,0,0,0,.06.18.47.47,0,0,0,.27.14,5.78,5.78,0,0,0,1,.07V251q-1.32-.07-2-.07T190,251Zm3.64-4.38h3.94l-1.95-4.7Z"/><path class="cls-2" d="M201.93,242.52h-.48q0-1.87-.08-2.59L204,240l2,0,2.46,0,2-.06q-.09.88-.12,2.59h-.5l-.06-.75q-.06-.68-.09-.77a.27.27,0,0,0-.07-.13.32.32,0,0,0-.13-.06l-.78-.06-1.06,0h-1q-.08.75-.08,2v4.57q0,1.06,0,2.07a2.49,2.49,0,0,0,.11.88.52.52,0,0,0,.29.21,5.53,5.53,0,0,0,1.13.08v.5q-1.4-.06-2.1-.06l-2.44.06v-.5a5.55,5.55,0,0,0,1.13-.08.47.47,0,0,0,.27-.18,1.84,1.84,0,0,0,.12-.76q0-.16,0-2.22v-4.55q0-.33,0-.72l0-1.32H204a12.94,12.94,0,0,0-1.6.08.34.34,0,0,0-.24.1,2.77,2.77,0,0,0-.16.85Z"/><path class="cls-2" d="M218.52,251.11l-.71-3.26-1.51-6.43a1.89,1.89,0,0,0-.31-.81,2.42,2.42,0,0,0-1-.22v-.47q1.31.05,2,.05t2-.05v.47a4.84,4.84,0,0,0-1.18.12.22.22,0,0,0-.1.22,4.32,4.32,0,0,0,.09.69q.26,1.4.34,1.77l1.23,5.41,1.93-4.8q.76-1.89,1.49-4h.5q.72,2.22,1.29,3.8l1.84,5.09,1.33-4.66q.35-1.25.66-2.6a6.28,6.28,0,0,0,.14-.71.25.25,0,0,0-.14-.24,5.38,5.38,0,0,0-1.25-.11v-.47q1.2.05,1.67.05t1.67-.05v.47a1.73,1.73,0,0,0-.72.11.74.74,0,0,0-.3.37q-.12.27-.66,2.06l-.8,2.63q-.12.39-.49,1.77l-1,3.77h-.8q-.87-2.58-1.34-3.87l-1.78-4.82-1.55,3.86-1,2.55q-.2.52-.35.93l-.46,1.35Z"/><path class="cls-2" d="M235.8,250.52v.5l-2.18-.05-2.41.05v-.5a5.49,5.49,0,0,0,1.12-.08.51.51,0,0,0,.28-.18,2,2,0,0,0,.12-.76q0-.16,0-2.22v-3.61q0-1.06,0-2.08a2.46,2.46,0,0,0-.11-.88.53.53,0,0,0-.29-.2,5.63,5.63,0,0,0-1.13-.08v-.5q1.49.05,2.3.05t2.29-.05v.5a5.58,5.58,0,0,0-1.12.08.51.51,0,0,0-.28.18,2,2,0,0,0-.12.76q0,.16,0,2.22v3.61q0,1.06,0,2.07a2.5,2.5,0,0,0,.11.88.52.52,0,0,0,.29.21A5.54,5.54,0,0,0,235.8,250.52Z"/><path class="cls-2" d="M237.22,251v-.41a2.46,2.46,0,0,0,.61-.36.37.37,0,0,0,.11-.18,4.42,4.42,0,0,0,.09-.94q0-1.07,0-1.27v-4.2q0-1.06,0-2.08a2.43,2.43,0,0,0-.11-.88.53.53,0,0,0-.29-.2,5.62,5.62,0,0,0-1.13-.08v-.5l2.36.05,2.24-.05v.5a5.63,5.63,0,0,0-1.13.08.52.52,0,0,0-.28.18,2,2,0,0,0-.12.76q0,.16,0,2.22v5.25q0,.82,0,1.33.89.05,1.77.05a11.54,11.54,0,0,0,3.09-.28,3.51,3.51,0,0,0,.18-.54l.31-1.3h.52q-.17,1.16-.34,2.73l-.51.08q-.41,0-1.25,0l-4.62-.05Q238,251,237.22,251Z"/><path class="cls-2" d="M247,251v-.41a2.46,2.46,0,0,0,.61-.36.37.37,0,0,0,.11-.18,4.41,4.41,0,0,0,.09-.94q0-1.07,0-1.27v-4.2q0-1.06,0-2.08a2.43,2.43,0,0,0-.11-.88.53.53,0,0,0-.29-.2,5.62,5.62,0,0,0-1.13-.08v-.5l2.36.05,2.24-.05v.5a5.63,5.63,0,0,0-1.13.08.52.52,0,0,0-.28.18,2,2,0,0,0-.12.76q0,.16,0,2.22v5.25q0,.82,0,1.33.89.05,1.77.05a11.54,11.54,0,0,0,3.09-.28,3.52,3.52,0,0,0,.18-.54l.31-1.3h.52q-.17,1.16-.34,2.73l-.51.08q-.41,0-1.25,0l-4.62-.05Q247.77,251,247,251Z"/><path class="cls-2" d="M260.09,242.52h-.48q0-1.87-.08-2.59l2.67.08,2,0,2.46,0,2-.06q-.09.88-.12,2.59H268l-.06-.75c0-.45-.07-.71-.09-.77a.26.26,0,0,0-.07-.13.31.31,0,0,0-.13-.06l-.78-.06-1.06,0h-1q-.08.75-.08,2v4.57q0,1.06,0,2.07a2.5,2.5,0,0,0,.11.88.52.52,0,0,0,.29.21,5.54,5.54,0,0,0,1.13.08v.5q-1.4-.06-2.1-.06l-2.44.06v-.5a5.55,5.55,0,0,0,1.13-.08.47.47,0,0,0,.27-.18,1.85,1.85,0,0,0,.12-.76q0-.16,0-2.22v-4.55q0-.33,0-.72l0-1.32h-1.16a13,13,0,0,0-1.6.08.34.34,0,0,0-.24.1,2.8,2.8,0,0,0-.16.85Z"/><path class="cls-2" d="M268.08,251v-.53a4.11,4.11,0,0,0,.77-.05.67.67,0,0,0,.28-.16,2.5,2.5,0,0,0,.37-.63q.14-.29,1-2.2l2-4.41q.32-.73,1.37-3.23h.5l3.34,7.84q.81,1.91,1.08,2.39a.8.8,0,0,0,.33.36,2.29,2.29,0,0,0,.79.09V251q-1.22-.08-1.71-.08l-2.52.08v-.53a8.52,8.52,0,0,0,1.06-.05.47.47,0,0,0,.25-.11.27.27,0,0,0,.07-.18,1.29,1.29,0,0,0-.11-.45l-1-2.39h-4.52l-.85,2a2.36,2.36,0,0,0-.23.79.26.26,0,0,0,.06.18.47.47,0,0,0,.27.14,5.78,5.78,0,0,0,1,.07V251q-1.32-.07-2-.07C269.23,251,268.68,251,268.08,251Zm3.64-4.38h3.94l-1.95-4.7Z"/><path class="cls-2" d="M285.23,250.52v.5l-2.36-.05-2.21.05v-.5a5.49,5.49,0,0,0,1.12-.08.51.51,0,0,0,.28-.18,2,2,0,0,0,.12-.76q0-.16,0-2.22v-3.61q0-1.06,0-2.08a2.43,2.43,0,0,0-.11-.88.53.53,0,0,0-.29-.2,5.62,5.62,0,0,0-1.13-.08v-.5q1.52.05,2.32.05t2.25-.05v.5a5.54,5.54,0,0,0-1.12.08.47.47,0,0,0-.27.18,1.84,1.84,0,0,0-.12.76q0,.16,0,2.22v1.61a4.79,4.79,0,0,0,1-.8l1-1,1.74-1.76q1-1,1.24-1.31v-.5l1.46,0,1.23,0v.5a5.14,5.14,0,0,0-1,.06,1.55,1.55,0,0,0-.51.23q-.5.37-1.53,1.31l-3.12,2.85,4.69,4.39q1.13,1.06,1.29,1.16a1.35,1.35,0,0,0,.6.1V251l-1,0-1.22,0-1.3-1.26-.8-.77-3.55-3.33-.18.1v1.52q0,1.06,0,2.07a2.46,2.46,0,0,0,.11.88.52.52,0,0,0,.29.21A5.49,5.49,0,0,0,285.23,250.52Z"/><path class="cls-2" d="M292.42,251v-.5a3.2,3.2,0,0,0,1.08-.12.29.29,0,0,0,.16-.15,2.72,2.72,0,0,0,.11-.82q0-1,0-1.78v-4q0-1.06,0-2.08a2.44,2.44,0,0,0-.11-.88.53.53,0,0,0-.29-.2,5.58,5.58,0,0,0-1.13-.08v-.5l2.23,0,2.36,0,2.46,0a11.82,11.82,0,0,1,1.46.09,6.19,6.19,0,0,0-.17.77s-.06.59-.14,1.63H300a8.28,8.28,0,0,0-.1-1.45,3.56,3.56,0,0,0-.95-.24,14.13,14.13,0,0,0-1.75-.11l-.84,0-.93.05q0,.86,0,1.62l0,2.63q.91.05,1.68.05a12.4,12.4,0,0,0,1.59-.09.47.47,0,0,0,.32-.12,1.86,1.86,0,0,0,.13-.64l0-.55h.47v.15l0,1.63,0,1.82H299l0-.53a1.76,1.76,0,0,0-.11-.72.51.51,0,0,0-.34-.2,10.16,10.16,0,0,0-1.73-.09l-1.48,0q0,.78,0,2.32t0,2.2q1.13.09,2.52.09a10.89,10.89,0,0,0,1.41-.06A3.28,3.28,0,0,0,300,250a4.83,4.83,0,0,0,.19-.66c.11-.46.19-.81.23-1H301a21.31,21.31,0,0,0-.2,2.62,11,11,0,0,1-1.63.1l-4.66-.05Z"/><path class="cls-2" d="M305.55,240.62v-.48l1.88-.37a1.47,1.47,0,0,1,.43.21,4.77,4.77,0,0,1,.49.6,19.53,19.53,0,0,1,1.28,2q.73,1.28,1.55,2.93.83-1.27,1.7-2.76l1.67-2.83h1.19v.21q-.43.48-1.58,2.07-.66.92-1.73,2.68a11.5,11.5,0,0,0-.75,1.33,1.43,1.43,0,0,0-.09.46v.6q0,1.06,0,2.07a2.5,2.5,0,0,0,.11.88.52.52,0,0,0,.29.21,5.54,5.54,0,0,0,1.13.08v.5q-1.27-.05-2.2-.05t-2.35.05v-.5a5.49,5.49,0,0,0,1.12-.08.47.47,0,0,0,.27-.18,1.85,1.85,0,0,0,.12-.76q0-.16,0-2.22v-.91q-.16-.35-.32-.63l-.8-1.34-.52-.84q-.61-1-.91-1.42a7.86,7.86,0,0,0-.95-1.16,1.18,1.18,0,0,0-.43-.27A2.24,2.24,0,0,0,305.55,240.62Z"/><path class="cls-2" d="M316.42,245.55a6.79,6.79,0,0,1,.37-2.28,4.91,4.91,0,0,1,1.23-1.88,5.82,5.82,0,0,1,1.95-1.26,6.78,6.78,0,0,1,2.48-.43,7.16,7.16,0,0,1,2.34.36,5.07,5.07,0,0,1,1.73,1,4.88,4.88,0,0,1,1.07,1.31,5,5,0,0,1,.47,1.25,6.47,6.47,0,0,1,.18,1.54,5.91,5.91,0,0,1-1.77,4.38,6.09,6.09,0,0,1-4.46,1.75,6.47,6.47,0,0,1-2.29-.4,4.67,4.67,0,0,1-1.8-1.18,5.23,5.23,0,0,1-1.12-1.91A6.83,6.83,0,0,1,316.42,245.55Zm1.62-.65a7.93,7.93,0,0,0,.15,1.51,7.17,7.17,0,0,0,.38,1.32,4.89,4.89,0,0,0,1,1.57,3.84,3.84,0,0,0,1.35.94,4.38,4.38,0,0,0,1.65.3,3.88,3.88,0,0,0,2.19-.61,3.68,3.68,0,0,0,1.39-1.73,6.72,6.72,0,0,0,.46-2.57,7.62,7.62,0,0,0-.33-2.29,4.75,4.75,0,0,0-.54-1.16,3.69,3.69,0,0,0-2-1.56,4.72,4.72,0,0,0-1.6-.27,4.2,4.2,0,0,0-2.18.55,3.46,3.46,0,0,0-1.41,1.61A5.75,5.75,0,0,0,318,244.9Z"/><path class="cls-2" d="M328.85,240.43v-.5q1.27.05,2.37.05t2.2-.05v.5a5.59,5.59,0,0,0-1.12.08.47.47,0,0,0-.27.18,1.84,1.84,0,0,0-.12.76q0,.16,0,2.22v2.89a7.21,7.21,0,0,0,.21,2.21,2,2,0,0,0,.68.89,2.84,2.84,0,0,0,1,.43,5.34,5.34,0,0,0,1.36.16,5.15,5.15,0,0,0,1.55-.21,2.74,2.74,0,0,0,1-.52,2,2,0,0,0,.51-.69,3.66,3.66,0,0,0,.24-1,15.7,15.7,0,0,0,.07-1.69v-2.4q0-1.06,0-2.08a2.4,2.4,0,0,0-.1-.88.53.53,0,0,0-.29-.2,5.59,5.59,0,0,0-1.12-.08v-.5q1.29.05,1.88.05t1.94-.05v.5a5.58,5.58,0,0,0-1.12.08.51.51,0,0,0-.28.18,2,2,0,0,0-.12.76q0,.16,0,2.22v2.62a9.18,9.18,0,0,1-.27,2.69,3,3,0,0,1-1,1.35,3.85,3.85,0,0,1-1.39.68,7.6,7.6,0,0,1-4,0,3.29,3.29,0,0,1-1.34-.75,2.62,2.62,0,0,1-.63-.95,7.39,7.39,0,0,1-.22-2.15v-3.45q0-1.06,0-2.08a2.43,2.43,0,0,0-.11-.88.53.53,0,0,0-.29-.2A5.62,5.62,0,0,0,328.85,240.43Z"/><path class="cls-2" d="M341.41,240.43v-.5l.93,0,1.5,0,1.38,0,1.41,0a6.49,6.49,0,0,1,2.18.27,2.12,2.12,0,0,1,1.06.86,2.4,2.4,0,0,1,.38,1.3,2.71,2.71,0,0,1-.35,1.3,2.94,2.94,0,0,1-1,1.08,5.3,5.3,0,0,1-1.74.66c.13.18.44.59.92,1.22l2,2.59q.84,1.09,1,1.21a.47.47,0,0,0,.14.08,2,2,0,0,0,.51,0v.5q-.59-.05-1-.05t-1.12.05q-.51-.59-1.71-2.29-.67-.94-1.17-1.58-.82-1-1.57-1.9l.08-.23.62,0a3.09,3.09,0,0,0,2.16-.67,2.29,2.29,0,0,0,.73-1.77,2,2,0,0,0-.63-1.53,2.8,2.8,0,0,0-1.91-.57,5.26,5.26,0,0,0-1.58.24q0,.42,0,.79,0,.11-.05,2.27v3.47q0,1.06,0,2.07a2.46,2.46,0,0,0,.11.88.52.52,0,0,0,.29.21,5.49,5.49,0,0,0,1.12.08v.5q-1.11-.05-2-.05-.75,0-2.52.05v-.5a5.49,5.49,0,0,0,1.12-.08.51.51,0,0,0,.28-.18,2,2,0,0,0,.12-.76q0-.16,0-2.22v-3.61q0-1.06,0-2.08a2.43,2.43,0,0,0-.11-.88.53.53,0,0,0-.29-.2A5.62,5.62,0,0,0,341.41,240.43Z"/><path class="cls-2" d="M356.6,251v-.37a3.31,3.31,0,0,0,.54-.3.43.43,0,0,0,.09-.21,8.46,8.46,0,0,0,.08-1q0-.76,0-1.16v-4.7q0-.76,0-1.79a2.64,2.64,0,0,0-.11-.8.33.33,0,0,0-.17-.15,3.44,3.44,0,0,0-1.08-.12v-.5l.65,0,1.63,0,2.88-.07a5.17,5.17,0,0,1,1.76.23,2,2,0,0,1,1,.76,2.08,2.08,0,0,1,.35,1.18,2.29,2.29,0,0,1-.21,1,2.54,2.54,0,0,1-.55.79,3,3,0,0,1-.78.54,5.81,5.81,0,0,1-1.12.38A7.87,7.87,0,0,1,363,245a2.5,2.5,0,0,1,.94.5,2.15,2.15,0,0,1,.57.81,2.76,2.76,0,0,1,.2,1.06,3.16,3.16,0,0,1-.7,2,4.16,4.16,0,0,1-1.8,1.3,5.48,5.48,0,0,1-1.95.31L358,251Q357.63,251,356.6,251Zm2.23-6.48.78,0a5.84,5.84,0,0,0,1.5-.15,2.18,2.18,0,0,0,.82-.39,1.86,1.86,0,0,0,.48-.66,2.28,2.28,0,0,0,.19-1A1.6,1.6,0,0,0,362,241a3.18,3.18,0,0,0-1.82-.43,6.15,6.15,0,0,0-1.26.13q-.07.65-.07,2Zm0,5.68a5.31,5.31,0,0,0,1.24.14,3.76,3.76,0,0,0,1.67-.32,2.19,2.19,0,0,0,1-1,3.08,3.08,0,0,0,.34-1.47,2.72,2.72,0,0,0-.32-1.38,1.94,1.94,0,0,0-1-.83,5.88,5.88,0,0,0-2.1-.27l-.86,0v3Q358.83,248.57,358.85,250.22Z"/><path class="cls-2" d="M365.87,240.43v-.5l.93,0,1.5,0,1.38,0,1.41,0a6.49,6.49,0,0,1,2.18.27,2.12,2.12,0,0,1,1.06.86,2.4,2.4,0,0,1,.38,1.3,2.71,2.71,0,0,1-.35,1.3,2.94,2.94,0,0,1-1,1.08,5.3,5.3,0,0,1-1.74.66c.13.18.44.59.92,1.22l2,2.59q.84,1.09,1,1.21a.47.47,0,0,0,.14.08,2,2,0,0,0,.51,0v.5q-.59-.05-1-.05T374,251q-.51-.59-1.71-2.29-.66-.94-1.17-1.58-.82-1-1.57-1.9l.08-.23.62,0a3.09,3.09,0,0,0,2.16-.67,2.29,2.29,0,0,0,.73-1.77,2,2,0,0,0-.63-1.53,2.8,2.8,0,0,0-1.91-.57,5.26,5.26,0,0,0-1.58.24q0,.42,0,.79,0,.11-.05,2.27v3.47q0,1.06,0,2.07a2.46,2.46,0,0,0,.11.88.52.52,0,0,0,.29.21,5.49,5.49,0,0,0,1.12.08v.5q-1.11-.05-2-.05-.75,0-2.52.05v-.5a5.49,5.49,0,0,0,1.12-.08.51.51,0,0,0,.28-.18,2,2,0,0,0,.12-.76q0-.16,0-2.22v-3.61q0-1.06,0-2.08a2.44,2.44,0,0,0-.11-.88.53.53,0,0,0-.29-.2A5.62,5.62,0,0,0,365.87,240.43Z"/><path class="cls-2" d="M376.76,251v-.5a3.2,3.2,0,0,0,1.08-.12.29.29,0,0,0,.16-.15,2.72,2.72,0,0,0,.11-.82q0-1,0-1.78v-4q0-1.06,0-2.08a2.43,2.43,0,0,0-.11-.88.53.53,0,0,0-.29-.2,5.58,5.58,0,0,0-1.13-.08v-.5l2.23,0,2.36,0,2.46,0a11.83,11.83,0,0,1,1.46.09,6.19,6.19,0,0,0-.17.77s-.06.59-.14,1.63h-.49a8.28,8.28,0,0,0-.1-1.45,3.56,3.56,0,0,0-.95-.24,14.13,14.13,0,0,0-1.75-.11l-.84,0-.93.05q0,.86,0,1.62l0,2.63q.91.05,1.68.05a12.4,12.4,0,0,0,1.59-.09.47.47,0,0,0,.32-.12,1.85,1.85,0,0,0,.13-.64l0-.55h.47v.15l0,1.63,0,1.82h-.55l0-.53a1.76,1.76,0,0,0-.11-.72.51.51,0,0,0-.34-.2,10.16,10.16,0,0,0-1.73-.09l-1.48,0q0,.78,0,2.32t0,2.2q1.12.09,2.52.09a10.89,10.89,0,0,0,1.41-.06,3.28,3.28,0,0,0,.78-.21,4.83,4.83,0,0,0,.19-.66c.11-.46.19-.81.23-1h.52a21.31,21.31,0,0,0-.2,2.62,11,11,0,0,1-1.63.1L378.8,251Z"/><path class="cls-2" d="M386.25,251v-.53a4.11,4.11,0,0,0,.77-.05.67.67,0,0,0,.28-.16,2.49,2.49,0,0,0,.37-.63q.14-.29,1-2.2l2-4.41q.32-.73,1.37-3.23h.5l3.34,7.84q.81,1.91,1.08,2.39a.8.8,0,0,0,.33.36,2.29,2.29,0,0,0,.79.09V251q-1.22-.08-1.71-.08l-2.52.08v-.53a8.52,8.52,0,0,0,1.06-.05.47.47,0,0,0,.25-.11.27.27,0,0,0,.07-.18,1.29,1.29,0,0,0-.11-.45l-1-2.39h-4.52l-.85,2a2.36,2.36,0,0,0-.23.79.26.26,0,0,0,.06.18.47.47,0,0,0,.27.14,5.78,5.78,0,0,0,1,.07V251q-1.32-.07-2-.07C387.4,251,386.85,251,386.25,251Zm3.64-4.38h3.94l-1.95-4.7Z"/><path class="cls-2" d="M398.15,242.52h-.48q0-1.87-.08-2.59l2.67.08,2,0,2.46,0,2-.06q-.09.88-.12,2.59h-.5l-.06-.75c0-.45-.07-.71-.09-.77a.26.26,0,0,0-.07-.13.31.31,0,0,0-.13-.06l-.78-.06-1.06,0h-1q-.08.75-.08,2v4.57q0,1.06,0,2.07a2.5,2.5,0,0,0,.11.88.52.52,0,0,0,.29.21,5.54,5.54,0,0,0,1.13.08v.5q-1.4-.06-2.1-.06l-2.44.06v-.5a5.55,5.55,0,0,0,1.13-.08.47.47,0,0,0,.27-.18,1.85,1.85,0,0,0,.12-.76q0-.16,0-2.22v-4.55q0-.33,0-.72l0-1.32h-1.16a13,13,0,0,0-1.6.08.34.34,0,0,0-.24.1,2.8,2.8,0,0,0-.16.85Z"/><path class="cls-2" d="M407.44,240.43v-.5l2.39.05,2.2-.05v.5a5.58,5.58,0,0,0-1.12.08.51.51,0,0,0-.28.18,2,2,0,0,0-.12.76q0,.16,0,2.22v1.09q1.54.06,3.75.05,1.7,0,2.71-.05v-1.09q0-1.06,0-2.08a2.48,2.48,0,0,0-.11-.88.53.53,0,0,0-.29-.2,5.56,5.56,0,0,0-1.12-.08v-.5q1.68.05,2.3.05l2.28-.05v.5a5.58,5.58,0,0,0-1.12.08.47.47,0,0,0-.27.18,1.84,1.84,0,0,0-.12.76q0,.16,0,2.22v3.61q0,1.06,0,2.07a2.46,2.46,0,0,0,.11.88.52.52,0,0,0,.29.21,5.49,5.49,0,0,0,1.12.08v.5q-1.51-.05-2.47-.05t-2.12.05v-.5a5.53,5.53,0,0,0,1.13-.08.51.51,0,0,0,.28-.18,1.76,1.76,0,0,0,.12-.76q0-.16,0-2.21v-1.78q-2.19-.05-3.32-.05t-3.14.05v1.78q0,1.06,0,2.06a2.49,2.49,0,0,0,.11.88.52.52,0,0,0,.29.21,5.54,5.54,0,0,0,1.13.08v.5Q411,251,409.86,251t-2.42.05v-.5a5.49,5.49,0,0,0,1.12-.08.51.51,0,0,0,.28-.18,2,2,0,0,0,.12-.76q0-.16,0-2.22v-3.61q0-1.06,0-2.08a2.44,2.44,0,0,0-.11-.88.53.53,0,0,0-.29-.2A5.63,5.63,0,0,0,407.44,240.43Z"/><path class="cls-2" d="M424,251v-.53a4.11,4.11,0,0,0,.77-.05.67.67,0,0,0,.28-.16,2.49,2.49,0,0,0,.37-.63q.14-.29,1-2.2l2-4.41q.32-.73,1.37-3.23h.5l3.34,7.84q.81,1.91,1.08,2.39a.8.8,0,0,0,.33.36,2.29,2.29,0,0,0,.79.09V251q-1.22-.08-1.71-.08l-2.52.08v-.53a8.52,8.52,0,0,0,1.06-.05.47.47,0,0,0,.25-.11.27.27,0,0,0,.07-.18,1.29,1.29,0,0,0-.11-.45l-1-2.39h-4.52l-.85,2a2.36,2.36,0,0,0-.23.79.26.26,0,0,0,.06.18.47.47,0,0,0,.27.14,5.78,5.78,0,0,0,1,.07V251q-1.32-.07-2-.07T424,251Zm3.64-4.38h3.94l-1.95-4.7Z"/><path class="cls-2" d="M438.73,251.11l-.71-3.26-1.51-6.43a1.88,1.88,0,0,0-.31-.81,2.42,2.42,0,0,0-1-.22v-.47q1.31.05,2,.05t2-.05v.47a4.85,4.85,0,0,0-1.18.12.23.23,0,0,0-.1.22,4.32,4.32,0,0,0,.09.69q.26,1.4.34,1.77l1.23,5.41,1.93-4.8q.76-1.89,1.49-4h.5q.72,2.22,1.29,3.8l1.84,5.09,1.33-4.66q.35-1.25.66-2.6a6.2,6.2,0,0,0,.14-.71.25.25,0,0,0-.14-.24,5.37,5.37,0,0,0-1.25-.11v-.47q1.2.05,1.67.05t1.67-.05v.47a1.73,1.73,0,0,0-.72.11.75.75,0,0,0-.3.37q-.12.27-.66,2.06l-.8,2.63q-.12.39-.49,1.77l-1,3.77H446q-.87-2.58-1.34-3.87l-1.78-4.82-1.55,3.86-1,2.55q-.2.52-.35.93l-.46,1.35Z"/><path class="cls-2" d="M449.84,251v-.53a4.11,4.11,0,0,0,.77-.05.67.67,0,0,0,.28-.16,2.5,2.5,0,0,0,.37-.63q.14-.29,1-2.2l2-4.41q.32-.73,1.37-3.23h.5l3.34,7.84q.81,1.91,1.08,2.39a.8.8,0,0,0,.33.36,2.29,2.29,0,0,0,.79.09V251q-1.22-.08-1.7-.08l-2.52.08v-.53a8.52,8.52,0,0,0,1.06-.05.47.47,0,0,0,.25-.11.27.27,0,0,0,.07-.18,1.29,1.29,0,0,0-.11-.45l-1-2.39h-4.52l-.85,2a2.36,2.36,0,0,0-.23.79.26.26,0,0,0,.06.18.47.47,0,0,0,.27.14,5.78,5.78,0,0,0,1,.07V251q-1.32-.07-2-.07T449.84,251Zm3.64-4.38h3.94l-1.95-4.7Z"/><path class="cls-2" d="M460.43,240.62v-.48l1.88-.37a1.46,1.46,0,0,1,.43.21,4.76,4.76,0,0,1,.49.6,19.52,19.52,0,0,1,1.28,2q.73,1.28,1.55,2.93.83-1.27,1.7-2.76l1.67-2.83h1.19v.21q-.43.48-1.58,2.07-.66.92-1.73,2.68a11.5,11.5,0,0,0-.75,1.33,1.43,1.43,0,0,0-.09.46v.6q0,1.06,0,2.07a2.5,2.5,0,0,0,.11.88.52.52,0,0,0,.29.21,5.54,5.54,0,0,0,1.13.08v.5q-1.27-.05-2.2-.05t-2.35.05v-.5a5.49,5.49,0,0,0,1.12-.08.47.47,0,0,0,.27-.18,1.85,1.85,0,0,0,.12-.76q0-.16,0-2.22v-.91q-.16-.35-.32-.63l-.8-1.34-.52-.84q-.61-1-.91-1.42a7.86,7.86,0,0,0-.95-1.16,1.18,1.18,0,0,0-.43-.27A2.24,2.24,0,0,0,460.43,240.62Z"/><line class="cls-3" x1="348.3" y1="227.42" x2="115.5" y2="227.42"/></g></g></svg>