<svg xmlns="http://www.w3.org/2000/svg" viewBox="0 0 289.17 69.78"><defs><style>.cls-1{fill:#25bf9a;}.cls-2{fill:none;stroke:#fff;stroke-miterlimit:10;stroke-width:3px;}.cls-3{fill:#fff;}</style></defs><title>title_landscape</title><g id="图层_2" data-name="图层 2"><g id="图层_1-2" data-name="图层 1"><path class="cls-1" d="M22,15.17V54.61h0s13.42,4.74,13.49,11.58h218.1c.07-6.84,13.49-11.58,13.49-11.58h0V15.17S253.7,10.43,253.64,3.59H35.53C35.47,10.43,22,15.17,22,15.17Z"/><path class="cls-1" d="M275.76,23.79c-4.37-6.84-8.64-8.62-8.64-8.62L247.41,34.89l19.72,19.72s4.27-1.79,8.64-8.62a40.74,40.74,0,0,1,11.08-11.09A40.74,40.74,0,0,1,275.76,23.79Z"/><path class="cls-1" d="M13.41,46C17.78,52.82,22,54.61,22,54.61L41.76,34.89,22,15.17S17.78,17,13.41,23.79A40.74,40.74,0,0,1,2.33,34.89,40.74,40.74,0,0,1,13.41,46Z"/><path class="cls-2" d="M2.33,34.89s6.16,5.19,13.75,5.19,13.75-5.19,13.75-5.19S23.68,29.7,16.08,29.7,2.33,34.89,2.33,34.89Z"/><path class="cls-2" d="M114.62,1.5"/><path class="cls-2" d="M174.55,1.5H114.62c-46.82,0-84.78,33.39-84.78,33.39s38,33.39,84.78,33.39h59.93"/><path class="cls-2" d="M286.84,34.89s-6.16-5.19-13.75-5.19-13.75,5.19-13.75,5.19,6.16,5.19,13.75,5.19S286.84,34.89,286.84,34.89Z"/><path class="cls-2" d="M174.55,68.28"/><path class="cls-2" d="M174.55,68.28c46.82,0,84.78-33.39,84.78-33.39S221.38,1.5,174.55,1.5"/><path class="cls-3" d="M68.35,35.81a.89.89,0,0,1-.83.78c-.08.49-.18,1-.29,1.4h8l-.23.49H67.5a10.53,10.53,0,0,0,8,3.93,10.92,10.92,0,0,0-1.72,3.51c-3.59-.86-5.62-3.61-6.55-7.44h-.16c-1.14,4.42-3.61,6.81-9.65,7.62,3.12-1.56,5.82-3.48,7-7.62H58.32L58.11,38h6.45A16.08,16.08,0,0,0,65,34.8Zm4.06-12.22a.86.86,0,0,1-.88.7,9.73,9.73,0,0,1-2.39,2.52h5.69l-.23.44h-7v3h6.06l-.23.44H67.57V34h7.57l-.26.44H58L57.8,34h7.41V30.74H59.62l-.18-.44h5.77v-3H58.68l-.21-.44h4.71a28.23,28.23,0,0,0-1.46-4.13c1.61.13,3.12.47,3.38,1.61A2.59,2.59,0,0,1,64,26.82h4.63l.52-4.37Z"/><path class="cls-3" d="M77.3,25.54H94.85l-.23.42h-5.8a43,43,0,0,1-2,4.42l1.22.29c0,.55-.39,1-.78,1v14c-.62.7-2.05.7-2.57.7V33.89A24.8,24.8,0,0,1,77,41.3,52.69,52.69,0,0,0,85.57,26H77.5Zm11,6.19c2.65.78,5.3,1.82,6.24,4.21A3.36,3.36,0,0,1,93,40.21,41.12,41.12,0,0,0,88.3,31.73Z"/><path class="cls-3" d="M100.75,42.86c.62.08.73-.36.73-.88V36.46H99.6a18.4,18.4,0,0,1-3.17,9.46c1.14-4.6,1.17-8.89,1.22-13.86V24a3.5,3.5,0,0,1,2.13.88h1.69l2.21-.75-.13,18.41c0,2.39-.65,3-2.83,3.3-.1-1.9-.42-2.52-2.05-3.17ZM99.63,36h1.85V30.8H99.79v.78Q99.79,34.11,99.63,36Zm.16-5.64h1.69V25.31H99.79ZM108,26.17c-.16.55-.39.73-.7.78-.16.91-.34,1.79-.55,2.63h1.56V22.92l3.17.68a1.15,1.15,0,0,1-.83,1v5h3.61l-.21.44h-3.41v6.21h3.43l-.23.42h-3.2l0,7.46h4l-.23.39H104.05l-.21-.39h4.5V36.65h-3.17l-.18-.42h3.35V30h-1.69a26.85,26.85,0,0,1-2.57,6.53A69.89,69.89,0,0,0,105,25.23Z"/><path class="cls-3" d="M116.09,38.75l.83-.26V25.6l2.91.62a1.37,1.37,0,0,1-.65,1.07V37.82l1.46-.44V22.84l3.22.78a1.35,1.35,0,0,1-.78,1V45.43a3.54,3.54,0,0,1-2.44.78V38c-1,1.2-1.92,2.24-2.89,3.38a1.57,1.57,0,0,1-.42,1.12Zm16.38,6.89a10.18,10.18,0,0,1-4-4.11,14.19,14.19,0,0,1-5.23,4.39,25.19,25.19,0,0,0,4.16-6.55,26.21,26.21,0,0,1-1.69-7.23c-.75,1.35-1.56,2.6-2.34,3.8.81-2.7,2.47-8.48,2.63-13.16l3.48,1.2a1.11,1.11,0,0,1-.88.86,20.83,20.83,0,0,1-1.27,4h7l-.23.39h-1.77a26.07,26.07,0,0,1-2.5,10,12.43,12.43,0,0,0,4.63,3.2A23.09,23.09,0,0,0,132.47,45.64Zm-6.55-13.86a22.73,22.73,0,0,0,2.34,5.36,33.75,33.75,0,0,0,1.56-7.93h-2.65C126.8,30.09,126.36,31,125.92,31.78Z"/><path class="cls-3" d="M143.57,44.52a3.32,3.32,0,0,1-2.24-.55V42.37h-2.63l0,2.39a2.56,2.56,0,0,1-2.24.62l0-18.41a4.35,4.35,0,0,1,2.08.78l.05-5.12,3.41.81a1,1,0,0,1-.91.91A17,17,0,0,1,138.89,28h2.42v0l2.21-.94Zm-4.89-10h2.63V28.4h-2.63Zm0,7.46h2.63l0-7h-2.63Zm10.19.7c.7.08,1.22-.16,1.27-1.74l.37-12.9h-3.33a21.13,21.13,0,0,1-3.54,6,42.61,42.61,0,0,0,2.11-11.34l3.46,1a1.05,1.05,0,0,1-1,.94,28.33,28.33,0,0,1-.91,2.91h3.33l2.34-.86-.49,15c-.05,3.41-1.87,4.13-4,4.42-.16-2.05-.83-2.63-3.25-3.59ZM145.57,32c2.76,1.51,3.74,2.81,3.77,4.26,0,1.79-1.2,2.76-2.26,2.65A39.23,39.23,0,0,0,145.57,32Z"/><path class="cls-3" d="M170.09,30.07a38.69,38.69,0,0,0,1,9.75c.36,1.2.57,1.22.94.23l1.17-2.76c-.94,5.9-.31,5.46.13,6.84-.05,2.11-1.77,2.11-2.83.73-2.83-3.67-2.83-10.74-2.83-14.46V25.08h-7.78v4.81c0,6.86-.47,11.88-5,16.38,2.08-5.67,2.6-8.35,2.6-16.12l0-6.37a3.2,3.2,0,0,1,2.42.91h7.9l2.39-.78Zm-6.37,7.18a21.29,21.29,0,0,1-5.2,6.73,48.12,48.12,0,0,0,4.13-9.72A46.94,46.94,0,0,0,160,28.4a25.94,25.94,0,0,1,3.35,3.41,36,36,0,0,0,.81-5.1l3.22,1.46c-.1.6-.42.65-.86.7A53.58,53.58,0,0,1,165,34.15a15.59,15.59,0,0,1,2.52,5.8c.1,1.64-.6,2.94-2.11,2.86C164.94,41.14,164.37,39.22,163.72,37.24Z"/><path class="cls-3" d="M180.7,41.85a.77.77,0,0,1-1,.57,13.56,13.56,0,0,1-5.07,3.72,23.5,23.5,0,0,0,3.43-6Zm-5.82-9.23h7.93c-.23-.86-.49-1.66-.73-2.47,1.59.08,2.63.18,2.83,1.25a1.37,1.37,0,0,1-.44,1.22h8.09l-.23.44H175.06Zm15-1.56a4.09,4.09,0,0,1-2.47-.49v-.47H179.5v.81a5,5,0,0,1-2.44.44V23.57a4.91,4.91,0,0,1,2.44.91h7.93l2.47-.86Zm-8.22,12c.7.08.83-.42.83-1.2v-3H180v.49a3.61,3.61,0,0,1-2.47.62V34A5.26,5.26,0,0,1,180,35h7l2.5-1v5.88a3,3,0,0,1-2.5-.73v-.26h-2.16l.05,4.24c0,2.11-.94,2.83-3.2,3a3.24,3.24,0,0,0-2.44-3.22Zm-2.18-16h7.93V24.87H179.5Zm0,2.6h7.93V27.47H179.5Zm.52,8.79h7V35.4h-7Zm6,2.11c2.6.29,4.94.65,5.36,2.34a2.72,2.72,0,0,1-1.3,2.81A21,21,0,0,0,186,40.57Z"/><path class="cls-3" d="M193.91,39.14H205l-.26.42H194.09Zm18.28-13.29a1.27,1.27,0,0,1-1.27.52,9.58,9.58,0,0,1-3.12,2.11l.94-3.3H197.1c.23,1.85-.16,3.46-.86,4-1.09.86-2.08.05-2.31-1.46a13.92,13.92,0,0,0,2.63-4.78,10.09,10.09,0,0,1,.49,1.82h11.8l.42-1.48Zm-7.49,17c.83.1,1.25-.23,1.38-1.38l.65-6.45h-6.84l-.21,1.25c-1.3.55-2.37-1-2.5-1.38.29-1.64,1.25-5.59,1.72-8.71l3.12,1c-.16.62-.39.86-.86.94l-.39,2.18h9l-.26.42h-8.79L200,34.59h6.81v0l2.7-.75-.94,9.13c-.23,2.6-2,3-4.32,3.12-.05-2.05-.42-2.63-3.43-3.56Z"/><path class="cls-3" d="M222.22,43.38a1.07,1.07,0,0,1-1.27.36,18.72,18.72,0,0,1-7.64,2.7c1.82-1.33,5.15-3.8,6.42-5.62Zm-8.66-3.43h3V27.39a5,5,0,0,1,2.34.94H221l.13-2.39h-6.84l-.23-.42h7.07l.16-2.91,3.12.68a1.19,1.19,0,0,1-.78.88l-.08,1.35H231l-.31.42h-7.2l-.16,2.39h2.57v0l2.37-.81V39.95h3.46l-.31.44H213.8Zm5.3-8.68h7v-2.5h-7Zm0,3h7V31.71h-7Zm0,2.81h7V34.64h-7Zm0,2.91h7V37.48h-7Zm4.37,1.59c4.34,0,6.27.73,7,2.11a2.09,2.09,0,0,1-1.33,2.86A22.88,22.88,0,0,0,223.24,41.53Z"/><path class="cls-1" d="M31.73,3.89S29.88,8.68,26,10.11s-8.42-1-8.42-1,1.85-4.79,5.77-6.22S31.73,3.89,31.73,3.89Z"/><path class="cls-1" d="M30.72,67.49s-4.84,1.72-8.48-.32-4.71-7.06-4.71-7.06,4.84-1.72,8.48.32S30.72,67.49,30.72,67.49Z"/><path class="cls-1" d="M257.9,66.4s1.85-4.79,5.77-6.22,8.42,1,8.42,1-1.85,4.79-5.77,6.22S257.9,66.4,257.9,66.4Z"/><path class="cls-1" d="M258.91,2.79s4.84-1.72,8.48.32,4.71,7.06,4.71,7.06-4.84,1.72-8.48-.32S258.91,2.79,258.91,2.79Z"/></g></g></svg>