<svg xmlns="http://www.w3.org/2000/svg" viewBox="0 0 104.55 62.86"><defs><style>.cls-1{fill:#333;}</style></defs><title>top_menu_landscape_gray</title><g id="图层_2" data-name="图层 2"><g id="图层_1-2" data-name="图层 1"><path class="cls-1" d="M42.34,18c0,6.41.14,18.36,2.66,27,1,3.31,1.58,3.38,2.59.65L50.84,38C48.24,54.36,50,53.14,51.2,57c-.14,5.83-4.9,5.83-7.85,2-7.85-10.15-7.85-29.74-7.85-40V4.18H14V17.5c-.07,19-1.3,32.91-14,45.36,5.76-15.7,7.2-23.11,7.2-44.64L7.13.58a8.86,8.86,0,0,1,6.7,2.52H35.72L42.34.94ZM24.7,37.88A59,59,0,0,1,10.3,56.52,133.37,133.37,0,0,0,21.75,29.59a129.59,129.59,0,0,0-7.49-16.2,71.74,71.74,0,0,1,9.29,9.43A99.47,99.47,0,0,0,25.78,8.71l8.93,4c-.29,1.66-1.15,1.8-2.38,1.94a149.15,149.15,0,0,1-4.1,14.62c4.32,6.7,6.7,12.89,7,16.06.29,4.54-1.66,8.14-5.83,7.92C28.08,48.68,26.5,43.35,24.7,37.88Z"/><path class="cls-1" d="M71.71,50.62A2.13,2.13,0,0,1,69,52.2a37.52,37.52,0,0,1-14,10.3c3.46-4.68,7.34-10.37,9.5-16.56ZM55.58,25.06h22c-.65-2.38-1.37-4.61-2-6.84,4.39.22,7.27.5,7.85,3.46a3.79,3.79,0,0,1-1.22,3.38h22.39l-.65,1.22H56.09ZM97.2,20.74c-1.22.22-5.11,0-6.84-1.37v-1.3h-22v2.23a14,14,0,0,1-6.77,1.22V0A13.61,13.61,0,0,1,68.4,2.52h22L97.2.14ZM74.45,54c1.94.22,2.3-1.15,2.3-3.31V42.34H69.84v1.37c-2.16,1.66-4.54,1.8-6.84,1.73V28.87a14.6,14.6,0,0,1,6.84,2.74H89.28L96.2,28.8V45.08c-1.3.29-5.18.07-6.91-2v-.72h-6l.14,11.74c0,5.83-2.59,7.85-8.86,8.42-.43-4.75-1.94-7.06-6.77-8.93Zm-6-44.28h22V3.6h-22Zm0,7.2h22V10.8h-22Zm1.44,24.34H89.28v-8.5H69.84Zm16.63,5.83c7.2.79,13.68,1.8,14.83,6.48.86,3.74-1.66,6.41-3.6,7.78C94.47,56.09,90.65,50.48,86.48,47.09Z"/></g></g></svg>